<?xml version="1.0" encoding="utf-8"?>
<!-- Generator: Adobe Illustrator 27.6.1, SVG Export Plug-In . SVG Version: 6.00 Build 0)  -->
<svg version="1.1" id="Layer_1" xmlns="http://www.w3.org/2000/svg" xmlns:xlink="http://www.w3.org/1999/xlink" x="0px" y="0px"
	 viewBox="0 0 1063.9 844" style="enable-background:new 0 0 1063.9 844;" xml:space="preserve">
<style type="text/css">
	.st0{opacity:0.85;}
	.st1{fill:#1D1A27;}
	.st2{fill:none;stroke:#FFFFFF;stroke-opacity:0.16;}
	.st3{opacity:0.2;fill:none;stroke:#FFFFFF;stroke-width:2;stroke-linecap:round;enable-background:new    ;}
	.st4{fill:#7BF26F;}
	.st5{fill:#ED5F6E;}
	.st6{fill:#E7ECED;}
	.st7{fill:#6C7F7C;}
	.st8{fill:#D8E0E1;}
	.st9{fill:#B3EBC6;}
	.st10{fill:#4CD17A;}
	.st11{fill:#7FDDA0;}
	.st12{fill:#F0F3F4;}
	.st13{fill:#304C48;}
	.st14{fill:#C1C1C1;}
	.st15{font-family:'Roboto-Medium';}
	.st16{font-size:32.1615px;}
	.st17{fill:#C6C6C6;}
	.st18{fill:#BABABA;}
	.st19{font-size:27.0156px;}
	.st20{fill:#C9C9C9;}
	.st21{font-family:'Roboto-Black';}
	.st22{font-size:46.3125px;}
	.st23{fill:#736D87;}
	.st24{fill:#373345;}
	.st25{fill:#726990;}
</style>
<g>
	<g class="st0">
		<rect class="st1" width="1063.9" height="844"/>
		<rect x="2.3" y="1.7" class="st2" width="1059.2" height="840.5"/>
	</g>
	<line class="st3" x1="114.5" y1="369.4" x2="970.1" y2="367.8"/>
	<line class="st3" x1="109.6" y1="625.4" x2="965.2" y2="623.9"/>
	<line class="st3" x1="109.6" y1="499.3" x2="965.2" y2="497.8"/>
	<g>
		<path class="st4" d="M894.7,497.9c0-42.4,0-84.8,0-127.2c0-0.5,0-0.9,0-1.4c0.1-3.6,0.1-7.3,0.2-10.9c0.1-5.4,3.2-8.4,9.2-8.3
			c5.3,0.1,9.6,2,9.7,7.9c0.2,7.9,0.1,15.8,0.1,23.7c0,36.4,0,72.7,0,109.1c0,2.3,0.3,4.7,0.5,7c0,0.9,0,1.9-0.1,2.8
			c-0.1,1.5-0.4,3-0.4,4.5c0,82.7,0,165.4,0,248.1c0,1.1,0.1,2.1,0.1,3.2c-0.4,0.3-0.7,0.7-1.1,1c-5.8,0-11.7,0-17.5,0
			c-0.1-0.4-0.4-0.7-0.7-1c-0.1-42.4-0.1-84.8-0.2-127.3c0-0.9,0-1.8,0-2.6c0-42,0-84,0-126C894.8,499.7,894.7,498.8,894.7,497.9z"
			/>
		<path class="st4" d="M495.9,498c0.1-32.7,0.2-65.4,0.3-98.1c0-9.4,7.1-13.3,15.6-8.6c4.9,2.6,3.7,7.4,3.8,11.3
			c0.4,16.5,0.1,32.9,0.2,49.4c0.1,15.4,0.3,30.8,0.4,46.1c-0.2,22.6-0.4,45.2-0.4,67.8c0,21.1,0.3,42.2,0.4,63.4
			c-0.1,10.9-0.4,21.8-0.4,32.7c-0.1,29.3-0.2,58.6,0.1,87.9c0.1,6.1-1.9,8-7.9,7.3c-3.5-0.4-7.1-0.3-10.6-0.4c-0.4-0.5-0.7-1-1-1.5
			c-0.1-6-0.2-12-0.2-18c-0.1-36-0.2-72-0.3-108c0-0.9,0-1.7,0-2.6c0-42,0-84,0-126C495.9,499.7,495.9,498.8,495.9,498z"/>
		<path class="st4" d="M365.1,755.4c-0.1-39.2-0.1-78.4-0.2-117.7c0-2.8-0.2-5.5-0.3-8.3c0-0.9,0-1.7,0-2.6c0-42,0-84,0-125.9
			c0-0.9,0-1.7,0-2.6c0.1-24.3,0.2-48.7,0.3-73c0-5.7,4-10.9,9.1-10.1c4.6,0.7,10.3,1.4,10.3,8.4c0,2.4,0.5,5.1,0.5,7.6
			c0.2,22.4,0.3,44.8,0.4,67.2c0,0.8-0.1,1.7-0.1,2.5c-0.1,2.6-0.3,5.1-0.3,7.7c0,48.9-0.1,97.9,0,146.8c0,33.3,0.2,66.7,0.3,100
			c0,0.8,0.3,2.1-0.9,2.1c-6.1,0-12,0.1-18.1,0C365.7,757.7,365.1,757.6,365.1,755.4z"/>
		<path class="st4" d="M759.9,626.5c0-42,0-84,0-126c0-0.9,0-1.8-0.1-2.7c0.1-19.4,0.2-38.9,0.3-58.3c0-7.2,3-11.2,8.4-11.1
			c6.6,0.1,10.6,4.5,10.6,11.7c0.1,19.2,0.2,38.4,0.4,57.6c0,0.9,0,1.8-0.1,2.7c0,42,0,84,0,125.9c0,0.9,0,1.8,0.1,2.7
			c-0.1,20.3-0.3,40.7-0.4,61c-0.1,20.8-0.2,41.5,0.1,62.3c0.1,4.2-1.2,5.7-5.5,5.3c-4.4-0.4-8.9-0.1-13.3-0.2
			c-0.2-0.4-0.3-0.8-0.5-1.3c0-42.4,0-84.8,0-127.2C759.9,628.3,759.9,627.4,759.9,626.5z"/>
		<path class="st5" d="M521.4,498c0.2-11.7,0.4-23.4,0.5-35.1c0.1-5.3,3.7-10.1,8.5-9.7c4.5,0.4,9,0.9,10.1,7.4
			c1.6,8.7,0.4,17.3,0.9,26c0.3,3.8,0.2,7.7,0.3,11.5c0,0.9,0,1.7,0,2.6c0,42,0,84,0,126c0,0.9,0,1.7,0,2.6
			c-0.1,42.4-0.2,84.9-0.2,127.3l0,0c-0.2,0.1-0.4,0.2-0.6,0.2c-18.9,2.1-18.9,2.1-18.9-15.7c0-34.9,0-69.8,0-104.7
			c0-2.3-0.3-4.7-0.4-7c0.2-2.8,0.4-5.5,0.4-8.3c0-37.6,0-75.1,0-112.7C521.8,504.8,521.6,501.4,521.4,498z"/>
		<path class="st4" d="M645.4,629.1c-0.1,34.6-0.2,69.1-0.3,103.7c0,7.9,0,15.8,0,23.7c-0.6,0-0.8,0.2-1,0.6
			c-5.8-0.1-11.6-0.3-17.3-0.4c-0.4-0.5-0.7-1-1-1.5c-0.1-6-0.2-12-0.2-18c-0.1-36-0.2-72-0.3-108c0-0.9,0-1.7,0-2.6
			c0-42,0-84,0-126c0-0.9-0.1-1.7-0.1-2.6c4.4-8.8,13-9.3,20.3-1.3c-0.1,1.3-0.2,2.6-0.2,3.8c0,42.5,0,84.9,0,127.4
			C645.3,628.3,645.3,628.7,645.4,629.1z"/>
		<path class="st5" d="M940.2,629.2c-0.1,2.3-0.4,4.7-0.4,7c0,38.1-0.1,76.3,0.1,114.4c0,4.8-0.8,6.7-6.4,6.6
			c-13.1-0.3-13.1,0-13.1-12.7c0-74.3,0-148.7,0-223c0-5.7,3.8-10.8,8.7-10.3c4.7,0.5,9.7,1.9,10.2,8.3c0.2,2.3,0.6,4.6,0.6,6.9
			c0,31.1,0,62.1,0,93.2c0,2.3,0.2,4.7,0.4,7C940.2,627.5,940.2,628.3,940.2,629.2z"/>
		<path class="st4" d="M255.9,756.3c-6.5,0-13,0.1-19.8,0.2l0,0c0.1-41,0.3-81.9,0.4-122.9c0-1.5-0.2-3-0.3-4.5c0-0.9,0-1.7,0-2.6
			c0.2-28,0.3-56.1,0.6-84.1c0-3.5-0.6-7.4,2.3-10.3c2.8-2.7,5.9-4.3,10.1-2.8c5.2,1.8,6.7,5.9,6.9,10.5c0.3,8.1,0,16.3,0,24.4
			c0.1,20.8,0.1,41.5,0.2,62.3c0,0.9,0,1.7,0,2.6C256.1,671.6,256,714,255.9,756.3L255.9,756.3z"/>
		<path class="st5" d="M410.7,756.4c-6.2,1.4-12.6,0-18.8,0.8c-0.4-0.7-0.6-1.3-1-2c0.1-1.3,0.3-2.5,0.3-3.8c0-40.1,0-80.1,0-120.2
			c0-26.1,0.1-52.3-0.1-78.4c0-4.1,1.5-6.9,5.2-8.6c3.8-1.7,7.1-0.6,10.1,1.7c4,2.9,4.2,7.1,4.2,11.3c0.1,23.1,0.2,46.3,0.3,69.4
			c0,0.9,0,1.7,0,2.6C410.8,671.6,410.8,714,410.7,756.4L410.7,756.4z"/>
		<path class="st5" d="M655.2,755.2c-0.1-42.1-0.1-84.1-0.2-126.2c0.4-0.4,0.4-0.7,0-1c-0.6-6.1,4.5-8.4,8.8-8.7
			c4.1-0.2,9.5,1.3,10,7.2c0.5,0.9,0.8,1.7,1.3,2.6c0,42.5,0,84.9,0,127.4l-0.2-0.3l-0.3,0.1c-0.4,0.5-0.6,0.9-1,1.4
			c-5.8,0.6-11.6,0.5-17.4,0C656,756.9,656.3,755.8,655.2,755.2z"/>
		<path class="st6" d="M969.6,229.2c-0.2,1.4-0.8,2.4-2.5,2.5s-3.6,0.1-5.3,0.1c-281.9,0-563.7,0-845.6,0c-2.5,0-5.1,0.7-7.3-2.5
			C395.8,229.2,682.7,229.2,969.6,229.2L969.6,229.2z"/>
		<path class="st5" d="M281.4,756.2c-0.5,0.1-0.7,0.1-1.3,0.1c-17.6-0.2-18.6,2.1-18.1-15.6c0-25.7,0.1-51.3-0.1-77
			c0-4.6,1.6-8.3,5.7-9.9c3.5-1.4,7.6-0.5,10.3,2.3c3,3.2,3.4,7.5,3.4,11.7c0,29.5,0,59,0,88.6L281.4,756.2z"/>
		<path class="st5" d="M804.9,714.7c0,12.4-0.2,24.8,0.1,37.2c0.1,4.6-1.7,5.9-6.2,5.9c-13.2,0.2-13.2,0.3-13.2-12.2
			c0-23.8,0.2-47.5-0.1-71.3c-0.1-6.2,3-9.1,8.5-10c5.1-0.8,8.5,2.2,10.1,6.7c0.7,2.2,0.8,4.6,0.9,6.9
			C805,690.3,804.9,702.5,804.9,714.7z"/>
		<ellipse class="st4" cx="516.3" cy="165.5" rx="9.9" ry="9.6"/>
		<ellipse class="st5" cx="798.6" cy="165.3" rx="9.9" ry="9.6"/>
		<path class="st7" d="M655.2,755.2c1.3,0.5,0.8,1.7,1,2.6c-1.1,0.1-2.2,0.2-2.5-1.1C653.4,755.7,654.2,755.3,655.2,755.2z"/>
		<path class="st8" d="M913,757.4c0.4-0.3,0.7-0.7,1.1-1c1.2,0.2,2.5-0.4,3.6,0.8C916.1,758.2,914.5,757.6,913,757.4z"/>
		<path class="st9" d="M644.1,757.1c0.2-0.5,0.5-0.7,1-0.6c0.4,0.2,0.7,0.4,1,0.6C645.5,758.1,644.8,757.6,644.1,757.1z"/>
		<path class="st10" d="M625.8,755.2c0.4,0.5,0.7,1,1,1.5c-0.5,0-0.9-0.1-1.3-0.1v-0.1C625.6,756,625.7,755.6,625.8,755.2z"/>
		<path class="st11" d="M645.4,629.1c-0.1-0.4-0.1-0.7,0-1.1c0.4,0.2,0.7,0.4,1,0.6C646.1,628.7,645.8,628.9,645.4,629.1z"/>
		<path class="st7" d="M654.9,628c0.4,0.3,0.4,0.7,0,1c-0.4-0.1-0.6-0.2-1-0.3C654.2,628.5,654.6,628.2,654.9,628z"/>
		<path class="st12" d="M969.6,229.2c0.1-0.2,0.2-0.4,0.3-0.5C969.8,228.8,969.7,229,969.6,229.2L969.6,229.2z"/>
		<path class="st13" d="M674.5,756.4c0.1,0.5,0.2,0.9,0.3,1.4c-0.5,0-0.9,0-1.3,0C673.8,757.3,674.2,756.9,674.5,756.4z"/>
		<path class="st10" d="M496.4,755.2c0.4,0.5,0.7,1,1,1.5c-0.5,0-0.9-0.1-1.3-0.1v-0.1C496.2,756,496.3,755.6,496.4,755.2z"/>
	</g>
	<line class="st3" x1="109.6" y1="757.9" x2="965.2" y2="756.4"/>
	<text transform="matrix(1.0372 0 0 1 543.7798 175.9468)" class="st14 st15 st16">Email Sent</text>
	<text transform="matrix(1.0372 0 0 1 818.043 176.269)" class="st17 st15 st16">Opened</text>
	<text transform="matrix(1.0372 0 0 1 108.8618 355.2837)" class="st18 st15 st19">500k</text>
	<text transform="matrix(1.0372 0 0 1 110.6221 490.9761)" class="st18 st15 st19">200k</text>
	<text transform="matrix(1.0372 0 0 1 110.6216 613.6123)" class="st18 st15 st19">100K</text>
	<text transform="matrix(1.0372 0 0 1 111.7241 741.8486)" class="st18 st15 st19">0K</text>
	<text transform="matrix(1.0372 0 0 1 227.957 793.5449)" class="st18 st15 st19">Jan</text>
	<text transform="matrix(1.0372 0 0 1 359.2007 793.5449)" class="st18 st15 st19">Feb</text>
	<text transform="matrix(1.0372 0 0 1 495.9331 793.5449)" class="st18 st15 st19">Mar</text>
	<text transform="matrix(1.0372 0 0 1 626.1274 793.5449)" class="st18 st15 st19">Apr</text>
	<text transform="matrix(1.0372 0 0 1 759.8447 793.5449)" class="st18 st15 st19">May</text>
	<text transform="matrix(1.0372 0 0 1 894.6953 793.5449)" class="st18 st15 st19">Jun</text>
	<text transform="matrix(1.0372 0 0 1 108.8618 176.2681)" class="st20 st21 st22">Engagement</text>
	<path class="st23" d="M130.1,56.6h173.6c4.5,0,8.2-2.9,8.2-6.5l0,0c0-3.6-3.7-6.5-8.2-6.5H130.1c-4.5,0-8.2,2.9-8.2,6.5l0,0
		C121.9,53.7,125.5,56.6,130.1,56.6z"/>
	<path class="st24" d="M128.7,79.6h74.4c3,0,5.5,2.7,5.5,6l0,0c0,3.3-2.5,6-5.5,6h-74.4c-3,0-5.5-2.7-5.5-6l0,0
		C123.2,82.3,125.7,79.6,128.7,79.6z"/>
	<ellipse class="st25" cx="931.1" cy="62.1" rx="17" ry="18.5"/>
</g>
</svg>
