<svg width="118" height="86" viewBox="0 0 118 86" fill="none" xmlns="http://www.w3.org/2000/svg">
<g clip-path="url(#clip0_30613_48827)">
<path d="M114.148 35.9229H108.628C108.777 35.0568 109.314 34.5721 110.399 34.0227L111.414 33.5056C113.23 32.5749 114.2 31.5214 114.2 29.8022C114.2 28.7229 113.78 27.8697 112.946 27.2557C112.112 26.6417 111.13 26.338 109.979 26.338C109.089 26.3275 108.216 26.5768 107.465 27.0554C106.709 27.5207 106.147 28.1218 105.798 28.8715L107.394 30.4744C108.014 29.2205 108.913 28.6065 110.096 28.6065C111.097 28.6065 111.711 29.1236 111.711 29.841C111.711 30.4421 111.414 30.9398 110.264 31.5214L109.611 31.8381C108.195 32.5556 107.213 33.3764 106.644 34.3071C106.076 35.2378 105.798 36.4076 105.798 37.8231V38.2109H114.148V35.9229Z" fill="#FF492C"/>
<path d="M113.411 40.8477H104.272L99.7026 48.7586H108.842L113.411 56.676L117.981 48.7586L113.411 40.8477Z" fill="#FF492C"/>
<path d="M100.491 54.039C94.6744 54.039 89.9368 49.3015 89.9368 43.4846C89.9368 37.6678 94.6744 32.9302 100.491 32.9302L104.104 25.3748C102.914 25.1382 101.704 25.0191 100.491 25.0193C90.2923 25.0193 82.0259 33.2857 82.0259 43.4846C82.0259 53.6836 90.2923 61.95 100.491 61.95C104.4 61.9573 108.208 60.7164 111.362 58.4082L107.368 51.4796C105.457 53.1303 103.016 54.0387 100.491 54.039Z" fill="#FF492C"/>
</g>
<g clip-path="url(#clip1_30613_48827)">
<path d="M5.88208 62.96L33.1959 76.8589L59.4725 62.96V8.60889H5.88208V62.96Z" fill="white"/>
<path d="M60.0257 8.81641L5.32886 63.9281L33.6799 77.9653L60.0257 64.4813V8.81641Z" fill="#F2F3F2"/>
<path d="M4.08423 26.7259V64.1355L5.05231 64.6196L32.3661 78.5185L33.1959 78.9334L34.0257 78.5185L60.3715 64.6196L61.3395 64.1355V6.81104H4.08423V26.7259ZM5.8821 63.0983V8.60891H59.5417V63.0983L33.1959 76.9972L5.8821 63.0983Z" fill="#DCDEDC"/>
<path d="M32.7119 9.50784C32.9885 9.50784 33.2651 9.50784 33.5417 9.57699L32.7119 11.1674C31.4672 11.0983 30.3608 12.0664 30.2917 13.311C30.2225 14.5557 31.1906 15.6621 32.4353 15.7312H32.7119C33.2651 15.7312 33.8183 15.5238 34.2331 15.1781L35.1321 16.6993C34.4406 17.1834 33.6108 17.46 32.7119 17.46C30.4991 17.5291 28.6321 15.8695 28.5629 13.6568C28.4938 11.444 30.1534 9.57699 32.3661 9.50784H32.7119ZM35.547 12.8961L36.5842 14.6249L35.547 16.2844L34.5789 14.6249H32.5736L33.6108 12.8961H35.547ZM33.8874 12.2738C33.8874 11.9972 33.9566 11.7206 34.0949 11.5132C34.2332 11.3057 34.5097 11.0983 34.7172 10.96L34.8555 10.8908C35.1321 10.7525 35.2012 10.6834 35.2012 10.5451C35.2012 10.4068 34.9938 10.2685 34.8555 10.2685C34.5789 10.2685 34.3714 10.4068 34.2331 10.6834L33.8874 10.3376C33.9566 10.1993 34.0949 10.061 34.2331 9.92274C34.4406 9.78444 34.648 9.78444 34.8555 9.78444C35.0629 9.78444 35.3395 9.85359 35.4778 9.99189C35.6161 10.1302 35.7544 10.3376 35.7544 10.5451C35.7544 10.8908 35.547 11.1674 35.1321 11.3057L34.9246 11.444C34.7172 11.5823 34.5789 11.6515 34.5097 11.8589H35.7544V12.343L33.8874 12.2738ZM32.7119 20.9174L39.281 17.1834V6.81104H26.0736V17.1142L32.7119 20.9174ZM62.6534 45.3961H2.77038L0.557617 50.2366L2.77038 55.077H62.6534L64.797 50.2366L62.6534 45.3961Z" fill="#FF492C"/>
<path d="M13.4816 42.2845C13.4401 42.2845 13.4056 42.2707 13.3779 42.2431C13.3503 42.2108 13.3364 42.1739 13.3364 42.1324V33.7239C13.3364 33.6824 13.3503 33.6455 13.3779 33.6133C13.4056 33.5856 13.4401 33.5718 13.4816 33.5718H14.9407C14.9822 33.5718 15.0167 33.5856 15.0444 33.6133C15.0767 33.6455 15.0928 33.6824 15.0928 33.7239V40.7149C15.0928 40.7564 15.1136 40.7771 15.155 40.7771H19.221C19.2625 40.7771 19.2994 40.7909 19.3316 40.8186C19.3593 40.8509 19.3731 40.8877 19.3731 40.9292V42.1324C19.3731 42.1739 19.3593 42.2108 19.3316 42.2431C19.2994 42.2707 19.2625 42.2845 19.221 42.2845H13.4816ZM26.0045 38.426C26.0552 38.7395 26.0714 39.0922 26.0529 39.484C26.0483 39.5854 25.9953 39.6361 25.8939 39.6361H22.0492C21.9985 39.6361 21.9823 39.6569 22.0008 39.6984C22.0238 39.8643 22.0676 40.0303 22.1322 40.1962C22.3488 40.6572 22.7891 40.8877 23.4529 40.8877C23.9831 40.8831 24.4026 40.6688 24.7114 40.2446C24.7437 40.1939 24.7806 40.1686 24.8221 40.1686C24.8497 40.1686 24.8797 40.1847 24.912 40.217L25.804 41.1021C25.8455 41.1436 25.8662 41.1805 25.8662 41.2127C25.8662 41.2312 25.8501 41.2657 25.8178 41.3165C25.5458 41.653 25.1932 41.9157 24.7598 42.1048C24.3311 42.2892 23.8586 42.3814 23.3423 42.3814C22.6277 42.3814 22.0238 42.22 21.5306 41.8973C21.0373 41.5746 20.6823 41.1228 20.4657 40.542C20.2905 40.1271 20.2029 39.5831 20.2029 38.9101C20.2029 38.4537 20.2651 38.0526 20.3896 37.7069C20.5832 37.1168 20.9175 36.6466 21.3923 36.2962C21.8717 35.9505 22.4387 35.7776 23.0933 35.7776C23.9231 35.7776 24.5893 36.0173 25.0917 36.4968C25.5942 36.9762 25.8985 37.6193 26.0045 38.426ZM23.1072 37.292C22.5816 37.292 22.2359 37.5363 22.0699 38.025C22.0377 38.1356 22.01 38.2693 21.987 38.426C21.987 38.4675 22.0077 38.4883 22.0492 38.4883H24.1997C24.2504 38.4883 24.2666 38.4675 24.2481 38.426C24.2066 38.1863 24.1859 38.0711 24.1859 38.0803C24.1121 37.8313 23.9831 37.6377 23.7987 37.4994C23.6097 37.3611 23.3792 37.292 23.1072 37.292ZM29.6279 35.7845C30.1673 35.7845 30.649 35.879 31.0731 36.0681C31.4972 36.2524 31.8269 36.5083 32.062 36.8356C32.2971 37.1583 32.4146 37.5179 32.4146 37.9143V42.1324C32.4146 42.1739 32.4008 42.2108 32.3731 42.2431C32.3455 42.2707 32.3109 42.2845 32.2694 42.2845H30.8104C30.7689 42.2845 30.7343 42.2707 30.7066 42.2431C30.6744 42.2108 30.6582 42.1739 30.6582 42.1324V41.7244C30.6582 41.7014 30.6513 41.6853 30.6375 41.676C30.6191 41.6668 30.6029 41.6737 30.5891 41.6968C30.2387 42.1532 29.6786 42.3814 28.9088 42.3814C28.2588 42.3814 27.7355 42.2246 27.3391 41.9111C26.938 41.5977 26.7375 41.1321 26.7375 40.5143C26.7375 39.8782 26.9634 39.3826 27.4152 39.0276C27.8623 38.6773 28.5008 38.5021 29.3306 38.5021H30.596C30.6375 38.5021 30.6582 38.4814 30.6582 38.4399V38.1633C30.6582 37.8913 30.5753 37.6769 30.4093 37.5202C30.2433 37.3681 29.9944 37.292 29.6625 37.292C29.4089 37.292 29.1969 37.3381 29.0263 37.4303C28.8558 37.5225 28.7451 37.6516 28.6944 37.8175C28.6714 37.9097 28.6183 37.9512 28.5354 37.942L27.0279 37.7415C26.9265 37.723 26.8804 37.6861 26.8896 37.6308C26.9219 37.2805 27.0602 36.9647 27.3045 36.6835C27.5488 36.4023 27.8738 36.1833 28.2795 36.0266C28.6806 35.8652 29.13 35.7845 29.6279 35.7845ZM29.379 41.0744C29.7339 41.0744 30.0359 40.9799 30.2848 40.7909C30.5338 40.6019 30.6582 40.3576 30.6582 40.0579V39.6085C30.6582 39.567 30.6375 39.5462 30.596 39.5462H29.704C29.3306 39.5462 29.0378 39.6177 28.8258 39.7606C28.6137 39.8989 28.5077 40.0971 28.5077 40.3553C28.5077 40.5812 28.5861 40.7564 28.7428 40.8808C28.8995 41.0099 29.1116 41.0744 29.379 41.0744ZM37.6215 33.7239C37.6215 33.6824 37.6354 33.6455 37.663 33.6133C37.6907 33.5856 37.7253 33.5718 37.7667 33.5718H39.2258C39.2673 33.5718 39.3019 33.5856 39.3295 33.6133C39.3572 33.6455 39.371 33.6824 39.371 33.7239V42.1324C39.371 42.1739 39.3572 42.2108 39.3295 42.2431C39.3019 42.2707 39.2673 42.2845 39.2258 42.2845H37.7667C37.7253 42.2845 37.6907 42.2707 37.663 42.2431C37.6354 42.2108 37.6215 42.1739 37.6215 42.1324V41.7244C37.6215 41.7014 37.6123 41.6876 37.5939 41.6829C37.5754 41.6783 37.5593 41.6829 37.5455 41.6968C37.1951 42.1532 36.718 42.3814 36.1141 42.3814C35.5332 42.3814 35.0331 42.22 34.6136 41.8973C34.1941 41.5746 33.8921 41.1321 33.7077 40.5696C33.5694 40.1363 33.5003 39.6338 33.5003 39.0622C33.5003 38.4721 33.574 37.9581 33.7215 37.5202C33.9151 36.9854 34.2171 36.5636 34.6274 36.2548C35.0377 35.9413 35.5448 35.7845 36.1487 35.7845C36.7479 35.7845 37.2136 35.992 37.5455 36.4069C37.5593 36.4345 37.5754 36.4438 37.5939 36.4345C37.6123 36.4253 37.6215 36.4092 37.6215 36.3861V33.7239ZM37.3588 40.3415C37.5247 40.0372 37.6077 39.6177 37.6077 39.0829C37.6077 38.5298 37.5155 38.0941 37.3311 37.776C37.1421 37.4533 36.8655 37.292 36.5013 37.292C36.1095 37.292 35.8144 37.4533 35.6162 37.776C35.4088 38.1033 35.305 38.5436 35.305 39.0968C35.305 39.5946 35.3926 40.0095 35.5678 40.3415C35.7753 40.701 36.0818 40.8808 36.4875 40.8808C36.8609 40.8808 37.1513 40.701 37.3588 40.3415ZM46.355 38.426C46.4058 38.7395 46.4219 39.0922 46.4034 39.484C46.3988 39.5854 46.3458 39.6361 46.2444 39.6361H42.3997C42.349 39.6361 42.3329 39.6569 42.3513 39.6984C42.3744 39.8643 42.4182 40.0303 42.4827 40.1962C42.6994 40.6572 43.1396 40.8877 43.8034 40.8877C44.3336 40.8831 44.7531 40.6688 45.062 40.2446C45.0942 40.1939 45.1311 40.1686 45.1726 40.1686C45.2003 40.1686 45.2302 40.1847 45.2625 40.217L46.1545 41.1021C46.196 41.1436 46.2167 41.1805 46.2167 41.2127C46.2167 41.2312 46.2006 41.2657 46.1683 41.3165C45.8964 41.653 45.5437 41.9157 45.1104 42.1048C44.6816 42.2892 44.2091 42.3814 43.6928 42.3814C42.9783 42.3814 42.3744 42.22 41.8811 41.8973C41.3878 41.5746 41.0329 41.1228 40.8162 40.542C40.641 40.1271 40.5534 39.5831 40.5534 38.9101C40.5534 38.4537 40.6157 38.0526 40.7401 37.7069C40.9338 37.1168 41.268 36.6466 41.7428 36.2962C42.2222 35.9505 42.7893 35.7776 43.4439 35.7776C44.2737 35.7776 44.9398 36.0173 45.4423 36.4968C45.9448 36.9762 46.249 37.6193 46.355 38.426ZM43.4577 37.292C42.9322 37.292 42.5864 37.5363 42.4205 38.025C42.3882 38.1356 42.3605 38.2693 42.3375 38.426C42.3375 38.4675 42.3582 38.4883 42.3997 38.4883H44.5503C44.601 38.4883 44.6171 38.4675 44.5987 38.426C44.5572 38.1863 44.5364 38.0711 44.5364 38.0803C44.4627 37.8313 44.3336 37.6377 44.1492 37.4994C43.9602 37.3611 43.7297 37.292 43.4577 37.292ZM50.6769 35.7984C50.9765 35.7984 51.2116 35.856 51.3822 35.9712C51.4513 36.0081 51.4767 36.0704 51.4582 36.1579L51.1955 37.5824C51.1909 37.6792 51.1332 37.7069 51.0226 37.6654C50.8981 37.6239 50.7529 37.6032 50.587 37.6032C50.5224 37.6032 50.4325 37.6124 50.3173 37.6308C50.0176 37.6539 49.7641 37.7622 49.5566 37.9558C49.3492 38.154 49.2455 38.4145 49.2455 38.7372V42.1324C49.2455 42.1739 49.2316 42.2108 49.204 42.2431C49.1717 42.2707 49.1348 42.2845 49.0933 42.2845H47.6412C47.5997 42.2845 47.5628 42.2707 47.5306 42.2431C47.5029 42.2108 47.4891 42.1739 47.4891 42.1324V36.0335C47.4891 35.992 47.5029 35.9574 47.5306 35.9298C47.5628 35.9021 47.5997 35.8883 47.6412 35.8883H49.0933C49.1348 35.8883 49.1717 35.9021 49.204 35.9298C49.2316 35.9574 49.2455 35.992 49.2455 36.0335V36.5106C49.2455 36.5337 49.2524 36.5498 49.2662 36.559C49.2847 36.5682 49.2985 36.5636 49.3077 36.5452C49.6488 36.0473 50.1052 35.7984 50.6769 35.7984Z" fill="#252530"/>
<path d="M21.8554 52.9334C21.8047 52.9334 21.7724 52.9104 21.7586 52.8643L20.5001 48.1829L20.4932 48.1552C20.4932 48.1138 20.5185 48.093 20.5692 48.093H21.2469C21.2976 48.093 21.3299 48.1161 21.3437 48.1622L22.132 51.3154C22.1366 51.3292 22.1435 51.3361 22.1527 51.3361C22.162 51.3361 22.1689 51.3292 22.1735 51.3154L22.9272 48.1622C22.941 48.1161 22.971 48.093 23.0171 48.093H23.6809C23.7316 48.093 23.7639 48.1161 23.7777 48.1622L24.5799 51.3223C24.5845 51.3361 24.5914 51.343 24.6006 51.343C24.6098 51.343 24.6167 51.3361 24.6214 51.3223L25.3958 48.1622C25.4097 48.1161 25.4419 48.093 25.4926 48.093H26.1357C26.2003 48.093 26.2256 48.123 26.2118 48.1829L25.0155 52.8643C25.0017 52.9104 24.9694 52.9334 24.9187 52.9334H24.2756C24.2249 52.9334 24.1926 52.9104 24.1788 52.8643L23.3698 49.5659C23.3651 49.5521 23.3582 49.5428 23.349 49.5382C23.3398 49.5382 23.3329 49.5474 23.3283 49.5659L22.5538 52.8643C22.54 52.9104 22.51 52.9334 22.4639 52.9334H21.8554ZM26.9793 52.9334C26.9563 52.9334 26.9355 52.9242 26.9171 52.9058C26.9033 52.892 26.8964 52.8735 26.8964 52.8505V48.176C26.8964 48.1529 26.9033 48.1345 26.9171 48.1207C26.9355 48.1022 26.9563 48.093 26.9793 48.093H27.6155C27.6386 48.093 27.657 48.1022 27.6708 48.1207C27.6893 48.1345 27.6985 48.1529 27.6985 48.176V52.8505C27.6985 52.8735 27.6893 52.892 27.6708 52.9058C27.657 52.9242 27.6386 52.9334 27.6155 52.9334H26.9793ZM31.5224 48.176C31.5224 48.1529 31.5293 48.1345 31.5432 48.1207C31.5616 48.1022 31.5823 48.093 31.6054 48.093H32.2416C32.2646 48.093 32.2831 48.1022 32.2969 48.1207C32.3153 48.1345 32.3245 48.1529 32.3245 48.176V52.8505C32.3245 52.8735 32.3153 52.892 32.2969 52.9058C32.2831 52.9242 32.2646 52.9334 32.2416 52.9334H31.6261C31.58 52.9334 31.5478 52.915 31.5293 52.8781L29.5378 49.6143C29.5286 49.6005 29.5194 49.5935 29.5102 49.5935C29.501 49.5982 29.4964 49.6097 29.4964 49.6281L29.5102 52.8505C29.5102 52.8735 29.501 52.892 29.4825 52.9058C29.4687 52.9242 29.4503 52.9334 29.4272 52.9334H28.791C28.768 52.9334 28.7472 52.9242 28.7288 52.9058C28.715 52.892 28.7081 52.8735 28.7081 52.8505V48.176C28.7081 48.1529 28.715 48.1345 28.7288 48.1207C28.7472 48.1022 28.768 48.093 28.791 48.093H29.4065C29.4526 48.093 29.4848 48.1115 29.5033 48.1483L31.4878 51.4122C31.4971 51.426 31.5063 51.4306 31.5155 51.426C31.5247 51.426 31.5293 51.4168 31.5293 51.3983L31.5224 48.176ZM36.515 48.093C36.538 48.093 36.5565 48.1022 36.5703 48.1207C36.5887 48.1345 36.598 48.1529 36.598 48.176V48.7084C36.598 48.7315 36.5887 48.7499 36.5703 48.7638C36.5565 48.7822 36.538 48.7914 36.515 48.7914H35.2426C35.2196 48.7914 35.2081 48.8029 35.2081 48.826V52.8505C35.2081 52.8735 35.2011 52.892 35.1873 52.9058C35.1689 52.9242 35.1481 52.9334 35.1251 52.9334H34.4889C34.4659 52.9334 34.4474 52.9242 34.4336 52.9058C34.4151 52.892 34.4059 52.8735 34.4059 52.8505V48.826C34.4059 48.8029 34.3944 48.7914 34.3714 48.7914H33.1474C33.1244 48.7914 33.1036 48.7822 33.0852 48.7638C33.0714 48.7499 33.0644 48.7315 33.0644 48.7084V48.176C33.0644 48.1529 33.0714 48.1345 33.0852 48.1207C33.1036 48.1022 33.1244 48.093 33.1474 48.093H36.515ZM40.6155 48.7015C40.6155 48.7246 40.6063 48.743 40.5878 48.7568C40.574 48.7753 40.5556 48.7845 40.5325 48.7845H38.1745C38.1515 48.7845 38.14 48.796 38.14 48.8191V50.1122C38.14 50.1352 38.1515 50.1467 38.1745 50.1467H39.7581C39.7811 50.1467 39.8019 50.1537 39.8203 50.1675C39.8341 50.1859 39.841 50.2067 39.841 50.2297V50.7553C39.841 50.7783 39.8341 50.799 39.8203 50.8175C39.8019 50.8313 39.7811 50.8382 39.7581 50.8382H38.1745C38.1515 50.8382 38.14 50.8498 38.14 50.8728V52.2074C38.14 52.2304 38.1515 52.242 38.1745 52.242H40.5325C40.5556 52.242 40.574 52.2512 40.5878 52.2696C40.6063 52.2834 40.6155 52.3019 40.6155 52.3249V52.8505C40.6155 52.8735 40.6063 52.892 40.5878 52.9058C40.574 52.9242 40.5556 52.9334 40.5325 52.9334H37.4208C37.3978 52.9334 37.377 52.9242 37.3586 52.9058C37.3448 52.892 37.3378 52.8735 37.3378 52.8505V48.176C37.3378 48.1529 37.3448 48.1345 37.3586 48.1207C37.377 48.1022 37.3978 48.093 37.4208 48.093H40.5325C40.5556 48.093 40.574 48.1022 40.5878 48.1207C40.6063 48.1345 40.6155 48.1529 40.6155 48.176V48.7015ZM44.149 52.9334C44.1029 52.9334 44.0706 52.9127 44.0522 52.8712L43.1394 50.8797C43.1302 50.8613 43.1164 50.8521 43.0979 50.8521H42.2682C42.2451 50.8521 42.2336 50.8636 42.2336 50.8866V52.8505C42.2336 52.8735 42.2244 52.892 42.2059 52.9058C42.1921 52.9242 42.1737 52.9334 42.1506 52.9334H41.5144C41.4914 52.9334 41.4706 52.9242 41.4522 52.9058C41.4384 52.892 41.4315 52.8735 41.4315 52.8505V48.176C41.4315 48.1529 41.4384 48.1345 41.4522 48.1207C41.4706 48.1022 41.4914 48.093 41.5144 48.093H43.416C43.6972 48.093 43.9462 48.1506 44.1628 48.2659C44.3795 48.3857 44.5478 48.5517 44.6676 48.7638C44.7875 48.9804 44.8474 49.2271 44.8474 49.5037C44.8474 49.8217 44.7644 50.0914 44.5985 50.3127C44.4371 50.5386 44.2112 50.6953 43.9208 50.7829C43.9116 50.7829 43.9047 50.7875 43.9001 50.7967C43.8955 50.806 43.8955 50.8152 43.9001 50.8244L44.8751 52.8366C44.8843 52.8551 44.8889 52.8689 44.8889 52.8781C44.8889 52.915 44.8636 52.9334 44.8128 52.9334H44.149ZM42.2682 48.7845C42.2451 48.7845 42.2336 48.796 42.2336 48.8191V50.1951C42.2336 50.2182 42.2451 50.2297 42.2682 50.2297H43.3054C43.5267 50.2297 43.7065 50.1629 43.8448 50.0292C43.9784 49.9001 44.0453 49.7272 44.0453 49.5106C44.0453 49.2939 43.9784 49.1187 43.8448 48.985C43.7065 48.8514 43.5267 48.7845 43.3054 48.7845H42.2682Z" fill="white"/>
<path d="M23.8123 65.4218C23.7985 65.4356 23.7939 65.4494 23.7985 65.4633C23.8077 65.4771 23.8215 65.484 23.84 65.484H26.5575C26.5898 65.484 26.6175 65.4955 26.6405 65.5186C26.6682 65.5416 26.682 65.5693 26.682 65.6016V66.5766C26.682 66.6088 26.6682 66.6365 26.6405 66.6596C26.6175 66.6826 26.5898 66.6941 26.5575 66.6941H22.049C22.0121 66.6941 21.9822 66.6826 21.9591 66.6596C21.9361 66.6365 21.9245 66.6088 21.9245 66.5766V65.65C21.9245 65.59 21.9453 65.5393 21.9868 65.4978C22.3141 65.1798 22.6483 64.8317 22.9894 64.4537C23.3306 64.0757 23.5449 63.8406 23.6325 63.7484C23.8169 63.5271 24.0059 63.315 24.1995 63.1122C24.8081 62.4392 25.1123 61.939 25.1123 61.6117C25.1123 61.3766 25.0293 61.183 24.8634 61.0308C24.6974 60.8833 24.4808 60.8096 24.2134 60.8096C23.946 60.8096 23.7293 60.8833 23.5634 61.0308C23.3928 61.183 23.3075 61.3835 23.3075 61.6324V61.8814C23.3075 61.9136 23.296 61.9413 23.273 61.9643C23.2499 61.9874 23.2222 61.9989 23.19 61.9989H22.0075C21.9753 61.9989 21.9476 61.9874 21.9245 61.9643C21.8969 61.9413 21.8831 61.9136 21.8831 61.8814V61.4111C21.9061 61.0516 22.0214 60.7312 22.2288 60.45C22.4362 60.1734 22.7105 59.9613 23.0517 59.8138C23.3974 59.6663 23.7847 59.5925 24.2134 59.5925C24.6882 59.5925 25.1008 59.6824 25.4511 59.8622C25.8015 60.0374 26.0712 60.2748 26.2602 60.5744C26.4538 60.8787 26.5506 61.2129 26.5506 61.5771C26.5506 61.8583 26.4792 62.1464 26.3362 62.4415C26.198 62.7365 25.9882 63.0546 25.707 63.3957C25.4995 63.6539 25.276 63.912 25.0362 64.1702C24.7965 64.4237 24.4393 64.7902 23.9644 65.2697L23.8123 65.4218ZM29.9389 66.8048C29.2013 66.8048 28.6205 66.5996 28.1964 66.1893C27.7676 65.7791 27.5533 65.2189 27.5533 64.509V61.8606C27.5533 61.1645 27.7676 60.6136 28.1964 60.208C28.6205 59.7977 29.2013 59.5925 29.9389 59.5925C30.6719 59.5925 31.255 59.7977 31.6884 60.208C32.1171 60.6136 32.3315 61.1645 32.3315 61.8606V64.509C32.3315 65.2189 32.1171 65.7791 31.6884 66.1893C31.255 66.5996 30.6719 66.8048 29.9389 66.8048ZM29.9389 65.5947C30.2386 65.5947 30.476 65.5025 30.6511 65.3181C30.8309 65.1337 30.9208 64.887 30.9208 64.5782V61.8191C30.9208 61.5149 30.8309 61.2705 30.6511 61.0861C30.476 60.9018 30.2386 60.8096 29.9389 60.8096C29.6439 60.8096 29.4088 60.9018 29.2336 61.0861C29.0538 61.2705 28.9639 61.5149 28.9639 61.8191V64.5782C28.9639 64.887 29.0538 65.1337 29.2336 65.3181C29.4088 65.5025 29.6439 65.5947 29.9389 65.5947ZM35.1389 65.4218C35.1251 65.4356 35.1228 65.4494 35.132 65.4633C35.1366 65.4771 35.1504 65.484 35.1735 65.484H37.891C37.9233 65.484 37.951 65.4955 37.974 65.5186C37.9971 65.5416 38.0086 65.5693 38.0086 65.6016V66.5766C38.0086 66.6088 37.9971 66.6365 37.974 66.6596C37.951 66.6826 37.9233 66.6941 37.891 66.6941H33.3756C33.3433 66.6941 33.3157 66.6826 33.2926 66.6596C33.2696 66.6365 33.2581 66.6088 33.2581 66.5766V65.65C33.2581 65.59 33.2765 65.5393 33.3134 65.4978C33.6453 65.1798 33.9795 64.8317 34.316 64.4537C34.6572 64.0757 34.8715 63.8406 34.9591 63.7484C35.1481 63.5271 35.3394 63.315 35.5331 63.1122C36.1416 62.4392 36.4458 61.939 36.4458 61.6117C36.4458 61.3766 36.3628 61.183 36.1969 61.0308C36.0263 60.8833 35.8073 60.8096 35.54 60.8096C35.2726 60.8096 35.0559 60.8833 34.89 61.0308C34.724 61.183 34.641 61.3835 34.641 61.6324V61.8814C34.641 61.9136 34.6295 61.9413 34.6065 61.9643C34.5834 61.9874 34.5534 61.9989 34.5166 61.9989H33.3341C33.3019 61.9989 33.2742 61.9874 33.2511 61.9643C33.2281 61.9413 33.2166 61.9136 33.2166 61.8814V61.4111C33.235 61.0516 33.348 60.7312 33.5554 60.45C33.7628 60.1734 34.0394 59.9613 34.3852 59.8138C34.7309 59.6663 35.1159 59.5925 35.54 59.5925C36.0148 59.5925 36.4274 59.6824 36.7777 59.8622C37.1327 60.0374 37.4047 60.2748 37.5937 60.5744C37.7827 60.8787 37.8772 61.2129 37.8772 61.5771C37.8772 61.8583 37.8081 62.1464 37.6698 62.4415C37.5269 62.7365 37.3148 63.0546 37.0336 63.3957C36.8261 63.6539 36.6026 63.912 36.3628 64.1702C36.1231 64.4237 35.7659 64.7902 35.291 65.2697L35.1389 65.4218ZM43.0634 63.3473C43.1971 63.6516 43.2639 64.0042 43.2639 64.4053C43.2639 64.7695 43.204 65.1037 43.0841 65.408C42.9228 65.8367 42.6531 66.1709 42.2751 66.4106C41.8971 66.6549 41.4499 66.7771 40.9336 66.7771C40.4265 66.7771 39.9816 66.6503 39.599 66.3968C39.2164 66.1386 38.9398 65.7929 38.7692 65.3596C38.677 65.1014 38.624 64.8202 38.6102 64.5159C38.6102 64.4376 38.6494 64.3984 38.7277 64.3984H39.9171C39.9955 64.3984 40.0347 64.4376 40.0347 64.5159C40.0623 64.7372 40.0992 64.9009 40.1453 65.0069C40.2052 65.1821 40.3043 65.3181 40.4426 65.4149C40.5763 65.5117 40.7377 65.5601 40.9267 65.5601C41.3001 65.5601 41.5582 65.3964 41.7011 65.0691C41.7933 64.8709 41.8394 64.6381 41.8394 64.3707C41.8394 64.0526 41.7887 63.7945 41.6873 63.5963C41.5352 63.2828 41.2793 63.126 40.9198 63.126C40.846 63.126 40.7676 63.1468 40.6847 63.1883C40.6063 63.2344 40.5095 63.2966 40.3942 63.375C40.3666 63.3934 40.3412 63.4026 40.3182 63.4026C40.2767 63.4026 40.2467 63.3842 40.2283 63.3473L39.6336 62.5106C39.6198 62.4922 39.6128 62.4691 39.6128 62.4415C39.6128 62.4 39.6267 62.3677 39.6543 62.3447L41.2448 60.9478C41.2586 60.934 41.2655 60.9202 41.2655 60.9064C41.2609 60.8925 41.2494 60.8856 41.2309 60.8856H38.873C38.8407 60.8856 38.8107 60.8741 38.7831 60.851C38.76 60.828 38.7485 60.8003 38.7485 60.7681V59.7931C38.7485 59.7608 38.76 59.7331 38.7831 59.7101C38.8107 59.687 38.8407 59.6755 38.873 59.6755H43.0495C43.0864 59.6755 43.1164 59.687 43.1394 59.7101C43.1625 59.7331 43.174 59.7608 43.174 59.7931V60.8994C43.174 60.9502 43.151 61.0009 43.1049 61.0516L41.791 62.2548C41.7772 62.2686 41.7726 62.2801 41.7772 62.2893C41.7772 62.3032 41.791 62.3101 41.8187 62.3101C42.3995 62.4253 42.8144 62.7711 43.0634 63.3473Z" fill="#252530"/>
</g>
<defs>
<clipPath id="clip0_30613_48827">
<rect width="36" height="36.9695" fill="white" transform="translate(82 25)"/>
</clipPath>
<clipPath id="clip1_30613_48827">
<rect width="65" height="85" fill="white" transform="translate(0.281006 0.795166)"/>
</clipPath>
</defs>
</svg>
