<?xml version="1.0" encoding="UTF-8"?>
<svg version="1.1" xmlns="http://www.w3.org/2000/svg" width="136" height="70">
<path d="M0 0 C0.91587891 -0.03738281 1.83175781 -0.07476563 2.77539062 -0.11328125 C3.66033203 -0.12488281 4.54527344 -0.13648437 5.45703125 -0.1484375 C6.26760986 -0.16825684 7.07818848 -0.18807617 7.91333008 -0.20849609 C11.30467243 0.66163898 12.27686761 2.51034769 14.1875 5.375 C14.68870544 8.18249512 14.68870544 8.18249512 14.68920898 11.27929688 C14.69858994 12.44400513 14.70797089 13.60871338 14.71763611 14.80871582 C14.70640213 16.0577771 14.69516815 17.30683838 14.68359375 18.59375 C14.68504898 19.88438354 14.68650421 21.17501709 14.68800354 22.50476074 C14.68938516 25.23173509 14.67687054 27.95818197 14.65405273 30.68505859 C14.6256678 34.17213261 14.62840809 37.65833084 14.64114285 41.14546967 C14.6497891 44.4824874 14.63464684 47.81924702 14.62109375 51.15625 C14.62402939 52.40531128 14.62696503 53.65437256 14.62998962 54.94128418 C14.61730545 56.10599243 14.60462128 57.27070068 14.59155273 58.47070312 C14.58614975 59.49264771 14.58074677 60.51459229 14.57518005 61.56750488 C14.12146343 64.85322256 13.18376756 66.74074851 11.1875 69.375 C7.52899645 70.59450118 4.12346431 70.59753359 0.3125 70.625 C-0.39519531 70.645625 -1.10289063 70.66625 -1.83203125 70.6875 C-6.34125288 70.72108824 -9.28135441 70.24825154 -12.8125 67.375 C-13.85126206 64.25871382 -13.95149907 62.05910923 -13.97363281 58.78955078 C-13.98804413 57.07229294 -13.98804413 57.07229294 -14.00274658 55.32034302 C-14.00699646 54.08283295 -14.01124634 52.84532288 -14.015625 51.5703125 C-14.02417511 49.66341141 -14.02417511 49.66341141 -14.03289795 47.71798706 C-14.04235134 45.02631042 -14.04924656 42.33474537 -14.05273438 39.64306641 C-14.05821719 36.20087201 -14.08224499 32.75907355 -14.11070633 29.31700325 C-14.13385463 26.02646977 -14.1357837 22.73591601 -14.140625 19.4453125 C-14.1591452 17.59512009 -14.1591452 17.59512009 -14.17803955 15.70755005 C-14.17503845 14.55640717 -14.17203735 13.40526428 -14.16894531 12.21923828 C-14.17259094 11.20902618 -14.17623657 10.19881409 -14.17999268 9.1579895 C-12.94108696 -0.22413381 -7.86067743 0.12017714 0 0 Z " fill="#ff4895" transform="translate(121.8125,-0.375)"/>
<path d="M0 0 C0.82628906 -0.00515625 1.65257812 -0.0103125 2.50390625 -0.015625 C3.78587891 0.00757813 3.78587891 0.00757813 5.09375 0.03125 C5.94839844 0.01578125 6.80304687 0.0003125 7.68359375 -0.015625 C8.92302734 -0.00789062 8.92302734 -0.00789062 10.1875 0 C10.93708984 0.00451172 11.68667969 0.00902344 12.45898438 0.01367188 C15.47573993 0.74509019 16.62574851 2.16573791 18.59375 4.53125 C19.1084137 6.91477966 19.1084137 6.91477966 19.12719727 9.58764648 C19.1430336 10.59226425 19.15886993 11.59688202 19.17518616 12.63194275 C19.16774635 14.25079124 19.16774635 14.25079124 19.16015625 15.90234375 C19.16945412 17.57406395 19.16945412 17.57406395 19.17893982 19.27955627 C19.1860414 21.63566209 19.18285817 23.99181806 19.17016602 26.34790039 C19.15631332 29.95227521 19.19035427 33.55404813 19.22851562 37.15820312 C19.22946693 39.4479173 19.22760739 41.73763473 19.22265625 44.02734375 C19.23591446 45.10455185 19.24917267 46.18175995 19.26283264 47.29161072 C19.1703285 54.7297388 19.1703285 54.7297388 16.30639648 58.7109375 C13.73015253 60.43971753 12.59380815 61.16351607 9.5625 61.16015625 C8.83417969 61.16208984 8.10585938 61.16402344 7.35546875 61.16601562 C6.60910156 61.14216797 5.86273438 61.11832031 5.09375 61.09375 C4.34738281 61.10470703 3.60101563 61.11566406 2.83203125 61.12695312 C-0.72133162 61.07978459 -2.85784497 60.79585259 -6.11889648 59.22241211 C-9.78618193 54.90770536 -9.10100368 50.39051798 -9.03515625 44.90625 C-9.03756821 43.76720215 -9.03998016 42.6281543 -9.04246521 41.45458984 C-9.04148603 39.04716509 -9.02807578 36.63971803 -9.00317383 34.23242188 C-8.96887599 30.54479581 -8.98251054 26.85956641 -9.00195312 23.171875 C-8.99505465 20.83332312 -8.98538227 18.49477743 -8.97265625 16.15625 C-8.98009605 14.49988525 -8.98009605 14.49988525 -8.98768616 12.81005859 C-8.97184982 11.78219238 -8.95601349 10.75432617 -8.93969727 9.6953125 C-8.93349869 8.79248535 -8.92730011 7.8896582 -8.9209137 6.95947266 C-7.9013688 2.14918191 -4.73922549 0.028525 0 0 Z " fill="#ff4895" transform="translate(44.40625,9.46875)"/>
<path d="M0 0 C1.19786133 -0.03577148 1.19786133 -0.03577148 2.41992188 -0.07226562 C3.19787109 -0.07033203 3.97582031 -0.06839844 4.77734375 -0.06640625 C5.83103149 -0.0674939 5.83103149 -0.0674939 6.90600586 -0.06860352 C10.3838628 0.9492002 11.87169517 2.72478083 14.0625 5.5625 C14.56311116 8.35534352 14.76668481 10.52877049 14.7265625 13.3125 C14.73134613 14.04823242 14.73612976 14.78396484 14.74105835 15.54199219 C14.7444488 17.09181873 14.73530592 18.64171761 14.71435547 20.19140625 C14.68757002 22.55631786 14.71412417 24.91648502 14.74609375 27.28125 C14.74278949 28.79167708 14.7363829 30.30210123 14.7265625 31.8125 C14.73668365 32.5147168 14.74680481 33.21693359 14.75723267 33.94042969 C14.66674739 37.7536469 14.13683504 39.46664755 11.77514648 42.51196289 C9.13634487 44.50667937 8.20246072 45.18640211 4.99609375 45.12109375 C4.26326172 45.11400391 3.53042969 45.10691406 2.77539062 45.09960938 C2.02451172 45.06673828 1.27363281 45.03386719 0.5 45 C-0.25474609 44.99419922 -1.00949219 44.98839844 -1.78710938 44.98242188 C-5.57727433 44.89893807 -8.79079303 44.81243552 -11.9375 42.5625 C-13.50432489 39.42885021 -13.14252344 36.07516593 -13.17578125 32.6328125 C-13.183853 31.84607147 -13.19192474 31.05933044 -13.20024109 30.24874878 C-13.21407904 28.58268436 -13.2248025 26.91659161 -13.23266602 25.25048828 C-13.24988701 22.704206 -13.29377417 20.15921963 -13.33789062 17.61328125 C-13.34801702 15.99480122 -13.35653329 14.37631015 -13.36328125 12.7578125 C-13.38078934 11.9972757 -13.39829742 11.23673889 -13.41633606 10.45315552 C-13.40212646 6.98527888 -13.20901803 4.9430679 -11.17041016 2.08569336 C-7.53190186 -0.39633739 -4.28450403 -0.05850327 0 0 Z " fill="#ff4895" transform="translate(12.9375,25.4375)"/>
<path d="M0 0 C0.87591797 -0.00064453 1.75183594 -0.00128906 2.65429688 -0.00195312 C3.56115234 0.01802734 4.46800781 0.03800781 5.40234375 0.05859375 C6.31306641 0.05150391 7.22378906 0.04441406 8.16210938 0.03710938 C14.70952089 0.09983329 14.70952089 0.09983329 17.09790039 1.60131836 C18.96960623 4.45689317 18.72890344 6.85936583 18.73828125 10.24609375 C18.74115143 10.90061523 18.74402161 11.55513672 18.74697876 12.22949219 C18.74901743 13.61133694 18.74350121 14.99321068 18.73095703 16.375 C18.71489811 18.48893825 18.73080976 20.60096488 18.75 22.71484375 C18.74801753 24.05859797 18.74417377 25.40235099 18.73828125 26.74609375 C18.73489746 27.968125 18.73151367 29.19015625 18.72802734 30.44921875 C18.33984375 33.49609375 18.33984375 33.49609375 16.93994141 35.35546875 C13.18738361 38.03046876 9.48164586 37.78922688 5.02734375 37.87109375 C3.88749023 37.92716797 3.88749023 37.92716797 2.72460938 37.984375 C-1.08790673 38.04399732 -3.2721222 37.70825262 -6.66796875 35.8515625 C-9.93622558 30.34679266 -9.33989184 24.70411342 -9.22265625 18.43359375 C-9.23361328 17.15419922 -9.24457031 15.87480469 -9.25585938 14.55664062 C-9.18221702 5.20406194 -9.18221702 5.20406194 -6.91601562 2.13085938 C-4.34373056 0.26678786 -3.13952336 -0.00729163 0 0 Z " fill="#ff4895" transform="translate(80.66015625,32.50390625)"/>
</svg>
