<?xml version="1.0" encoding="utf-8"?>
<!-- Generator: Adobe Illustrator 27.6.1, SVG Export Plug-In . SVG Version: 6.00 Build 0)  -->
<svg version="1.1" id="Layer_1" xmlns="http://www.w3.org/2000/svg" xmlns:xlink="http://www.w3.org/1999/xlink" x="0px" y="0px"
	 viewBox="0 0 799.99 800" style="enable-background:new 0 0 799.99 800;" xml:space="preserve">
<style type="text/css">
	.st0{opacity:0.85;}
	.st1{fill:#1D1A27;}
	.st2{fill:none;stroke:#FFFFFF;stroke-opacity:0.16;}
	.st3{fill:#ED5F6E;}
	.st4{fill:#7BF26F;}
	.st5{fill:#736D87;}
	.st6{fill:#89D85D;}
	.st7{fill:#302C3F;}
	.st8{fill:#6923FF;}
	.st9{fill:#6F86FF;}
</style>
<g>
	<g class="st0">
		<rect class="st1" width="799.99" height="800"/>
		<rect x="1.77" y="1.65" class="st2" width="796.45" height="796.71"/>
	</g>
	<g>
		<path class="st3" d="M423.22,364.2H730C718.79,202.87,587.54,74,423.22,63V364.2z"/>
		<path class="st4" d="M643.23,606.43c49.49-52.69,81.48-121.47,86.76-197.49h-287.9L643.23,606.43z"/>
		<path class="st5" d="M377.64,408.95V63C205.8,74.5,70,214.92,70,386.57C70,565.75,217.94,711,400.43,711
			c79.65,0,152.64-27.73,209.67-73.82L377.64,408.95z"/>
	</g>
	<circle class="st6" cx="37" cy="63" r="9"/>
	<circle class="st3" cx="37" cy="87.97" r="9"/>
	<circle class="st5" cx="37" cy="37.68" r="9"/>
	<path class="st7" d="M76.87,32.68H233.4c3.79,0,6.87,2.24,6.87,5l0,0c0,2.76-3.07,5-6.87,5H76.87c-3.79,0-6.87-2.24-6.87-5l0,0
		C70,34.92,73.07,32.68,76.87,32.68z"/>
	<path class="st8" d="M75.71,58h130.17c3.15,0,5.71,2.24,5.71,5l0,0c0,2.76-2.56,5-5.71,5H75.71C72.56,68,70,65.76,70,63l0,0
		C70,60.24,72.56,58,75.71,58z"/>
	<path class="st9" d="M74.57,83.32h104.21c2.52,0,4.57,2.24,4.57,5l0,0c0,2.76-2.05,5-4.57,5H74.57c-2.52,0-4.57-2.24-4.57-5l0,0
		C70,85.56,72.05,83.32,74.57,83.32z"/>
</g>
<g>
</g>
<g>
</g>
<g>
</g>
<g>
</g>
<g>
</g>
<g>
</g>
<g>
</g>
<g>
</g>
<g>
</g>
<g>
</g>
<g>
</g>
<g>
</g>
<g>
</g>
<g>
</g>
<g>
</g>
</svg>
