<?xml version="1.0" encoding="utf-8"?>
<!-- Generator: Adobe Illustrator 27.6.1, SVG Export Plug-In . SVG Version: 6.00 Build 0)  -->
<svg version="1.1" id="Layer_1" xmlns="http://www.w3.org/2000/svg" xmlns:xlink="http://www.w3.org/1999/xlink" x="0px" y="0px"
	 viewBox="0 0 800 800" style="enable-background:new 0 0 800 800;" xml:space="preserve">
<style type="text/css">
	.st0{opacity:0.85;}
	.st1{fill:#1D1A27;}
	.st2{fill:none;stroke:#FFFFFF;stroke-opacity:0.16;}
	.st3{fill:#ED5F6E;}
	.st4{fill:#7BF26F;}
	.st5{fill:#736D87;}
	.st6{fill:#302C3F;}
	.st7{fill:#7A7A7A;}
	.st8{fill:#6F86FF;}
</style>
<g>
	<g class="st0">
		<rect x="0.2" y="0.1" class="st1" width="800" height="800"/>
		<rect x="2" y="1.8" class="st2" width="796.5" height="796.7"/>
	</g>
	<g>
		<path class="st3" d="M399.4,431.1h306.8c-11.2-171.4-142.4-308.3-306.8-320V431.1z"/>
		<path class="st4" d="M617.7,659.1c50.5-55,83.2-126.7,88.6-206h-294L617.7,659.1z"/>
		<path class="st5" d="M377.9,453.1v-346C206,118.6,70.2,259,70.2,430.7c0,179.2,148,324.4,330.5,324.4
			c79.6,0,152.6-27.7,209.7-73.8L377.9,453.1z"/>
	</g>
	<circle class="st4" cx="47.2" cy="105.1" r="9"/>
	<circle class="st3" cx="47.2" cy="126.1" r="9"/>
	<circle class="st5" cx="47.2" cy="84.8" r="9"/>
	<path class="st6" d="M73.1,79.8h156.5c3.8,0,6.9,2.2,6.9,5l0,0c0,2.8-3.1,5-6.9,5H73.1c-3.8,0-6.9-2.2-6.9-5l0,0
		C66.2,82,69.3,79.8,73.1,79.8z"/>
	<path class="st7" d="M72.9,102.1h130.2c3.1,0,5.7,2.2,5.7,5l0,0c0,2.8-2.6,5-5.7,5H72.9c-3.2,0-5.7-2.2-5.7-5l0,0
		C67.2,104.3,69.8,102.1,72.9,102.1z"/>
	<path class="st8" d="M72.8,122.4H177c2.5,0,4.6,2.2,4.6,5l0,0c0,2.8-2.1,5-4.6,5H72.8c-2.5,0-4.6-2.2-4.6-5l0,0
		C68.2,124.7,70.3,122.4,72.8,122.4z"/>
</g>
</svg>
