<?xml version="1.0" encoding="utf-8"?>
<!-- Generator: Adobe Illustrator 27.6.1, SVG Export Plug-In . SVG Version: 6.00 Build 0)  -->
<svg version="1.1" id="Layer_1" xmlns="http://www.w3.org/2000/svg" xmlns:xlink="http://www.w3.org/1999/xlink" x="0px" y="0px"
	 viewBox="0 0 800 800" style="enable-background:new 0 0 800 800;" xml:space="preserve">
<style type="text/css">
	.st0{opacity:0.85;}
	.st1{fill:#1D1A27;}
	.st2{fill:none;stroke:#FFFFFF;stroke-opacity:0.16;}
	.st3{fill:#E54C63;}
	.st4{fill:#4FED3E;}
	.st5{fill:#736D87;}
	.st6{fill:#89D85D;}
	.st7{fill:#ED5F6E;}
	.st8{fill:#302C3F;}
	.st9{fill:#6923FF;}
	.st10{fill:#6F86FF;}
</style>
<g>
	<g class="st0">
		<rect x="-0.8" class="st1" width="800" height="800"/>
		<rect x="1" y="1.7" class="st2" width="796.5" height="796.7"/>
	</g>
	<g>
		<path class="st3" d="M398.4,431h306.8C694,259.6,562.8,122.7,398.4,111V431z"/>
		<path class="st4" d="M616.7,659c50.5-55,83.2-126.7,88.6-206h-294L616.7,659z"/>
		<path class="st5" d="M376.9,453V107C205,118.5,69.2,258.9,69.2,430.6c0,179.2,148,324.4,330.5,324.4c79.6,0,152.6-27.7,209.7-73.8
			L376.9,453z"/>
	</g>
	<circle class="st6" cx="46.2" cy="76" r="9"/>
	<circle class="st7" cx="46.2" cy="104" r="9"/>
	<circle class="st5" cx="46.2" cy="51.7" r="9"/>
	<path class="st8" d="M76.1,48.7h156.5c3.8,0,6.9,2.2,6.9,5l0,0c0,2.8-3.1,5-6.9,5H76.1c-3.8,0-6.9-2.2-6.9-5l0,0
		C69.2,50.9,72.3,48.7,76.1,48.7z"/>
	<path class="st9" d="M74.9,74h130.2c3.1,0,5.7,2.2,5.7,5l0,0c0,2.8-2.6,5-5.7,5H74.9c-3.2,0-5.7-2.2-5.7-5l0,0
		C69.2,76.2,71.8,74,74.9,74z"/>
	<path class="st10" d="M73.8,101.3H178c2.5,0,4.6,2.2,4.6,5l0,0c0,2.8-2.1,5-4.6,5H73.8c-2.5,0-4.6-2.2-4.6-5l0,0
		C69.2,103.6,71.3,101.3,73.8,101.3z"/>
</g>
</svg>
