<?xml version="1.0" encoding="utf-8"?>
<!-- Generator: Adobe Illustrator 27.6.1, SVG Export Plug-In . SVG Version: 6.00 Build 0)  -->
<svg version="1.1" id="Layer_1" xmlns="http://www.w3.org/2000/svg" xmlns:xlink="http://www.w3.org/1999/xlink" x="0px" y="0px"
	 viewBox="0 0 1049.7 554.9" style="enable-background:new 0 0 1049.7 554.9;" xml:space="preserve">
<style type="text/css">
	.st0{opacity:0.5;}
	.st1{fill:#1D1A27;}
	.st2{fill:none;stroke:#FFFFFF;stroke-opacity:0.16;}
	.st3{fill:none;stroke:#302C3F;}
	.st4{fill:#736D87;}
	.st5{fill:#373345;}
	.st6{fill:#FF5F56;}
	.st7{fill:#F8D345;}
	.st8{fill:#89D85D;}
	.st9{fill:url(#SVGID_1_);}
	.st10{fill:#3F3950;}
	.st11{fill:#726990;}
	.st12{fill:#5E5B71;}
	.st13{display:none;fill:#3F3950;}
	.st14{fill:none;stroke:#726990;stroke-width:30;stroke-miterlimit:10;}
	.st15{fill:none;stroke:#ED5F6E;stroke-width:30;stroke-linecap:round;stroke-miterlimit:10;}
	.st16{fill:none;stroke:#726990;stroke-width:25;stroke-miterlimit:10;}
	.st17{fill:none;stroke:#7AE46D;stroke-width:25;stroke-linecap:round;stroke-miterlimit:10;}
	.st18{fill:#FFFFFF;}
	.st19{fill:url(#SVGID_00000061440446104463521030000005433078010989285813_);}
	.st20{fill:#ED5F6E;}
	.st21{opacity:0.45;fill:#302C3F;}
	.st22{fill:none;stroke:#302C3F;stroke-width:9;stroke-linecap:round;stroke-miterlimit:10;}
	.st23{fill:none;stroke:#ED5F6E;stroke-width:9;stroke-linecap:round;stroke-miterlimit:10;}
	.st24{fill:none;stroke:#79F170;stroke-width:9;stroke-linecap:round;stroke-miterlimit:10;}
	.st25{fill:#FDFDFF;}
	.st26{fill:#7AE46D;}
	.st27{fill:#7CDF74;}
	.st28{fill:#79D672;}
	.st29{fill:#7BD077;}
	.st30{fill:#7FD977;}
	.st31{fill:#81DA7C;}
	.st32{fill:#EB5F6E;}
	.st33{fill:#79DF6F;}
	.st34{fill:#E06271;}
	.st35{fill:#D86573;}
	.st36{fill:#E95F6E;}
	.st37{fill:#C66775;}
	.st38{fill:#D76673;}
	.st39{fill:none;stroke:#5E5B71;stroke-miterlimit:10;}
	.st40{fill:url(#SVGID_00000049906874628304761730000012377154158568633252_);}
	.st41{opacity:0.5;fill:#3F3950;}
	.st42{fill-rule:evenodd;clip-rule:evenodd;fill:#FFFFFF;}
	.st43{font-family:'Roboto-Regular';}
	.st44{font-size:10px;}
	.st45{fill:#302C3F;}
	.st46{fill:#5F5977;}
</style>
<g>
	<g class="st0">
		<path class="st1" d="M22.5,0H1027c12.4,0,22.5,10.1,22.5,22.5v509.8c0,12.4-10.1,22.5-22.5,22.5H22.5C10.1,554.8,0,544.8,0,532.3
			V22.5C0,10.1,10.1,0,22.5,0z"/>
		<rect x="0.7" y="0.5" class="st2" width="1048.5" height="553.9"/>
	</g>
	<line class="st3" x1="194.9" y1="24.9" x2="194.9" y2="532.1"/>
	<path class="st4" d="M32.1,91.6h127c3.3,0,6,2.7,6,6l0,0c0,3.3-2.7,6-6,6h-127c-3.3,0-6-2.7-6-6l0,0C26.1,94.3,28.8,91.6,32.1,91.6
		z"/>
	<path class="st5" d="M32.1,68.7h81c3.3,0,6,2.7,6,6l0,0c0,3.3-2.7,6-6,6h-81c-3.3,0-6-2.7-6-6l0,0C26.1,71.4,28.8,68.7,32.1,68.7z"
		/>
	<path class="st5" d="M32.1,115.7h133c3.3,0,6,2.7,6,6l0,0c0,3.3-2.7,6-6,6h-133c-3.3,0-6-2.7-6-6l0,0
		C26.1,118.4,28.8,115.7,32.1,115.7z"/>
	<path class="st5" d="M32.1,143.8h96c3.3,0,6,2.7,6,6l0,0c0,3.3-2.7,6-6,6h-96c-3.3,0-6-2.7-6-6l0,0
		C26.1,146.5,28.8,143.8,32.1,143.8z"/>
	<path class="st5" d="M32.1,170.1h118c3.3,0,6,2.7,6,6l0,0c0,3.3-2.7,6-6,6h-118c-3.3,0-6-2.7-6-6l0,0
		C26.1,172.8,28.8,170.1,32.1,170.1z"/>
	<path class="st5" d="M32.1,195.5h62c3.3,0,6,2.7,6,6l0,0c0,3.3-2.7,6-6,6h-62c-3.3,0-6-2.7-6-6l0,0
		C26.1,198.2,28.8,195.5,32.1,195.5z"/>
	<circle class="st6" cx="37.7" cy="44.9" r="6.5"/>
	<circle class="st7" cx="60.7" cy="44.9" r="6.5"/>
	<circle class="st8" cx="83.7" cy="44.9" r="6.5"/>
	<g>
		
			<linearGradient id="SVGID_1_" gradientUnits="userSpaceOnUse" x1="16.9176" y1="964.4673" x2="179.1311" y2="976.5217" gradientTransform="matrix(1 0 0 1 0 -465.3082)">
			<stop  offset="0" style="stop-color:#6F86FF"/>
			<stop  offset="1" style="stop-color:#9175FF"/>
		</linearGradient>
		<path class="st9" d="M35.7,491h121.9c10.6,0,19.2,6.3,19.2,14.1l0,0c0,7.8-8.6,14.1-19.2,14.1H35.7c-10.6,0-19.2-6.3-19.2-14.1
			l0,0C16.4,497.4,25.1,491,35.7,491z"/>
	</g>
	<path class="st10" d="M656.4,53H607c-5.3,0-9.6-4.3-9.6-9.6l0,0c0-5.3,4.3-9.6,9.6-9.6h49.4c5.3,0,9.6,4.3,9.6,9.6l0,0
		C666.1,48.7,661.8,53,656.4,53z"/>
	<circle class="st11" cx="689.8" cy="43.4" r="12.5"/>
	<path class="st12" d="M578.9,52.6h-352c-4.9,0-8.9-4-8.9-8.9v-0.6c0-4.9,4-8.9,8.9-8.9h352c4.9,0,8.9,4,8.9,8.9v0.6
		C587.8,48.6,583.8,52.6,578.9,52.6z"/>
	<g>
		<path class="st10" d="M1006.6,526.5H708.5c-9,0-16.3-7.3-16.3-16.3v-154c0-9,7.3-16.3,16.3-16.3h298.1c9,0,16.3,7.3,16.3,16.3v154
			C1023,519.2,1015.6,526.5,1006.6,526.5z"/>
		<g>
			<path class="st13" d="M1018.8,541.8H669c-9.3,0-16.8-7.5-16.8-16.8V316c0-9.3,7.5-16.8,16.8-16.8h349.8c9.3,0,16.8,7.5,16.8,16.8
				V525C1035.6,534.2,1028,541.8,1018.8,541.8z"/>
			<g>
				<path class="st14" d="M907.1,406.9c8.7-7.3,20-11.8,32.2-11.8c27.6,0,50,22.4,50,50s-22.4,50-50,50c-27.6,0-50-22.4-50-50
					C889.4,429.8,896.3,416.1,907.1,406.9"/>
			</g>
			<g>
				<path class="st15" d="M932.4,395.7c2.3-0.3,4.6-0.5,7-0.5c27.6,0,50,22.4,50,50s-22.4,50-50,50c-14.6,0-27.7-6.3-36.9-16.2"/>
			</g>
			<g>
				<circle class="st16" cx="776.1" cy="445.2" r="50"/>
				<path class="st17" d="M776.1,395.2c27.6,0,50,22.4,50,50s-22.4,50-50,50s-50-22.4-50-50"/>
			</g>
			<g>
				<path class="st18" d="M767,441.5c0,0.8-0.2,1.6-0.6,2.2s-1,1.1-1.7,1.5c0.8,0.4,1.5,0.9,1.9,1.6s0.7,1.5,0.7,2.5
					c0,1.5-0.5,2.7-1.6,3.6s-2.5,1.3-4.3,1.3c-1.9,0-3.3-0.4-4.4-1.3s-1.6-2.1-1.6-3.6c0-0.9,0.2-1.7,0.7-2.4s1.1-1.3,2-1.7
					c-0.7-0.4-1.3-0.9-1.7-1.5s-0.6-1.4-0.6-2.2c0-1.5,0.5-2.7,1.5-3.5s2.4-1.3,4.1-1.3c1.7,0,3.1,0.4,4.1,1.3S767,440,767,441.5z
					 M763.3,449c0-0.7-0.2-1.2-0.5-1.6s-0.8-0.6-1.4-0.6s-1.1,0.2-1.4,0.6s-0.6,0.9-0.6,1.6c0,0.7,0.2,1.2,0.6,1.6s0.9,0.6,1.5,0.6
					c0.6,0,1.1-0.2,1.4-0.6S763.3,449.7,763.3,449z M761.3,439.7c-0.5,0-0.9,0.2-1.2,0.5s-0.4,0.8-0.4,1.4c0,0.6,0.1,1.1,0.4,1.5
					s0.7,0.6,1.2,0.6c0.5,0,0.9-0.2,1.2-0.6s0.4-0.9,0.4-1.5s-0.1-1.1-0.4-1.4S761.9,439.7,761.3,439.7z"/>
				<path class="st18" d="M769.6,445.7l1-8.7h10v3.1h-6.8l-0.4,3.4c0.3-0.2,0.7-0.3,1.1-0.4s0.9-0.2,1.3-0.2c1.7,0,3,0.5,3.9,1.5
					s1.4,2.4,1.4,4.2c0,1.1-0.2,2.1-0.7,3s-1.2,1.6-2.1,2s-1.9,0.7-3.1,0.7c-1.1,0-2.1-0.2-3-0.7c-0.9-0.4-1.7-1-2.2-1.8
					c-0.5-0.8-0.8-1.6-0.8-2.6h4c0,0.6,0.2,1.1,0.6,1.5s0.8,0.5,1.4,0.5c1.3,0,2-1,2-2.9c0-1.8-0.8-2.7-2.4-2.7
					c-0.9,0-1.6,0.3-2.1,0.9L769.6,445.7z"/>
				<path class="st18" d="M783.3,440.2c0-1.1,0.3-1.9,1-2.6s1.6-1,2.8-1c1.2,0,2.1,0.3,2.8,1s1,1.5,1,2.6v0.8c0,1.1-0.3,1.9-1,2.5
					s-1.6,1-2.8,1c-1.1,0-2.1-0.3-2.8-1s-1-1.5-1-2.6V440.2z M785.8,441.1c0,0.4,0.1,0.7,0.3,1c0.2,0.3,0.5,0.4,0.9,0.4
					c0.8,0,1.2-0.5,1.2-1.6v-0.7c0-0.4-0.1-0.7-0.3-1c-0.2-0.3-0.5-0.4-0.9-0.4c-0.4,0-0.7,0.1-0.9,0.4c-0.2,0.3-0.3,0.6-0.3,1
					V441.1z M787.8,452.7l-1.8-0.9l8.3-13.3l1.8,0.9L787.8,452.7z M791.4,449.8c0-1.1,0.3-1.9,1-2.6s1.6-1,2.8-1
					c1.2,0,2.1,0.3,2.8,0.9s1,1.5,1,2.6v0.8c0,1.1-0.3,1.9-1,2.6s-1.6,1-2.8,1c-1.1,0-2.1-0.3-2.8-1s-1-1.5-1-2.6V449.8z
					 M793.9,450.7c0,0.4,0.1,0.7,0.4,1s0.6,0.4,0.9,0.4c0.8,0,1.2-0.4,1.2-1.1l0-1.2c0-0.4-0.1-0.7-0.3-1c-0.2-0.3-0.5-0.4-0.9-0.4
					c-0.4,0-0.7,0.1-0.9,0.4c-0.2,0.2-0.3,0.6-0.4,1V450.7z"/>
			</g>
			<g>
				<path class="st18" d="M930.9,439.7l-6.4,15h-4.2l6.4-14h-8.1v-3h12.3V439.7z"/>
				<path class="st18" d="M933.2,446.3l1-8.7h10v3.1h-6.8L937,444c0.3-0.2,0.7-0.3,1.1-0.4s0.9-0.2,1.3-0.2c1.7,0,3,0.5,3.9,1.5
					s1.4,2.4,1.4,4.2c0,1.1-0.2,2.1-0.7,3s-1.2,1.6-2.1,2s-1.9,0.7-3.1,0.7c-1.1,0-2.1-0.2-3-0.7c-0.9-0.4-1.7-1-2.2-1.8
					c-0.5-0.8-0.8-1.6-0.8-2.6h4c0,0.6,0.2,1.1,0.6,1.5s0.8,0.5,1.4,0.5c1.3,0,2-1,2-2.9c0-1.8-0.8-2.7-2.4-2.7
					c-0.9,0-1.6,0.3-2.1,0.9L933.2,446.3z"/>
				<path class="st18" d="M946.8,440.9c0-1.1,0.3-1.9,1-2.6s1.6-1,2.8-1c1.2,0,2.1,0.3,2.8,1s1,1.5,1,2.6v0.8c0,1.1-0.3,1.9-1,2.5
					s-1.6,1-2.8,1c-1.1,0-2.1-0.3-2.8-1c-0.7-0.6-1-1.5-1-2.6V440.9z M949.4,441.8c0,0.4,0.1,0.7,0.3,1c0.2,0.3,0.5,0.4,0.9,0.4
					c0.8,0,1.2-0.5,1.2-1.6v-0.7c0-0.4-0.1-0.7-0.3-1c-0.2-0.3-0.5-0.4-0.9-0.4c-0.4,0-0.7,0.1-0.9,0.4c-0.2,0.3-0.3,0.6-0.3,1
					V441.8z M951.4,453.4l-1.8-0.9l8.3-13.3l1.8,0.9L951.4,453.4z M955,450.5c0-1.1,0.3-1.9,1-2.6s1.6-1,2.8-1
					c1.2,0,2.1,0.3,2.8,0.9s1,1.5,1,2.6v0.8c0,1.1-0.3,1.9-1,2.6s-1.6,1-2.8,1c-1.1,0-2.1-0.3-2.8-1s-1-1.5-1-2.6V450.5z
					 M957.5,451.4c0,0.4,0.1,0.7,0.4,1s0.6,0.4,0.9,0.4c0.8,0,1.2-0.4,1.2-1.1l0-1.2c0-0.4-0.1-0.7-0.3-1c-0.2-0.3-0.5-0.4-0.9-0.4
					c-0.4,0-0.7,0.1-0.9,0.4c-0.2,0.2-0.3,0.6-0.4,1V451.4z"/>
			</g>
		</g>
		
			<linearGradient id="SVGID_00000015318297646447736110000005739024983733811370_" gradientUnits="userSpaceOnUse" x1="723.8774" y1="618.2692" x2="737.4598" y2="618.4863" gradientTransform="matrix(1 0 0 1 0 -254)">
			<stop  offset="0" style="stop-color:#88F96D"/>
			<stop  offset="1" style="stop-color:#66E773"/>
		</linearGradient>
		<circle style="fill:url(#SVGID_00000015318297646447736110000005739024983733811370_);" cx="731" cy="364.4" r="6.5"/>
		<circle class="st20" cx="883.3" cy="364.4" r="6.5"/>
		<path class="st12" d="M748.3,359.4h74.8c4,0,7.2,2.2,7.2,5l0,0c0,2.8-3.2,5-7.2,5h-74.8c-4,0-7.2-2.2-7.2-5l0,0
			C741.1,361.7,744.3,359.4,748.3,359.4z"/>
		<path class="st12" d="M899.5,359.4h74.8c4,0,7.2,2.2,7.2,5l0,0c0,2.8-3.2,5-7.2,5h-74.8c-4,0-7.2-2.2-7.2-5l0,0
			C892.3,361.7,895.5,359.4,899.5,359.4z"/>
	</g>
	<g>
		<path class="st21" d="M164.3,389.8H39.2c-8.8,0-16-7.2-16-16v-33.9c0-8.8,7.2-16,16-16h125.1c8.8,0,16,7.2,16,16v33.9
			C180.3,382.6,173.1,389.8,164.3,389.8z"/>
		<line class="st22" x1="34.5" y1="356.7" x2="141.4" y2="356.7"/>
		<line class="st23" x1="34.5" y1="371.7" x2="94.1" y2="371.7"/>
		<path class="st12" d="M36.8,333.7h43.1c2.3,0,4.1,2.2,4.1,5l0,0c0,2.8-1.8,5-4.1,5H36.8c-2.3,0-4.1-2.2-4.1-5l0,0
			C32.7,336,34.5,333.7,36.8,333.7z"/>
	</g>
	<g>
		<path class="st21" d="M164.3,312.7H39.2c-8.8,0-16-7.2-16-16v-33.9c0-8.8,7.2-16,16-16h125.1c8.8,0,16,7.2,16,16v33.9
			C180.3,305.6,173.1,312.7,164.3,312.7z"/>
		<line class="st22" x1="34.5" y1="279.6" x2="164.2" y2="279.6"/>
		<line class="st24" x1="34.5" y1="294.6" x2="145.1" y2="294.6"/>
		<path class="st12" d="M36.8,256.6h43.1c2.3,0,4.1,2.2,4.1,5l0,0c0,2.8-1.8,5-4.1,5H36.8c-2.3,0-4.1-2.2-4.1-5l0,0
			C32.7,258.9,34.5,256.6,36.8,256.6z"/>
	</g>
	<g>
		<path class="st10" d="M436.4,189H228.6c-9,0-16.3-7.3-16.3-16.3V85.3c0-9,7.3-16.3,16.3-16.3h207.8c9,0,16.3,7.3,16.3,16.3v87.4
			C452.8,181.7,445.5,189,436.4,189z"/>
		<g>
			<path class="st25" d="M255.2,143.2c0-0.8-0.2-1.4-0.6-1.8s-1-0.9-2-1.2s-1.8-0.8-2.7-1.2s-1.5-0.9-2.1-1.4s-1-1.1-1.3-1.8
				s-0.5-1.5-0.5-2.5c0-1.7,0.6-3,1.7-4.1s2.6-1.7,4.5-1.9v-3.1h2.3v3.1c1.8,0.3,3.2,1,4.2,2.2s1.5,2.7,1.5,4.6h-5
				c0-1-0.2-1.8-0.6-2.3s-0.9-0.8-1.7-0.8c-0.6,0-1.1,0.2-1.5,0.6s-0.5,1-0.5,1.7c0,0.7,0.2,1.3,0.6,1.7s1.1,0.8,2,1.2
				s1.8,0.8,2.6,1.2s1.5,0.9,2.1,1.4s1,1.1,1.4,1.8s0.5,1.5,0.5,2.5c0,1.7-0.5,3-1.6,4.1s-2.5,1.7-4.3,1.8v2.9h-2.3v-3
				c-2.1-0.2-3.8-1-4.9-2.2s-1.7-2.9-1.7-4.9h4.9c0,1.1,0.2,2,0.7,2.5s1.2,0.9,2.1,0.9c0.7,0,1.2-0.2,1.6-0.6
				S255.2,143.9,255.2,143.2z"/>
			<path class="st25" d="M273.6,148.9h-5v-15.8l-4.9,1.4v-3.8l9.4-3.2h0.5V148.9z"/>
			<path class="st25" d="M295,148.9h-14.9v-3.2l6.9-7.2c1.7-1.9,2.5-3.5,2.5-4.6c0-0.9-0.2-1.6-0.6-2.1s-1-0.7-1.7-0.7
				c-0.8,0-1.4,0.3-1.8,1s-0.7,1.4-0.7,2.4h-5c0-1.3,0.3-2.5,1-3.6s1.6-2,2.7-2.6c1.2-0.6,2.5-0.9,3.9-0.9c2.3,0,4.1,0.5,5.3,1.6
				c1.2,1.1,1.9,2.6,1.9,4.6c0,0.8-0.2,1.7-0.5,2.5s-0.8,1.6-1.5,2.5s-1.7,2-3.2,3.5l-2.8,3.2h8.4V148.9z"/>
			<path class="st25" d="M312.3,130.2l-8,18.7h-5.2l8-17.5h-10.2v-3.8h15.4V130.2z"/>
			<path class="st25" d="M316.6,154.6l-2.5-1.2l0.5-1c0.7-1.3,1-2.5,1.1-3.6v-3.7h4l0,3.2c0,1.1-0.3,2.3-0.9,3.4
				S317.5,153.9,316.6,154.6z"/>
			<path class="st25" d="M334.8,127.2v3.9h-0.2c-1.8,0-3.4,0.4-4.5,1.3s-1.9,2.1-2.2,3.7c1.1-1.1,2.5-1.6,4.2-1.6
				c1.8,0,3.3,0.7,4.4,2s1.6,3.1,1.6,5.3c0,1.4-0.3,2.6-1,3.7s-1.5,2-2.7,2.7s-2.4,1-3.8,1c-1.5,0-2.9-0.3-4.1-1s-2.1-1.7-2.8-3
				s-1-2.8-1-4.4v-2c0-2.2,0.5-4.2,1.4-5.9s2.3-3.1,4-4.1c1.7-1,3.7-1.5,5.8-1.5H334.8z M330.4,138.3c-0.7,0-1.2,0.2-1.6,0.5
				s-0.8,0.7-1,1.1v1.5c0,2.7,0.9,4,2.8,4c0.8,0,1.4-0.3,1.9-1s0.8-1.5,0.8-2.5c0-1-0.3-1.9-0.8-2.6S331.2,138.3,330.4,138.3z"/>
			<path class="st25" d="M350,140.6c-1.1,1-2.3,1.4-3.6,1.4c-1.9,0-3.5-0.7-4.6-2s-1.7-3.1-1.7-5.2c0-1.4,0.3-2.6,1-3.8
				s1.5-2.1,2.7-2.8c1.1-0.7,2.4-1,3.8-1c1.4,0,2.7,0.4,3.8,1.1c1.1,0.7,2,1.7,2.7,3s1,2.8,1,4.5v1.9c0,2.4-0.5,4.4-1.4,6.1
				s-2.2,3.1-3.9,4s-3.7,1.4-6,1.4h-0.3v-4l0.9,0C347.7,145,349.6,143.5,350,140.6z M347.8,138.5c1.1,0,1.8-0.5,2.3-1.4v-2.1
				c0-1.4-0.2-2.4-0.7-3s-1.1-1-1.9-1c-0.7,0-1.3,0.4-1.7,1.1s-0.7,1.6-0.7,2.7c0,1.1,0.2,2,0.7,2.7S346.9,138.5,347.8,138.5z"/>
			<path class="st25" d="M357.9,138.5l1.3-10.9h12.5v3.8h-8.5l-0.5,4.2c0.4-0.2,0.8-0.4,1.4-0.5c0.6-0.2,1.1-0.2,1.7-0.2
				c2.1,0,3.7,0.6,4.9,1.9s1.7,3,1.7,5.3c0,1.4-0.3,2.6-0.9,3.7c-0.6,1.1-1.5,2-2.6,2.6s-2.4,0.9-3.9,0.9c-1.3,0-2.6-0.3-3.8-0.8
				c-1.2-0.6-2.1-1.3-2.8-2.3c-0.7-1-1-2-1-3.3h5c0,0.8,0.3,1.4,0.7,1.9s1,0.7,1.8,0.7c1.7,0,2.5-1.2,2.5-3.7c0-2.3-1-3.4-3-3.4
				c-1.2,0-2,0.4-2.6,1.1L357.9,138.5z"/>
		</g>
		<path class="st26" d="M389.7,104.8c0-4.1,3.4-7.5,7.5-7.5c4.1,0,7.5,3.4,7.5,7.5c0,4.1-3.4,7.5-7.5,7.5
			C393.1,112.3,389.7,108.9,389.7,104.8z M394,105.6l2.2-2.3v5.5c0,0.4,0.3,0.7,0.7,0.7h0.5c0.4,0,0.7-0.3,0.7-0.7v-5.5l2.2,2.3
			c0.3,0.3,0.8,0.3,1,0l0.3-0.3c0.3-0.3,0.3-0.7,0-1l-4-4c-0.3-0.3-0.7-0.3-1,0l-4,4c-0.3,0.3-0.3,0.7,0,1l0.3,0.3
			C393.3,105.9,393.8,105.9,394,105.6z"/>
		<g>
			<path class="st18" d="M411.4,104.6h2v0.9h-2v2.2h-0.9v-2.2h-2v-0.9h2v-2.1h0.9V104.6z"/>
			<path class="st18" d="M419.1,108.4h-4.7v-0.6l2.5-2.7c0.4-0.4,0.6-0.7,0.8-1s0.2-0.5,0.2-0.8c0-0.4-0.1-0.7-0.3-0.9
				s-0.5-0.4-0.9-0.4c-0.4,0-0.8,0.1-1,0.4s-0.4,0.6-0.4,1.1h-0.9c0-0.7,0.2-1.2,0.6-1.6s1-0.6,1.7-0.6c0.7,0,1.2,0.2,1.6,0.5
				s0.6,0.8,0.6,1.4c0,0.7-0.4,1.5-1.3,2.5l-1.9,2.1h3.6V108.4z"/>
			<path class="st18" d="M424.6,101.8l-2.9,6.6h-0.9l2.9-6.4h-3.8v-0.7h4.8V101.8z"/>
			<path class="st18" d="M425.6,102.6c0-0.4,0.1-0.8,0.4-1.1s0.6-0.4,1-0.4c0.4,0,0.8,0.1,1.1,0.4s0.4,0.6,0.4,1.1v0.3
				c0,0.4-0.1,0.8-0.4,1.1s-0.6,0.4-1,0.4c-0.4,0-0.8-0.1-1-0.4s-0.4-0.6-0.4-1.1V102.6z M426.3,103c0,0.3,0.1,0.5,0.2,0.6
				c0.1,0.2,0.3,0.2,0.6,0.2c0.2,0,0.4-0.1,0.6-0.2s0.2-0.4,0.2-0.7v-0.4c0-0.3-0.1-0.5-0.2-0.6s-0.3-0.2-0.6-0.2s-0.4,0.1-0.6,0.2
				s-0.2,0.4-0.2,0.7V103z M427.2,107.8l-0.5-0.3l3.5-5.6l0.5,0.3L427.2,107.8z M429,106.6c0-0.4,0.1-0.8,0.4-1.1s0.6-0.4,1-0.4
				s0.8,0.1,1,0.4s0.4,0.6,0.4,1.1v0.3c0,0.4-0.1,0.8-0.4,1.1s-0.6,0.4-1,0.4s-0.8-0.1-1-0.4s-0.4-0.6-0.4-1.1V106.6z M429.7,107
				c0,0.3,0.1,0.5,0.2,0.6c0.1,0.2,0.3,0.2,0.6,0.2c0.2,0,0.4-0.1,0.6-0.2s0.2-0.4,0.2-0.7v-0.4c0-0.3-0.1-0.5-0.2-0.6
				s-0.3-0.2-0.6-0.2c-0.2,0-0.4,0.1-0.6,0.2s-0.2,0.4-0.2,0.7V107z"/>
		</g>
		<g>
			<path class="st18" d="M251.3,105.8h-2.3v4h-1.3v-10h3.3c1.1,0,2,0.3,2.6,0.8s0.9,1.3,0.9,2.2c0,0.6-0.2,1.2-0.5,1.6
				s-0.8,0.8-1.4,1l2.3,4.2v0.1h-1.4L251.3,105.8z M248.9,104.7h2c0.7,0,1.2-0.2,1.6-0.5s0.6-0.8,0.6-1.4c0-0.6-0.2-1.1-0.6-1.4
				s-0.9-0.5-1.6-0.5h-2V104.7z"/>
			<path class="st18" d="M259.1,109.9c-1,0-1.8-0.3-2.4-1s-0.9-1.5-0.9-2.6v-0.2c0-0.7,0.1-1.4,0.4-2s0.7-1,1.2-1.4s1-0.5,1.6-0.5
				c1,0,1.7,0.3,2.2,1s0.8,1.5,0.8,2.7v0.5h-5c0,0.7,0.2,1.3,0.6,1.8s0.9,0.7,1.6,0.7c0.4,0,0.8-0.1,1.1-0.3s0.6-0.4,0.8-0.7
				l0.8,0.6C261.3,109.5,260.4,109.9,259.1,109.9z M259,103.3c-0.5,0-0.9,0.2-1.3,0.6s-0.6,0.9-0.6,1.6h3.7v-0.1
				c0-0.6-0.2-1.1-0.5-1.5S259.5,103.3,259,103.3z"/>
			<path class="st18" d="M265.8,108.1l1.8-5.7h1.3l-2.7,7.4h-1l-2.7-7.4h1.3L265.8,108.1z"/>
			<path class="st18" d="M273.1,109.9c-1,0-1.8-0.3-2.4-1s-0.9-1.5-0.9-2.6v-0.2c0-0.7,0.1-1.4,0.4-2s0.7-1,1.2-1.4s1-0.5,1.6-0.5
				c1,0,1.7,0.3,2.2,1s0.8,1.5,0.8,2.7v0.5h-5c0,0.7,0.2,1.3,0.6,1.8s0.9,0.7,1.6,0.7c0.4,0,0.8-0.1,1.1-0.3s0.6-0.4,0.8-0.7
				l0.8,0.6C275.3,109.5,274.4,109.9,273.1,109.9z M273,103.3c-0.5,0-0.9,0.2-1.3,0.6s-0.6,0.9-0.6,1.6h3.7v-0.1
				c0-0.6-0.2-1.1-0.5-1.5S273.5,103.3,273,103.3z"/>
			<path class="st18" d="M278.7,102.4l0,0.9c0.6-0.7,1.3-1.1,2.2-1.1c1.6,0,2.4,0.9,2.4,2.6v4.9H282v-4.9c0-0.5-0.1-0.9-0.4-1.2
				s-0.6-0.4-1.1-0.4c-0.4,0-0.8,0.1-1.1,0.3s-0.6,0.5-0.7,0.9v5.3h-1.3v-7.4H278.7z"/>
			<path class="st18" d="M289.8,109.1c-0.5,0.6-1.2,0.9-2.2,0.9c-0.8,0-1.4-0.2-1.8-0.7s-0.6-1.1-0.6-2v-4.8h1.3v4.8
				c0,1.1,0.5,1.7,1.4,1.7c1,0,1.6-0.4,1.9-1.1v-5.4h1.3v7.4h-1.2L289.8,109.1z"/>
			<path class="st18" d="M296,109.9c-1,0-1.8-0.3-2.4-1s-0.9-1.5-0.9-2.6v-0.2c0-0.7,0.1-1.4,0.4-2s0.7-1,1.2-1.4s1-0.5,1.6-0.5
				c1,0,1.7,0.3,2.2,1s0.8,1.5,0.8,2.7v0.5h-5c0,0.7,0.2,1.3,0.6,1.8s0.9,0.7,1.6,0.7c0.4,0,0.8-0.1,1.1-0.3s0.6-0.4,0.8-0.7
				l0.8,0.6C298.2,109.5,297.2,109.9,296,109.9z M295.8,103.3c-0.5,0-0.9,0.2-1.3,0.6s-0.6,0.9-0.6,1.6h3.7v-0.1
				c0-0.6-0.2-1.1-0.5-1.5S296.4,103.3,295.8,103.3z"/>
		</g>
	</g>
	<g>
		<path class="st10" d="M436.4,320.9H228.6c-9,0-16.3-7.3-16.3-16.3v-87.4c0-9,7.3-16.3,16.3-16.3h207.8c9,0,16.3,7.3,16.3,16.3
			v87.4C452.8,313.6,445.5,320.9,436.4,320.9z"/>
		<g>
			<path class="st25" d="M245.6,266.3l1.3-10.9h12.5v3.8h-8.5l-0.5,4.2c0.4-0.2,0.8-0.4,1.4-0.5c0.6-0.2,1.1-0.2,1.7-0.2
				c2.1,0,3.7,0.6,4.9,1.9s1.7,3,1.7,5.3c0,1.4-0.3,2.6-0.9,3.7s-1.5,2-2.6,2.6s-2.4,0.9-3.9,0.9c-1.3,0-2.6-0.3-3.8-0.8
				c-1.2-0.6-2.1-1.3-2.8-2.3c-0.7-1-1-2-1-3.3h5c0,0.8,0.3,1.4,0.7,1.9s1,0.7,1.8,0.7c1.7,0,2.5-1.2,2.5-3.7c0-2.3-1-3.4-3-3.4
				c-1.2,0-2,0.4-2.6,1.1L245.6,266.3z"/>
			<path class="st25" d="M263,266.3l1.3-10.9h12.5v3.8h-8.5l-0.5,4.2c0.4-0.2,0.8-0.4,1.4-0.5c0.6-0.2,1.1-0.2,1.7-0.2
				c2.1,0,3.7,0.6,4.9,1.9s1.7,3,1.7,5.3c0,1.4-0.3,2.6-0.9,3.7s-1.5,2-2.6,2.6s-2.4,0.9-3.9,0.9c-1.3,0-2.6-0.3-3.8-0.8
				c-1.2-0.6-2.1-1.3-2.8-2.3c-0.7-1-1-2-1-3.3h5c0,0.8,0.3,1.4,0.7,1.9s1,0.7,1.8,0.7c1.7,0,2.5-1.2,2.5-3.7c0-2.3-1-3.4-3-3.4
				c-1.2,0-2,0.4-2.6,1.1L263,266.3z"/>
			<path class="st25" d="M283.2,272c0.8,0,1.4,0.2,1.9,0.7s0.8,1.1,0.8,1.8s-0.3,1.3-0.8,1.8s-1.2,0.7-1.9,0.7c-0.8,0-1.4-0.2-2-0.7
				s-0.8-1.1-0.8-1.8s0.3-1.3,0.8-1.8S282.4,272,283.2,272z"/>
			<path class="st25" d="M301.1,255.1v3.9h-0.2c-1.8,0-3.4,0.4-4.5,1.3s-1.9,2.1-2.2,3.7c1.1-1.1,2.5-1.6,4.2-1.6
				c1.8,0,3.3,0.7,4.4,2s1.6,3.1,1.6,5.3c0,1.4-0.3,2.6-1,3.7s-1.5,2-2.7,2.7s-2.4,1-3.8,1c-1.5,0-2.9-0.3-4.1-1s-2.1-1.7-2.8-3
				s-1-2.8-1-4.4v-2c0-2.2,0.5-4.2,1.4-5.9s2.3-3.1,4-4.1c1.7-1,3.7-1.5,5.8-1.5H301.1z M296.6,266.2c-0.7,0-1.2,0.2-1.6,0.5
				s-0.8,0.7-1,1.1v1.5c0,2.7,0.9,4,2.8,4c0.8,0,1.4-0.3,1.9-1s0.8-1.5,0.8-2.5c0-1-0.3-1.9-0.8-2.6S297.5,266.2,296.6,266.2z"/>
			<path class="st25" d="M306.5,259.5c0-1.3,0.4-2.4,1.3-3.2c0.9-0.8,2-1.2,3.5-1.2c1.5,0,2.6,0.4,3.5,1.2c0.8,0.8,1.3,1.9,1.3,3.3
				v1.1c0,1.3-0.4,2.4-1.3,3.2s-2,1.2-3.4,1.2c-1.4,0-2.6-0.4-3.5-1.2s-1.3-1.9-1.3-3.3V259.5z M309.7,260.7c0,0.5,0.1,0.9,0.4,1.2
				c0.3,0.3,0.7,0.5,1.2,0.5c1,0,1.5-0.6,1.5-1.9v-0.9c0-0.5-0.1-0.9-0.4-1.2s-0.7-0.5-1.2-0.5c-0.5,0-0.9,0.2-1.1,0.5
				s-0.4,0.7-0.4,1.3V260.7z M312.2,275.2l-2.3-1.2l10.4-16.7l2.3,1.2L312.2,275.2z M316.7,271.5c0-1.3,0.4-2.4,1.3-3.2
				s2-1.2,3.4-1.2c1.5,0,2.6,0.4,3.5,1.2s1.3,1.9,1.3,3.3v1c0,1.3-0.4,2.4-1.3,3.2s-2,1.2-3.5,1.2c-1.4,0-2.6-0.4-3.5-1.2
				s-1.3-1.9-1.3-3.3V271.5z M319.8,272.7c0,0.5,0.2,0.9,0.5,1.2c0.3,0.3,0.7,0.5,1.1,0.5c0.9,0,1.5-0.4,1.5-1.3l0-1.5
				c0-0.5-0.1-0.9-0.4-1.2s-0.7-0.5-1.2-0.5c-0.5,0-0.8,0.1-1.1,0.4s-0.4,0.7-0.5,1.2V272.7z"/>
		</g>
		<path class="st26" d="M389.7,236.7c0-4.1,3.4-7.5,7.5-7.5c4.1,0,7.5,3.4,7.5,7.5s-3.4,7.5-7.5,7.5
			C393.1,244.2,389.7,240.8,389.7,236.7z M394,237.5l2.2-2.3v5.5c0,0.4,0.3,0.7,0.7,0.7h0.5c0.4,0,0.7-0.3,0.7-0.7v-5.5l2.2,2.3
			c0.3,0.3,0.8,0.3,1,0l0.3-0.3c0.3-0.3,0.3-0.7,0-1l-4-4c-0.3-0.3-0.7-0.3-1,0l-4,4c-0.3,0.3-0.3,0.7,0,1l0.3,0.3
			C393.3,237.8,393.8,237.8,394,237.5z"/>
		<g>
			<path class="st18" d="M411.4,236.5h2v0.9h-2v2.2h-0.9v-2.2h-2v-0.9h2v-2.1h0.9V236.5z"/>
			<path class="st18" d="M417.4,240.3h-0.9v-6l-1.8,0.7v-0.8l2.6-1h0.1V240.3z"/>
			<path class="st18" d="M423.5,237.1c-0.2,0.2-0.4,0.4-0.7,0.5s-0.5,0.2-0.9,0.2c-0.4,0-0.8-0.1-1.1-0.3s-0.5-0.5-0.7-0.9
				s-0.2-0.8-0.2-1.2c0-0.5,0.1-0.9,0.3-1.3s0.4-0.7,0.8-0.9s0.7-0.3,1.2-0.3c0.7,0,1.3,0.3,1.7,0.8s0.6,1.2,0.6,2.2v0.3
				c0,1.4-0.3,2.4-0.8,3s-1.4,1-2.5,1h-0.2v-0.8h0.2c0.7,0,1.3-0.2,1.7-0.6C423.2,238.5,423.5,238,423.5,237.1z M422.1,237.1
				c0.3,0,0.6-0.1,0.8-0.3s0.4-0.4,0.6-0.7v-0.4c0-0.6-0.1-1.1-0.4-1.4s-0.6-0.6-1-0.6c-0.4,0-0.7,0.2-1,0.5s-0.4,0.7-0.4,1.2
				c0,0.5,0.1,0.9,0.3,1.2S421.7,237.1,422.1,237.1z"/>
			<path class="st18" d="M425.8,239.8c0-0.2,0-0.3,0.1-0.4s0.2-0.2,0.4-0.2s0.3,0.1,0.4,0.2s0.1,0.2,0.1,0.4c0,0.1,0,0.3-0.1,0.4
				s-0.2,0.2-0.4,0.2s-0.3-0.1-0.4-0.2S425.8,239.9,425.8,239.8z"/>
			<path class="st18" d="M431.3,240.3h-0.9v-6l-1.8,0.7v-0.8l2.6-1h0.1V240.3z"/>
			<path class="st18" d="M433.8,234.5c0-0.4,0.1-0.8,0.4-1.1s0.6-0.4,1-0.4c0.4,0,0.8,0.1,1.1,0.4s0.4,0.6,0.4,1.1v0.3
				c0,0.4-0.1,0.8-0.4,1.1s-0.6,0.4-1,0.4c-0.4,0-0.8-0.1-1-0.4s-0.4-0.6-0.4-1.1V234.5z M434.5,234.9c0,0.3,0.1,0.5,0.2,0.6
				c0.1,0.2,0.3,0.2,0.6,0.2c0.2,0,0.4-0.1,0.6-0.2s0.2-0.4,0.2-0.7v-0.4c0-0.3-0.1-0.5-0.2-0.6s-0.3-0.2-0.6-0.2s-0.4,0.1-0.6,0.2
				s-0.2,0.4-0.2,0.7V234.9z M435.5,239.7l-0.5-0.3l3.5-5.6l0.5,0.3L435.5,239.7z M437.3,238.5c0-0.4,0.1-0.8,0.4-1.1s0.6-0.4,1-0.4
				s0.8,0.1,1,0.4s0.4,0.6,0.4,1.1v0.3c0,0.4-0.1,0.8-0.4,1.1s-0.6,0.4-1,0.4s-0.8-0.1-1-0.4s-0.4-0.6-0.4-1.1V238.5z M438,238.9
				c0,0.3,0.1,0.5,0.2,0.6c0.1,0.2,0.3,0.2,0.6,0.2c0.2,0,0.4-0.1,0.6-0.2s0.2-0.4,0.2-0.7v-0.4c0-0.3-0.1-0.5-0.2-0.6
				s-0.3-0.2-0.6-0.2c-0.2,0-0.4,0.1-0.6,0.2s-0.2,0.4-0.2,0.7V238.9z"/>
		</g>
		<g>
			<path class="st18" d="M255.8,239.9c-0.3,0.5-0.8,0.8-1.4,1.1s-1.3,0.4-2.1,0.4c-0.8,0-1.5-0.2-2.2-0.6s-1.1-0.9-1.5-1.6
				s-0.5-1.5-0.5-2.4v-0.9c0-1.5,0.3-2.7,1-3.5s1.7-1.2,2.9-1.2c1,0,1.9,0.3,2.5,0.8s1,1.3,1.2,2.3h-1.3c-0.2-1.3-1-2-2.4-2
				c-0.9,0-1.5,0.3-2,0.9c-0.5,0.6-0.7,1.5-0.7,2.7v0.8c0,1.1,0.3,2,0.8,2.7c0.5,0.7,1.2,1,2.1,1c0.5,0,0.9-0.1,1.3-0.2
				c0.4-0.1,0.7-0.3,0.9-0.6v-2.2h-2.3v-1.1h3.6V239.9z"/>
			<path class="st18" d="M261.4,235c-0.2,0-0.4,0-0.6,0c-0.8,0-1.4,0.4-1.7,1.1v5.2h-1.3v-7.4h1.2l0,0.9c0.4-0.7,1-1,1.8-1
				c0.2,0,0.4,0,0.6,0.1V235z"/>
			<path class="st18" d="M262.1,237.5c0-0.7,0.1-1.4,0.4-2s0.7-1,1.2-1.3s1.1-0.5,1.7-0.5c1,0,1.8,0.3,2.4,1s0.9,1.6,0.9,2.8v0.1
				c0,0.7-0.1,1.4-0.4,1.9s-0.7,1-1.2,1.3s-1.1,0.5-1.8,0.5c-1,0-1.8-0.3-2.4-1S262.1,238.7,262.1,237.5L262.1,237.5z M263.3,237.6
				c0,0.8,0.2,1.5,0.6,2s0.9,0.7,1.5,0.7c0.6,0,1.2-0.3,1.5-0.8s0.6-1.2,0.6-2.1c0-0.8-0.2-1.5-0.6-2s-0.9-0.8-1.5-0.8
				c-0.6,0-1.1,0.2-1.5,0.7S263.3,236.7,263.3,237.6z"/>
			<path class="st18" d="M276.9,239.5l1.4-5.7h1.3l-2.2,7.4h-1l-1.8-5.6l-1.8,5.6h-1l-2.1-7.4h1.3l1.5,5.5l1.7-5.5h1L276.9,239.5z"
				/>
			<path class="st18" d="M282.6,232.1v1.8h1.4v1h-1.4v4.6c0,0.3,0.1,0.5,0.2,0.7c0.1,0.1,0.3,0.2,0.6,0.2c0.1,0,0.3,0,0.6-0.1v1
				c-0.3,0.1-0.7,0.1-1,0.1c-0.6,0-1-0.2-1.3-0.5s-0.4-0.8-0.4-1.5v-4.6H280v-1h1.3v-1.8H282.6z"/>
			<path class="st18" d="M286.7,234.7c0.6-0.7,1.3-1,2.2-1c1.6,0,2.4,0.9,2.4,2.6v4.9H290v-4.9c0-0.5-0.1-0.9-0.4-1.2
				s-0.6-0.4-1.1-0.4c-0.4,0-0.8,0.1-1.1,0.3s-0.6,0.5-0.7,0.9v5.3h-1.3v-10.5h1.3V234.7z"/>
		</g>
		<g>
			<path class="st18" d="M247.7,294.9v3.9h-1.3v-10h3.7c1.1,0,1.9,0.3,2.6,0.8c0.6,0.6,0.9,1.3,0.9,2.2c0,1-0.3,1.7-0.9,2.2
				c-0.6,0.5-1.5,0.8-2.6,0.8H247.7z M247.7,293.8h2.4c0.7,0,1.2-0.2,1.6-0.5s0.6-0.8,0.6-1.4c0-0.6-0.2-1.1-0.6-1.4
				c-0.4-0.4-0.9-0.5-1.5-0.6h-2.4V293.8z"/>
			<path class="st18" d="M258.6,292.5c-0.2,0-0.4,0-0.6,0c-0.8,0-1.4,0.4-1.7,1.1v5.2H255v-7.4h1.2l0,0.9c0.4-0.7,1-1,1.8-1
				c0.2,0,0.4,0,0.6,0.1V292.5z"/>
			<path class="st18" d="M262.7,298.9c-1,0-1.8-0.3-2.4-1c-0.6-0.7-0.9-1.5-0.9-2.6v-0.2c0-0.7,0.1-1.4,0.4-2c0.3-0.6,0.7-1,1.2-1.4
				c0.5-0.3,1-0.5,1.6-0.5c1,0,1.7,0.3,2.2,1c0.5,0.6,0.8,1.5,0.8,2.7v0.5h-5c0,0.7,0.2,1.3,0.6,1.8c0.4,0.4,0.9,0.7,1.6,0.7
				c0.4,0,0.8-0.1,1.1-0.3c0.3-0.2,0.6-0.4,0.8-0.7l0.8,0.6C264.9,298.5,263.9,298.9,262.7,298.9z M262.5,292.3
				c-0.5,0-0.9,0.2-1.3,0.6c-0.3,0.4-0.6,0.9-0.6,1.6h3.7v-0.1c0-0.6-0.2-1.1-0.5-1.5C263.5,292.5,263.1,292.3,262.5,292.3z"/>
			<path class="st18" d="M269.4,297.1l1.8-5.7h1.3l-2.7,7.4h-1l-2.7-7.4h1.3L269.4,297.1z"/>
			<path class="st18" d="M273.8,289.4c0-0.2,0.1-0.4,0.2-0.5c0.1-0.1,0.3-0.2,0.6-0.2s0.4,0.1,0.6,0.2c0.1,0.1,0.2,0.3,0.2,0.5
				s-0.1,0.4-0.2,0.5s-0.3,0.2-0.6,0.2s-0.4-0.1-0.6-0.2S273.8,289.6,273.8,289.4z M275.1,298.8h-1.3v-7.4h1.3V298.8z"/>
			<path class="st18" d="M276.8,295c0-0.7,0.1-1.4,0.4-2c0.3-0.6,0.7-1,1.2-1.3s1.1-0.5,1.7-0.5c1,0,1.8,0.3,2.4,1s0.9,1.6,0.9,2.8
				v0.1c0,0.7-0.1,1.4-0.4,1.9c-0.3,0.6-0.7,1-1.2,1.3c-0.5,0.3-1.1,0.5-1.8,0.5c-1,0-1.8-0.3-2.4-1S276.8,296.3,276.8,295
				L276.8,295z M278.1,295.2c0,0.8,0.2,1.5,0.6,2c0.4,0.5,0.9,0.7,1.5,0.7c0.6,0,1.2-0.3,1.5-0.8c0.4-0.5,0.6-1.2,0.6-2.1
				c0-0.8-0.2-1.5-0.6-2c-0.4-0.5-0.9-0.8-1.5-0.8c-0.6,0-1.1,0.2-1.5,0.7C278.3,293.5,278.1,294.3,278.1,295.2z"/>
			<path class="st18" d="M289.7,298.1c-0.5,0.6-1.2,0.9-2.2,0.9c-0.8,0-1.4-0.2-1.8-0.7s-0.6-1.1-0.6-2v-4.8h1.3v4.8
				c0,1.1,0.5,1.7,1.4,1.7c1,0,1.6-0.4,1.9-1.1v-5.4h1.3v7.4h-1.2L289.7,298.1z"/>
			<path class="st18" d="M297.2,296.8c0-0.3-0.1-0.6-0.4-0.8c-0.3-0.2-0.7-0.4-1.3-0.5s-1.1-0.3-1.5-0.5s-0.7-0.4-0.8-0.7
				c-0.2-0.3-0.3-0.6-0.3-0.9c0-0.6,0.3-1.1,0.8-1.5c0.5-0.4,1.2-0.6,2-0.6c0.8,0,1.5,0.2,2,0.6c0.5,0.4,0.8,1,0.8,1.7h-1.3
				c0-0.3-0.1-0.6-0.4-0.9c-0.3-0.2-0.7-0.4-1.1-0.4c-0.5,0-0.8,0.1-1.1,0.3c-0.3,0.2-0.4,0.5-0.4,0.8c0,0.3,0.1,0.5,0.4,0.7
				c0.2,0.2,0.7,0.3,1.3,0.4c0.6,0.1,1.1,0.3,1.5,0.5c0.4,0.2,0.7,0.4,0.9,0.7c0.2,0.3,0.3,0.6,0.3,1c0,0.7-0.3,1.2-0.8,1.6
				c-0.5,0.4-1.2,0.6-2.1,0.6c-0.6,0-1.1-0.1-1.6-0.3c-0.5-0.2-0.8-0.5-1.1-0.9s-0.4-0.8-0.4-1.2h1.3c0,0.4,0.2,0.8,0.5,1
				c0.3,0.2,0.7,0.4,1.3,0.4c0.5,0,0.9-0.1,1.2-0.3C297,297.4,297.2,297.2,297.2,296.8z"/>
			<path class="st18" d="M305.9,296.9l1.7-5.5h1.4l-3,8.5c-0.5,1.2-1.2,1.8-2.2,1.8l-0.2,0l-0.5-0.1v-1l0.3,0c0.4,0,0.8-0.1,1-0.3
				c0.2-0.2,0.4-0.5,0.6-1l0.3-0.8l-2.6-7.3h1.4L305.9,296.9z"/>
			<path class="st18" d="M313.1,298.9c-1,0-1.8-0.3-2.4-1c-0.6-0.7-0.9-1.5-0.9-2.6v-0.2c0-0.7,0.1-1.4,0.4-2c0.3-0.6,0.7-1,1.2-1.4
				c0.5-0.3,1-0.5,1.6-0.5c1,0,1.7,0.3,2.2,1c0.5,0.6,0.8,1.5,0.8,2.7v0.5h-5c0,0.7,0.2,1.3,0.6,1.8c0.4,0.4,0.9,0.7,1.6,0.7
				c0.4,0,0.8-0.1,1.1-0.3c0.3-0.2,0.6-0.4,0.8-0.7l0.8,0.6C315.3,298.5,314.4,298.9,313.1,298.9z M313,292.3
				c-0.5,0-0.9,0.2-1.3,0.6c-0.3,0.4-0.6,0.9-0.6,1.6h3.7v-0.1c0-0.6-0.2-1.1-0.5-1.5C313.9,292.5,313.5,292.3,313,292.3z"/>
			<path class="st18" d="M322,298.8c-0.1-0.1-0.1-0.4-0.2-0.8c-0.6,0.6-1.3,0.9-2.1,0.9c-0.7,0-1.3-0.2-1.8-0.6
				c-0.5-0.4-0.7-0.9-0.7-1.6c0-0.8,0.3-1.4,0.9-1.8c0.6-0.4,1.4-0.6,2.5-0.6h1.2v-0.6c0-0.4-0.1-0.8-0.4-1.1
				c-0.3-0.3-0.7-0.4-1.2-0.4c-0.5,0-0.8,0.1-1.1,0.3c-0.3,0.2-0.5,0.5-0.5,0.8h-1.3c0-0.4,0.1-0.7,0.4-1.1c0.3-0.3,0.6-0.6,1.1-0.8
				c0.4-0.2,0.9-0.3,1.5-0.3c0.9,0,1.5,0.2,2,0.6c0.5,0.4,0.7,1,0.8,1.8v3.4c0,0.7,0.1,1.2,0.3,1.6v0.1H322z M319.9,297.8
				c0.4,0,0.8-0.1,1.1-0.3s0.6-0.5,0.8-0.8v-1.5h-1c-1.5,0-2.3,0.5-2.3,1.4c0,0.4,0.1,0.7,0.4,0.9
				C319.2,297.7,319.5,297.8,319.9,297.8z"/>
			<path class="st18" d="M328.7,292.5c-0.2,0-0.4,0-0.6,0c-0.8,0-1.4,0.4-1.7,1.1v5.2h-1.3v-7.4h1.2l0,0.9c0.4-0.7,1-1,1.8-1
				c0.2,0,0.4,0,0.6,0.1V292.5z"/>
			<path class="st18" d="M329.8,298.1c0-0.2,0.1-0.4,0.2-0.5c0.1-0.1,0.3-0.2,0.6-0.2s0.5,0.1,0.6,0.2c0.1,0.1,0.2,0.3,0.2,0.5
				c0,0.2-0.1,0.4-0.2,0.5c-0.1,0.1-0.3,0.2-0.6,0.2s-0.5-0.1-0.6-0.2C329.9,298.5,329.8,298.3,329.8,298.1z M329.8,292.1
				c0-0.2,0.1-0.4,0.2-0.5c0.1-0.1,0.3-0.2,0.6-0.2s0.5,0.1,0.6,0.2c0.1,0.1,0.2,0.3,0.2,0.5c0,0.2-0.1,0.4-0.2,0.5
				c-0.1,0.1-0.3,0.2-0.6,0.2s-0.5-0.1-0.6-0.2C329.9,292.5,329.8,292.3,329.8,292.1z"/>
			<path class="st18" d="M338.4,293.2h1c0.6,0,1.1-0.2,1.4-0.5c0.3-0.3,0.5-0.7,0.5-1.2c0-1.2-0.6-1.8-1.7-1.8c-0.5,0-1,0.2-1.3,0.5
				c-0.3,0.3-0.5,0.7-0.5,1.2h-1.3c0-0.8,0.3-1.4,0.9-2c0.6-0.5,1.3-0.8,2.2-0.8c0.9,0,1.7,0.2,2.2,0.7c0.5,0.5,0.8,1.2,0.8,2.1
				c0,0.4-0.1,0.9-0.4,1.3c-0.3,0.4-0.7,0.7-1.1,0.9c0.5,0.2,1,0.5,1.3,0.9c0.3,0.4,0.4,0.9,0.4,1.5c0,0.9-0.3,1.6-0.9,2.1
				c-0.6,0.5-1.3,0.8-2.3,0.8s-1.7-0.3-2.3-0.8s-0.9-1.2-0.9-2h1.3c0,0.5,0.2,0.9,0.5,1.3s0.8,0.5,1.4,0.5c0.6,0,1.1-0.2,1.4-0.5
				c0.3-0.3,0.5-0.8,0.5-1.4c0-0.6-0.2-1-0.5-1.3c-0.4-0.3-0.9-0.5-1.5-0.5h-1V293.2z"/>
			<path class="st18" d="M349.4,288.8v1.1h-0.2c-1,0-1.8,0.3-2.4,0.9c-0.6,0.6-0.9,1.4-1,2.4c0.5-0.6,1.2-0.9,2.1-0.9
				c0.9,0,1.6,0.3,2.1,0.9c0.5,0.6,0.8,1.4,0.8,2.4c0,1-0.3,1.8-0.8,2.5s-1.3,0.9-2.2,0.9c-1,0-1.7-0.4-2.3-1.1s-0.9-1.7-0.9-2.8
				v-0.5c0-1.8,0.4-3.2,1.2-4.2c0.8-1,1.9-1.5,3.5-1.5H349.4z M347.7,293.3c-0.4,0-0.8,0.1-1.2,0.4s-0.6,0.6-0.8,1v0.5
				c0,0.8,0.2,1.5,0.6,2c0.4,0.5,0.8,0.8,1.4,0.8c0.6,0,1-0.2,1.3-0.6c0.3-0.4,0.5-1,0.5-1.6c0-0.7-0.2-1.2-0.5-1.7
				C348.7,293.5,348.3,293.3,347.7,293.3z"/>
			<path class="st18" d="M352.4,298.1c0-0.2,0.1-0.4,0.2-0.5c0.1-0.1,0.3-0.2,0.6-0.2s0.5,0.1,0.6,0.2c0.1,0.1,0.2,0.3,0.2,0.5
				c0,0.2-0.1,0.4-0.2,0.5c-0.1,0.1-0.3,0.2-0.6,0.2s-0.5-0.1-0.6-0.2C352.5,298.5,352.4,298.3,352.4,298.1z"/>
			<path class="st18" d="M356.5,293.8l0.5-5h5.1v1.2h-4l-0.3,2.7c0.5-0.3,1-0.4,1.7-0.4c0.9,0,1.6,0.3,2.2,0.9
				c0.5,0.6,0.8,1.4,0.8,2.4c0,1-0.3,1.8-0.8,2.4c-0.6,0.6-1.3,0.9-2.3,0.9c-0.9,0-1.6-0.2-2.2-0.7c-0.6-0.5-0.9-1.2-1-2h1.2
				c0.1,0.6,0.3,1,0.6,1.3c0.3,0.3,0.8,0.4,1.3,0.4c0.6,0,1-0.2,1.4-0.6c0.3-0.4,0.5-1,0.5-1.7c0-0.7-0.2-1.2-0.5-1.6
				s-0.8-0.6-1.4-0.6c-0.6,0-1,0.1-1.3,0.4l-0.3,0.3L356.5,293.8z"/>
			<path class="st18" d="M363.7,290.8c0-0.6,0.2-1.1,0.6-1.5c0.4-0.4,0.9-0.6,1.5-0.6c0.6,0,1.1,0.2,1.5,0.6s0.6,0.9,0.6,1.5v0.5
				c0,0.6-0.2,1.1-0.6,1.5c-0.4,0.4-0.9,0.6-1.5,0.6c-0.6,0-1.1-0.2-1.5-0.6c-0.4-0.4-0.6-0.9-0.6-1.5V290.8z M364.7,291.3
				c0,0.4,0.1,0.7,0.3,0.9s0.5,0.3,0.8,0.3c0.3,0,0.6-0.1,0.8-0.3c0.2-0.2,0.3-0.5,0.3-0.9v-0.5c0-0.4-0.1-0.7-0.3-0.9
				c-0.2-0.2-0.5-0.3-0.8-0.3s-0.6,0.1-0.8,0.3c-0.2,0.2-0.3,0.5-0.3,0.9V291.3z M366.1,298l-0.7-0.5l4.9-7.8l0.7,0.5L366.1,298z
				 M368.6,296.4c0-0.6,0.2-1.1,0.6-1.5c0.4-0.4,0.9-0.6,1.5-0.6s1.1,0.2,1.5,0.6s0.6,0.9,0.6,1.5v0.5c0,0.6-0.2,1.1-0.6,1.5
				c-0.4,0.4-0.9,0.6-1.5,0.6s-1.1-0.2-1.5-0.6c-0.4-0.4-0.6-0.9-0.6-1.5V296.4z M369.5,296.9c0,0.4,0.1,0.7,0.3,0.9
				s0.5,0.3,0.8,0.3c0.3,0,0.6-0.1,0.8-0.3c0.2-0.2,0.3-0.5,0.3-0.9v-0.5c0-0.4-0.1-0.7-0.3-0.9s-0.5-0.3-0.8-0.3
				c-0.3,0-0.6,0.1-0.8,0.3c-0.2,0.2-0.3,0.5-0.3,0.9V296.9z"/>
		</g>
	</g>
	<g>
		<path class="st10" d="M697.8,189H489.9c-9,0-16.3-7.3-16.3-16.3V85.3c0-9,7.3-16.3,16.3-16.3h207.8c9,0,16.3,7.3,16.3,16.3v87.4
			C714.1,181.7,706.8,189,697.8,189z"/>
		<g>
			<path class="st25" d="M523,125.2c0,1-0.3,1.9-0.8,2.7c-0.5,0.8-1.2,1.4-2.1,1.9c1,0.5,1.8,1.2,2.4,2s0.9,1.9,0.9,3.1
				c0,1.9-0.7,3.4-2,4.5s-3.1,1.7-5.4,1.7c-2.3,0-4.1-0.6-5.5-1.7s-2-2.6-2-4.5c0-1.1,0.3-2.2,0.9-3s1.4-1.6,2.5-2.1
				c-0.9-0.5-1.6-1.1-2.1-1.9c-0.5-0.8-0.8-1.7-0.8-2.7c0-1.9,0.6-3.3,1.9-4.4s3-1.6,5.1-1.6c2.2,0,3.9,0.5,5.1,1.6
				S523,123.3,523,125.2z M518.5,134.5c0-0.9-0.2-1.6-0.7-2s-1.1-0.7-1.8-0.7s-1.3,0.2-1.8,0.7s-0.7,1.1-0.7,2c0,0.8,0.2,1.5,0.7,2
				s1.1,0.7,1.8,0.7c0.7,0,1.3-0.2,1.8-0.7S518.5,135.4,518.5,134.5z M516,123c-0.7,0-1.2,0.2-1.5,0.7s-0.5,1-0.5,1.8
				c0,0.8,0.2,1.4,0.5,1.8s0.9,0.7,1.6,0.7c0.7,0,1.2-0.2,1.5-0.7s0.5-1.1,0.5-1.8s-0.2-1.4-0.5-1.8S516.7,123,516,123z"/>
			<path class="st25" d="M529.1,136c0.8,0,1.4,0.2,1.9,0.7s0.8,1.1,0.8,1.8s-0.3,1.3-0.8,1.8s-1.2,0.7-1.9,0.7c-0.8,0-1.4-0.2-2-0.7
				s-0.8-1.1-0.8-1.8s0.3-1.3,0.8-1.8S528.3,136,529.1,136z"/>
			<path class="st25" d="M549.9,122.1l-8,18.7h-5.2l8-17.5h-10.2v-3.8h15.4V122.1z"/>
		</g>
		<g>
			<path class="st18" d="M514.4,104.6H512v4h-1.3v-10h3.3c1.1,0,2,0.3,2.6,0.8s0.9,1.3,0.9,2.2c0,0.6-0.2,1.2-0.5,1.6
				s-0.8,0.8-1.4,1l2.3,4.2v0.1h-1.4L514.4,104.6z M512,103.5h2c0.7,0,1.2-0.2,1.6-0.5s0.6-0.8,0.6-1.4c0-0.6-0.2-1.1-0.6-1.4
				s-0.9-0.5-1.6-0.5h-2V103.5z"/>
			<path class="st18" d="M527,104c0,1-0.2,1.8-0.5,2.6s-0.8,1.3-1.4,1.7s-1.3,0.6-2.1,0.6c-0.8,0-1.5-0.2-2.1-0.6s-1.1-0.9-1.4-1.6
				s-0.5-1.5-0.5-2.5v-0.7c0-1,0.2-1.8,0.5-2.5s0.8-1.3,1.4-1.7s1.3-0.6,2.1-0.6c0.8,0,1.5,0.2,2.1,0.6s1.1,0.9,1.4,1.7
				s0.5,1.6,0.5,2.6V104z M525.7,103.3c0-1.2-0.2-2.1-0.7-2.7s-1.1-0.9-2-0.9c-0.8,0-1.5,0.3-2,0.9s-0.7,1.5-0.7,2.6v0.7
				c0,1.1,0.2,2,0.7,2.7s1.1,1,2,1c0.8,0,1.5-0.3,2-0.9s0.7-1.5,0.7-2.7V103.3z"/>
			<path class="st18" d="M530.4,108.6h-1.3v-10h1.3V108.6z"/>
		</g>
		<g>
			<path class="st18" d="M516.6,152.8h-3.2v8.9h-1.3v-8.9h-3.2v-1.1h7.7V152.8z"/>
			<path class="st18" d="M521.7,161.7c-0.1-0.1-0.1-0.4-0.2-0.8c-0.6,0.6-1.3,0.9-2.1,0.9c-0.7,0-1.3-0.2-1.8-0.6s-0.7-0.9-0.7-1.6
				c0-0.8,0.3-1.4,0.9-1.8s1.4-0.6,2.5-0.6h1.2v-0.6c0-0.4-0.1-0.8-0.4-1.1s-0.7-0.4-1.2-0.4c-0.5,0-0.8,0.1-1.1,0.3
				s-0.5,0.5-0.5,0.8H517c0-0.4,0.1-0.7,0.4-1.1s0.6-0.6,1.1-0.8s0.9-0.3,1.5-0.3c0.9,0,1.5,0.2,2,0.6s0.7,1,0.8,1.8v3.4
				c0,0.7,0.1,1.2,0.3,1.6v0.1H521.7z M519.6,160.7c0.4,0,0.8-0.1,1.1-0.3s0.6-0.5,0.8-0.8v-1.5h-1c-1.5,0-2.3,0.5-2.3,1.4
				c0,0.4,0.1,0.7,0.4,0.9S519.2,160.7,519.6,160.7z"/>
			<path class="st18" d="M528.3,155.4c-0.2,0-0.4,0-0.6,0c-0.8,0-1.4,0.4-1.7,1.1v5.2h-1.3v-7.4h1.2l0,0.9c0.4-0.7,1-1,1.8-1
				c0.2,0,0.4,0,0.6,0.1V155.4z"/>
			<path class="st18" d="M529,157.9c0-1.2,0.3-2.1,0.8-2.8s1.2-1,2.1-1c0.9,0,1.6,0.3,2.1,1l0.1-0.8h1.2v7.2c0,1-0.3,1.7-0.9,2.3
				s-1.3,0.8-2.3,0.8c-0.5,0-1.1-0.1-1.6-0.3s-0.9-0.5-1.2-0.9l0.7-0.8c0.5,0.7,1.2,1,2,1c0.6,0,1.1-0.2,1.4-0.5s0.5-0.8,0.5-1.5
				v-0.6c-0.5,0.6-1.2,0.9-2.1,0.9c-0.9,0-1.6-0.3-2.1-1S529,159.1,529,157.9z M530.3,158c0,0.8,0.2,1.5,0.5,2s0.8,0.7,1.4,0.7
				c0.8,0,1.4-0.4,1.8-1.1v-3.4c-0.4-0.7-1-1.1-1.7-1.1c-0.6,0-1.1,0.2-1.4,0.7S530.3,157.1,530.3,158z"/>
			<path class="st18" d="M540.2,161.8c-1,0-1.8-0.3-2.4-1s-0.9-1.5-0.9-2.6v-0.2c0-0.7,0.1-1.4,0.4-2c0.3-0.6,0.7-1,1.2-1.4
				c0.5-0.3,1-0.5,1.6-0.5c1,0,1.7,0.3,2.2,1s0.8,1.5,0.8,2.7v0.5h-5c0,0.7,0.2,1.3,0.6,1.8c0.4,0.4,0.9,0.7,1.6,0.7
				c0.4,0,0.8-0.1,1.1-0.3s0.6-0.4,0.8-0.7l0.8,0.6C542.4,161.3,541.5,161.8,540.2,161.8z M540.1,155.2c-0.5,0-0.9,0.2-1.3,0.6
				s-0.6,0.9-0.6,1.6h3.7v-0.1c0-0.6-0.2-1.1-0.5-1.5S540.6,155.2,540.1,155.2z"/>
			<path class="st18" d="M546.3,152.5v1.8h1.4v1h-1.4v4.6c0,0.3,0.1,0.5,0.2,0.7c0.1,0.1,0.3,0.2,0.6,0.2c0.1,0,0.3,0,0.6-0.1v1
				c-0.3,0.1-0.7,0.1-1,0.1c-0.6,0-1-0.2-1.3-0.5s-0.4-0.8-0.4-1.5v-4.6h-1.3v-1h1.3v-1.8H546.3z"/>
			<path class="st18" d="M552.2,161.8c-1,0-1.8-0.3-2.4-1s-0.9-1.5-0.9-2.6v-0.2c0-0.7,0.1-1.4,0.4-2c0.3-0.6,0.7-1,1.2-1.4
				c0.5-0.3,1-0.5,1.6-0.5c1,0,1.7,0.3,2.2,1s0.8,1.5,0.8,2.7v0.5h-5c0,0.7,0.2,1.3,0.6,1.8c0.4,0.4,0.9,0.7,1.6,0.7
				c0.4,0,0.8-0.1,1.1-0.3s0.6-0.4,0.8-0.7l0.8,0.6C554.4,161.3,553.5,161.8,552.2,161.8z M552.1,155.2c-0.5,0-0.9,0.2-1.3,0.6
				s-0.6,0.9-0.6,1.6h3.7v-0.1c0-0.6-0.2-1.1-0.5-1.5S552.6,155.2,552.1,155.2z"/>
			<path class="st18" d="M556.3,157.9c0-1.1,0.3-2,0.8-2.7s1.2-1,2.1-1c0.9,0,1.6,0.3,2.1,0.9v-3.9h1.3v10.5h-1.2l-0.1-0.8
				c-0.5,0.6-1.2,0.9-2.1,0.9c-0.9,0-1.6-0.4-2.1-1.1C556.5,160,556.3,159.1,556.3,157.9L556.3,157.9z M557.5,158
				c0,0.8,0.2,1.5,0.5,2s0.8,0.7,1.4,0.7c0.8,0,1.4-0.4,1.8-1.1v-3.4c-0.4-0.7-1-1-1.7-1c-0.6,0-1.1,0.2-1.4,0.7
				S557.5,157.1,557.5,158z"/>
			<path class="st18" d="M571.8,157.6h-2.3v4h-1.3v-10h3.3c1.1,0,2,0.3,2.6,0.8c0.6,0.5,0.9,1.3,0.9,2.2c0,0.6-0.2,1.2-0.5,1.6
				c-0.3,0.5-0.8,0.8-1.4,1l2.3,4.2v0.1H574L571.8,157.6z M569.5,156.6h2c0.7,0,1.2-0.2,1.6-0.5c0.4-0.3,0.6-0.8,0.6-1.4
				c0-0.6-0.2-1.1-0.6-1.4c-0.4-0.3-0.9-0.5-1.6-0.5h-2V156.6z"/>
			<path class="st18" d="M584.4,157c0,1-0.2,1.8-0.5,2.6s-0.8,1.3-1.4,1.7s-1.3,0.6-2.1,0.6c-0.8,0-1.5-0.2-2.1-0.6
				s-1.1-0.9-1.4-1.6c-0.3-0.7-0.5-1.5-0.5-2.5v-0.7c0-1,0.2-1.8,0.5-2.5s0.8-1.3,1.4-1.7c0.6-0.4,1.3-0.6,2.1-0.6
				c0.8,0,1.5,0.2,2.1,0.6c0.6,0.4,1.1,0.9,1.4,1.7s0.5,1.6,0.5,2.6V157z M583.1,156.4c0-1.2-0.2-2.1-0.7-2.7s-1.1-0.9-2-0.9
				c-0.8,0-1.5,0.3-2,0.9c-0.5,0.6-0.7,1.5-0.7,2.6v0.7c0,1.1,0.2,2,0.7,2.7c0.5,0.7,1.1,1,2,1c0.8,0,1.5-0.3,2-0.9s0.7-1.5,0.7-2.7
				V156.4z"/>
			<path class="st18" d="M587.8,161.7h-1.3v-10h1.3V161.7z"/>
			<path class="st18" d="M590,161c0-0.2,0.1-0.4,0.2-0.5c0.1-0.1,0.3-0.2,0.6-0.2s0.5,0.1,0.6,0.2c0.1,0.1,0.2,0.3,0.2,0.5
				c0,0.2-0.1,0.4-0.2,0.5c-0.1,0.1-0.3,0.2-0.6,0.2s-0.5-0.1-0.6-0.2C590,161.4,590,161.2,590,161z M590,155c0-0.2,0.1-0.4,0.2-0.5
				c0.1-0.1,0.3-0.2,0.6-0.2s0.5,0.1,0.6,0.2c0.1,0.1,0.2,0.3,0.2,0.5c0,0.2-0.1,0.4-0.2,0.5c-0.1,0.1-0.3,0.2-0.6,0.2
				s-0.5-0.1-0.6-0.2C590,155.3,590,155.2,590,155z"/>
			<path class="st18" d="M602.8,154.3c0,0.5-0.1,0.9-0.4,1.3c-0.3,0.4-0.6,0.7-1.1,0.9c0.5,0.2,0.9,0.5,1.2,1
				c0.3,0.4,0.5,0.9,0.5,1.5c0,0.9-0.3,1.5-0.9,2.1c-0.6,0.5-1.3,0.8-2.3,0.8c-1,0-1.7-0.3-2.3-0.8c-0.6-0.5-0.9-1.2-0.9-2.1
				c0-0.5,0.1-1,0.4-1.5c0.3-0.4,0.7-0.8,1.2-1c-0.4-0.2-0.8-0.5-1-0.9s-0.4-0.8-0.4-1.3c0-0.8,0.3-1.5,0.8-2s1.2-0.7,2.1-0.7
				c0.9,0,1.6,0.2,2.1,0.7C602.5,152.8,602.8,153.5,602.8,154.3z M601.7,158.9c0-0.6-0.2-1-0.5-1.4c-0.4-0.4-0.8-0.5-1.4-0.5
				s-1,0.2-1.4,0.5c-0.3,0.3-0.5,0.8-0.5,1.4s0.2,1,0.5,1.3c0.3,0.3,0.8,0.5,1.4,0.5c0.6,0,1.1-0.2,1.4-0.5S601.7,159.5,601.7,158.9
				z M599.8,152.6c-0.5,0-0.9,0.2-1.2,0.5c-0.3,0.3-0.5,0.7-0.5,1.3c0,0.5,0.2,0.9,0.5,1.2c0.3,0.3,0.7,0.5,1.2,0.5s0.9-0.2,1.2-0.5
				c0.3-0.3,0.5-0.7,0.5-1.2s-0.2-0.9-0.5-1.2S600.3,152.6,599.8,152.6z"/>
		</g>
	</g>
	<g>
		<path class="st10" d="M697.8,323H489.9c-9,0-16.3-7.3-16.3-16.3v-87.4c0-9,7.3-16.3,16.3-16.3h207.8c9,0,16.3,7.3,16.3,16.3v87.4
			C714.1,315.7,706.8,323,697.8,323z"/>
		<g>
			<path class="st25" d="M518.6,279.8h-5V264l-4.9,1.4v-3.8l9.4-3.2h0.5V279.8z"/>
			<path class="st25" d="M529.5,267.1h2.3c1.8,0,2.8-0.9,2.8-2.7c0-0.7-0.2-1.3-0.7-1.7s-1.1-0.7-1.9-0.7c-0.7,0-1.2,0.2-1.7,0.6
				s-0.7,0.9-0.7,1.4h-4.9c0-1.1,0.3-2.1,0.9-3s1.5-1.6,2.6-2.1s2.3-0.7,3.7-0.7c2.4,0,4.2,0.5,5.6,1.6s2,2.6,2,4.5
				c0,0.9-0.3,1.8-0.8,2.6c-0.6,0.8-1.4,1.5-2.5,2c1.1,0.4,2,1,2.7,1.9s1,1.9,1,3.1c0,1.9-0.7,3.4-2.2,4.6s-3.4,1.7-5.8,1.7
				c-1.4,0-2.7-0.3-3.9-0.8s-2.1-1.3-2.7-2.2s-0.9-2-0.9-3.2h5c0,0.7,0.3,1.2,0.8,1.7s1.2,0.7,1.9,0.7c0.9,0,1.6-0.2,2.1-0.7
				c0.5-0.5,0.8-1.1,0.8-1.9c0-1.1-0.3-1.8-0.8-2.3s-1.3-0.7-2.2-0.7h-2.4V267.1z"/>
			<path class="st25" d="M557.2,271.1c0,2.9-0.6,5.1-1.9,6.7s-3.1,2.3-5.5,2.3c-2.4,0-4.2-0.8-5.5-2.4s-1.9-3.8-1.9-6.7v-3.9
				c0-2.9,0.6-5.1,1.9-6.7s3.1-2.3,5.5-2.3s4.2,0.8,5.5,2.4s1.9,3.8,1.9,6.7V271.1z M552.3,266.6c0-1.5-0.2-2.7-0.6-3.4
				s-1-1.1-1.9-1.1c-0.8,0-1.5,0.4-1.9,1.1s-0.6,1.8-0.6,3.2v5.4c0,1.6,0.2,2.8,0.6,3.5s1,1.1,1.9,1.1c0.8,0,1.5-0.4,1.9-1.1
				s0.6-1.8,0.6-3.4V266.6z"/>
			<path class="st25" d="M574.6,271.1c0,2.9-0.6,5.1-1.9,6.7s-3.1,2.3-5.5,2.3c-2.4,0-4.2-0.8-5.5-2.4s-1.9-3.8-1.9-6.7v-3.9
				c0-2.9,0.6-5.1,1.9-6.7s3.1-2.3,5.5-2.3s4.2,0.8,5.5,2.4s1.9,3.8,1.9,6.7V271.1z M569.6,266.6c0-1.5-0.2-2.7-0.6-3.4
				s-1-1.1-1.9-1.1c-0.8,0-1.5,0.4-1.9,1.1s-0.6,1.8-0.6,3.2v5.4c0,1.6,0.2,2.8,0.6,3.5s1,1.1,1.9,1.1c0.8,0,1.5-0.4,1.9-1.1
				s0.6-1.8,0.6-3.4V266.6z"/>
			<path class="st25" d="M591.9,271.1c0,2.9-0.6,5.1-1.9,6.7s-3.1,2.3-5.5,2.3c-2.4,0-4.2-0.8-5.5-2.4s-1.9-3.8-1.9-6.7v-3.9
				c0-2.9,0.6-5.1,1.9-6.7s3.1-2.3,5.5-2.3s4.2,0.8,5.5,2.4s1.9,3.8,1.9,6.7V271.1z M587,266.6c0-1.5-0.2-2.7-0.6-3.4
				s-1-1.1-1.9-1.1c-0.8,0-1.5,0.4-1.9,1.1s-0.6,1.8-0.6,3.2v5.4c0,1.6,0.2,2.8,0.6,3.5s1,1.1,1.9,1.1c0.8,0,1.5-0.4,1.9-1.1
				s0.6-1.8,0.6-3.4V266.6z"/>
			<path class="st25" d="M603.5,267.7h5v4.2h-5v5.7h-4.6v-5.7h-5v-4.2h5v-5.6h4.6V267.7z"/>
		</g>
		<path class="st26" d="M658.5,241.5c0-4.1,3.4-7.5,7.5-7.5c4.1,0,7.5,3.4,7.5,7.5c0,4.1-3.4,7.5-7.5,7.5
			C661.9,249,658.5,245.6,658.5,241.5z M662.8,242.4l2.2-2.3v5.5c0,0.4,0.3,0.7,0.7,0.7h0.5c0.4,0,0.7-0.3,0.7-0.7v-5.5l2.2,2.3
			c0.3,0.3,0.8,0.3,1,0l0.3-0.3c0.3-0.3,0.3-0.7,0-1l-4-4c-0.3-0.3-0.7-0.3-1,0l-4,4c-0.3,0.3-0.3,0.7,0,1l0.3,0.3
			C662.1,242.7,662.6,242.7,662.8,242.4z"/>
		<g>
			<path class="st18" d="M517.2,241c-0.1,1.1-0.5,1.9-1.2,2.4s-1.5,0.9-2.6,0.9c-1.2,0-2.1-0.4-2.8-1.3s-1.1-2-1.1-3.4v-1
				c0-0.9,0.2-1.7,0.5-2.4s0.8-1.2,1.4-1.6s1.3-0.6,2.1-0.6c1.1,0,1.9,0.3,2.5,0.9s1,1.4,1.1,2.5h-1.3c-0.1-0.8-0.4-1.4-0.7-1.7
				s-0.9-0.5-1.6-0.5c-0.8,0-1.5,0.3-2,0.9c-0.5,0.6-0.7,1.5-0.7,2.6v1c0,1.1,0.2,1.9,0.7,2.6c0.5,0.6,1.1,1,1.9,1
				c0.7,0,1.3-0.2,1.7-0.5s0.6-0.9,0.8-1.7H517.2z"/>
			<path class="st18" d="M520.2,244.2h-1.3v-10.5h1.3V244.2z"/>
			<path class="st18" d="M522.2,234.8c0-0.2,0.1-0.4,0.2-0.5s0.3-0.2,0.6-0.2s0.4,0.1,0.6,0.2s0.2,0.3,0.2,0.5s-0.1,0.4-0.2,0.5
				s-0.3,0.2-0.6,0.2s-0.4-0.1-0.6-0.2S522.2,235,522.2,234.8z M523.6,244.2h-1.3v-7.4h1.3V244.2z"/>
			<path class="st18" d="M528.7,244.3c-1,0-1.8-0.3-2.4-1s-0.9-1.5-0.9-2.6v-0.2c0-0.7,0.1-1.4,0.4-2s0.7-1,1.2-1.4s1-0.5,1.6-0.5
				c1,0,1.7,0.3,2.2,1s0.8,1.5,0.8,2.7v0.5h-5c0,0.7,0.2,1.3,0.6,1.8s0.9,0.7,1.6,0.7c0.4,0,0.8-0.1,1.1-0.3
				c0.3-0.2,0.6-0.4,0.8-0.7l0.8,0.6C530.9,243.8,529.9,244.3,528.7,244.3z M528.5,237.7c-0.5,0-0.9,0.2-1.3,0.6s-0.6,0.9-0.6,1.6
				h3.7v-0.1c0-0.6-0.2-1.1-0.5-1.5C529.5,237.8,529.1,237.7,528.5,237.7z"/>
			<path class="st18" d="M534.2,236.8l0,0.9c0.6-0.7,1.3-1.1,2.2-1.1c1.6,0,2.4,0.9,2.4,2.6v4.9h-1.3v-4.9c0-0.5-0.1-0.9-0.4-1.2
				c-0.2-0.3-0.6-0.4-1.1-0.4c-0.4,0-0.8,0.1-1.1,0.3s-0.6,0.5-0.7,0.9v5.3H533v-7.4H534.2z"/>
			<path class="st18" d="M542.5,235v1.8h1.4v1h-1.4v4.6c0,0.3,0.1,0.5,0.2,0.7c0.1,0.1,0.3,0.2,0.6,0.2c0.1,0,0.3,0,0.6-0.1v1
				c-0.3,0.1-0.7,0.1-1,0.1c-0.6,0-1-0.2-1.3-0.5s-0.4-0.8-0.4-1.5v-4.6h-1.3v-1h1.3V235H542.5z"/>
		</g>
	</g>
	<g>
		<path class="st10" d="M1005.6,250.7H739.8c-9,0-16.3-7.3-16.3-16.3V74.8c0-9,7.3-16.3,16.3-16.3h265.8c9,0,16.3,7.3,16.3,16.3
			v159.6C1021.9,243.4,1014.6,250.7,1005.6,250.7z"/>
		<path class="st27" d="M885.2,137.9c1.5,0,1.5,0,3,0c1,0,2,0,3,0c2.5,0.1,2.5,0.1,3.5,1.1c0.1,2.6,0.1,5.3,0.1,7.9
			c0,0.8,0,1.7,0,2.5c0,2.8,0,5.5,0,8.3c0,1.9,0,3.8,0,5.7c0,5,0,10,0,15.1c0,5.1,0,10.2,0,15.4c0,10.1,0,20.1,0,30.2
			c-4.3,0-8.6,0-13,0c0-11.1,0-22.1-0.1-33.2c0-5.1,0-10.3,0-15.4c0-5,0-9.9,0-14.9c0-1.9,0-3.8,0-5.7c0-2.6,0-5.3,0-7.9
			c0-0.8,0-1.6,0-2.4C881.7,138.1,881.7,138.1,885.2,137.9z"/>
		<path class="st28" d="M985.2,162.1c1.8,0,3.6,0,5.4-0.1c1,0,2,0,3.1,0c2.5,0.1,2.5,0.1,3.5,1.1c0.1,1.9,0.1,3.9,0.1,5.8
			c0,1.2,0,2.5,0,3.8c0,1.4,0,2.7,0,4.1c0,1.4,0,2.8,0,4.2c0,3.7,0,7.3,0,11c0,3.7,0,7.5,0,11.2c0,7.3,0,14.7,0,22c-4,0-7.9,0-12,0
			c-0.2-7.9-0.3-15.8-0.4-23.8c-0.1-3.7-0.1-7.4-0.2-11c-0.1-3.5-0.1-7.1-0.2-10.6c0-1.4-0.1-2.7-0.1-4.1c0-1.9-0.1-3.8-0.1-5.7
			c0-1.1,0-2.2-0.1-3.3C984.2,164.1,984.2,164.1,985.2,162.1z"/>
		<path class="st29" d="M804.8,165c1.1,0,1.1,0,2.1,0c1.9,0.1,1.9,0.1,3.9,1.1c1.4,7.2,1.1,14.8,1.1,22.1c0,1,0,2,0,3
			c0,2.1,0,4.2,0,6.3c0,3.2,0,6.4,0,9.7c0,2,0,4.1,0,6.1c0,1,0,1.9,0,2.9c0,0.9,0,1.8,0,2.7c0,0.8,0,1.6,0,2.4
			c-0.1,1.8-0.1,1.8-1.1,2.8c-4,0-7.9,0-12,0c0-19.1,0-38.3,0-58C801,165,802.3,164.9,804.8,165z"/>
		<path class="st30" d="M843.2,172.9c1.5,0,1.5,0,3,0c1,0,2,0,3,0c2.5,0.1,2.5,0.1,3.5,1.1c0.1,1.6,0.1,3.1,0.1,4.7c0,1,0,2,0,3
			c0,1.1,0,2.2,0,3.3c0,1.1,0,2.2,0,3.4c0,3.6,0,7.1,0,10.7c0,2.4,0,4.8,0,7.2c0,5.9,0,11.8,0,17.7c-4.3,0-8.6,0-13,0
			c0-7.1,0-14.2-0.1-21.3c0-2.4,0-4.8,0-7.3c0-3.5,0-6.9,0-10.4c0-1.1,0-2.2,0-3.3c0-1,0-2,0-3c0-0.9,0-1.8,0-2.7
			C839.8,173.1,840.2,173.1,843.2,172.9z"/>
		<path class="st31" d="M760.3,175c1.5,0,1.5,0,3.1,0c1,0,2,0,3.1,0c1.2,0,1.2,0,2.4,0c1.2,2.4,1.1,3.9,1.1,6.5c0,0.9,0,1.9,0,2.9
			c0,1,0,2,0,3.1c0,1,0,2.1,0,3.2c0,3.3,0,6.7,0,10c0,2.3,0,4.5,0,6.8c0,5.5,0,11.1,0,16.6c-4.3,0-8.6,0-13,0c0-6.8,0-13.6-0.1-20.5
			c0-2.3,0-4.6,0-7c0-3.3,0-6.7,0-10c0-1,0-2.1,0-3.2c0-1,0-1.9,0-2.9c0-0.9,0-1.7,0-2.6C756.8,175,757.3,175.1,760.3,175z"/>
		<path class="st32" d="M885.2,137.9c1.5,0,1.5,0,3,0c1,0,2,0,3,0c2.5,0.1,2.5,0.1,3.5,1.1c0.1,3.7,0,7.3,0,11c-4.3,0-8.6,0-13,0
			c-0.1-8.5-0.1-8.5,0-11C882.8,138.1,882.8,138.1,885.2,137.9z"/>
		<path class="st33" d="M919.7,211.1c3.3,0,6.6,0,10,0c0,4.9,0,9.9,0,15c-3.3,0-6.6,0-10,0C919.7,221.1,919.7,216.2,919.7,211.1z"/>
		<path class="st34" d="M760.3,175c1.5,0,1.5,0,3.1,0c1,0,2,0,3.1,0c1.2,0,1.2,0,2.4,0c0,1.8,0,3.6,0.1,5.4c0,1,0,2,0,3.1
			c-0.1,2.5-0.1,2.5-1.1,3.5c-1.7,0.1-3.3,0.1-5,0.1c-1.4,0-1.4,0-2.8,0c-2.2-0.1-2.2-0.1-3.2-1.1c-0.1-1.7-0.1-3.3-0.1-5
			c0-0.9,0-1.8,0-2.8C756.8,175.1,757.1,175.1,760.3,175z"/>
		<path class="st35" d="M804.8,165c1.1,0,1.1,0,2.1,0c1.9,0.1,1.9,0.1,3.9,1.1c0,1.6,0,3.3,0.1,4.9c0,0.9,0,1.8,0,2.8
			c-0.1,2.3-0.1,2.3-1.1,3.3c-1.7,0.1-3.3,0.1-5,0.1c-1.4,0-1.4,0-2.8,0c-2.2-0.1-2.2-0.1-3.2-1.1c-0.1-1.7-0.1-3.4-0.1-5.1
			c0-0.9,0-1.8,0-2.8c0-0.7,0-1.4,0-2.2C801,165,802.3,164.9,804.8,165z"/>
		<path class="st36" d="M852.8,174.1c0,3.3,0,6.6,0,10c-4,0-7.9,0-12,0c-0.1-7.8-0.1-7.8,1-10c2-0.4,2-0.4,4.4-0.7
			c0.8-0.1,1.6-0.2,2.4-0.3C850.8,173.1,850.8,173.1,852.8,174.1z"/>
		<path class="st36" d="M922.5,203.8c0.7,0,1.4,0,2.2,0c0.7,0,1.4,0,2.2,0c1.8,0.1,1.8,0.1,2.8,1.1c0,2,0,4,0,6c-3.3,0-6.6,0-10,0
			c0-2,0-4,0-6C920.7,203.9,920.7,203.9,922.5,203.8z"/>
		<path class="st37" d="M882.8,138.1c1.8,0,3.6,0,5.4-0.1c1,0,2,0,3.1,0c2.5,0.1,2.5,0.1,3.5,1.1c0.1,3.7,0,7.3,0,11
			c-4.3,0-8.6,0-13,0c2-2,2-2,4.2-2.2c2.3,0.1,4.6,0.1,6.8,0.2c0-3,0-5.9,0-9c-3.6,0.3-7.3,0.7-11,1
			C882.1,139.4,882.4,138.8,882.8,138.1z"/>
		<path class="st27" d="M953.6,139.6c1.5,0,1.5,0,3,0c1,0,2,0,3,0c2.5,0.1,2.5,0.1,3.5,1.1c0.1,2.6,0.1,5.3,0.1,7.9
			c0,0.8,0,1.7,0,2.5c0,2.8,0,5.5,0,8.3c0,1.9,0,3.8,0,5.7c0,5,0,10,0,15.1c0,5.1,0,10.2,0,15.4c0,10.1,0,20.1,0,30.2
			c-4.3,0-8.6,0-13,0c0-11.1,0-22.1-0.1-33.2c0-5.1,0-10.3,0-15.4c0-5,0-9.9,0-14.9c0-1.9,0-3.8,0-5.7c0-2.6,0-5.3,0-7.9
			c0-0.8,0-1.6,0-2.4C950,139.8,950,139.8,953.6,139.6z"/>
		<polygon class="st28" points="983.5,163.8 983.8,226.1 997.2,226.1 997.2,164.1 997.1,163 983.5,162.8 		"/>
		<polygon class="st38" points="983.5,162.8 983.5,154.3 996.4,154.3 997,154.3 997.1,163 		"/>
		<polygon class="st38" points="950.3,140.8 950.5,133 962.8,133 963.1,140.7 		"/>
		<polygon class="st38" points="881.8,139.1 881.7,149.9 894.8,150.1 894.8,138 881.7,137.7 		"/>
		<polygon class="st38" points="839.6,172.9 839.7,184.1 852.9,184.1 852.9,172.9 		"/>
		<polygon class="st38" points="798.7,165.9 798.7,178 811.9,178.2 811.6,165.9 		"/>
		<polygon class="st38" points="756.6,175 756.6,186.9 769.9,187.2 769.7,174.9 756.6,174.9 		"/>
	</g>
	<polygon class="st31" points="756.7,188.7 756.8,226.1 769.8,226.1 769.9,188.7 	"/>
	<polygon class="st31" points="798.7,179.2 811.9,179.2 811.9,226.1 798.8,226.1 	"/>
	<polygon class="st31" points="839.7,187.1 852.9,187.1 852.8,226.1 839.8,226.1 	"/>
	<polygon class="st31" points="881.8,151.1 881.8,225.1 894.8,225.1 894.8,151.9 	"/>
	<line class="st39" x1="734.1" y1="226.7" x2="1005.8" y2="226.7"/>
	<line class="st39" x1="747.1" y1="237.6" x2="747.1" y2="72.5"/>
	<path class="st12" d="M929.1,75.9h74.8c4,0,7.2,2.2,7.2,5l0,0c0,2.8-3.2,5-7.2,5h-74.8c-4,0-7.2-2.2-7.2-5l0,0
		C921.9,78.2,925.1,75.9,929.1,75.9z"/>
	<path class="st12" d="M929.1,95.3h74.8c4,0,7.2,2.2,7.2,5l0,0c0,2.8-3.2,5-7.2,5h-74.8c-4,0-7.2-2.2-7.2-5l0,0
		C921.9,97.6,925.1,95.3,929.1,95.3z"/>
	<circle class="st20" cx="911.7" cy="81.4" r="6.5"/>
	
		<linearGradient id="SVGID_00000022548003077967771150000014412428998898188467_" gradientUnits="userSpaceOnUse" x1="904.0631" y1="351.702" x2="917.6455" y2="351.9192" gradientTransform="matrix(1 0 0 1 0 -254)">
		<stop  offset="0" style="stop-color:#88F96D"/>
		<stop  offset="1" style="stop-color:#66E773"/>
	</linearGradient>
	<circle style="fill:url(#SVGID_00000022548003077967771150000014412428998898188467_);" cx="911.2" cy="97.8" r="6.5"/>
	<g>
		<path class="st41" d="M1004.1,325.6H737.8c-8.9,0-16.1-7.2-16.1-16.1v-34.6c0-8.9,7.2-16.1,16.1-16.1h266.3
			c8.9,0,16.1,7.2,16.1,16.1v34.6C1020.2,318.4,1013,325.6,1004.1,325.6z"/>
		<g>
			<circle class="st10" cx="776.5" cy="292.7" r="25"/>
			<g>
				<path class="st18" d="M769,288.7c1.1,0,2-0.9,2-2c0-1.1-0.9-2-2-2c-1.1,0-2,0.9-2,2C767,287.8,767.9,288.7,769,288.7z"/>
				<path class="st18" d="M767,291.4c0-0.8,0.6-1.4,1.4-1.4h1.4c0.8,0,1.4,0.6,1.4,1.4v10.9c0,0.8-0.6,1.4-1.4,1.4h-1.4
					c-0.8,0-1.4-0.6-1.4-1.4V291.4z"/>
				<path class="st18" d="M775.1,303.7h1.4c0.8,0,1.4-0.6,1.4-1.4v-6.1c0-2,4.1-3.4,4.1-0.7v6.8c0,0.8,0.6,1.4,1.4,1.4h1.4
					c0.8,0,1.4-0.6,1.4-1.4v-8.2c0-2.7-2-4.1-4.8-4.1s-3.4,2-3.4,2v-0.7c0-0.8-0.6-1.4-1.4-1.4h-1.4c-0.8,0-1.4,0.6-1.4,1.4v10.9
					C773.8,303.1,774.4,303.7,775.1,303.7z"/>
				<path class="st42" d="M787.4,279.2c2.3,0,4.1,1.8,4.1,4.1v21.8c0,2.3-1.8,4.1-4.1,4.1h-21.8c-2.3,0-4.1-1.8-4.1-4.1v-21.8
					c0-2.3,1.8-4.1,4.1-4.1H787.4z M787.4,281.9c0.8,0,1.4,0.6,1.4,1.4v21.8c0,0.8-0.6,1.4-1.4,1.4h-21.8c-0.8,0-1.4-0.6-1.4-1.4
					v-21.8c0-0.8,0.6-1.4,1.4-1.4H787.4z"/>
			</g>
		</g>
		<g>
			<circle class="st10" cx="954.5" cy="294.2" r="25"/>
			<path class="st18" d="M966.7,280.1h-24.4c-1.6,0-2.8,1.7-2.8,3.8v22.5c0,2.1,1.3,3.8,2.8,3.8h24.4c1.6,0,2.8-1.7,2.8-3.8v-22.5
				C969.5,281.7,968.2,280.1,966.7,280.1z M963.4,282.6l-8.9,9.3l-8.9-9.3H963.4z M943.3,307.6v-20.9l11.2,11.5l11.2-11.5v20.9
				H943.3z"/>
		</g>
		<g>
			<circle class="st10" cx="868.2" cy="294.2" r="25"/>
			<path class="st18" d="M868.3,277.2L868.3,277.2c1.2,0,2.2,0.4,3,1.1h0c0.6,0.5,1.1,1.1,1.4,1.8l5.6,10.6l0,0.1l4.3,8.1
				c0.5,0.8,0.7,1.8,0.7,2.8c0,0.8-0.1,1.5-0.4,2.2l0,0c-0.2,0.5-0.5,1-0.8,1.4c-0.4,0.5-0.8,0.9-1.3,1.2c-0.7,0.5-1.6,0.7-2.4,0.7
				h-0.1c-1.1,0-2.1-0.4-3-1.1h0c-0.6-0.5-1.1-1.1-1.4-1.8l-5.6-10.6l0-0.1l-4.3-8.2c-0.4-0.8-0.7-1.8-0.7-2.7
				c0-0.6,0.1-1.1,0.2-1.7l0,0l0,0c0.1-0.2,0.1-0.5,0.1-0.5c0.2-0.5,0.5-0.9,0.8-1.3l0.1-0.1l0,0v0h0l0,0l0,0
				c0.3-0.4,0.7-0.8,1.2-1.1C866.6,277.4,867.4,277.2,868.3,277.2L868.3,277.2z M858.3,307.2L858.3,307.2c-0.9,0-1.8-0.3-2.5-0.7
				c-0.5-0.3-0.9-0.7-1.3-1.2c-0.3-0.4-0.6-0.9-0.8-1.4l0,0c-0.3-0.7-0.4-1.4-0.4-2.2c0-1,0.3-2,0.7-2.8l4.3-8.1l0-0.1l3.8-7.2
				c0.1,0.9,0.3,1.7,0.7,2.5l0.1,0.1l4.2,8v0l0.1,0.2l0.4,0.7l-4.9,9.3c-0.3,0.7-0.8,1.3-1.4,1.8h0
				C860.5,306.8,859.4,307.2,858.3,307.2L858.3,307.2z"/>
		</g>
	</g>
	<text transform="matrix(1 0 0 1 678.8864 245.3374)" class="st18 st43 st44">+15%</text>
	<g>
		<path class="st12" d="M217.8,389.5h46.7c2.5,0,4.5,2.2,4.5,5l0,0c0,2.8-2,5-4.5,5h-46.7c-2.5,0-4.5-2.2-4.5-5l0,0
			C213.3,391.7,215.4,389.5,217.8,389.5z"/>
		<path class="st45" d="M217.8,432.5h102.4c2.5,0,4.5,2.2,4.5,5l0,0c0,2.8-2,5-4.5,5H217.8c-2.5,0-4.5-2.2-4.5-5l0,0
			C213.3,434.7,215.4,432.5,217.8,432.5z"/>
		<path class="st45" d="M217.8,471.5H278c2.5,0,4.5,2.2,4.5,5l0,0c0,2.8-2,5-4.5,5h-60.2c-2.5,0-4.5-2.2-4.5-5l0,0
			C213.3,473.7,215.4,471.5,217.8,471.5z"/>
		<path class="st45" d="M217.8,509.5h91.7c2.5,0,4.5,2.2,4.5,5l0,0c0,2.8-2,5-4.5,5h-91.7c-2.5,0-4.5-2.2-4.5-5l0,0
			C213.3,511.7,215.4,509.5,217.8,509.5z"/>
		<path class="st45" d="M372.4,432.5h57.5c2.5,0,4.5,2.2,4.5,5l0,0c0,2.8-2,5-4.5,5h-57.5c-2.5,0-4.5-2.2-4.5-5l0,0
			C367.9,434.7,369.9,432.5,372.4,432.5z"/>
		<path class="st45" d="M372.4,471.5h23.4c2.5,0,4.5,2.2,4.5,5l0,0c0,2.8-2,5-4.5,5h-23.4c-2.5,0-4.5-2.2-4.5-5l0,0
			C367.9,473.7,369.9,471.5,372.4,471.5z"/>
		<path class="st45" d="M372.4,509.5h45.8c2.5,0,4.5,2.2,4.5,5l0,0c0,2.8-2,5-4.5,5h-45.8c-2.5,0-4.5-2.2-4.5-5l0,0
			C367.9,511.7,369.9,509.5,372.4,509.5z"/>
		<path class="st45" d="M474.8,432.5h64.7c2.5,0,4.5,2.2,4.5,5l0,0c0,2.8-2,5-4.5,5h-64.7c-2.5,0-4.5-2.2-4.5-5l0,0
			C470.3,434.7,472.4,432.5,474.8,432.5z"/>
		<path class="st45" d="M474.8,471.5h90.8c2.5,0,4.5,2.2,4.5,5l0,0c0,2.8-2,5-4.5,5h-90.8c-2.5,0-4.5-2.2-4.5-5l0,0
			C470.3,473.7,472.4,471.5,474.8,471.5z"/>
		<path class="st45" d="M474.8,509.5h45.8c2.5,0,4.5,2.2,4.5,5l0,0c0,2.8-2,5-4.5,5h-45.8c-2.5,0-4.5-2.2-4.5-5l0,0
			C470.3,511.7,472.4,509.5,474.8,509.5z"/>
		<path class="st45" d="M632.1,432.5h34.1c2.5,0,4.5,2.2,4.5,5l0,0c0,2.8-2,5-4.5,5h-34.1c-2.5,0-4.5-2.2-4.5-5l0,0
			C627.6,434.7,629.6,432.5,632.1,432.5z"/>
		<path class="st45" d="M650.1,471.5h16.2c2.5,0,4.5,2.2,4.5,5l0,0c0,2.8-2,5-4.5,5h-16.2c-2.5,0-4.5-2.2-4.5-5l0,0
			C645.6,473.7,647.6,471.5,650.1,471.5z"/>
		<path class="st45" d="M638.4,509.5h27.9c2.5,0,4.5,2.2,4.5,5l0,0c0,2.8-2,5-4.5,5h-27.9c-2.5,0-4.5-2.2-4.5-5l0,0
			C633.9,511.7,635.9,509.5,638.4,509.5z"/>
		<path class="st12" d="M372.4,389.5h32.3c2.5,0,4.5,2.2,4.5,5l0,0c0,2.8-2,5-4.5,5h-32.3c-2.5,0-4.5-2.2-4.5-5l0,0
			C367.9,391.7,369.9,389.5,372.4,389.5z"/>
		<path class="st12" d="M474.8,389.5h45.8c2.5,0,4.5,2.2,4.5,5l0,0c0,2.8-2,5-4.5,5h-45.8c-2.5,0-4.5-2.2-4.5-5l0,0
			C470.3,391.7,472.4,389.5,474.8,389.5z"/>
		<line class="st3" x1="213.3" y1="417" x2="670.7" y2="417"/>
		<line class="st3" x1="213.3" y1="457" x2="670.7" y2="457"/>
		<line class="st3" x1="213.3" y1="496" x2="670.7" y2="496"/>
	</g>
	<g>
		<path class="st46" d="M223.4,344.6h21.5c3,0,5.4,2.2,5.4,5v6c0,2.8-2.4,5-5.4,5h-21.5c-3,0-5.4-2.2-5.4-5v-6
			C218,346.8,220.4,344.6,223.4,344.6z"/>
		<path class="st10" d="M307.5,344.6H329c3,0,5.4,2.2,5.4,5v6c0,2.8-2.4,5-5.4,5h-21.5c-3,0-5.4-2.2-5.4-5v-6
			C302.1,346.8,304.5,344.6,307.5,344.6z"/>
		<path class="st10" d="M391.6,344.6h21.5c3,0,5.4,2.2,5.4,5v6c0,2.8-2.4,5-5.4,5h-21.5c-3,0-5.4-2.2-5.4-5v-6
			C386.2,346.8,388.6,344.6,391.6,344.6z"/>
		<path class="st10" d="M475.7,344.6h21.5c3,0,5.4,2.2,5.4,5v6c0,2.8-2.4,5-5.4,5h-21.5c-3,0-5.4-2.2-5.4-5v-6
			C470.3,346.8,472.7,344.6,475.7,344.6z"/>
		<path class="st10" d="M559.8,344.6h21.5c3,0,5.4,2.2,5.4,5v6c0,2.8-2.4,5-5.4,5h-21.5c-3,0-5.4-2.2-5.4-5v-6
			C554.4,346.8,556.8,344.6,559.8,344.6z"/>
		<path class="st10" d="M643.9,344.6h21.5c3,0,5.4,2.2,5.4,5v6c0,2.8-2.4,5-5.4,5h-21.5c-3,0-5.4-2.2-5.4-5v-6
			C638.5,346.8,640.9,344.6,643.9,344.6z"/>
	</g>
</g>
</svg>
