<?xml version="1.0" encoding="utf-8"?>
<!-- Generator: Adobe Illustrator 27.6.1, SVG Export Plug-In . SVG Version: 6.00 Build 0)  -->
<svg version="1.1" id="Layer_1" xmlns="http://www.w3.org/2000/svg" xmlns:xlink="http://www.w3.org/1999/xlink" x="0px" y="0px"
	 viewBox="0 0 829.7 554.9" style="enable-background:new 0 0 829.7 554.9;" xml:space="preserve">
<style type="text/css">
	.st0{opacity:0.5;}
	.st1{fill:#1D1A27;}
	.st2{fill:none;stroke:#FFFFFF;stroke-opacity:0.16;}
	.st3{fill:#3F3950;}
	.st4{fill:#5E5B71;}
	.st5{fill:#726990;}
	.st6{fill:#FFFFFF;}
	.st7{fill-rule:evenodd;clip-rule:evenodd;fill:#FFFFFF;}
	.st8{fill:#3F3950;stroke:#3F3950;stroke-miterlimit:10;}
	.st9{fill:none;stroke:#5E5B71;}
	.st10{fill:#7AF170;stroke:#7AF170;stroke-miterlimit:10;}
	.st11{fill:#7AF170;stroke:#7AF170;stroke-linecap:round;stroke-linejoin:round;stroke-miterlimit:10;}
	.st12{enable-background:new    ;}
	.st13{fill:#F25A73;stroke:#F25A73;stroke-miterlimit:10;}
	.st14{fill:#F25A73;stroke:#F25A73;stroke-linecap:round;stroke-linejoin:round;stroke-miterlimit:10;}
	.st15{opacity:0.44;fill:#840707;enable-background:new    ;}
	.st16{opacity:0.5;fill:#7AF170;enable-background:new    ;}
	.st17{fill:none;stroke:#736D87;stroke-width:20;stroke-miterlimit:10;}
	.st18{fill:none;stroke:#15D300;stroke-width:20;stroke-miterlimit:10;}
	.st19{fill:none;stroke:#F25A73;stroke-width:20;stroke-miterlimit:10;}
	.st20{fill:none;stroke:#7782FF;stroke-width:20;stroke-miterlimit:10;}
	.st21{fill:#FCFCFC;}
	.st22{fill:#15D300;}
	.st23{fill:#7782FF;}
	.st24{fill:#F25A73;}
	.st25{fill:#302C3F;}
	.st26{fill:#736D87;}
	.st27{fill:none;stroke:#4F80FF;stroke-width:20;stroke-miterlimit:10;}
</style>
<g class="st0">
	<path class="st1" d="M17.8,0h793.8c9.8,0,17.8,10.1,17.8,22.5v509.8c0,12.4-8,22.5-17.8,22.5H17.8C8,554.8,0,544.8,0,532.3V22.5
		C0,10.1,8,0,17.8,0z"/>
	<rect x="0.6" y="0.5" class="st2" width="828.6" height="553.9"/>
</g>
<path class="st3" d="M619.3,59.4h-49.4c-5.3,0-9.6-5.1-9.6-11.5l0,0c0-6.3,4.3-11.5,9.6-11.5h49.4c5.3,0,9.6,5.1,9.6,11.5l0,0
	C628.9,54.3,624.6,59.4,619.3,59.4z"/>
<path class="st4" d="M541.7,59.2h-352c-4.9,0-8.9-4.9-8.9-10.9v-0.7c0-6,4-10.9,8.9-10.9h352c4.9,0,8.9,4.9,8.9,10.9v0.7
	C550.6,54.3,546.6,59.2,541.7,59.2z"/>
<g>
	<circle class="st5" cx="137" cy="47.9" r="20"/>
	<g>
		<path class="st6" d="M131.8,44.9c0.8,0,1.4-0.6,1.4-1.4c0-0.8-0.6-1.4-1.4-1.4c-0.8,0-1.4,0.6-1.4,1.4
			C130.4,44.3,131,44.9,131.8,44.9z"/>
		<path class="st6" d="M130.4,46.7c0-0.5,0.4-0.9,0.9-0.9h0.9c0.5,0,0.9,0.4,0.9,0.9V54c0,0.5-0.4,0.9-0.9,0.9h-0.9
			c-0.5,0-0.9-0.4-0.9-0.9V46.7z"/>
		<path class="st6" d="M135.9,54.9h0.9c0.5,0,0.9-0.4,0.9-0.9v-4.1c0-1.4,2.7-2.3,2.7-0.5V54c0,0.5,0.4,0.9,0.9,0.9h0.9
			c0.5,0,0.9-0.4,0.9-0.9v-5.5c0-1.8-1.4-2.7-3.2-2.7s-2.3,1.4-2.3,1.4v-0.5c0-0.5-0.4-0.9-0.9-0.9h-0.9c-0.5,0-0.9,0.4-0.9,0.9V54
			C135,54.5,135.4,54.9,135.9,54.9z"/>
		<path class="st7" d="M144,38.5c1.5,0,2.7,1.2,2.7,2.7v14.5c0,1.5-1.2,2.7-2.7,2.7h-14.5c-1.5,0-2.7-1.2-2.7-2.7V41.2
			c0-1.5,1.2-2.7,2.7-2.7H144z M144,40.3c0.5,0,0.9,0.4,0.9,0.9v14.5c0,0.5-0.4,0.9-0.9,0.9h-14.5c-0.5,0-0.9-0.4-0.9-0.9V41.2
			c0-0.5,0.4-0.9,0.9-0.9H144z"/>
	</g>
</g>
<path class="st8" d="M374.1,539.4H39.7c-9,0-16.2-7.3-16.2-16.2V344.9c0-9,7.3-16.2,16.2-16.2h334.4c9,0,16.2,7.3,16.2,16.2v178.2
	C390.3,532.1,383.1,539.4,374.1,539.4z"/>
<line class="st9" x1="376.3" y1="378.3" x2="61.7" y2="378.3"/>
<line class="st9" x1="376.3" y1="468.2" x2="61.7" y2="468.2"/>
<line class="st9" x1="376.3" y1="517.8" x2="61.5" y2="517.8"/>
<line class="st9" x1="376.3" y1="426.8" x2="61.5" y2="426.8"/>
<rect x="292.5" y="470.2" class="st10" width="23.1" height="47.7"/>
<rect x="334.8" y="464" class="st10" width="23.1" height="53.9"/>
<rect x="240.5" y="474.8" class="st11" width="23.1" height="43"/>
<rect x="188.5" y="468.2" class="st11" width="23.1" height="49.6"/>
<rect x="137" y="454" class="st11" width="23.1" height="63.8"/>
<rect x="84.5" y="390.3" class="st11" width="23.1" height="127.5"/>
<g class="st12">
	<path class="st6" d="M46.2,517.3c0-0.7,0.1-1.2,0.2-1.6s0.3-0.7,0.6-1c0.3-0.2,0.6-0.3,1-0.3c0.3,0,0.6,0.1,0.8,0.2
		s0.4,0.3,0.6,0.5s0.3,0.5,0.3,0.9c0.1,0.3,0.1,0.8,0.1,1.4c0,0.7-0.1,1.2-0.2,1.6c-0.1,0.4-0.3,0.7-0.6,1c-0.3,0.2-0.6,0.3-1,0.3
		c-0.5,0-0.9-0.2-1.2-0.6C46.4,519.2,46.2,518.4,46.2,517.3z M46.9,517.3c0,0.9,0.1,1.6,0.3,1.9s0.5,0.5,0.8,0.5s0.6-0.2,0.8-0.5
		s0.3-0.9,0.3-1.9c0-0.9-0.1-1.6-0.3-1.9S48.3,515,48,515c-0.3,0-0.6,0.1-0.7,0.4C47,515.8,46.9,516.4,46.9,517.3z"/>
	<path class="st6" d="M50.6,515.8c0-0.4,0.1-0.8,0.3-1c0.2-0.3,0.5-0.4,0.9-0.4c0.3,0,0.6,0.1,0.9,0.4c0.2,0.3,0.3,0.6,0.3,1.1
		c0,0.5-0.1,0.9-0.3,1.1s-0.5,0.4-0.8,0.4c-0.3,0-0.6-0.1-0.8-0.4C50.7,516.7,50.6,516.3,50.6,515.8z M51.8,514.8
		c-0.2,0-0.3,0.1-0.4,0.2s-0.2,0.4-0.2,0.8c0,0.4,0.1,0.6,0.2,0.8c0.1,0.1,0.3,0.2,0.4,0.2c0.2,0,0.3-0.1,0.4-0.2s0.2-0.4,0.2-0.8
		c0-0.4-0.1-0.6-0.2-0.8C52.1,514.9,52,514.8,51.8,514.8z M51.8,520.4l3-6h0.5l-3,6H51.8z M54.2,518.8c0-0.4,0.1-0.8,0.3-1
		c0.2-0.3,0.5-0.4,0.9-0.4c0.3,0,0.6,0.1,0.9,0.4s0.3,0.6,0.3,1.1c0,0.5-0.1,0.9-0.3,1.1c-0.2,0.3-0.5,0.4-0.8,0.4
		c-0.3,0-0.6-0.1-0.8-0.4S54.2,519.3,54.2,518.8z M55.3,517.8c-0.2,0-0.3,0.1-0.4,0.2s-0.2,0.4-0.2,0.8c0,0.4,0.1,0.6,0.2,0.8
		s0.3,0.2,0.4,0.2c0.2,0,0.3-0.1,0.4-0.2s0.2-0.4,0.2-0.8c0-0.4-0.1-0.6-0.2-0.8C55.7,517.9,55.5,517.8,55.3,517.8z"/>
</g>
<g class="st12">
	<path class="st6" d="M44.6,467.3c0-0.7,0.1-1.2,0.2-1.6s0.3-0.7,0.6-1c0.3-0.2,0.6-0.3,1-0.3c0.3,0,0.6,0.1,0.8,0.2
		s0.4,0.3,0.6,0.5s0.3,0.5,0.3,0.9c0.1,0.3,0.1,0.8,0.1,1.4c0,0.7-0.1,1.2-0.2,1.6c-0.1,0.4-0.3,0.7-0.6,1c-0.3,0.2-0.6,0.3-1,0.3
		c-0.5,0-0.9-0.2-1.2-0.6C44.7,469.2,44.6,468.4,44.6,467.3z M45.3,467.3c0,0.9,0.1,1.6,0.3,1.9s0.5,0.5,0.8,0.5s0.6-0.2,0.8-0.5
		s0.3-0.9,0.3-1.9c0-0.9-0.1-1.6-0.3-1.9s-0.5-0.5-0.8-0.5c-0.3,0-0.6,0.1-0.7,0.4C45.4,465.8,45.3,466.4,45.3,467.3z"/>
	<path class="st6" d="M49.2,470.2v-0.8H50v0.8H49.2z"/>
	<path class="st6" d="M51,468.7l0.7-0.1c0.1,0.4,0.2,0.6,0.4,0.8c0.2,0.2,0.4,0.3,0.7,0.3c0.3,0,0.6-0.1,0.8-0.4s0.3-0.6,0.3-1
		c0-0.4-0.1-0.7-0.3-0.9s-0.5-0.3-0.9-0.3c-0.2,0-0.4,0.1-0.6,0.2c-0.2,0.1-0.3,0.2-0.4,0.4l-0.6-0.1l0.5-2.9h2.7v0.7h-2.2l-0.3,1.5
		c0.3-0.2,0.7-0.4,1-0.4c0.5,0,0.9,0.2,1.2,0.5s0.5,0.8,0.5,1.3c0,0.5-0.1,1-0.4,1.3c-0.4,0.5-0.8,0.7-1.4,0.7
		c-0.5,0-0.9-0.1-1.2-0.4S51,469.1,51,468.7z"/>
	<path class="st6" d="M55.4,465.8c0-0.4,0.1-0.8,0.3-1c0.2-0.3,0.5-0.4,0.9-0.4c0.3,0,0.6,0.1,0.9,0.4c0.2,0.3,0.3,0.6,0.3,1.1
		c0,0.5-0.1,0.9-0.3,1.1s-0.5,0.4-0.8,0.4c-0.3,0-0.6-0.1-0.8-0.4C55.5,466.7,55.4,466.3,55.4,465.8z M56.5,464.8
		c-0.2,0-0.3,0.1-0.4,0.2s-0.2,0.4-0.2,0.8c0,0.4,0.1,0.6,0.2,0.8c0.1,0.1,0.3,0.2,0.4,0.2c0.2,0,0.3-0.1,0.4-0.2s0.2-0.4,0.2-0.8
		c0-0.4-0.1-0.6-0.2-0.8C56.9,464.9,56.7,464.8,56.5,464.8z M56.6,470.4l3-6h0.5l-3,6H56.6z M58.9,468.8c0-0.4,0.1-0.8,0.3-1
		c0.2-0.3,0.5-0.4,0.9-0.4c0.3,0,0.6,0.1,0.9,0.4s0.3,0.6,0.3,1.1c0,0.5-0.1,0.9-0.3,1.1c-0.2,0.3-0.5,0.4-0.8,0.4
		c-0.3,0-0.6-0.1-0.8-0.4S58.9,469.3,58.9,468.8z M60.1,467.8c-0.2,0-0.3,0.1-0.4,0.2s-0.2,0.4-0.2,0.8c0,0.4,0.1,0.6,0.2,0.8
		s0.3,0.2,0.4,0.2c0.2,0,0.3-0.1,0.4-0.2s0.2-0.4,0.2-0.8c0-0.4-0.1-0.6-0.2-0.8C60.4,467.9,60.3,467.8,60.1,467.8z"/>
</g>
<g class="st12">
	<path class="st6" d="M49.3,428.8h-0.7v-4.5c-0.2,0.2-0.4,0.3-0.6,0.5c-0.3,0.2-0.5,0.3-0.7,0.4v-0.7c0.4-0.2,0.7-0.4,1-0.7
		s0.5-0.5,0.6-0.8h0.4V428.8z"/>
	<path class="st6" d="M51.2,424.5c0-0.4,0.1-0.8,0.3-1c0.2-0.3,0.5-0.4,0.9-0.4c0.3,0,0.6,0.1,0.9,0.4c0.2,0.3,0.3,0.6,0.3,1.1
		c0,0.5-0.1,0.9-0.3,1.1s-0.5,0.4-0.8,0.4c-0.3,0-0.6-0.1-0.8-0.4C51.3,425.4,51.2,425,51.2,424.5z M52.3,423.5
		c-0.2,0-0.3,0.1-0.4,0.2s-0.2,0.4-0.2,0.8c0,0.4,0.1,0.6,0.2,0.8c0.1,0.1,0.3,0.2,0.4,0.2c0.2,0,0.3-0.1,0.4-0.2s0.2-0.4,0.2-0.8
		c0-0.4-0.1-0.6-0.2-0.8C52.6,423.5,52.5,423.5,52.3,423.5z M52.3,429l3-6h0.5l-3,6H52.3z M54.7,427.5c0-0.4,0.1-0.8,0.3-1
		c0.2-0.3,0.5-0.4,0.9-0.4c0.3,0,0.6,0.1,0.9,0.4s0.3,0.6,0.3,1.1c0,0.5-0.1,0.9-0.3,1.1c-0.2,0.3-0.5,0.4-0.8,0.4
		c-0.3,0-0.6-0.1-0.8-0.4S54.7,428,54.7,427.5z M55.9,426.5c-0.2,0-0.3,0.1-0.4,0.2s-0.2,0.4-0.2,0.8c0,0.4,0.1,0.6,0.2,0.8
		s0.3,0.2,0.4,0.2c0.2,0,0.3-0.1,0.4-0.2s0.2-0.4,0.2-0.8c0-0.4-0.1-0.6-0.2-0.8C56.2,426.6,56.1,426.5,55.9,426.5z"/>
</g>
<g class="st12">
	<path class="st6" d="M46.7,380.7H46v-4.5c-0.2,0.2-0.4,0.3-0.6,0.5c-0.3,0.2-0.5,0.3-0.7,0.4v-0.7c0.4-0.2,0.7-0.4,1-0.7
		s0.5-0.5,0.6-0.8h0.4V380.7z"/>
	<path class="st6" d="M48.8,380.7v-0.8h0.8v0.8H48.8z"/>
	<path class="st6" d="M50.6,379.2l0.7-0.1c0.1,0.4,0.2,0.6,0.4,0.8c0.2,0.2,0.4,0.3,0.7,0.3c0.3,0,0.6-0.1,0.8-0.4s0.3-0.6,0.3-1
		c0-0.4-0.1-0.7-0.3-0.9s-0.5-0.3-0.9-0.3c-0.2,0-0.4,0.1-0.6,0.2c-0.2,0.1-0.3,0.2-0.4,0.4l-0.6-0.1l0.5-2.9H54v0.7h-2.2l-0.3,1.5
		c0.3-0.2,0.7-0.4,1-0.4c0.5,0,0.9,0.2,1.2,0.5s0.5,0.8,0.5,1.3c0,0.5-0.1,1-0.4,1.3c-0.4,0.5-0.8,0.7-1.4,0.7
		c-0.5,0-0.9-0.1-1.2-0.4S50.6,379.6,50.6,379.2z"/>
	<path class="st6" d="M55,376.3c0-0.4,0.1-0.8,0.3-1c0.2-0.3,0.5-0.4,0.9-0.4c0.3,0,0.6,0.1,0.9,0.4c0.2,0.3,0.3,0.6,0.3,1.1
		c0,0.5-0.1,0.9-0.3,1.1s-0.5,0.4-0.8,0.4c-0.3,0-0.6-0.1-0.8-0.4C55.1,377.2,55,376.8,55,376.3z M56.1,375.3
		c-0.2,0-0.3,0.1-0.4,0.2s-0.2,0.4-0.2,0.8c0,0.4,0.1,0.6,0.2,0.8c0.1,0.1,0.3,0.2,0.4,0.2c0.2,0,0.3-0.1,0.4-0.2s0.2-0.4,0.2-0.8
		c0-0.4-0.1-0.6-0.2-0.8C56.4,375.4,56.3,375.3,56.1,375.3z M56.1,380.9l3-6h0.5l-3,6H56.1z M58.5,379.3c0-0.4,0.1-0.8,0.3-1
		c0.2-0.3,0.5-0.4,0.9-0.4c0.3,0,0.6,0.1,0.9,0.4s0.3,0.6,0.3,1.1c0,0.5-0.1,0.9-0.3,1.1c-0.2,0.3-0.5,0.4-0.8,0.4
		c-0.3,0-0.6-0.1-0.8-0.4S58.5,379.8,58.5,379.3z M59.7,378.3c-0.2,0-0.3,0.1-0.4,0.2s-0.2,0.4-0.2,0.8c0,0.4,0.1,0.6,0.2,0.8
		s0.3,0.2,0.4,0.2c0.2,0,0.3-0.1,0.4-0.2s0.2-0.4,0.2-0.8c0-0.4-0.1-0.6-0.2-0.8C60,378.4,59.9,378.3,59.7,378.3z"/>
</g>
<g class="st12">
	<path class="st6" d="M321,352.1c0,0.8-0.2,1.4-0.5,1.8c-0.3,0.4-0.8,0.6-1.4,0.6c-0.6,0-1.1-0.2-1.4-0.6c-0.3-0.4-0.5-1-0.5-1.8v-1
		c0-0.8,0.2-1.4,0.5-1.8c0.3-0.4,0.8-0.6,1.4-0.6s1.1,0.2,1.4,0.6c0.3,0.4,0.5,1,0.5,1.8V352.1z M319.8,350.9c0-0.4-0.1-0.7-0.2-0.9
		c-0.1-0.2-0.3-0.3-0.5-0.3c-0.2,0-0.4,0.1-0.5,0.3c-0.1,0.2-0.2,0.5-0.2,0.9v1.5c0,0.4,0.1,0.7,0.2,0.9c0.1,0.2,0.3,0.3,0.5,0.3
		c0.2,0,0.4-0.1,0.5-0.3s0.2-0.5,0.2-0.9V350.9z"/>
	<path class="st6" d="M322.5,353.2c0.2,0,0.4,0.1,0.5,0.2c0.1,0.1,0.2,0.3,0.2,0.5c0,0.2-0.1,0.4-0.2,0.5c-0.1,0.1-0.3,0.2-0.5,0.2
		c-0.2,0-0.4-0.1-0.5-0.2s-0.2-0.3-0.2-0.5c0-0.2,0.1-0.3,0.2-0.5S322.3,353.2,322.5,353.2z"/>
	<path class="st6" d="M327.8,354.5H324v-0.9l1.8-1.9c0.4-0.5,0.6-0.9,0.6-1.2c0-0.2-0.1-0.4-0.2-0.6c-0.1-0.1-0.3-0.2-0.4-0.2
		c-0.2,0-0.3,0.1-0.5,0.3c-0.1,0.2-0.2,0.4-0.2,0.6h-1.3c0-0.3,0.1-0.7,0.3-1c0.2-0.3,0.4-0.5,0.7-0.7c0.3-0.2,0.6-0.2,1-0.2
		c0.6,0,1,0.1,1.4,0.4c0.3,0.3,0.5,0.7,0.5,1.2c0,0.2,0,0.4-0.1,0.7c-0.1,0.2-0.2,0.4-0.4,0.7c-0.2,0.2-0.4,0.5-0.8,0.9l-0.7,0.8
		h2.1V354.5z"/>
	<path class="st6" d="M332.2,352.1c0,0.8-0.2,1.4-0.5,1.8c-0.3,0.4-0.8,0.6-1.4,0.6c-0.6,0-1.1-0.2-1.4-0.6c-0.3-0.4-0.5-1-0.5-1.8
		v-1c0-0.8,0.2-1.4,0.5-1.8c0.3-0.4,0.8-0.6,1.4-0.6s1.1,0.2,1.4,0.6c0.3,0.4,0.5,1,0.5,1.8V352.1z M331,350.9
		c0-0.4-0.1-0.7-0.2-0.9c-0.1-0.2-0.3-0.3-0.5-0.3c-0.2,0-0.4,0.1-0.5,0.3c-0.1,0.2-0.2,0.5-0.2,0.9v1.5c0,0.4,0.1,0.7,0.2,0.9
		c0.1,0.2,0.3,0.3,0.5,0.3c0.2,0,0.4-0.1,0.5-0.3s0.2-0.5,0.2-0.9V350.9z"/>
	<path class="st6" d="M332.9,349.9c0-0.4,0.1-0.6,0.3-0.9c0.2-0.2,0.5-0.3,0.9-0.3c0.4,0,0.7,0.1,0.9,0.3c0.2,0.2,0.3,0.5,0.3,0.9
		v0.3c0,0.4-0.1,0.6-0.3,0.8c-0.2,0.2-0.5,0.3-0.9,0.3c-0.4,0-0.7-0.1-0.9-0.3c-0.2-0.2-0.3-0.5-0.3-0.9V349.9z M333.7,350.2
		c0,0.1,0,0.2,0.1,0.3c0.1,0.1,0.2,0.1,0.3,0.1c0.3,0,0.4-0.2,0.4-0.5v-0.2c0-0.1,0-0.2-0.1-0.3c-0.1-0.1-0.2-0.1-0.3-0.1
		c-0.1,0-0.2,0-0.3,0.1c-0.1,0.1-0.1,0.2-0.1,0.3V350.2z M334.4,354l-0.6-0.3l2.7-4.4l0.6,0.3L334.4,354z M335.5,353.1
		c0-0.4,0.1-0.6,0.3-0.9c0.2-0.2,0.5-0.3,0.9-0.3c0.4,0,0.7,0.1,0.9,0.3c0.2,0.2,0.3,0.5,0.3,0.9v0.3c0,0.4-0.1,0.6-0.3,0.9
		c-0.2,0.2-0.5,0.3-0.9,0.3c-0.4,0-0.7-0.1-0.9-0.3c-0.2-0.2-0.3-0.5-0.3-0.9V353.1z M336.3,353.4c0,0.1,0,0.2,0.1,0.3
		c0.1,0.1,0.2,0.1,0.3,0.1c0.2,0,0.4-0.1,0.4-0.4l0-0.4c0-0.1,0-0.2-0.1-0.3c-0.1-0.1-0.2-0.1-0.3-0.1c-0.1,0-0.2,0-0.3,0.1
		c-0.1,0.1-0.1,0.2-0.1,0.3V353.4z"/>
</g>
<g class="st12">
	<path class="st6" d="M48.5,354.4c-0.1,0.8-0.4,1.5-0.9,2c-0.5,0.5-1.2,0.7-2.1,0.7c-1,0-1.7-0.3-2.3-1c-0.6-0.7-0.8-1.6-0.8-2.8
		v-0.5c0-0.8,0.1-1.4,0.4-2c0.3-0.6,0.6-1,1.1-1.3c0.5-0.3,1-0.5,1.6-0.5c0.9,0,1.6,0.2,2.1,0.7c0.5,0.5,0.8,1.2,0.9,2H47
		c0-0.5-0.2-0.9-0.4-1.1c-0.2-0.2-0.6-0.3-1.1-0.3c-0.5,0-0.9,0.2-1.2,0.6c-0.3,0.4-0.4,1-0.4,1.8v0.6c0,0.8,0.1,1.5,0.4,1.9
		c0.2,0.4,0.6,0.6,1.2,0.6c0.5,0,0.8-0.1,1.1-0.3c0.2-0.2,0.4-0.6,0.4-1.1H48.5z"/>
	<path class="st6" d="M55,350.5h-2.3v6.5h-1.5v-6.5h-2.3v-1.3H55V350.5z"/>
	<path class="st6" d="M58.7,354.1h-1.2v2.9h-1.5v-7.8h2.8c0.9,0,1.6,0.2,2.1,0.6c0.5,0.4,0.7,1,0.7,1.7c0,0.5-0.1,1-0.3,1.3
		c-0.2,0.4-0.6,0.6-1,0.9l1.6,3.2v0.1h-1.7L58.7,354.1z M57.5,352.8h1.2c0.4,0,0.7-0.1,0.9-0.3c0.2-0.2,0.3-0.5,0.3-0.9
		c0-0.4-0.1-0.7-0.3-0.9s-0.5-0.3-0.9-0.3h-1.2V352.8z"/>
</g>
<g>
	<path class="st8" d="M774.3,539.4H440c-9,0-16.2-7.3-16.2-16.2V344.9c0-9,7.3-16.2,16.2-16.2h334.4c9,0,16.2,7.3,16.2,16.2v178.2
		C790.6,532.1,783.3,539.4,774.3,539.4z"/>
	<line class="st9" x1="776.5" y1="378.3" x2="461.9" y2="378.3"/>
	<line class="st9" x1="776.5" y1="468.2" x2="461.9" y2="468.2"/>
	<line class="st9" x1="776.5" y1="517.8" x2="461.7" y2="517.8"/>
	<line class="st9" x1="776.5" y1="426.8" x2="461.7" y2="426.8"/>
	<rect x="692.7" y="470.2" class="st13" width="23.1" height="47.7"/>
	<rect x="735" y="464" class="st13" width="23.1" height="53.9"/>
	<rect x="640.7" y="482" class="st14" width="23.1" height="35.8"/>
	<rect x="588.7" y="468.2" class="st14" width="23.1" height="49.6"/>
	<rect x="537.2" y="473.5" class="st14" width="23.1" height="44.3"/>
	<rect x="484.8" y="390.3" class="st14" width="23.1" height="127.5"/>
	<g class="st12">
		<path class="st6" d="M446.4,517.3c0-0.7,0.1-1.2,0.2-1.6c0.1-0.4,0.3-0.7,0.6-1c0.3-0.2,0.6-0.3,1-0.3c0.3,0,0.6,0.1,0.8,0.2
			s0.4,0.3,0.6,0.5c0.1,0.2,0.3,0.5,0.3,0.9s0.1,0.8,0.1,1.4c0,0.7-0.1,1.2-0.2,1.6s-0.3,0.7-0.6,1c-0.3,0.2-0.6,0.3-1,0.3
			c-0.5,0-0.9-0.2-1.2-0.6C446.6,519.2,446.4,518.4,446.4,517.3z M447.1,517.3c0,0.9,0.1,1.6,0.3,1.9c0.2,0.3,0.5,0.5,0.8,0.5
			c0.3,0,0.6-0.2,0.8-0.5c0.2-0.3,0.3-0.9,0.3-1.9c0-0.9-0.1-1.6-0.3-1.9c-0.2-0.3-0.5-0.5-0.8-0.5c-0.3,0-0.6,0.1-0.7,0.4
			C447.2,515.8,447.1,516.4,447.1,517.3z"/>
		<path class="st6" d="M450.8,515.8c0-0.4,0.1-0.8,0.3-1c0.2-0.3,0.5-0.4,0.9-0.4c0.3,0,0.6,0.1,0.9,0.4c0.2,0.3,0.3,0.6,0.3,1.1
			c0,0.5-0.1,0.9-0.3,1.1s-0.5,0.4-0.8,0.4c-0.3,0-0.6-0.1-0.8-0.4C450.9,516.7,450.8,516.3,450.8,515.8z M452,514.8
			c-0.2,0-0.3,0.1-0.4,0.2s-0.2,0.4-0.2,0.8c0,0.4,0.1,0.6,0.2,0.8c0.1,0.1,0.3,0.2,0.4,0.2c0.2,0,0.3-0.1,0.4-0.2s0.2-0.4,0.2-0.8
			c0-0.4-0.1-0.6-0.2-0.8C452.3,514.9,452.2,514.8,452,514.8z M452,520.4l3-6h0.5l-3,6H452z M454.4,518.8c0-0.4,0.1-0.8,0.3-1
			c0.2-0.3,0.5-0.4,0.9-0.4c0.3,0,0.6,0.1,0.9,0.4s0.3,0.6,0.3,1.1c0,0.5-0.1,0.9-0.3,1.1c-0.2,0.3-0.5,0.4-0.8,0.4
			c-0.3,0-0.6-0.1-0.8-0.4S454.4,519.3,454.4,518.8z M455.6,517.8c-0.2,0-0.3,0.1-0.4,0.2s-0.2,0.4-0.2,0.8c0,0.4,0.1,0.6,0.2,0.8
			s0.3,0.2,0.4,0.2c0.2,0,0.3-0.1,0.4-0.2s0.2-0.4,0.2-0.8c0-0.4-0.1-0.6-0.2-0.8C455.9,517.9,455.7,517.8,455.6,517.8z"/>
	</g>
	<g class="st12">
		<path class="st6" d="M448.3,469.5v0.7h-3.6c0-0.2,0-0.3,0.1-0.5c0.1-0.3,0.2-0.5,0.4-0.8s0.5-0.5,0.9-0.9c0.6-0.5,1-0.9,1.2-1.2
			s0.3-0.6,0.3-0.8c0-0.3-0.1-0.5-0.3-0.7s-0.4-0.3-0.7-0.3c-0.3,0-0.6,0.1-0.8,0.3s-0.3,0.5-0.3,0.8l-0.7-0.1c0-0.5,0.2-1,0.5-1.2
			c0.3-0.3,0.7-0.4,1.2-0.4c0.5,0,0.9,0.2,1.3,0.5s0.5,0.7,0.5,1.1c0,0.2,0,0.5-0.1,0.7s-0.2,0.5-0.4,0.7s-0.6,0.6-1,1
			c-0.4,0.4-0.7,0.6-0.8,0.7s-0.2,0.3-0.3,0.4H448.3z"/>
		<path class="st6" d="M449.1,467.3c0-0.7,0.1-1.2,0.2-1.6s0.3-0.7,0.6-1s0.6-0.3,1-0.3c0.3,0,0.6,0.1,0.8,0.2s0.4,0.3,0.6,0.5
			s0.3,0.5,0.3,0.9c0.1,0.3,0.1,0.8,0.1,1.4c0,0.7-0.1,1.2-0.2,1.6c-0.1,0.4-0.3,0.7-0.6,1s-0.6,0.3-1,0.3c-0.5,0-0.9-0.2-1.2-0.6
			C449.2,469.2,449.1,468.4,449.1,467.3z M449.8,467.3c0,0.9,0.1,1.6,0.3,1.9s0.5,0.5,0.8,0.5s0.6-0.2,0.8-0.5s0.3-0.9,0.3-1.9
			c0-0.9-0.1-1.6-0.3-1.9s-0.5-0.5-0.8-0.5c-0.3,0-0.6,0.1-0.7,0.4C449.9,465.8,449.8,466.4,449.8,467.3z"/>
		<path class="st6" d="M453.5,465.8c0-0.4,0.1-0.8,0.3-1s0.5-0.4,0.9-0.4c0.3,0,0.6,0.1,0.9,0.4c0.2,0.3,0.3,0.6,0.3,1.1
			c0,0.5-0.1,0.9-0.3,1.1c-0.2,0.3-0.5,0.4-0.8,0.4c-0.3,0-0.6-0.1-0.8-0.4C453.6,466.7,453.5,466.3,453.5,465.8z M454.6,464.8
			c-0.2,0-0.3,0.1-0.4,0.2s-0.2,0.4-0.2,0.8c0,0.4,0.1,0.6,0.2,0.8c0.1,0.1,0.3,0.2,0.4,0.2c0.2,0,0.3-0.1,0.4-0.2s0.2-0.4,0.2-0.8
			c0-0.4-0.1-0.6-0.2-0.8S454.8,464.8,454.6,464.8z M454.6,470.4l3-6h0.5l-3,6H454.6z M457,468.8c0-0.4,0.1-0.8,0.3-1
			s0.5-0.4,0.9-0.4c0.3,0,0.6,0.1,0.9,0.4s0.3,0.6,0.3,1.1c0,0.5-0.1,0.9-0.3,1.1s-0.5,0.4-0.8,0.4c-0.3,0-0.6-0.1-0.8-0.4
			C457.1,469.7,457,469.3,457,468.8z M458.2,467.8c-0.2,0-0.3,0.1-0.4,0.2s-0.2,0.4-0.2,0.8c0,0.4,0.1,0.6,0.2,0.8
			c0.1,0.2,0.3,0.2,0.4,0.2c0.2,0,0.3-0.1,0.4-0.2s0.2-0.4,0.2-0.8c0-0.4-0.1-0.6-0.2-0.8S458.4,467.8,458.2,467.8z"/>
	</g>
	<g class="st12">
		<path class="st6" d="M449.1,428.8v-1.4h-2.4v-0.6l2.5-3.7h0.6v3.7h0.7v0.6h-0.7v1.4H449.1z M449.1,426.8v-2.6l-1.7,2.6H449.1z"/>
		<path class="st6" d="M451.3,426c0-0.7,0.1-1.2,0.2-1.6s0.3-0.7,0.6-1s0.6-0.3,1-0.3c0.3,0,0.6,0.1,0.8,0.2s0.4,0.3,0.6,0.5
			s0.3,0.5,0.3,0.9c0.1,0.3,0.1,0.8,0.1,1.4c0,0.7-0.1,1.2-0.2,1.6c-0.1,0.4-0.3,0.7-0.6,1s-0.6,0.3-1,0.3c-0.5,0-0.9-0.2-1.2-0.6
			C451.4,427.8,451.3,427.1,451.3,426z M452,426c0,0.9,0.1,1.6,0.3,1.9s0.5,0.5,0.8,0.5s0.6-0.2,0.8-0.5s0.3-0.9,0.3-1.9
			c0-0.9-0.1-1.6-0.3-1.9s-0.5-0.5-0.8-0.5c-0.3,0-0.6,0.1-0.7,0.4C452.1,424.4,452,425,452,426z"/>
		<path class="st6" d="M455.7,424.5c0-0.4,0.1-0.8,0.3-1s0.5-0.4,0.9-0.4c0.3,0,0.6,0.1,0.9,0.4c0.2,0.3,0.3,0.6,0.3,1.1
			c0,0.5-0.1,0.9-0.3,1.1c-0.2,0.3-0.5,0.4-0.8,0.4c-0.3,0-0.6-0.1-0.8-0.4C455.8,425.4,455.7,425,455.7,424.5z M456.8,423.5
			c-0.2,0-0.3,0.1-0.4,0.2s-0.2,0.4-0.2,0.8c0,0.4,0.1,0.6,0.2,0.8c0.1,0.1,0.3,0.2,0.4,0.2c0.2,0,0.3-0.1,0.4-0.2s0.2-0.4,0.2-0.8
			c0-0.4-0.1-0.6-0.2-0.8S457,423.5,456.8,423.5z M456.8,429l3-6h0.5l-3,6H456.8z M459.2,427.5c0-0.4,0.1-0.8,0.3-1s0.5-0.4,0.9-0.4
			c0.3,0,0.6,0.1,0.9,0.4s0.3,0.6,0.3,1.1c0,0.5-0.1,0.9-0.3,1.1s-0.5,0.4-0.8,0.4c-0.3,0-0.6-0.1-0.8-0.4
			C459.3,428.4,459.2,428,459.2,427.5z M460.4,426.5c-0.2,0-0.3,0.1-0.4,0.2s-0.2,0.4-0.2,0.8c0,0.4,0.1,0.6,0.2,0.8
			c0.1,0.2,0.3,0.2,0.4,0.2c0.2,0,0.3-0.1,0.4-0.2s0.2-0.4,0.2-0.8c0-0.4-0.1-0.6-0.2-0.8S460.6,426.5,460.4,426.5z"/>
	</g>
	<g class="st12">
		<path class="st6" d="M447.9,376.3l-0.7,0.1c-0.1-0.3-0.1-0.5-0.3-0.6c-0.2-0.2-0.4-0.3-0.7-0.3c-0.2,0-0.4,0.1-0.6,0.2
			c-0.2,0.2-0.4,0.4-0.5,0.7c-0.1,0.3-0.2,0.8-0.2,1.3c0.2-0.3,0.4-0.4,0.6-0.6c0.2-0.1,0.5-0.2,0.7-0.2c0.4,0,0.8,0.2,1.1,0.5
			s0.5,0.8,0.5,1.3c0,0.4-0.1,0.7-0.2,1s-0.4,0.5-0.6,0.7s-0.6,0.2-0.9,0.2c-0.6,0-1-0.2-1.4-0.6c-0.4-0.4-0.5-1.1-0.5-2.1
			c0-1.1,0.2-1.9,0.6-2.4c0.3-0.4,0.8-0.7,1.4-0.7c0.4,0,0.8,0.1,1.1,0.4S447.8,375.9,447.9,376.3z M445.1,378.8
			c0,0.2,0,0.5,0.1,0.7s0.2,0.4,0.4,0.5s0.4,0.2,0.6,0.2c0.3,0,0.5-0.1,0.7-0.4s0.3-0.6,0.3-1c0-0.4-0.1-0.7-0.3-0.9
			s-0.5-0.3-0.8-0.3c-0.3,0-0.6,0.1-0.8,0.3S445.1,378.4,445.1,378.8z"/>
		<path class="st6" d="M448.7,377.8c0-0.7,0.1-1.2,0.2-1.6s0.3-0.7,0.6-1c0.3-0.2,0.6-0.3,1-0.3c0.3,0,0.6,0.1,0.8,0.2
			s0.4,0.3,0.6,0.5s0.3,0.5,0.3,0.9c0.1,0.3,0.1,0.8,0.1,1.4c0,0.7-0.1,1.2-0.2,1.6s-0.3,0.7-0.6,1c-0.3,0.2-0.6,0.3-1,0.3
			c-0.5,0-0.9-0.2-1.2-0.6C448.8,379.7,448.7,378.9,448.7,377.8z M449.3,377.8c0,0.9,0.1,1.6,0.3,1.9s0.5,0.5,0.8,0.5
			s0.6-0.2,0.8-0.5s0.3-0.9,0.3-1.9c0-0.9-0.1-1.6-0.3-1.9s-0.5-0.5-0.8-0.5c-0.3,0-0.6,0.1-0.7,0.4
			C449.5,376.3,449.3,376.9,449.3,377.8z"/>
		<path class="st6" d="M453.1,376.3c0-0.4,0.1-0.8,0.3-1c0.2-0.3,0.5-0.4,0.9-0.4c0.3,0,0.6,0.1,0.9,0.4s0.3,0.6,0.3,1.1
			c0,0.5-0.1,0.9-0.3,1.1c-0.2,0.3-0.5,0.4-0.8,0.4c-0.3,0-0.6-0.1-0.8-0.4S453.1,376.8,453.1,376.3z M454.2,375.3
			c-0.2,0-0.3,0.1-0.4,0.2s-0.2,0.4-0.2,0.8c0,0.4,0.1,0.6,0.2,0.8c0.1,0.1,0.2,0.2,0.4,0.2c0.2,0,0.3-0.1,0.4-0.2s0.2-0.4,0.2-0.8
			c0-0.4-0.1-0.6-0.2-0.8C454.5,375.4,454.4,375.3,454.2,375.3z M454.2,380.9l3-6h0.5l-3,6H454.2z M456.6,379.3c0-0.4,0.1-0.8,0.3-1
			c0.2-0.3,0.5-0.4,0.9-0.4c0.3,0,0.6,0.1,0.9,0.4s0.3,0.6,0.3,1.1c0,0.5-0.1,0.9-0.3,1.1c-0.2,0.3-0.5,0.4-0.8,0.4
			c-0.3,0-0.6-0.1-0.8-0.4C456.7,380.2,456.6,379.8,456.6,379.3z M457.8,378.3c-0.2,0-0.3,0.1-0.4,0.2s-0.2,0.4-0.2,0.8
			c0,0.4,0.1,0.6,0.2,0.8c0.1,0.2,0.3,0.2,0.4,0.2c0.2,0,0.3-0.1,0.4-0.2s0.2-0.4,0.2-0.8c0-0.4-0.1-0.6-0.2-0.8
			C458.1,378.4,458,378.3,457.8,378.3z"/>
	</g>
	<g class="st12">
		<path class="st6" d="M720.5,348.7v1h-0.1c-0.5,0-0.9,0.1-1.2,0.4c-0.3,0.2-0.5,0.6-0.6,1c0.3-0.3,0.6-0.4,1.1-0.4
			c0.5,0,0.8,0.2,1.1,0.5s0.4,0.8,0.4,1.4c0,0.4-0.1,0.7-0.2,1c-0.2,0.3-0.4,0.5-0.7,0.7c-0.3,0.2-0.6,0.3-1,0.3
			c-0.4,0-0.7-0.1-1-0.3c-0.3-0.2-0.5-0.4-0.7-0.8c-0.2-0.3-0.3-0.7-0.3-1.2v-0.5c0-0.6,0.1-1.1,0.4-1.6c0.2-0.5,0.6-0.8,1-1.1
			c0.4-0.3,0.9-0.4,1.5-0.4H720.5z M719.4,351.6c-0.2,0-0.3,0-0.4,0.1c-0.1,0.1-0.2,0.2-0.3,0.3v0.4c0,0.7,0.2,1.1,0.7,1.1
			c0.2,0,0.4-0.1,0.5-0.3s0.2-0.4,0.2-0.7c0-0.3-0.1-0.5-0.2-0.7C719.8,351.7,719.6,351.6,719.4,351.6z"/>
		<path class="st6" d="M722.7,353.2c0.2,0,0.4,0.1,0.5,0.2c0.1,0.1,0.2,0.3,0.2,0.5c0,0.2-0.1,0.4-0.2,0.5c-0.1,0.1-0.3,0.2-0.5,0.2
			c-0.2,0-0.4-0.1-0.5-0.2c-0.1-0.1-0.2-0.3-0.2-0.5c0-0.2,0.1-0.3,0.2-0.5C722.3,353.3,722.5,353.2,722.7,353.2z"/>
		<path class="st6" d="M727.3,348.7v1h-0.1c-0.5,0-0.9,0.1-1.2,0.4c-0.3,0.2-0.5,0.6-0.6,1c0.3-0.3,0.6-0.4,1.1-0.4
			c0.5,0,0.8,0.2,1.1,0.5s0.4,0.8,0.4,1.4c0,0.4-0.1,0.7-0.2,1c-0.2,0.3-0.4,0.5-0.7,0.7c-0.3,0.2-0.6,0.3-1,0.3
			c-0.4,0-0.7-0.1-1-0.3c-0.3-0.2-0.5-0.4-0.7-0.8c-0.2-0.3-0.3-0.7-0.3-1.2v-0.5c0-0.6,0.1-1.1,0.4-1.6c0.2-0.5,0.6-0.8,1-1.1
			c0.4-0.3,0.9-0.4,1.5-0.4H727.3z M726.1,351.6c-0.2,0-0.3,0-0.4,0.1c-0.1,0.1-0.2,0.2-0.3,0.3v0.4c0,0.7,0.2,1.1,0.7,1.1
			c0.2,0,0.4-0.1,0.5-0.3s0.2-0.4,0.2-0.7c0-0.3-0.1-0.5-0.2-0.7C726.5,351.7,726.4,351.6,726.1,351.6z"/>
		<path class="st6" d="M731.7,348.7v1h-0.1c-0.5,0-0.9,0.1-1.2,0.4c-0.3,0.2-0.5,0.6-0.6,1c0.3-0.3,0.6-0.4,1.1-0.4
			c0.5,0,0.8,0.2,1.1,0.5s0.4,0.8,0.4,1.4c0,0.4-0.1,0.7-0.2,1c-0.2,0.3-0.4,0.5-0.7,0.7c-0.3,0.2-0.6,0.3-1,0.3
			c-0.4,0-0.7-0.1-1-0.3c-0.3-0.2-0.5-0.4-0.7-0.8c-0.2-0.3-0.3-0.7-0.3-1.2v-0.5c0-0.6,0.1-1.1,0.4-1.6c0.2-0.5,0.6-0.8,1-1.1
			c0.4-0.3,0.9-0.4,1.5-0.4H731.7z M730.6,351.6c-0.2,0-0.3,0-0.4,0.1c-0.1,0.1-0.2,0.2-0.3,0.3v0.4c0,0.7,0.2,1.1,0.7,1.1
			c0.2,0,0.4-0.1,0.5-0.3s0.2-0.4,0.2-0.7c0-0.3-0.1-0.5-0.2-0.7C731,351.7,730.8,351.6,730.6,351.6z"/>
		<path class="st6" d="M733.1,349.9c0-0.4,0.1-0.6,0.3-0.9c0.2-0.2,0.5-0.3,0.9-0.3c0.4,0,0.7,0.1,0.9,0.3s0.3,0.5,0.3,0.9v0.3
			c0,0.4-0.1,0.6-0.3,0.8c-0.2,0.2-0.5,0.3-0.9,0.3c-0.4,0-0.7-0.1-0.9-0.3c-0.2-0.2-0.3-0.5-0.3-0.9V349.9z M733.9,350.2
			c0,0.1,0,0.2,0.1,0.3s0.2,0.1,0.3,0.1c0.3,0,0.4-0.2,0.4-0.5v-0.2c0-0.1,0-0.2-0.1-0.3c-0.1-0.1-0.2-0.1-0.3-0.1
			c-0.1,0-0.2,0-0.3,0.1s-0.1,0.2-0.1,0.3V350.2z M734.6,354l-0.6-0.3l2.7-4.4l0.6,0.3L734.6,354z M735.7,353.1
			c0-0.4,0.1-0.6,0.3-0.9c0.2-0.2,0.5-0.3,0.9-0.3c0.4,0,0.7,0.1,0.9,0.3c0.2,0.2,0.3,0.5,0.3,0.9v0.3c0,0.4-0.1,0.6-0.3,0.9
			c-0.2,0.2-0.5,0.3-0.9,0.3c-0.4,0-0.7-0.1-0.9-0.3c-0.2-0.2-0.3-0.5-0.3-0.9V353.1z M736.5,353.4c0,0.1,0,0.2,0.1,0.3
			s0.2,0.1,0.3,0.1c0.2,0,0.4-0.1,0.4-0.4l0-0.4c0-0.1,0-0.2-0.1-0.3c-0.1-0.1-0.2-0.1-0.3-0.1c-0.1,0-0.2,0-0.3,0.1
			c-0.1,0.1-0.1,0.2-0.1,0.3V353.4z"/>
	</g>
	<g class="st12">
		<path class="st6" d="M448.7,354.4c-0.1,0.8-0.4,1.5-0.9,2c-0.5,0.5-1.2,0.7-2.1,0.7c-1,0-1.7-0.3-2.3-1c-0.6-0.7-0.8-1.6-0.8-2.8
			v-0.5c0-0.8,0.1-1.4,0.4-2c0.3-0.6,0.6-1,1.1-1.3c0.5-0.3,1-0.5,1.6-0.5c0.9,0,1.6,0.2,2.1,0.7c0.5,0.5,0.8,1.2,0.9,2h-1.5
			c0-0.5-0.2-0.9-0.4-1.1c-0.2-0.2-0.6-0.3-1.1-0.3c-0.5,0-0.9,0.2-1.2,0.6c-0.3,0.4-0.4,1-0.4,1.8v0.6c0,0.8,0.1,1.5,0.4,1.9
			s0.6,0.6,1.2,0.6c0.5,0,0.8-0.1,1.1-0.3c0.2-0.2,0.4-0.6,0.4-1.1H448.7z"/>
		<path class="st6" d="M449.4,354c0-0.6,0.1-1.1,0.3-1.5s0.5-0.8,0.9-1c0.4-0.2,0.9-0.4,1.4-0.4c0.8,0,1.4,0.2,1.8,0.7
			s0.7,1.1,0.8,2l0,0.4c0,0.9-0.2,1.6-0.7,2.1c-0.5,0.5-1.1,0.8-1.9,0.8s-1.4-0.3-1.9-0.8S449.4,355,449.4,354L449.4,354z
			 M450.9,354.1c0,0.6,0.1,1,0.3,1.3c0.2,0.3,0.5,0.4,0.9,0.4c0.4,0,0.6-0.1,0.8-0.4s0.3-0.8,0.3-1.4c0-0.5-0.1-1-0.3-1.3
			c-0.2-0.3-0.5-0.4-0.9-0.4c-0.4,0-0.6,0.1-0.8,0.4C451,353.1,450.9,353.5,450.9,354.1z"/>
		<path class="st6" d="M457,351.2l0,0.7c0.4-0.5,0.9-0.8,1.6-0.8c0.6,0,1,0.2,1.3,0.5c0.3,0.4,0.4,0.9,0.4,1.6v3.8h-1.5v-3.7
			c0-0.3-0.1-0.6-0.2-0.7c-0.1-0.1-0.4-0.2-0.7-0.2c-0.4,0-0.7,0.2-0.9,0.6v4.1h-1.5v-5.8H457z"/>
		<path class="st6" d="M463.6,355.1l1-3.9h1.6l-1.9,5.8h-1.4l-1.9-5.8h1.6L463.6,355.1z"/>
		<path class="st6" d="M469.4,357.1c-0.8,0-1.5-0.3-2-0.8s-0.8-1.2-0.8-2.1v-0.2c0-0.6,0.1-1.1,0.3-1.6c0.2-0.5,0.5-0.8,0.9-1.1
			s0.9-0.4,1.4-0.4c0.8,0,1.4,0.3,1.8,0.8c0.4,0.5,0.7,1.2,0.7,2.1v0.6h-3.6c0,0.4,0.2,0.7,0.4,0.9c0.2,0.2,0.5,0.3,0.9,0.3
			c0.6,0,1-0.2,1.3-0.6l0.7,0.9c-0.2,0.3-0.5,0.6-0.9,0.8C470.3,357,469.8,357.1,469.4,357.1z M469.2,352.3c-0.3,0-0.5,0.1-0.7,0.3
			s-0.3,0.5-0.4,0.9h2.1v-0.1c0-0.3-0.1-0.6-0.3-0.8C469.8,352.4,469.5,352.3,469.2,352.3z"/>
		<path class="st6" d="M475.7,352.6c-0.2,0-0.4,0-0.5,0c-0.6,0-0.9,0.2-1.1,0.6v3.8h-1.5v-5.8h1.4l0,0.7c0.3-0.5,0.7-0.8,1.2-0.8
			c0.2,0,0.3,0,0.5,0.1L475.7,352.6z"/>
		<path class="st6" d="M479.4,355.4c0-0.2-0.1-0.3-0.3-0.4c-0.2-0.1-0.5-0.2-0.9-0.3c-1.3-0.3-2-0.9-2-1.8c0-0.5,0.2-0.9,0.6-1.3
			c0.4-0.3,0.9-0.5,1.6-0.5c0.7,0,1.3,0.2,1.7,0.5c0.4,0.3,0.6,0.8,0.6,1.4h-1.5c0-0.2-0.1-0.4-0.2-0.5c-0.1-0.1-0.4-0.2-0.6-0.2
			c-0.3,0-0.4,0.1-0.6,0.2c-0.1,0.1-0.2,0.3-0.2,0.5c0,0.2,0.1,0.3,0.2,0.4s0.4,0.2,0.8,0.3c0.4,0.1,0.7,0.2,0.9,0.3
			c0.8,0.3,1.2,0.8,1.2,1.6c0,0.5-0.2,1-0.7,1.3c-0.4,0.3-1,0.5-1.7,0.5c-0.5,0-0.9-0.1-1.2-0.3c-0.4-0.2-0.6-0.4-0.9-0.7
			c-0.2-0.3-0.3-0.6-0.3-1h1.4c0,0.3,0.1,0.5,0.3,0.6c0.2,0.1,0.4,0.2,0.7,0.2c0.3,0,0.5-0.1,0.6-0.2
			C479.3,355.7,479.4,355.6,479.4,355.4z"/>
		<path class="st6" d="M481.8,349.7c0-0.2,0.1-0.4,0.2-0.6c0.1-0.2,0.4-0.2,0.6-0.2c0.3,0,0.5,0.1,0.6,0.2s0.2,0.3,0.2,0.6
			c0,0.2-0.1,0.4-0.2,0.6c-0.2,0.2-0.4,0.2-0.6,0.2c-0.3,0-0.5-0.1-0.6-0.2S481.8,349.9,481.8,349.7z M483.4,357h-1.5v-5.8h1.5V357z
			"/>
		<path class="st6" d="M484.4,354c0-0.6,0.1-1.1,0.3-1.5c0.2-0.5,0.5-0.8,0.9-1c0.4-0.2,0.9-0.4,1.4-0.4c0.8,0,1.4,0.2,1.8,0.7
			c0.5,0.5,0.7,1.1,0.8,2l0,0.4c0,0.9-0.2,1.6-0.7,2.1c-0.5,0.5-1.1,0.8-1.9,0.8c-0.8,0-1.4-0.3-1.9-0.8
			C484.6,355.7,484.4,355,484.4,354L484.4,354z M485.9,354.1c0,0.6,0.1,1,0.3,1.3c0.2,0.3,0.5,0.4,0.9,0.4c0.4,0,0.6-0.1,0.8-0.4
			s0.3-0.8,0.3-1.4c0-0.5-0.1-1-0.3-1.3c-0.2-0.3-0.5-0.4-0.9-0.4c-0.4,0-0.6,0.1-0.8,0.4S485.9,353.5,485.9,354.1z"/>
		<path class="st6" d="M492,351.2l0,0.7c0.4-0.5,0.9-0.8,1.6-0.8c0.6,0,1,0.2,1.3,0.5c0.3,0.4,0.4,0.9,0.4,1.6v3.8h-1.5v-3.7
			c0-0.3-0.1-0.6-0.2-0.7s-0.4-0.2-0.7-0.2c-0.4,0-0.7,0.2-0.9,0.6v4.1h-1.5v-5.8H492z"/>
		<path class="st6" d="M502.3,352.6c-0.2,0-0.4,0-0.5,0c-0.6,0-0.9,0.2-1.1,0.6v3.8h-1.5v-5.8h1.4l0,0.7c0.3-0.5,0.7-0.8,1.2-0.8
			c0.2,0,0.3,0,0.5,0.1L502.3,352.6z"/>
		<path class="st6" d="M506.1,357c-0.1-0.1-0.1-0.3-0.2-0.5c-0.4,0.4-0.8,0.6-1.4,0.6c-0.5,0-1-0.2-1.4-0.5s-0.5-0.7-0.5-1.2
			c0-0.6,0.2-1.1,0.7-1.4c0.4-0.3,1.1-0.5,1.9-0.5h0.7v-0.3c0-0.3-0.1-0.5-0.2-0.6c-0.1-0.2-0.3-0.2-0.6-0.2c-0.3,0-0.4,0.1-0.6,0.2
			c-0.1,0.1-0.2,0.3-0.2,0.5h-1.5c0-0.3,0.1-0.6,0.3-0.9c0.2-0.3,0.5-0.5,0.8-0.7c0.4-0.2,0.8-0.2,1.2-0.2c0.7,0,1.2,0.2,1.6,0.5
			c0.4,0.4,0.6,0.9,0.6,1.5v2.5c0,0.6,0.1,1,0.2,1.3v0.1H506.1z M504.8,355.9c0.2,0,0.4-0.1,0.6-0.2c0.2-0.1,0.3-0.2,0.4-0.4v-1
			h-0.6c-0.7,0-1.1,0.3-1.2,0.8l0,0.1c0,0.2,0.1,0.4,0.2,0.5S504.6,355.9,504.8,355.9z"/>
		<path class="st6" d="M510.3,349.7v1.4h1v1.1h-1v2.9c0,0.2,0,0.4,0.1,0.5s0.2,0.1,0.5,0.1c0.2,0,0.3,0,0.4,0v1.2
			c-0.3,0.1-0.6,0.1-0.9,0.1c-1,0-1.6-0.5-1.6-1.6v-3.1H508v-1.1h0.8v-1.4H510.3z"/>
		<path class="st6" d="M514.6,357.1c-0.8,0-1.5-0.3-2-0.8c-0.5-0.5-0.8-1.2-0.8-2.1v-0.2c0-0.6,0.1-1.1,0.3-1.6
			c0.2-0.5,0.5-0.8,0.9-1.1c0.4-0.2,0.8-0.4,1.4-0.4c0.8,0,1.4,0.3,1.8,0.8s0.7,1.2,0.7,2.1v0.6h-3.6c0,0.4,0.2,0.7,0.4,0.9
			c0.2,0.2,0.5,0.3,0.9,0.3c0.6,0,1-0.2,1.3-0.6l0.7,0.9c-0.2,0.3-0.5,0.6-0.9,0.8C515.5,357,515.1,357.1,514.6,357.1z M514.5,352.3
			c-0.3,0-0.5,0.1-0.7,0.3c-0.2,0.2-0.3,0.5-0.4,0.9h2.1v-0.1c0-0.3-0.1-0.6-0.3-0.8C515,352.4,514.8,352.3,514.5,352.3z"/>
	</g>
</g>
<g>
	<path class="st15" d="M770.8,359.1h-14.3c-1.9,0-3.4-1.5-3.4-3.4v-7.4c0-1.9,1.5-3.4,3.4-3.4h14.3c1.9,0,3.4,1.5,3.4,3.4v7.4
		C774.3,357.6,772.7,359.1,770.8,359.1z"/>
	<g class="st12">
		<path class="st6" d="M757.9,353h-2.3v-1h2.3V353z"/>
		<path class="st6" d="M760,351.6h0.6c0.5,0,0.7-0.2,0.7-0.7c0-0.2-0.1-0.3-0.2-0.5c-0.1-0.1-0.3-0.2-0.5-0.2
			c-0.2,0-0.3,0.1-0.4,0.2s-0.2,0.2-0.2,0.4h-1.3c0-0.3,0.1-0.6,0.2-0.8s0.4-0.4,0.7-0.5c0.3-0.1,0.6-0.2,0.9-0.2
			c0.6,0,1.1,0.1,1.4,0.4s0.5,0.7,0.5,1.2c0,0.2-0.1,0.5-0.2,0.7c-0.1,0.2-0.4,0.4-0.6,0.5c0.3,0.1,0.5,0.3,0.7,0.5s0.2,0.5,0.2,0.8
			c0,0.5-0.2,0.9-0.6,1.2s-0.9,0.5-1.5,0.5c-0.4,0-0.7-0.1-1-0.2c-0.3-0.1-0.5-0.3-0.7-0.6c-0.2-0.3-0.2-0.5-0.2-0.9h1.3
			c0,0.2,0.1,0.3,0.2,0.5c0.1,0.1,0.3,0.2,0.5,0.2c0.2,0,0.4-0.1,0.5-0.2s0.2-0.3,0.2-0.5c0-0.3-0.1-0.5-0.2-0.6
			c-0.1-0.1-0.3-0.2-0.6-0.2H760V351.6z"/>
		<path class="st6" d="M764.5,351.6h0.6c0.5,0,0.7-0.2,0.7-0.7c0-0.2-0.1-0.3-0.2-0.5c-0.1-0.1-0.3-0.2-0.5-0.2
			c-0.2,0-0.3,0.1-0.4,0.2s-0.2,0.2-0.2,0.4h-1.3c0-0.3,0.1-0.6,0.2-0.8s0.4-0.4,0.7-0.5c0.3-0.1,0.6-0.2,0.9-0.2
			c0.6,0,1.1,0.1,1.4,0.4s0.5,0.7,0.5,1.2c0,0.2-0.1,0.5-0.2,0.7c-0.1,0.2-0.4,0.4-0.6,0.5c0.3,0.1,0.5,0.3,0.7,0.5s0.2,0.5,0.2,0.8
			c0,0.5-0.2,0.9-0.6,1.2s-0.9,0.5-1.5,0.5c-0.4,0-0.7-0.1-1-0.2c-0.3-0.1-0.5-0.3-0.7-0.6c-0.2-0.3-0.2-0.5-0.2-0.9h1.3
			c0,0.2,0.1,0.3,0.2,0.5c0.1,0.1,0.3,0.2,0.5,0.2c0.2,0,0.4-0.1,0.5-0.2s0.2-0.3,0.2-0.5c0-0.3-0.1-0.5-0.2-0.6
			c-0.1-0.1-0.3-0.2-0.6-0.2h-0.6V351.6z"/>
		<path class="st6" d="M767.8,350.4c0-0.4,0.1-0.6,0.3-0.9c0.2-0.2,0.5-0.3,0.9-0.3c0.4,0,0.7,0.1,0.9,0.3s0.3,0.5,0.3,0.9v0.3
			c0,0.4-0.1,0.6-0.3,0.8c-0.2,0.2-0.5,0.3-0.9,0.3c-0.4,0-0.7-0.1-0.9-0.3c-0.2-0.2-0.3-0.5-0.3-0.9V350.4z M768.6,350.7
			c0,0.1,0,0.2,0.1,0.3s0.2,0.1,0.3,0.1c0.3,0,0.4-0.2,0.4-0.5v-0.2c0-0.1,0-0.2-0.1-0.3c-0.1-0.1-0.2-0.1-0.3-0.1
			c-0.1,0-0.2,0-0.3,0.1s-0.1,0.2-0.1,0.3V350.7z M769.2,354.5l-0.6-0.3l2.7-4.4l0.6,0.3L769.2,354.5z M770.4,353.6
			c0-0.4,0.1-0.6,0.3-0.9c0.2-0.2,0.5-0.3,0.9-0.3c0.4,0,0.7,0.1,0.9,0.3c0.2,0.2,0.3,0.5,0.3,0.9v0.3c0,0.4-0.1,0.6-0.3,0.9
			c-0.2,0.2-0.5,0.3-0.9,0.3c-0.4,0-0.7-0.1-0.9-0.3c-0.2-0.2-0.3-0.5-0.3-0.9V353.6z M771.2,353.9c0,0.1,0,0.2,0.1,0.3
			s0.2,0.1,0.3,0.1c0.2,0,0.4-0.1,0.4-0.4l0-0.4c0-0.1,0-0.2-0.1-0.3c-0.1-0.1-0.2-0.1-0.3-0.1c-0.1,0-0.2,0-0.3,0.1
			c-0.1,0.1-0.1,0.2-0.1,0.3V353.9z"/>
	</g>
</g>
<g>
	<path class="st16" d="M372.9,357.6h-14c-1.9,0-3.4-1.5-3.4-3.4v-5.5c0-1.9,1.5-3.4,3.4-3.4h14c1.9,0,3.4,1.5,3.4,3.4v5.5
		C376.3,356,374.7,357.6,372.9,357.6z"/>
	<g class="st12">
		<path class="st6" d="M359.8,350.8h1.3v1.1h-1.3v1.5h-1.2V352h-1.3v-1.1h1.3v-1.5h1.2V350.8z"/>
		<path class="st6" d="M365.3,349.9c0,0.3-0.1,0.5-0.2,0.7s-0.3,0.4-0.5,0.5c0.3,0.1,0.5,0.3,0.6,0.5c0.2,0.2,0.2,0.5,0.2,0.8
			c0,0.5-0.2,0.9-0.5,1.2s-0.8,0.4-1.4,0.4c-0.6,0-1.1-0.1-1.4-0.4s-0.5-0.7-0.5-1.2c0-0.3,0.1-0.6,0.2-0.8c0.2-0.2,0.4-0.4,0.6-0.6
			c-0.2-0.1-0.4-0.3-0.5-0.5c-0.1-0.2-0.2-0.5-0.2-0.7c0-0.5,0.2-0.9,0.5-1.2s0.8-0.4,1.3-0.4c0.6,0,1,0.1,1.3,0.4
			C365.1,349,365.3,349.4,365.3,349.9z M364.1,352.4c0-0.2-0.1-0.4-0.2-0.5s-0.3-0.2-0.5-0.2c-0.2,0-0.3,0.1-0.5,0.2
			c-0.1,0.1-0.2,0.3-0.2,0.5c0,0.2,0.1,0.4,0.2,0.5c0.1,0.1,0.3,0.2,0.5,0.2c0.2,0,0.3-0.1,0.5-0.2
			C364,352.8,364.1,352.6,364.1,352.4z M363.5,349.3c-0.2,0-0.3,0.1-0.4,0.2c-0.1,0.1-0.1,0.3-0.1,0.5c0,0.2,0,0.4,0.1,0.5
			c0.1,0.1,0.2,0.2,0.4,0.2c0.2,0,0.3-0.1,0.4-0.2c0.1-0.1,0.1-0.3,0.1-0.5s0-0.4-0.1-0.5C363.8,349.4,363.6,349.3,363.5,349.3z"/>
		<path class="st6" d="M368.8,354.1h-1.3v-4.2l-1.2,0.4v-1l2.4-0.9h0.1V354.1z"/>
		<path class="st6" d="M370.5,349.5c0-0.4,0.1-0.6,0.3-0.9c0.2-0.2,0.5-0.3,0.9-0.3c0.4,0,0.7,0.1,0.9,0.3c0.2,0.2,0.3,0.5,0.3,0.9
			v0.3c0,0.4-0.1,0.6-0.3,0.8c-0.2,0.2-0.5,0.3-0.9,0.3c-0.4,0-0.7-0.1-0.9-0.3c-0.2-0.2-0.3-0.5-0.3-0.9V349.5z M371.3,349.8
			c0,0.1,0,0.2,0.1,0.3c0.1,0.1,0.2,0.1,0.3,0.1c0.3,0,0.4-0.2,0.4-0.5v-0.2c0-0.1,0-0.2-0.1-0.3c-0.1-0.1-0.2-0.1-0.3-0.1
			c-0.1,0-0.2,0-0.3,0.1c-0.1,0.1-0.1,0.2-0.1,0.3V349.8z M371.9,353.6l-0.6-0.3l2.7-4.4l0.6,0.3L371.9,353.6z M373.1,352.7
			c0-0.4,0.1-0.6,0.3-0.9s0.5-0.3,0.9-0.3c0.4,0,0.7,0.1,0.9,0.3c0.2,0.2,0.3,0.5,0.3,0.9v0.3c0,0.4-0.1,0.6-0.3,0.9
			c-0.2,0.2-0.5,0.3-0.9,0.3c-0.4,0-0.7-0.1-0.9-0.3c-0.2-0.2-0.3-0.5-0.3-0.9V352.7z M373.9,353c0,0.1,0,0.2,0.1,0.3
			c0.1,0.1,0.2,0.1,0.3,0.1c0.2,0,0.4-0.1,0.4-0.4l0-0.4c0-0.1,0-0.2-0.1-0.3c-0.1-0.1-0.2-0.1-0.3-0.1c-0.1,0-0.2,0-0.3,0.1
			c-0.1,0.1-0.1,0.2-0.1,0.3V353z"/>
	</g>
</g>
<g>
	<path class="st3" d="M302.6,300.4H41.7c-9,0-16.2-7.3-16.2-16.2V137c0-9,7.3-16.2,16.2-16.2h260.8c9,0,16.2,7.3,16.2,16.2v147.2
		C318.8,293.1,311.5,300.4,302.6,300.4z"/>
	<g>
		<circle class="st17" cx="121" cy="211.4" r="65"/>
		<path class="st18" d="M121,146.4c35.9,0,65,29.1,65,65s-29.1,65-65,65s-65-29.1-65-65c0-1.3,0-2.6,0.1-3.8"/>
		<path class="st19" d="M62.1,183.9c10.4-22.1,32.8-37.5,58.9-37.5"/>
		<path class="st20" d="M56.2,207.6c0.5-8.4,2.6-16.4,6-23.7"/>
		<g class="st12">
			<path class="st21" d="M97.5,201.1h1.9c0.9,0,1.6-0.2,2-0.7c0.4-0.4,0.6-1,0.6-1.8c0-0.7-0.2-1.3-0.6-1.7c-0.4-0.4-1-0.6-1.8-0.6
				c-0.7,0-1.2,0.2-1.7,0.6c-0.5,0.4-0.7,0.9-0.7,1.4h-3.5c0-0.9,0.2-1.8,0.8-2.5c0.5-0.7,1.2-1.3,2.1-1.7c0.9-0.4,1.9-0.6,3-0.6
				c1.9,0,3.4,0.5,4.4,1.3c1.1,0.9,1.6,2.1,1.6,3.7c0,0.8-0.2,1.6-0.7,2.2c-0.5,0.7-1.1,1.2-2,1.6c1,0.4,1.7,0.9,2.2,1.6
				c0.5,0.7,0.7,1.6,0.7,2.5c0,1.6-0.6,2.8-1.7,3.8c-1.2,1-2.7,1.4-4.6,1.4c-1.8,0-3.2-0.5-4.4-1.4c-1.1-0.9-1.7-2.2-1.7-3.7h3.5
				c0,0.7,0.3,1.2,0.8,1.6c0.5,0.4,1.1,0.6,1.8,0.6c0.8,0,1.5-0.2,2-0.7c0.5-0.4,0.7-1,0.7-1.8c0-1.8-1-2.7-2.9-2.7h-1.9V201.1z"/>
			<path class="st21" d="M116.9,211.6h-3.5V198l-4.2,1.3v-2.9l7.4-2.6h0.4V211.6z"/>
			<path class="st21" d="M123.2,202.8l1-9h10v2.9h-7.1l-0.4,3.8c0.8-0.4,1.7-0.7,2.7-0.7c1.7,0,3,0.5,4,1.6c1,1,1.4,2.5,1.4,4.4
				c0,1.1-0.2,2.2-0.7,3.1c-0.5,0.9-1.2,1.6-2.1,2.1c-0.9,0.5-2,0.8-3.2,0.8c-1.1,0-2.1-0.2-3-0.7c-0.9-0.4-1.6-1-2.2-1.8
				c-0.5-0.8-0.8-1.7-0.8-2.7h3.5c0.1,0.7,0.3,1.3,0.8,1.7c0.4,0.4,1,0.6,1.7,0.6c0.8,0,1.4-0.3,1.8-0.9c0.4-0.6,0.6-1.4,0.6-2.4
				c0-1-0.2-1.8-0.7-2.3c-0.5-0.5-1.2-0.8-2.1-0.8c-0.8,0-1.5,0.2-2,0.7l-0.3,0.3L123.2,202.8z"/>
			<path class="st21" d="M146.6,193.6v2.9h-0.3c-1.6,0-2.9,0.4-3.9,1.2c-1,0.8-1.6,1.9-1.8,3.4c0.9-1,2.1-1.4,3.6-1.4
				c1.5,0,2.8,0.6,3.7,1.7c0.9,1.1,1.4,2.6,1.4,4.4c0,1.2-0.3,2.2-0.8,3.1c-0.5,0.9-1.2,1.7-2.1,2.2c-0.9,0.5-2,0.8-3.1,0.8
				c-1.9,0-3.4-0.7-4.5-2c-1.2-1.3-1.7-3-1.7-5.2v-1.3c0-1.9,0.4-3.6,1.1-5.1c0.7-1.5,1.8-2.6,3.1-3.4c1.4-0.8,2.9-1.2,4.7-1.2
				H146.6z M143.1,202.5c-0.6,0-1.1,0.1-1.6,0.4c-0.5,0.3-0.8,0.7-1,1.2v1.1c0,1.2,0.2,2.1,0.7,2.8s1.1,1,2,1c0.8,0,1.4-0.3,1.8-0.9
				c0.5-0.6,0.7-1.4,0.7-2.3c0-1-0.2-1.7-0.7-2.3C144.5,202.8,143.9,202.5,143.1,202.5z"/>
		</g>
		<g class="st12">
			<path class="st6" d="M109.6,226.5c-0.1,1.1-0.5,2-1.2,2.6c-0.7,0.6-1.6,0.9-2.8,0.9c-1.3,0-2.3-0.5-3-1.4
				c-0.8-0.9-1.1-2.1-1.1-3.6v-1c0-1,0.2-1.9,0.5-2.6c0.4-0.8,0.9-1.3,1.5-1.7c0.6-0.4,1.4-0.6,2.3-0.6c1.1,0,2,0.3,2.7,0.9
				c0.7,0.6,1.1,1.5,1.2,2.6h-1.4c-0.1-0.9-0.4-1.5-0.8-1.9c-0.4-0.4-1-0.6-1.7-0.6c-0.9,0-1.6,0.3-2.1,1c-0.5,0.7-0.8,1.6-0.8,2.8
				v1c0,1.2,0.2,2.1,0.7,2.8c0.5,0.7,1.2,1,2,1c0.8,0,1.4-0.2,1.8-0.5c0.4-0.4,0.7-1,0.8-1.8H109.6z"/>
			<path class="st6" d="M112.8,229.9h-1.4v-11.2h1.4V229.9z"/>
			<path class="st6" d="M115,219.9c0-0.2,0.1-0.4,0.2-0.6c0.1-0.2,0.3-0.2,0.6-0.2s0.5,0.1,0.6,0.2c0.1,0.2,0.2,0.3,0.2,0.6
				c0,0.2-0.1,0.4-0.2,0.5s-0.3,0.2-0.6,0.2s-0.5-0.1-0.6-0.2C115,220.3,115,220.1,115,219.9z M116.4,229.9h-1.4V222h1.4V229.9z"/>
			<path class="st6" d="M121.8,229c0.5,0,0.9-0.1,1.3-0.4s0.6-0.7,0.6-1.1h1.3c0,0.5-0.2,0.9-0.5,1.3s-0.7,0.7-1.2,1
				c-0.5,0.2-1,0.4-1.5,0.4c-1.1,0-1.9-0.4-2.6-1.1c-0.6-0.7-1-1.7-1-3v-0.2c0-0.8,0.1-1.5,0.4-2.1c0.3-0.6,0.7-1.1,1.2-1.4
				c0.5-0.3,1.2-0.5,1.9-0.5c0.9,0,1.6,0.3,2.2,0.8c0.6,0.5,0.9,1.2,0.9,2.1h-1.3c0-0.5-0.2-0.9-0.6-1.3c-0.3-0.3-0.8-0.5-1.3-0.5
				c-0.7,0-1.2,0.2-1.6,0.7c-0.4,0.5-0.6,1.2-0.6,2.2v0.3c0,0.9,0.2,1.6,0.6,2.1S121.1,229,121.8,229z"/>
			<path class="st6" d="M128.6,226.3l-0.8,0.9v2.8h-1.4v-11.2h1.4v6.8l0.7-0.9l2.5-2.6h1.6l-3.1,3.3l3.4,4.6h-1.6L128.6,226.3z"/>
			<path class="st6" d="M138.7,227.8c0-0.4-0.1-0.7-0.4-0.9c-0.3-0.2-0.8-0.4-1.4-0.5c-0.7-0.1-1.2-0.3-1.6-0.5
				c-0.4-0.2-0.7-0.4-0.9-0.7s-0.3-0.6-0.3-1c0-0.6,0.3-1.2,0.8-1.6c0.5-0.4,1.3-0.7,2.1-0.7c0.9,0,1.6,0.2,2.2,0.7
				c0.6,0.5,0.8,1.1,0.8,1.8h-1.4c0-0.4-0.2-0.7-0.5-1c-0.3-0.3-0.7-0.4-1.2-0.4c-0.5,0-0.9,0.1-1.2,0.3s-0.4,0.5-0.4,0.8
				c0,0.3,0.1,0.6,0.4,0.7s0.7,0.3,1.4,0.5c0.7,0.2,1.2,0.3,1.6,0.5s0.7,0.5,0.9,0.8c0.2,0.3,0.3,0.7,0.3,1.1c0,0.7-0.3,1.3-0.8,1.7
				c-0.6,0.4-1.3,0.6-2.2,0.6c-0.6,0-1.2-0.1-1.7-0.3s-0.9-0.5-1.1-0.9c-0.3-0.4-0.4-0.8-0.4-1.3h1.4c0,0.5,0.2,0.8,0.5,1.1
				c0.3,0.3,0.8,0.4,1.3,0.4c0.5,0,0.9-0.1,1.2-0.3C138.5,228.4,138.7,228.2,138.7,227.8z"/>
		</g>
	</g>
	<g>
		<path class="st4" d="M297.7,201.1H227c-1.7,0-3.1-1.4-3.1-3.1v-0.1c0-1.7,1.4-3.1,3.1-3.1h70.7c1.7,0,3.1,1.4,3.1,3.1v0.1
			C300.8,199.7,299.4,201.1,297.7,201.1z"/>
		<path class="st4" d="M278.5,213.5H227c-1.7,0-3.1-1.4-3.1-3.1v-0.1c0-1.7,1.4-3.1,3.1-3.1h51.5c1.7,0,3.1,1.4,3.1,3.1v0.1
			C281.6,212.1,280.2,213.5,278.5,213.5z"/>
		<path class="st4" d="M284.8,226.3H227c-1.7,0-3.1-1.4-3.1-3.1v-0.1c0-1.7,1.4-3.1,3.1-3.1h57.9c1.7,0,3.1,1.4,3.1,3.1v0.1
			C287.9,225,286.5,226.3,284.8,226.3z"/>
		<circle class="st22" cx="218.6" cy="198" r="3.5"/>
		<circle class="st23" cx="218.6" cy="223.2" r="3.5"/>
		<circle class="st24" cx="218.6" cy="210.4" r="3.5"/>
	</g>
</g>
<g>
	<path class="st25" d="M498,105.5H36.5c-7.2,0-13-5.8-13-13v-1.4c0-7.2,5.8-13,13-13H498c7.2,0,13,5.8,13,13v1.4
		C511.1,99.7,505.2,105.5,498,105.5z"/>
	<path class="st26" d="M81.5,100.2H52.1c-4.3,0-7.8-3.5-7.8-7.8v-1.1c0-4.3,3.5-7.8,7.8-7.8h29.4c4.3,0,7.8,3.5,7.8,7.8v1.1
		C89.3,96.7,85.8,100.2,81.5,100.2z"/>
	<path class="st26" d="M186.3,100.2h-71c-4.3,0-7.8-3.5-7.8-7.8v-1.1c0-4.3,3.5-7.8,7.8-7.8h71c4.3,0,7.8,3.5,7.8,7.8v1.1
		C194.1,96.7,190.6,100.2,186.3,100.2z"/>
	<path class="st26" d="M321.4,100.2H220.9c-4.3,0-7.8-3.5-7.8-7.8v-1.1c0-4.3,3.5-7.8,7.8-7.8h100.5c4.3,0,7.8,3.5,7.8,7.8v1.1
		C329.2,96.7,325.7,100.2,321.4,100.2z"/>
	<path class="st26" d="M382.8,100.2h-34.1c-4.3,0-7.8-3.5-7.8-7.8v-1.1c0-4.3,3.5-7.8,7.8-7.8h34.1c4.3,0,7.8,3.5,7.8,7.8v1.1
		C390.6,96.7,387.1,100.2,382.8,100.2z"/>
	<path class="st26" d="M470.3,100.2H412c-4.3,0-7.8-3.5-7.8-7.8v-1.1c0-4.3,3.5-7.8,7.8-7.8h58.3c4.3,0,7.8,3.5,7.8,7.8v1.1
		C478.1,96.7,474.6,100.2,470.3,100.2z"/>
</g>
<g>
	<path class="st3" d="M605.2,301.4H344.3c-9,0-16.2-7.3-16.2-16.2V138c0-9,7.3-16.2,16.2-16.2h260.8c9,0,16.2,7.3,16.2,16.2v147.2
		C621.4,294.1,614.1,301.4,605.2,301.4z"/>
	<g>
		<circle class="st17" cx="418.1" cy="213.9" r="65"/>
		<path class="st19" d="M353.1,216L353.1,216"/>
		<path class="st27" d="M458,265.2c-11,8.6-24.9,13.7-39.9,13.7c-35.2,0-63.8-28-65-62.9"/>
		<path class="st19" d="M417.5,148.9c0.2,0,0.4,0,0.6,0c35.9,0,65,29.1,65,65c0,20.8-9.8,39.4-25.1,51.3"/>
		<path class="st18" d="M353.1,215.9c0-0.7,0-1.4,0-2.1c0-35.7,28.8-64.7,64.4-65"/>
		<g class="st12">
			<path class="st21" d="M392.1,216.6h-3.5V203l-4.2,1.3v-2.9l7.4-2.6h0.4V216.6z"/>
			<path class="st21" d="M398.2,214.9c0-0.6,0.2-1,0.6-1.4c0.4-0.3,0.9-0.5,1.4-0.5c0.6,0,1.1,0.2,1.4,0.5c0.4,0.3,0.6,0.8,0.6,1.4
				c0,0.6-0.2,1-0.6,1.3c-0.4,0.3-0.9,0.5-1.4,0.5c-0.6,0-1.1-0.2-1.4-0.5C398.4,215.9,398.2,215.5,398.2,214.9z"/>
			<path class="st21" d="M405.7,207.9l1-9h10v2.9h-7.1l-0.4,3.8c0.8-0.4,1.7-0.7,2.7-0.7c1.7,0,3,0.5,4,1.6s1.4,2.5,1.4,4.4
				c0,1.1-0.2,2.2-0.7,3.1c-0.5,0.9-1.2,1.6-2.1,2.1c-0.9,0.5-2,0.8-3.2,0.8c-1.1,0-2.1-0.2-3-0.7c-0.9-0.4-1.6-1-2.2-1.8
				c-0.5-0.8-0.8-1.7-0.8-2.7h3.5c0.1,0.7,0.3,1.3,0.8,1.7c0.4,0.4,1,0.6,1.7,0.6c0.8,0,1.4-0.3,1.8-0.9c0.4-0.6,0.6-1.4,0.6-2.4
				c0-1-0.2-1.8-0.7-2.3s-1.2-0.8-2.1-0.8c-0.8,0-1.5,0.2-2,0.7l-0.3,0.3L405.7,207.9z"/>
			<path class="st21" d="M429.1,198.7v2.9h-0.3c-1.6,0-2.9,0.4-3.9,1.2c-1,0.8-1.6,1.9-1.8,3.4c0.9-1,2.1-1.4,3.6-1.4
				c1.5,0,2.8,0.6,3.7,1.7s1.4,2.6,1.4,4.4c0,1.2-0.2,2.2-0.8,3.1c-0.5,0.9-1.2,1.7-2.1,2.2c-0.9,0.5-2,0.8-3.1,0.8
				c-1.9,0-3.4-0.7-4.5-2c-1.2-1.3-1.7-3-1.7-5.2v-1.3c0-1.9,0.4-3.6,1.1-5.1c0.7-1.5,1.8-2.6,3.1-3.4s2.9-1.2,4.7-1.2H429.1z
				 M425.6,207.6c-0.6,0-1.1,0.1-1.5,0.4c-0.5,0.3-0.8,0.7-1,1.2v1.1c0,1.2,0.2,2.1,0.7,2.8s1.1,1,2,1c0.8,0,1.4-0.3,1.8-0.9
				c0.5-0.6,0.7-1.4,0.7-2.3c0-1-0.2-1.7-0.7-2.3S426.4,207.6,425.6,207.6z"/>
			<path class="st21" d="M439,198.9l4.6,12.9l4.5-12.9h4.8v17.8h-3.7v-4.9l0.4-8.4l-4.8,13.2h-2.5l-4.8-13.2l0.4,8.4v4.9h-3.7v-17.8
				H439z"/>
		</g>
		<g class="st12">
			<path class="st6" d="M383.9,234.1h-1.4v-10.7h1.4V234.1z"/>
			<path class="st6" d="M387.6,226.2l0,0.9c0.6-0.7,1.4-1,2.4-1c1.1,0,1.9,0.4,2.3,1.3c0.3-0.4,0.6-0.7,1-0.9
				c0.4-0.2,0.9-0.4,1.5-0.4c1.7,0,2.6,0.9,2.7,2.8v5.3H396v-5.2c0-0.6-0.1-1-0.4-1.3c-0.3-0.3-0.7-0.4-1.3-0.4
				c-0.5,0-0.9,0.2-1.3,0.5c-0.3,0.3-0.5,0.7-0.6,1.2v5.3h-1.4V229c0-1.2-0.6-1.7-1.7-1.7c-0.9,0-1.5,0.4-1.8,1.1v5.8h-1.4v-7.9
				H387.6z"/>
			<path class="st6" d="M406.1,230.3c0,1.2-0.3,2.2-0.8,2.9s-1.3,1.1-2.2,1.1c-1,0-1.7-0.3-2.3-0.9v3.8h-1.4v-11h1.2l0.1,0.9
				c0.6-0.7,1.3-1,2.3-1c1,0,1.7,0.4,2.3,1.1c0.6,0.7,0.8,1.7,0.8,3V230.3z M404.8,230.1c0-0.9-0.2-1.6-0.6-2.1s-0.9-0.8-1.6-0.8
				c-0.8,0-1.4,0.4-1.8,1.1v3.8c0.4,0.7,1,1.1,1.9,1.1c0.6,0,1.2-0.3,1.5-0.8C404.6,231.9,404.8,231.1,404.8,230.1z"/>
			<path class="st6" d="M411.7,227.4c-0.2,0-0.4-0.1-0.7-0.1c-0.9,0-1.5,0.4-1.8,1.1v5.6h-1.4v-7.9h1.3l0,0.9
				c0.4-0.7,1.1-1.1,1.9-1.1c0.3,0,0.5,0,0.6,0.1V227.4z"/>
			<path class="st6" d="M416.1,234.3c-1.1,0-1.9-0.4-2.6-1.1c-0.7-0.7-1-1.6-1-2.8v-0.2c0-0.8,0.2-1.5,0.5-2.1
				c0.3-0.6,0.7-1.1,1.3-1.5c0.5-0.3,1.1-0.5,1.8-0.5c1,0,1.8,0.3,2.4,1s0.9,1.7,0.9,2.9v0.6h-5.4c0,0.8,0.2,1.4,0.7,1.9
				c0.4,0.5,1,0.7,1.7,0.7c0.5,0,0.9-0.1,1.2-0.3s0.6-0.5,0.9-0.8l0.8,0.6C418.4,233.8,417.4,234.3,416.1,234.3z M415.9,227.2
				c-0.5,0-1,0.2-1.4,0.6c-0.4,0.4-0.6,1-0.7,1.7h4v-0.1c0-0.7-0.2-1.2-0.6-1.6C416.9,227.4,416.5,227.2,415.9,227.2z"/>
			<path class="st6" d="M425.3,232c0-0.4-0.1-0.7-0.4-0.9c-0.3-0.2-0.8-0.4-1.4-0.5c-0.7-0.1-1.2-0.3-1.6-0.5
				c-0.4-0.2-0.7-0.4-0.9-0.7c-0.2-0.3-0.3-0.6-0.3-1c0-0.6,0.3-1.2,0.8-1.6c0.5-0.4,1.3-0.7,2.1-0.7c0.9,0,1.6,0.2,2.2,0.7
				c0.6,0.5,0.8,1.1,0.8,1.8h-1.4c0-0.4-0.2-0.7-0.5-1c-0.3-0.3-0.7-0.4-1.2-0.4c-0.5,0-0.9,0.1-1.2,0.3s-0.4,0.5-0.4,0.8
				c0,0.3,0.1,0.6,0.4,0.7s0.7,0.3,1.4,0.5c0.7,0.2,1.2,0.3,1.6,0.5s0.7,0.5,0.9,0.8c0.2,0.3,0.3,0.7,0.3,1.1c0,0.7-0.3,1.3-0.8,1.7
				c-0.6,0.4-1.3,0.6-2.2,0.6c-0.6,0-1.2-0.1-1.7-0.3s-0.9-0.5-1.1-0.9c-0.3-0.4-0.4-0.8-0.4-1.3h1.4c0,0.5,0.2,0.8,0.5,1.1
				c0.3,0.3,0.8,0.4,1.3,0.4c0.5,0,0.9-0.1,1.2-0.3C425.2,232.7,425.3,232.4,425.3,232z"/>
			<path class="st6" d="M433.1,232c0-0.4-0.1-0.7-0.4-0.9c-0.3-0.2-0.8-0.4-1.4-0.5c-0.7-0.1-1.2-0.3-1.6-0.5
				c-0.4-0.2-0.7-0.4-0.9-0.7c-0.2-0.3-0.3-0.6-0.3-1c0-0.6,0.3-1.2,0.8-1.6c0.5-0.4,1.3-0.7,2.1-0.7c0.9,0,1.6,0.2,2.2,0.7
				c0.6,0.5,0.8,1.1,0.8,1.8H433c0-0.4-0.2-0.7-0.5-1c-0.3-0.3-0.7-0.4-1.2-0.4c-0.5,0-0.9,0.1-1.2,0.3s-0.4,0.5-0.4,0.8
				c0,0.3,0.1,0.6,0.4,0.7s0.7,0.3,1.4,0.5c0.7,0.2,1.2,0.3,1.6,0.5s0.7,0.5,0.9,0.8c0.2,0.3,0.3,0.7,0.3,1.1c0,0.7-0.3,1.3-0.8,1.7
				c-0.6,0.4-1.3,0.6-2.2,0.6c-0.6,0-1.2-0.1-1.7-0.3s-0.9-0.5-1.1-0.9c-0.3-0.4-0.4-0.8-0.4-1.3h1.4c0,0.5,0.2,0.8,0.5,1.1
				c0.3,0.3,0.8,0.4,1.3,0.4c0.5,0,0.9-0.1,1.2-0.3C432.9,232.7,433.1,232.4,433.1,232z"/>
			<path class="st6" d="M436.2,224.1c0-0.2,0.1-0.4,0.2-0.6c0.1-0.2,0.3-0.2,0.6-0.2s0.5,0.1,0.6,0.2c0.1,0.2,0.2,0.3,0.2,0.6
				c0,0.2-0.1,0.4-0.2,0.5s-0.3,0.2-0.6,0.2s-0.5-0.1-0.6-0.2C436.3,224.5,436.2,224.3,436.2,224.1z M437.7,234.1h-1.4v-7.9h1.4
				V234.1z"/>
			<path class="st6" d="M439.5,230.1c0-0.8,0.2-1.5,0.5-2.1c0.3-0.6,0.7-1.1,1.3-1.4c0.5-0.3,1.2-0.5,1.9-0.5c1.1,0,2,0.4,2.6,1.1
				c0.7,0.7,1,1.7,1,3v0.1c0,0.8-0.1,1.5-0.4,2.1c-0.3,0.6-0.7,1.1-1.3,1.4c-0.5,0.3-1.2,0.5-1.9,0.5c-1.1,0-1.9-0.4-2.6-1.1
				C439.8,232.4,439.5,231.4,439.5,230.1L439.5,230.1z M440.8,230.3c0,0.9,0.2,1.6,0.6,2.1c0.4,0.5,1,0.8,1.6,0.8
				c0.7,0,1.2-0.3,1.6-0.8c0.4-0.5,0.6-1.3,0.6-2.3c0-0.9-0.2-1.6-0.6-2.1c-0.4-0.5-1-0.8-1.6-0.8c-0.7,0-1.2,0.3-1.6,0.8
				C441,228.5,440.8,229.3,440.8,230.3z"/>
			<path class="st6" d="M449.7,226.2l0,1c0.6-0.8,1.4-1.1,2.4-1.1c1.7,0,2.5,0.9,2.5,2.8v5.2h-1.4v-5.2c0-0.6-0.1-1-0.4-1.3
				c-0.3-0.3-0.7-0.4-1.2-0.4c-0.4,0-0.8,0.1-1.2,0.4s-0.6,0.5-0.8,0.9v5.6h-1.4v-7.9H449.7z"/>
			<path class="st6" d="M461.3,232c0-0.4-0.1-0.7-0.4-0.9c-0.3-0.2-0.8-0.4-1.4-0.5c-0.7-0.1-1.2-0.3-1.6-0.5
				c-0.4-0.2-0.7-0.4-0.9-0.7c-0.2-0.3-0.3-0.6-0.3-1c0-0.6,0.3-1.2,0.8-1.6c0.5-0.4,1.3-0.7,2.1-0.7c0.9,0,1.6,0.2,2.2,0.7
				c0.6,0.5,0.8,1.1,0.8,1.8h-1.4c0-0.4-0.2-0.7-0.5-1c-0.3-0.3-0.7-0.4-1.2-0.4c-0.5,0-0.9,0.1-1.2,0.3s-0.4,0.5-0.4,0.8
				c0,0.3,0.1,0.6,0.4,0.7s0.7,0.3,1.4,0.5c0.7,0.2,1.2,0.3,1.6,0.5s0.7,0.5,0.9,0.8c0.2,0.3,0.3,0.7,0.3,1.1c0,0.7-0.3,1.3-0.8,1.7
				c-0.6,0.4-1.3,0.6-2.2,0.6c-0.6,0-1.2-0.1-1.7-0.3s-0.9-0.5-1.1-0.9c-0.3-0.4-0.4-0.8-0.4-1.3h1.4c0,0.5,0.2,0.8,0.5,1.1
				c0.3,0.3,0.8,0.4,1.3,0.4c0.5,0,0.9-0.1,1.2-0.3C461.1,232.7,461.3,232.4,461.3,232z"/>
		</g>
	</g>
	<g>
		<path class="st4" d="M600.3,202.1h-70.7c-1.7,0-3.1-1.4-3.1-3.1v-0.1c0-1.7,1.4-3.1,3.1-3.1h70.7c1.7,0,3.1,1.4,3.1,3.1v0.1
			C603.4,200.7,602,202.1,600.3,202.1z"/>
		<path class="st4" d="M581.1,214.5h-51.5c-1.7,0-3.1-1.4-3.1-3.1v-0.1c0-1.7,1.4-3.1,3.1-3.1h51.5c1.7,0,3.1,1.4,3.1,3.1v0.1
			C584.2,213.1,582.8,214.5,581.1,214.5z"/>
		<path class="st4" d="M587.4,227.3h-57.9c-1.7,0-3.1-1.4-3.1-3.1v-0.1c0-1.7,1.4-3.1,3.1-3.1h57.9c1.7,0,3.1,1.4,3.1,3.1v0.1
			C590.5,225.9,589.1,227.3,587.4,227.3z"/>
		<circle class="st22" cx="521.2" cy="198.9" r="3.5"/>
		<circle class="st23" cx="521.2" cy="224.2" r="3.5"/>
		<circle class="st24" cx="521.2" cy="211.4" r="3.5"/>
	</g>
</g>
<g>
	<path class="st3" d="M795.4,302.9h-151c-9,0-16.2-7.3-16.2-16.2V86.5c0-9,7.3-16.2,16.2-16.2h151.1c9,0,16.2,7.3,16.2,16.2v200.2
		C811.7,295.6,804.4,302.9,795.4,302.9z"/>
	<g>
		<ellipse class="st17" cx="719.9" cy="159" rx="65" ry="65.4"/>
		<path class="st18" d="M661.5,187.9c-4.3-8.7-6.6-18.5-6.6-28.8c0-34.4,26.5-62.7,60.1-65.2"/>
		<path class="st27" d="M661.6,188.1c0-0.1-0.1-0.2-0.1-0.2"/>
		<path class="st19" d="M719.4,224.4c-25.3-0.2-47.2-14.9-57.7-36.3"/>
		<path class="st27" d="M715,93.9c1.6-0.1,3.3-0.2,4.9-0.2c35.9,0,65,29.3,65,65.4s-29.1,65.4-65,65.4c-0.2,0-0.4,0-0.5,0"/>
		<g class="st12">
			<path class="st21" d="M710.4,159h-12.2v-2.4l5.7-6.2c0.8-0.9,1.4-1.6,1.8-2.3c0.4-0.6,0.6-1.3,0.6-1.8c0-0.8-0.2-1.4-0.6-1.9
				c-0.4-0.5-1-0.7-1.7-0.7c-0.8,0-1.4,0.3-1.9,0.8c-0.5,0.6-0.7,1.3-0.7,2.2h-3.5c0-1.1,0.3-2.1,0.8-3s1.2-1.6,2.2-2.1
				c0.9-0.5,2-0.8,3.2-0.8c1.8,0,3.3,0.4,4.3,1.3c1,0.9,1.5,2.1,1.5,3.7c0,0.9-0.2,1.8-0.7,2.7c-0.5,0.9-1.2,2-2.3,3.2l-4,4.3h7.6
				V159z"/>
			<path class="st21" d="M724.6,143.1l-6.9,15.9H714l6.9-15h-8.8v-2.9h12.5V143.1z"/>
			<path class="st21" d="M730.5,148.5h1.9c0.9,0,1.6-0.2,2-0.7c0.4-0.4,0.6-1,0.6-1.8c0-0.7-0.2-1.3-0.6-1.7c-0.4-0.4-1-0.6-1.8-0.6
				c-0.7,0-1.2,0.2-1.7,0.6c-0.5,0.4-0.7,0.9-0.7,1.5h-3.5c0-0.9,0.2-1.8,0.8-2.5c0.5-0.7,1.2-1.3,2.1-1.7s1.9-0.6,3-0.6
				c1.9,0,3.4,0.5,4.4,1.4c1.1,0.9,1.6,2.2,1.6,3.7c0,0.8-0.2,1.6-0.7,2.3s-1.1,1.2-2,1.6c1,0.4,1.7,0.9,2.2,1.6
				c0.5,0.7,0.7,1.6,0.7,2.6c0,1.6-0.6,2.9-1.7,3.8s-2.7,1.4-4.6,1.4c-1.8,0-3.2-0.5-4.4-1.4c-1.1-0.9-1.7-2.2-1.7-3.7h3.5
				c0,0.7,0.2,1.2,0.8,1.6c0.5,0.4,1.1,0.6,1.8,0.6c0.8,0,1.5-0.2,2-0.7c0.5-0.4,0.7-1,0.7-1.8c0-1.8-1-2.7-2.9-2.7h-1.9V148.5z"/>
		</g>
		<g class="st12">
			<path class="st6" d="M688.5,173.6c-0.1,1.1-0.5,2-1.2,2.6c-0.7,0.6-1.6,0.9-2.8,0.9c-1.3,0-2.3-0.5-3-1.4s-1.1-2.1-1.1-3.6v-1
				c0-1,0.2-1.9,0.5-2.6s0.9-1.3,1.5-1.7c0.6-0.4,1.4-0.6,2.2-0.6c1.1,0,2,0.3,2.7,0.9c0.7,0.6,1.1,1.5,1.2,2.6h-1.4
				c-0.1-0.9-0.4-1.5-0.8-1.9c-0.4-0.4-1-0.6-1.7-0.6c-0.9,0-1.6,0.3-2.1,1c-0.5,0.7-0.8,1.6-0.8,2.8v1c0,1.2,0.2,2.1,0.7,2.8
				s1.2,1,2,1c0.8,0,1.4-0.2,1.8-0.5s0.7-1,0.8-1.8H688.5z"/>
			<path class="st6" d="M689.9,172.9c0-0.8,0.2-1.5,0.5-2.1c0.3-0.6,0.7-1.1,1.3-1.4c0.5-0.3,1.2-0.5,1.9-0.5c1.1,0,1.9,0.4,2.6,1.1
				s1,1.7,1,3v0.1c0,0.8-0.1,1.5-0.4,2.1s-0.7,1.1-1.3,1.4c-0.5,0.3-1.2,0.5-1.9,0.5c-1.1,0-1.9-0.4-2.6-1.1
				C690.2,175.3,689.9,174.3,689.9,172.9L689.9,172.9z M691.2,173.1c0,0.9,0.2,1.6,0.6,2.1s0.9,0.8,1.6,0.8c0.7,0,1.2-0.3,1.6-0.8
				c0.4-0.5,0.6-1.3,0.6-2.3c0-0.9-0.2-1.6-0.6-2.1s-1-0.8-1.6-0.8c-0.7,0-1.2,0.3-1.6,0.8S691.2,172.1,691.2,173.1z"/>
			<path class="st6" d="M700,169.1l0,1c0.6-0.8,1.4-1.1,2.4-1.1c1.7,0,2.5,0.9,2.5,2.8v5.2h-1.3v-5.2c0-0.6-0.1-1-0.4-1.3
				s-0.7-0.4-1.2-0.4c-0.4,0-0.8,0.1-1.2,0.4s-0.6,0.5-0.8,0.9v5.6h-1.3v-7.9H700z"/>
			<path class="st6" d="M709.6,175.1l2-6.1h1.4l-2.8,7.9h-1l-2.9-7.9h1.4L709.6,175.1z"/>
			<path class="st6" d="M717.4,177.1c-1.1,0-1.9-0.4-2.6-1.1c-0.7-0.7-1-1.6-1-2.8V173c0-0.8,0.1-1.5,0.4-2.1
				c0.3-0.6,0.7-1.1,1.3-1.5c0.5-0.3,1.1-0.5,1.7-0.5c1,0,1.8,0.3,2.4,1c0.6,0.7,0.9,1.7,0.9,2.9v0.6h-5.3c0,0.8,0.2,1.4,0.7,1.9
				s1,0.7,1.7,0.7c0.5,0,0.9-0.1,1.2-0.3s0.6-0.5,0.9-0.8l0.8,0.6C719.7,176.6,718.7,177.1,717.4,177.1z M717.2,170
				c-0.5,0-1,0.2-1.4,0.6c-0.4,0.4-0.6,1-0.7,1.7h3.9v-0.1c0-0.7-0.2-1.2-0.6-1.6C718.2,170.2,717.8,170,717.2,170z"/>
			<path class="st6" d="M725.8,170.3c-0.2,0-0.4-0.1-0.7-0.1c-0.9,0-1.5,0.4-1.8,1.1v5.6H722v-7.9h1.3l0,0.9
				c0.4-0.7,1.1-1.1,1.9-1.1c0.3,0,0.5,0,0.6,0.1V170.3z"/>
			<path class="st6" d="M731.6,174.9c0-0.4-0.1-0.7-0.4-0.9s-0.8-0.4-1.4-0.5c-0.7-0.1-1.2-0.3-1.6-0.5s-0.7-0.4-0.9-0.7
				c-0.2-0.3-0.3-0.6-0.3-1c0-0.6,0.3-1.2,0.8-1.6c0.5-0.4,1.2-0.7,2.1-0.7c0.9,0,1.6,0.2,2.2,0.7s0.8,1.1,0.8,1.8h-1.4
				c0-0.4-0.2-0.7-0.5-1s-0.7-0.4-1.2-0.4c-0.5,0-0.9,0.1-1.2,0.3s-0.4,0.5-0.4,0.8c0,0.3,0.1,0.6,0.4,0.7c0.3,0.2,0.7,0.3,1.4,0.5
				c0.7,0.2,1.2,0.3,1.6,0.5c0.4,0.2,0.7,0.5,0.9,0.8s0.3,0.7,0.3,1.1c0,0.7-0.3,1.3-0.8,1.7c-0.6,0.4-1.3,0.6-2.2,0.6
				c-0.6,0-1.2-0.1-1.7-0.3s-0.9-0.5-1.1-0.9c-0.3-0.4-0.4-0.8-0.4-1.3h1.3c0,0.5,0.2,0.8,0.5,1.1c0.3,0.3,0.8,0.4,1.3,0.4
				c0.5,0,0.9-0.1,1.2-0.3C731.5,175.5,731.6,175.2,731.6,174.9z"/>
			<path class="st6" d="M734.7,166.9c0-0.2,0.1-0.4,0.2-0.6c0.1-0.2,0.3-0.2,0.6-0.2c0.3,0,0.5,0.1,0.6,0.2s0.2,0.3,0.2,0.6
				s-0.1,0.4-0.2,0.5s-0.3,0.2-0.6,0.2c-0.3,0-0.5-0.1-0.6-0.2C734.8,167.4,734.7,167.2,734.7,166.9z M736.2,177h-1.3v-7.9h1.3V177z
				"/>
			<path class="st6" d="M738,172.9c0-0.8,0.2-1.5,0.5-2.1c0.3-0.6,0.7-1.1,1.3-1.4c0.5-0.3,1.2-0.5,1.9-0.5c1.1,0,1.9,0.4,2.6,1.1
				s1,1.7,1,3v0.1c0,0.8-0.1,1.5-0.4,2.1s-0.7,1.1-1.3,1.4c-0.5,0.3-1.2,0.5-1.9,0.5c-1.1,0-1.9-0.4-2.6-1.1
				C738.3,175.3,738,174.3,738,172.9L738,172.9z M739.3,173.1c0,0.9,0.2,1.6,0.6,2.1s0.9,0.8,1.6,0.8c0.7,0,1.2-0.3,1.6-0.8
				c0.4-0.5,0.6-1.3,0.6-2.3c0-0.9-0.2-1.6-0.6-2.1s-1-0.8-1.6-0.8c-0.7,0-1.2,0.3-1.6,0.8S739.3,172.1,739.3,173.1z"/>
			<path class="st6" d="M748.1,169.1l0,1c0.6-0.8,1.4-1.1,2.4-1.1c1.7,0,2.5,0.9,2.5,2.8v5.2h-1.3v-5.2c0-0.6-0.1-1-0.4-1.3
				s-0.7-0.4-1.2-0.4c-0.4,0-0.8,0.1-1.2,0.4s-0.6,0.5-0.8,0.9v5.6h-1.3v-7.9H748.1z"/>
			<path class="st6" d="M759.7,174.9c0-0.4-0.1-0.7-0.4-0.9s-0.8-0.4-1.4-0.5c-0.7-0.1-1.2-0.3-1.6-0.5s-0.7-0.4-0.9-0.7
				c-0.2-0.3-0.3-0.6-0.3-1c0-0.6,0.3-1.2,0.8-1.6c0.5-0.4,1.2-0.7,2.1-0.7c0.9,0,1.6,0.2,2.2,0.7s0.8,1.1,0.8,1.8h-1.4
				c0-0.4-0.2-0.7-0.5-1s-0.7-0.4-1.2-0.4c-0.5,0-0.9,0.1-1.2,0.3s-0.4,0.5-0.4,0.8c0,0.3,0.1,0.6,0.4,0.7c0.3,0.2,0.7,0.3,1.4,0.5
				c0.7,0.2,1.2,0.3,1.6,0.5c0.4,0.2,0.7,0.5,0.9,0.8s0.3,0.7,0.3,1.1c0,0.7-0.3,1.3-0.8,1.7c-0.6,0.4-1.3,0.6-2.2,0.6
				c-0.6,0-1.2-0.1-1.7-0.3s-0.9-0.5-1.1-0.9c-0.3-0.4-0.4-0.8-0.4-1.3h1.3c0,0.5,0.2,0.8,0.5,1.1c0.3,0.3,0.8,0.4,1.3,0.4
				c0.5,0,0.9-0.1,1.2-0.3C759.5,175.5,759.7,175.2,759.7,174.9z"/>
		</g>
	</g>
	<g>
		<path class="st4" d="M759.8,258.3h-70.7c-1.7,0-3.1-1.4-3.1-3.1V255c0-1.7,1.4-3.1,3.1-3.1h70.7c1.7,0,3.1,1.4,3.1,3.1v0.2
			C762.9,256.9,761.6,258.3,759.8,258.3z"/>
		<path class="st4" d="M740.6,270.8h-51.5c-1.7,0-3.1-1.4-3.1-3.1v-0.2c0-1.7,1.4-3.1,3.1-3.1h51.5c1.7,0,3.1,1.4,3.1,3.1v0.2
			C743.7,269.4,742.3,270.8,740.6,270.8z"/>
		<path class="st4" d="M747,283.7h-57.9c-1.7,0-3.1-1.4-3.1-3.1v-0.2c0-1.7,1.4-3.1,3.1-3.1H747c1.7,0,3.1,1.4,3.1,3.1v0.2
			C750.1,282.3,748.7,283.7,747,283.7z"/>
		<ellipse class="st22" cx="680.7" cy="255.1" rx="3.5" ry="3.5"/>
		<ellipse class="st23" cx="680.7" cy="280.5" rx="3.5" ry="3.5"/>
		<ellipse class="st24" cx="680.7" cy="267.6" rx="3.5" ry="3.5"/>
	</g>
</g>
</svg>
