<?xml version="1.0" encoding="utf-8"?>
<!-- Generator: Adobe Illustrator 27.6.1, SVG Export Plug-In . SVG Version: 6.00 Build 0)  -->
<svg version="1.1" id="Layer_1" xmlns="http://www.w3.org/2000/svg" xmlns:xlink="http://www.w3.org/1999/xlink" x="0px" y="0px"
	 viewBox="0 0 1055.9 844" style="enable-background:new 0 0 1055.9 844;" xml:space="preserve">
<style type="text/css">
	.st0{opacity:0.85;}
	.st1{fill:#1D1A27;}
	.st2{fill:none;stroke:#FFFFFF;stroke-opacity:0.16;}
	.st3{opacity:0.2;fill:none;stroke:#FFFFFF;stroke-width:2;stroke-linecap:round;enable-background:new    ;}
	.st4{fill:#7BF26F;}
	.st5{fill:#ED5F6E;}
	.st6{fill:#E7ECED;}
	.st7{fill:#6C7F7C;}
	.st8{fill:#D8E0E1;}
	.st9{fill:#B3EBC6;}
	.st10{fill:#4CD17A;}
	.st11{fill:#7FDDA0;}
	.st12{fill:#F0F3F4;}
	.st13{fill:#304C48;}
	.st14{enable-background:new    ;}
	.st15{fill:#C1C1C1;}
	.st16{fill:#C6C6C6;}
	.st17{fill:#BABABA;}
	.st18{fill:#C9C9C9;}
	.st19{fill:#736D87;}
	.st20{fill:#373345;}
	.st21{fill:#726990;}
</style>
<g>
	<g class="st0">
		<rect class="st1" width="1055.9" height="844"/>
		<rect x="2.3" y="1.7" class="st2" width="1051.2" height="840.5"/>
	</g>
	<line class="st3" x1="113.6" y1="369.4" x2="962.8" y2="367.8"/>
	<line class="st3" x1="108.8" y1="625.4" x2="957.9" y2="623.9"/>
	<line class="st3" x1="108.8" y1="499.3" x2="957.9" y2="497.8"/>
	<g>
		<path class="st4" d="M888,497.9c0-42.4,0-84.8,0-127.2c0-0.5,0-0.9,0-1.4c0.1-3.6,0.1-7.3,0.2-10.9c0.1-5.4,3.2-8.4,9.1-8.3
			c5.3,0.1,9.5,2,9.6,7.9c0.2,7.9,0.1,15.8,0.1,23.7c0,36.4,0,72.7,0,109.1c0,2.3,0.3,4.7,0.5,7c0,0.9,0,1.9-0.1,2.8
			c-0.1,1.5-0.4,3-0.4,4.5c0,82.7,0,165.4,0,248.1c0,1.1,0.1,2.1,0.1,3.2c-0.4,0.3-0.7,0.7-1.1,1c-5.8,0-11.6,0-17.4,0
			c-0.1-0.4-0.4-0.7-0.7-1c-0.1-42.4-0.1-84.8-0.2-127.3c0-0.9,0-1.8,0-2.6c0-42,0-84,0-126C888.1,499.7,888,498.8,888,497.9z"/>
		<path class="st4" d="M492.2,498c0.1-32.7,0.2-65.4,0.3-98.1c0-9.4,7-13.3,15.5-8.6c4.9,2.6,3.7,7.4,3.8,11.3
			c0.4,16.5,0.1,32.9,0.2,49.4c0.1,15.4,0.3,30.8,0.4,46.1c-0.2,22.6-0.4,45.2-0.4,67.8c0,21.1,0.3,42.2,0.4,63.4
			c-0.1,10.9-0.4,21.8-0.4,32.7c-0.1,29.3-0.2,58.6,0.1,87.9c0.1,6.1-1.9,8-7.8,7.3c-3.5-0.4-7-0.3-10.5-0.4c-0.4-0.5-0.7-1-1-1.5
			c-0.1-6-0.2-12-0.2-18c-0.1-36-0.2-72-0.3-108c0-0.9,0-1.7,0-2.6c0-42,0-84,0-126C492.2,499.7,492.2,498.8,492.2,498z"/>
		<path class="st4" d="M362.4,755.4c-0.1-39.2-0.1-78.4-0.2-117.7c0-2.8-0.2-5.5-0.3-8.3c0-0.9,0-1.7,0-2.6c0-42,0-84,0-125.9
			c0-0.9,0-1.7,0-2.6c0.1-24.3,0.2-48.7,0.3-73c0-5.7,4-10.9,9-10.1c4.6,0.7,10.2,1.4,10.2,8.4c0,2.4,0.5,5.1,0.5,7.6
			c0.2,22.4,0.3,44.8,0.4,67.2c0,0.8-0.1,1.7-0.1,2.5c-0.1,2.6-0.3,5.1-0.3,7.7c0,48.9-0.1,97.9,0,146.8c0,33.3,0.2,66.7,0.3,100
			c0,0.8,0.3,2.1-0.9,2.1c-6.1,0-11.9,0.1-18,0C363,757.7,362.4,757.6,362.4,755.4z"/>
		<path class="st4" d="M754.2,626.5c0-42,0-84,0-126c0-0.9,0-1.8-0.1-2.7c0.1-19.4,0.2-38.9,0.3-58.3c0-7.2,3-11.2,8.3-11.1
			c6.6,0.1,10.5,4.5,10.5,11.7c0.1,19.2,0.2,38.4,0.4,57.6c0,0.9,0,1.8-0.1,2.7c0,42,0,84,0,125.9c0,0.9,0,1.8,0.1,2.7
			c-0.1,20.3-0.3,40.7-0.4,61c-0.1,20.8-0.2,41.5,0.1,62.3c0.1,4.2-1.2,5.7-5.5,5.3c-4.4-0.4-8.8-0.1-13.2-0.2
			c-0.2-0.4-0.3-0.8-0.5-1.3c0-42.4,0-84.8,0-127.2C754.2,628.3,754.2,627.4,754.2,626.5z"/>
		<path class="st5" d="M517.5,498c0.2-11.7,0.4-23.4,0.5-35.1c0.1-5.3,3.7-10.1,8.4-9.7c4.5,0.4,8.9,0.9,10,7.4
			c1.6,8.7,0.4,17.3,0.9,26c0.3,3.8,0.2,7.7,0.3,11.5c0,0.9,0,1.7,0,2.6c0,42,0,84,0,126c0,0.9,0,1.7,0,2.6
			c-0.1,42.4-0.2,84.9-0.2,127.3l0,0c-0.2,0.1-0.4,0.2-0.6,0.2c-18.8,2.1-18.8,2.1-18.8-15.7c0-34.9,0-69.8,0-104.7
			c0-2.3-0.3-4.7-0.4-7c0.2-2.8,0.4-5.5,0.4-8.3c0-37.6,0-75.1,0-112.7C517.9,504.8,517.7,501.4,517.5,498z"/>
		<path class="st4" d="M640.5,629.1c-0.1,34.6-0.2,69.1-0.3,103.7c0,7.9,0,15.8,0,23.7c-0.6,0-0.8,0.2-1,0.6
			c-5.8-0.1-11.5-0.3-17.2-0.4c-0.4-0.5-0.7-1-1-1.5c-0.1-6-0.2-12-0.2-18c-0.1-36-0.2-72-0.3-108c0-0.9,0-1.7,0-2.6
			c0-42,0-84,0-126c0-0.9-0.1-1.7-0.1-2.6c4.4-8.8,12.9-9.3,20.1-1.3c-0.1,1.3-0.2,2.6-0.2,3.8c0,42.5,0,84.9,0,127.4
			C640.4,628.3,640.4,628.7,640.5,629.1z"/>
		<path class="st5" d="M933.1,629.2c-0.1,2.3-0.4,4.7-0.4,7c0,38.1-0.1,76.3,0.1,114.4c0,4.8-0.8,6.7-6.4,6.6c-13-0.3-13,0-13-12.7
			c0-74.3,0-148.7,0-223c0-5.7,3.8-10.8,8.6-10.3c4.7,0.5,9.6,1.9,10.1,8.3c0.2,2.3,0.6,4.6,0.6,6.9c0,31.1,0,62.1,0,93.2
			c0,2.3,0.2,4.7,0.4,7C933.1,627.5,933.1,628.3,933.1,629.2z"/>
		<path class="st4" d="M254,756.3c-6.5,0-12.9,0.1-19.7,0.2l0,0c0.1-41,0.3-81.9,0.4-122.9c0-1.5-0.2-3-0.3-4.5c0-0.9,0-1.7,0-2.6
			c0.2-28,0.3-56.1,0.6-84.1c0-3.5-0.6-7.4,2.3-10.3c2.8-2.7,5.9-4.3,10-2.8c5.2,1.8,6.6,5.9,6.8,10.5c0.3,8.1,0,16.3,0,24.4
			c0.1,20.8,0.1,41.5,0.2,62.3c0,0.9,0,1.7,0,2.6C254.2,671.6,254.1,714,254,756.3L254,756.3z"/>
		<path class="st5" d="M407.6,756.4c-6.2,1.4-12.5,0-18.7,0.8c-0.4-0.7-0.6-1.3-1-2c0.1-1.3,0.3-2.5,0.3-3.8c0-40.1,0-80.1,0-120.2
			c0-26.1,0.1-52.3-0.1-78.4c0-4.1,1.5-6.9,5.2-8.6c3.8-1.7,7-0.6,10,1.7c4,2.9,4.2,7.1,4.2,11.3c0.1,23.1,0.2,46.3,0.3,69.4
			c0,0.9,0,1.7,0,2.6C407.7,671.6,407.7,714,407.6,756.4L407.6,756.4z"/>
		<path class="st5" d="M650.3,755.2c-0.1-42.1-0.1-84.1-0.2-126.2c0.4-0.4,0.4-0.7,0-1c-0.6-6.1,4.5-8.4,8.7-8.7
			c4.1-0.2,9.4,1.3,9.9,7.2c0.5,0.9,0.8,1.7,1.3,2.6c0,42.5,0,84.9,0,127.4l-0.2-0.3l-0.3,0.1c-0.4,0.5-0.6,0.9-1,1.4
			c-5.8,0.6-11.5,0.5-17.3,0C651.1,756.9,651.4,755.8,650.3,755.2z"/>
		<path class="st6" d="M962.3,229.2c-0.2,1.4-0.8,2.4-2.5,2.5s-3.6,0.1-5.3,0.1c-279.8,0-559.5,0-839.2,0c-2.5,0-5.1,0.7-7.2-2.5
			C392.8,229.2,677.6,229.2,962.3,229.2L962.3,229.2z"/>
		<path class="st5" d="M279.3,756.2c-0.5,0.1-0.7,0.1-1.3,0.1c-17.5-0.2-18.5,2.1-18-15.6c0-25.7,0.1-51.3-0.1-77
			c0-4.6,1.6-8.3,5.7-9.9c3.5-1.4,7.5-0.5,10.2,2.3c3,3.2,3.4,7.5,3.4,11.7c0,29.5,0,59,0,88.6L279.3,756.2z"/>
		<path class="st5" d="M798.8,714.7c0,12.4-0.2,24.8,0.1,37.2c0.1,4.6-1.7,5.9-6.2,5.9c-13.1,0.2-13.1,0.3-13.1-12.2
			c0-23.8,0.2-47.5-0.1-71.3c-0.1-6.2,3-9.1,8.4-10c5.1-0.8,8.4,2.2,10,6.7c0.7,2.2,0.8,4.6,0.9,6.9
			C798.9,690.3,798.8,702.5,798.8,714.7z"/>
		<ellipse class="st4" cx="512.4" cy="165.5" rx="9.8" ry="9.6"/>
		<ellipse class="st5" cx="792.6" cy="165.3" rx="9.8" ry="9.6"/>
		<path class="st7" d="M650.3,755.2c1.3,0.5,0.8,1.7,1,2.6c-1.1,0.1-2.2,0.2-2.5-1.1C648.5,755.7,649.3,755.3,650.3,755.2z"/>
		<path class="st8" d="M906.1,757.4c0.4-0.3,0.7-0.7,1.1-1c1.2,0.2,2.5-0.4,3.6,0.8C909.2,758.2,907.6,757.6,906.1,757.4z"/>
		<path class="st9" d="M639.3,757.1c0.2-0.5,0.5-0.7,1-0.6c0.4,0.2,0.7,0.4,1,0.6C640.6,758.1,640,757.6,639.3,757.1z"/>
		<path class="st10" d="M621.1,755.2c0.4,0.5,0.7,1,1,1.5c-0.5,0-0.9-0.1-1.3-0.1v-0.1C620.9,756,621,755.6,621.1,755.2z"/>
		<path class="st11" d="M640.5,629.1c-0.1-0.4-0.1-0.7,0-1.1c0.4,0.2,0.7,0.4,1,0.6C641.2,628.7,640.9,628.9,640.5,629.1z"/>
		<path class="st7" d="M650,628c0.4,0.3,0.4,0.7,0,1c-0.4-0.1-0.6-0.2-1-0.3C649.3,628.5,649.7,628.2,650,628z"/>
		<path class="st12" d="M962.3,229.2c0.1-0.2,0.2-0.4,0.3-0.5C962.5,228.8,962.4,229,962.3,229.2L962.3,229.2z"/>
		<path class="st13" d="M669.4,756.4c0.1,0.5,0.2,0.9,0.3,1.4c-0.5,0-0.9,0-1.3,0C668.7,757.3,669.1,756.9,669.4,756.4z"/>
		<path class="st10" d="M492.7,755.2c0.4,0.5,0.7,1,1,1.5c-0.5,0-0.9-0.1-1.3-0.1v-0.1C492.5,756,492.6,755.6,492.7,755.2z"/>
	</g>
	<line class="st3" x1="108.8" y1="757.9" x2="957.9" y2="756.4"/>
	<g class="st14">
		<path class="st15" d="M556,166h-10v7h11v3h-15v-23h15v3h-11v7h10V166z"/>
		<path class="st15" d="M563.7,159l0.1,1.8c1.2-1.4,2.9-2.1,5.1-2.1c2.4,0,4,0.9,4.8,2.6c1.3-1.7,3.1-2.6,5.4-2.6
			c1.9,0,3.4,0.5,4.3,1.6c1,1,1.4,2.6,1.5,4.6V176h-3v-11.1c0-1.1-0.3-1.9-0.8-2.4s-1.4-0.8-2.6-0.8c-1,0-1.7,0.2-2.4,0.7
			c-0.6,0.5-1,1.1-1.3,1.8l0,11.7h-4v-11.2c0-2-1-3-2.9-3c-1.5,0-2.5,0.6-3.1,1.9V176h-5v-17H563.7z"/>
		<path class="st15" d="M599.7,176c-0.2-0.4-0.3-0.9-0.5-1.6c-1.3,1.3-2.8,1.9-4.6,1.9c-1.8,0-3.2-0.5-4.3-1.5
			c-1.1-1-1.7-2.2-1.7-3.6c0-1.8,0.7-3.2,2.1-4.2c1.4-1,5.9-1,5.9-1h2.3v-1.5c0.1-0.9-0.2-1.6-0.7-2.1c-0.5-0.5-1.3-0.8-2.3-0.8
			c-0.9,0-1.6,0.2-2.2,0.7c-0.6,0.4-0.9,1-0.9,1.8H589c0-1.1,0.3-1.9,1-2.8c0.6-0.8,1.5-1.4,2.6-1.9c1.1-0.5,2.3-0.7,3.7-0.7
			c2,0,3.7,0.5,4.9,1.5c1.2,1,1.8,4.2,1.8,4.2v7.7c0,0,0.2,2.7,1,3.7v0.3H599.7z M595.3,173.2c0.8,0,1.5-0.2,2.2-0.5
			c0.7-0.4,1.2-0.9,1.5-1.5V168h-2.1c-1.5,0-2.5,0.2-3.3,0.7c-0.7,0.5-1.1,1.2-1.1,2.1c0,0.7,0.2,1.3,0.8,1.8
			C593.8,173,594.4,173.2,595.3,173.2z"/>
		<path class="st15" d="M607.2,154.5c0-0.6,0.2-1.1,0.6-1.5c0.4-0.4,0.9-0.6,1.6-0.6c0.7,0,1.3,0.2,1.6,0.6s0.6,0.9,0.6,1.5
			c0,0.6-0.2,1.1-0.6,1.4s-0.9,0.6-1.6,0.6c-0.7,0-1.3-0.2-1.6-0.6C607.3,155.6,607.2,155.1,607.2,154.5z M611,176h-4v-17h4V176z"/>
		<path class="st15" d="M620,176h-4v-24h4V176z"/>
		<path class="st15" d="M644.8,170c0-1-0.4-1.7-1.1-2.3s-2-1.1-3.8-1.6c-1.8-0.5-3.3-1.1-4.4-1.8c-2.1-1.3-3.1-2.9-3.1-5
			c0-1.8,0.8-3.3,2.2-4.4c1.5-1.2,3.4-1.7,5.8-1.7c1.6,0,3,0.3,4.2,0.9c1.2,0.6,2.2,1.4,2.9,2.4c0.7,1.1,1.1,2.2,1.1,3.5h-4
			c0-1.2-0.4-2.1-1.1-2.7c-0.7-0.7-1.8-1-3.2-1c-1.3,0-2.3,0.3-3,0.8c-0.7,0.5-1.1,1.3-1.1,2.3c0,0.8,0.4,1.5,1.2,2
			c0.8,0.5,2,1.1,3.8,1.6c1.8,0.5,3.2,1.1,4.3,1.8s1.9,1.4,2.4,2.3c0.5,0.8,0.8,1.8,0.8,3c0,1.8-0.7,3.3-2.2,4.4
			c-1.5,1.1-3.4,1.6-5.9,1.6c-1.7,0-3.2-0.3-4.6-0.9c-1.4-0.6-2.5-1.4-3.2-2.5c-0.8-1-1.2-2.3-1.2-3.7h4c0,1.3,0.4,2.2,1.3,2.9
			c0.9,0.7,2.1,1,3.7,1c1.4,0,2.4-0.3,3.1-0.8C644.5,171.6,644.8,170.9,644.8,170z"/>
		<path class="st15" d="M660.2,176.6c-2.4,0-4.4-0.8-5.9-2.3c-1.5-1.5-2.3-3.6-2.3-6.1v-0.5c0-1.7,0.3-3.2,1-4.5
			c0.7-1.3,1.6-2.4,2.8-3.1c1.2-0.7,2.5-1.1,4-1.1c2.3,0,4.1,0.7,5.4,2.2s1.9,3.6,1.9,6.3v1.5h-11.1c0.1,1.4,0.6,2.5,1.4,3.3
			c0.8,0.8,1.9,1.2,3.1,1.2c1.8,0,3.2-0.7,4.3-2.1l2.1,2c-0.7,1-1.6,1.8-2.7,2.4C662.9,176.3,661.6,176.6,660.2,176.6z M659.4,161.8
			c-1.1,0-1.9,0.4-2.6,1.1c-0.7,0.7-1.1,1.8-1.3,3.1h7.5v-0.3c-0.1-1.3-0.4-2.2-1.1-2.9S660.5,161.8,659.4,161.8z"/>
		<path class="st15" d="M673.6,159l0.1,2c1.3-1.5,2.9-2.3,4.9-2.3c3.5,0,5.3,2,5.4,6.1V176h-3v-11c0-1.1-0.3-1.9-0.8-2.4
			c-0.5-0.5-1.3-0.8-2.5-0.8c-1.7,0-2.9,0.7-3.7,2.1V176h-4v-17H673.6z"/>
		<path class="st15" d="M693,155v4h3v3h-3v9.5c0,0.6,0.1,1.1,0.4,1.4c0.2,0.3,0.7,0.4,1.3,0.4c0.4,0,0.9-0.1,1.3-0.2v2.7
			c0,0-1.2,0.4-2,0.4c-3,0-4-4.9-4-4.9V162h-3v-3h2v-4H693z"/>
	</g>
	<g class="st14">
		<path class="st16" d="M833,165.4c0,2.3-0.4,4.3-1.2,6c-0.8,1.7-2,3.1-3.5,4c-1.5,0.9-3.3,1.4-5.2,1.4c-2,0-3.7-0.5-5.2-1.4
			c-1.5-0.9-2.7-2.2-3.5-4c-0.8-1.7-1.3-3.7-1.3-5.9v-1.3c0-2.3,0.4-4.3,1.3-6c0.8-1.7,2-3.1,3.5-4c1.5-0.9,3.3-1.4,5.2-1.4
			c2,0,3.7,0.5,5.2,1.4c1.5,0.9,2.7,2.2,3.5,4c0.8,1.7,1.2,3.7,1.3,6V165.4z M829,164.3c0-2.5-0.5-4.3-1.4-5.6c-1-1.3-2.3-2-4.1-2
			c-1.7,0-3.1,0.7-4,2c-1,1.3-1.5,3.1-1.5,5.5v1.3c0,2.4,0.5,4.3,1.5,5.6c1,1.3,2.3,2,4.1,2c1.8,0,3.1-0.6,4.1-1.9
			c0.9-1.3,1.4-3.2,1.4-5.7V164.3z"/>
		<path class="st16" d="M852,167.7c0,2.6-0.6,4.7-1.8,6.3c-1.2,1.6-2.8,2.3-4.8,2.3c-1.9,0-3.3-0.6-4.4-1.8v8.5h-4v-24h3.7l0.2,1.7
			c1.1-1.4,2.6-2,4.5-2c2.1,0,3.7,0.8,4.8,2.3c1.2,1.5,1.8,3.7,1.8,6.4V167.7z M848.5,167.6c0-1.7-0.3-3-1-4s-1.7-1.5-3-1.5
			c-1.6,0-2.8,0.6-3.5,1.9v7.5c0.7,1.3,1.9,2,3.5,2c1.2,0,2.2-0.5,2.9-1.5S848.5,169.6,848.5,167.6z"/>
		<path class="st16" d="M863.2,176.6c-2.4,0-4.4-0.8-5.9-2.3c-1.5-1.5-2.3-3.6-2.3-6.1v-0.5c0-1.7,0.3-3.2,1-4.5
			c0.7-1.3,1.6-2.4,2.8-3.1c1.2-0.7,2.5-1.1,4-1.1c2.3,0,4.1,0.7,5.4,2.2s1.9,3.6,1.9,6.3v1.5h-11.1c0.1,1.4,0.6,2.5,1.4,3.3
			c0.8,0.8,1.9,1.2,3.1,1.2c1.8,0,3.2-0.7,4.3-2.1l2.1,2c-0.7,1-1.6,1.8-2.7,2.4C865.9,176.3,864.6,176.6,863.2,176.6z M862.4,161.8
			c-1.1,0-1.9,0.4-2.6,1.1c-0.7,0.7-1.1,1.8-1.3,3.1h7.5v-0.3c-0.1-1.3-0.4-2.2-1.1-2.9S863.5,161.8,862.4,161.8z"/>
		<path class="st16" d="M876.6,159l0.1,2c1.3-1.5,2.9-2.3,4.9-2.3c3.5,0,5.3,2,5.4,6.1V176h-3v-11c0-1.1-0.3-1.9-0.8-2.4
			c-0.5-0.5-1.3-0.8-2.5-0.8c-1.7,0-2.9,0.7-3.7,2.1V176h-4v-17H876.6z"/>
		<path class="st16" d="M899.2,176.6c-2.4,0-4.4-0.8-5.9-2.3c-1.5-1.5-2.3-3.6-2.3-6.1v-0.5c0-1.7,0.3-3.2,1-4.5
			c0.7-1.3,1.6-2.4,2.8-3.1c1.2-0.7,2.5-1.1,4-1.1c2.3,0,4.1,0.7,5.4,2.2s1.9,3.6,1.9,6.3v1.5h-11.1c0.1,1.4,0.6,2.5,1.4,3.3
			c0.8,0.8,1.9,1.2,3.1,1.2c1.8,0,3.2-0.7,4.3-2.1l2.1,2c-0.7,1-1.6,1.8-2.7,2.4C901.9,176.3,900.6,176.6,899.2,176.6z M898.4,161.8
			c-1.1,0-1.9,0.4-2.6,1.1c-0.7,0.7-1.1,1.8-1.3,3.1h7.5v-0.3c-0.1-1.3-0.4-2.2-1.1-2.9S899.5,161.8,898.4,161.8z"/>
		<path class="st16" d="M908.4,167.4c0-2.6,0.6-4.7,1.9-6.3c1.3-1.6,3-2.4,5.1-2.4c1.9,0,3.4,0.6,4.6,1.9V152h4v24h-3.6l-0.2-1.7
			c-1.1,1.3-2.6,2-4.5,2.1c-1.5,0.1-3.8-0.8-4.9-1.9C909.2,172.8,908.4,170.5,908.4,167.4z M912.5,168c0,1.7,0.3,3.1,1,4
			c0.7,1,1.7,1.5,2.9,1.5c1.6,0,2.8-0.7,3.5-2.1v-7.3c-0.7-1.4-1.9-2-3.5-2c-1.3,0-2.3,0.5-2.9,1.5C912.9,164.5,912.5,166,912.5,168
			z"/>
	</g>
	<g class="st14">
		<path class="st17" d="M110.3,345.7l1.1-9.7H122v3h-7.7l-0.5,4.5c0.9-0.5,1.9-0.7,3-0.7c1.8,0,3.3,0.6,4.3,1.7
			c1,1.1,1.5,2.7,1.5,4.6c0,1.9-0.6,3.4-1.7,4.6c-1.1,1.1-2.7,1.7-4.7,1.7c-1.8,0-3.2-0.5-4.4-1.5c-1.2-1-1.8-2.3-1.9-3.9h2.9
			c0.1,0.9,0.5,1.6,1,2.1c0.6,0.5,1.3,0.7,2.2,0.7c1,0,1.8-0.4,2.4-1.1s0.8-1.7,0.8-2.9c0-1.2-0.3-2.1-0.9-2.8c-0.6-0.7-1.5-1-2.6-1
			c-0.6,0-1.1,0.1-1.5,0.2c-0.4,0.2-0.9,0.5-1.4,0.9L110.3,345.7z"/>
		<path class="st17" d="M138,347.2c0,2.8-0.5,4.9-1.6,6.3c-1.1,1.4-2.7,2.1-4.9,2.1c-2.1,0-3.8-0.7-4.8-2.1
			c-1.1-1.4-1.6-3.4-1.7-6.1v-3.3c0-2.8,0.5-4.9,1.6-6.2c1.1-1.4,2.7-2.1,4.9-2.1c2.2,0,3.8,0.7,4.9,2c1.1,1.4,1.6,3.4,1.6,6.1
			V347.2z M135,343.7c0-1.7-0.2-2.9-0.7-3.7c-0.5-0.8-1.2-1.2-2.3-1.2c-1,0-1.8,0.4-2.2,1.1c-0.5,0.8-0.7,1.9-0.8,3.5v4.1
			c0,1.7,0.2,3,0.7,3.8c0.5,0.8,1.3,1.2,2.3,1.2c1,0,1.7-0.4,2.2-1.2c0.5-0.8,0.7-2,0.8-3.6V343.7z"/>
		<path class="st17" d="M154,347.2c0,2.8-0.5,4.9-1.6,6.3c-1.1,1.4-2.7,2.1-4.9,2.1c-2.1,0-3.8-0.7-4.8-2.1
			c-1.1-1.4-1.6-3.4-1.7-6.1v-3.3c0-2.8,0.5-4.9,1.6-6.2c1.1-1.4,2.7-2.1,4.9-2.1c2.2,0,3.8,0.7,4.9,2c1.1,1.4,1.6,3.4,1.6,6.1
			V347.2z M151,343.7c0-1.7-0.2-2.9-0.7-3.7c-0.5-0.8-1.2-1.2-2.3-1.2c-1,0-1.8,0.4-2.2,1.1c-0.5,0.8-0.7,1.9-0.8,3.5v4.1
			c0,1.7,0.2,3,0.7,3.8c0.5,0.8,1.3,1.2,2.3,1.2c1,0,1.7-0.4,2.2-1.2c0.5-0.8,0.7-2,0.8-3.6V343.7z"/>
		<path class="st17" d="M161.4,349l-1.4,1.4v4.6h-3v-20h3v11.6l1-1.2l4-4.4h3.9l-5.4,5.8l5.9,8.2h-3.7L161.4,349z"/>
	</g>
	<g class="st14">
		<path class="st17" d="M124,491h-13v-1.6l6.7-7.1c1-1,1.7-1.9,2.1-2.6c0.4-0.7,0.6-1.4,0.6-2.1c0-0.9-0.3-1.7-0.8-2.3
			c-0.5-0.6-1.3-0.9-2.2-0.9c-1.1,0-1.9,0.3-2.5,1c-0.6,0.6-0.9,1.5-0.9,2.6h-3.4c0-1.2,0.3-2.3,0.8-3.2c0.6-1,1.4-1.7,2.4-2.2
			c1-0.5,2.2-0.8,3.6-0.8c2,0,3.5,0.5,4.6,1.4c1.1,1,1.7,2.3,1.7,4c0,1-0.3,2-0.9,3.1c-0.6,1.1-1.5,2.3-2.8,3.7l-4.9,5.1h8.8V491z"
			/>
		<path class="st17" d="M140,482.9c0,2.8-0.5,4.9-1.6,6.3c-1.1,1.4-2.7,2.1-4.9,2.1c-2.1,0-3.8-0.7-4.8-2.1
			c-1.1-1.4-1.6-3.4-1.7-6.1v-3.3c0-2.8,0.5-4.9,1.6-6.2c1.1-1.4,2.7-2.1,4.9-2.1c2.2,0,3.8,0.7,4.9,2c1.1,1.4,1.6,3.4,1.6,6.1
			V482.9z M136,479.4c0-1.7-0.2-3-0.7-3.7c-0.5-0.8-1.2-1.2-2.3-1.2c-1,0-1.8,0.4-2.2,1.1c-0.5,0.8-0.7,1.9-0.8,3.5v4.1
			c0,1.7,0.2,3,0.7,3.8c0.5,0.8,1.3,1.2,2.3,1.2c1,0,1.7-0.4,2.2-1.2c0.5-0.8,0.7-2,0.8-3.6V479.4z"/>
		<path class="st17" d="M156,482.9c0,2.8-0.5,4.9-1.6,6.3c-1.1,1.4-2.7,2.1-4.9,2.1c-2.1,0-3.8-0.7-4.8-2.1
			c-1.1-1.4-1.6-3.4-1.7-6.1v-3.3c0-2.8,0.5-4.9,1.6-6.2c1.1-1.4,2.7-2.1,4.9-2.1c2.2,0,3.8,0.7,4.9,2c1.1,1.4,1.6,3.4,1.6,6.1
			V482.9z M152,479.4c0-1.7-0.2-3-0.7-3.7c-0.5-0.8-1.2-1.2-2.3-1.2c-1,0-1.8,0.4-2.2,1.1c-0.5,0.8-0.7,1.9-0.8,3.5v4.1
			c0,1.7,0.2,3,0.7,3.8c0.5,0.8,1.3,1.2,2.3,1.2c1,0,1.7-0.4,2.2-1.2c0.5-0.8,0.7-2,0.8-3.6V479.4z"/>
		<path class="st17" d="M163.4,485l-1.4,1.4v4.6h-3v-20h3v11.6l1-1.2l4-4.4h3.9l-5.4,5.8l5.9,8.2h-3.7L163.4,485z"/>
	</g>
	<g class="st14">
		<path class="st17" d="M120,613h-3v-15.4l-5,1.6v-2.5l7.6-2.7h0.4V613z"/>
		<path class="st17" d="M140,605.5c0,2.8-0.5,4.9-1.6,6.3c-1.1,1.4-2.7,2.1-4.9,2.1c-2.1,0-3.8-0.7-4.8-2.1
			c-1.1-1.4-1.6-3.4-1.7-6.1v-3.3c0-2.8,0.5-4.9,1.6-6.2c1.1-1.4,2.7-2.1,4.9-2.1c2.2,0,3.8,0.7,4.9,2c1.1,1.4,1.6,3.4,1.6,6.1
			V605.5z M136,602.1c0-1.7-0.2-2.9-0.7-3.7c-0.5-0.8-1.2-1.2-2.3-1.2c-1,0-1.8,0.4-2.2,1.1c-0.5,0.8-0.7,1.9-0.8,3.5v4.1
			c0,1.7,0.2,3,0.7,3.8c0.5,0.8,1.3,1.2,2.3,1.2c1,0,1.7-0.4,2.2-1.2c0.5-0.8,0.7-2,0.8-3.6V602.1z"/>
		<path class="st17" d="M156,605.5c0,2.8-0.5,4.9-1.6,6.3c-1.1,1.4-2.7,2.1-4.9,2.1c-2.1,0-3.8-0.7-4.8-2.1
			c-1.1-1.4-1.6-3.4-1.7-6.1v-3.3c0-2.8,0.5-4.9,1.6-6.2c1.1-1.4,2.7-2.1,4.9-2.1c2.2,0,3.8,0.7,4.9,2c1.1,1.4,1.6,3.4,1.6,6.1
			V605.5z M152,602.1c0-1.7-0.2-2.9-0.7-3.7c-0.5-0.8-1.2-1.2-2.3-1.2c-1,0-1.8,0.4-2.2,1.1c-0.5,0.8-0.7,1.9-0.8,3.5v4.1
			c0,1.7,0.2,3,0.7,3.8c0.5,0.8,1.3,1.2,2.3,1.2c1,0,1.7-0.4,2.2-1.2c0.5-0.8,0.7-2,0.8-3.6V602.1z"/>
		<path class="st17" d="M164.9,605.3l-2.9,2.3v6.4h-3v-19h3v8.4l2.6-2.3l5.8-6.1h4.2l-7.3,7.9l7.8,11.1h-4.1L164.9,605.3z"/>
	</g>
	<g class="st14">
		<path class="st17" d="M125,733.8c0,2.8-0.5,4.9-1.6,6.3c-1.1,1.4-2.7,2.1-4.9,2.1c-2.1,0-3.8-0.7-4.8-2.1
			c-1.1-1.4-1.6-3.4-1.7-6.1v-3.3c0-2.8,0.5-4.9,1.6-6.2c1.1-1.4,2.7-2.1,4.9-2.1c2.2,0,3.8,0.7,4.9,2c1.1,1.4,1.6,3.4,1.6,6.1
			V733.8z M122,730.3c0-1.7-0.2-2.9-0.7-3.7c-0.5-0.8-1.2-1.2-2.3-1.2c-1,0-1.8,0.4-2.2,1.1c-0.5,0.8-0.7,1.9-0.8,3.5v4.1
			c0,1.7,0.2,3,0.7,3.8c0.5,0.8,1.3,1.2,2.3,1.2c1,0,1.7-0.4,2.2-1.2c0.5-0.8,0.7-2,0.8-3.6V730.3z"/>
		<path class="st17" d="M134.4,733.6l-2.4,2.3v6.1h-3v-19h3v8.7l2-2.3l5.8-6.4h4.2l-7.3,8.2l7.8,10.8h-4.1L134.4,733.6z"/>
	</g>
	<g class="st14">
		<path class="st17" d="M237,774h3v13.8c-0.2,1.8-0.8,3.3-2,4.4c-1.2,1.1-2.7,1.6-4.7,1.6c-2.1,0-3.7-0.5-4.8-1.5
			c-1.1-1-1.7-2.4-1.7-4.3h3.4c0,1.1,0.3,1.9,0.8,2.4c0.5,0.5,1.3,0.8,2.3,0.8c0.9,0,1.7-0.3,2.2-0.9s0.8-1.4,1.5-2.5V774z"/>
		<path class="st17" d="M252.2,794c-0.1-0.7-0.3-1.2-0.4-1.8c-1.1,1.1-2.3,1.6-3.9,1.6c-1.5,0-2.7-0.4-3.6-1.2
			c-0.9-0.8-1.4-1.8-1.4-3c0-1.5,0.6-2.7,1.7-3.5c1.2-0.8,5-1,5-1h2.4v-1.1c-0.3-0.7-0.6-1.3-1-1.8c-0.4-0.4-1.1-0.7-1.9-0.7
			c-0.8,0-1.4,0.2-1.8,0.5s-0.7,0.8-0.7,2h-3.3c0-1.4,0.3-2.1,0.8-2.8s1.3-1.2,2.2-1.6c0.9-0.4,1.9-0.6,3.1-0.6
			c1.7,0,3.1,0.4,4.1,1.3c1,0.8,1.6,3.5,1.6,3.5v6.4c0,0,0.1,2.3,1,3.1v0.7H252.2z M248.9,791.4c0.7,0,1.3-0.2,1.8-0.5
			c0.6-0.3,1-0.7,1.3-1.2V787h-1.8c-1.2,0-2.1,0.2-2.8,0.6c-0.6,0.4-0.9,1-0.9,1.8c0,0.6,0.2,1.1,0.6,1.5
			C247.6,791.2,248.2,791.4,248.9,791.4z"/>
		<path class="st17" d="M261.1,779l0.1,1.6c1.1-1.3,2.5-1.9,4.2-1.9c3,0,4.6,1.7,4.6,5v9.3h-3v-9.2c0-0.9-0.2-1.6-0.7-2
			c-0.4-0.4-1.1-0.7-2.1-0.7c-1.4,0-2.5,0.6-3.2,1.8V793h-3v-14H261.1z"/>
	</g>
	<g class="st14">
		<path class="st17" d="M370,786h-8v7h-3v-19h12v3h-9v6h8V786z"/>
		<path class="st17" d="M380.1,793.4c-2.1,0-3.8-0.6-5.1-1.9c-1.3-1.3-2-3-2-5.1V786c0-1.4,0.3-2.7,0.9-3.8c0.6-1.1,1.4-2,2.4-2.6
			c1-0.6,2.2-0.9,3.4-0.9c2,0,3.6,0.6,4.7,1.9s1.6,3,1.6,5.3v1.3h-9.7c0.1,1.2,0.5,2.1,1.2,2.8c0.7,0.7,1.6,1,2.7,1
			c1.5,0,2.8-0.6,3.7-1.8l1.8,1.6c-0.6,0.9-1.4,1.5-2.4,2C382.4,793.1,381.3,793.4,380.1,793.4z M379,781.5c-0.9,0-1.6,0.3-2.2,0.9
			s-0.9,1.5-1.1,2.6h6.3v-0.2c-0.1-1.1-0.4-1.9-0.9-2.4S379.9,781.5,379,781.5z"/>
		<path class="st17" d="M401,786.1c0,2.2-0.5,3.9-1.6,5.2c-1.1,1.3-2.5,1.9-4.4,1.9c-1.8,0-3.2-0.6-4.2-1.8l-0.2,1.5H388v-20h3v7.3
			c1-1.1,2.3-1.6,4-1.6c1.9,0,3.3,0.6,4.4,1.9c1.1,1.3,1.6,3.1,1.6,5.4V786.1z M398,786.3c0-1.5-0.3-2.6-0.8-3.3
			c-0.5-0.7-1.3-1.1-2.3-1.1c-1.4,0-2.3,0.6-2.9,1.7v5.6c0.6,1.2,1.5,1.8,2.9,1.8c1,0,1.7-0.4,2.3-1.1c0.5-0.7,0.8-1.8,0.8-3.2
			V786.3z"/>
	</g>
	<g class="st14">
		<path class="st17" d="M498.7,774l5.7,15.1l5.7-15.1h3.9v19h-3v-5.8l0.4-8.5l-5.8,14.3h-2.5l-5.8-14.2l-0.3,8.5v5.8h-3v-19H498.7z"
			/>
		<path class="st17" d="M527,794c-0.1-0.7-0.3-1.2-0.4-1.8c-1.1,1.1-2.3,1.6-3.9,1.6c-1.5,0-2.7-0.4-3.6-1.2c-0.9-0.8-1.4-1.8-1.4-3
			c0-1.5,0.6-2.7,1.7-3.5c1.2-0.8,5-1,5-1h2.5v-1.1c-0.5-0.7-0.7-1.3-1.1-1.8c-0.4-0.4-1.1-0.7-1.9-0.7c-0.8,0-1.4,0.2-1.8,0.5
			s-0.7,0.8-0.7,2h-3.3c0-1.4,0.3-2.1,0.8-2.8s1.3-1.2,2.2-1.6c0.9-0.4,1.9-0.6,3.1-0.6c1.7,0,3.1,0.4,4.1,1.3
			c1,0.8,1.7,3.5,1.7,3.5v6.4c0,0,0,2.3,1,3.1v0.7H527z M523.9,791.4c0.7,0,1.3-0.2,1.8-0.5c0.6-0.3,1-0.7,1.3-1.2V787h-1.8
			c-1.2,0-2.1,0.2-2.8,0.6c-0.6,0.4-0.9,1-0.9,1.8c0,0.6,0.2,1.1,0.6,1.5C522.6,791.2,523.2,791.4,523.9,791.4z"/>
		<path class="st17" d="M541,782.2c-0.5-0.1-0.9-0.1-1.4-0.1c-1.5,0-3.6,1.7-3.6,1.7v9.2h-3v-14h3.4l0.1,1.9
			c0.8-1.2,1.9-1.9,3.3-1.9c0.5,0,0.9,0.1,1.2,0.2V782.2z"/>
	</g>
	<g class="st14">
		<path class="st17" d="M634.5,789h-7.7l-1.6,4h-3.5l7.4-19h3l7.4,19h-3.5L634.5,789z M627.8,786h5.7l-2.9-8L627.8,786z"/>
		<path class="st17" d="M654,786.3c0,2.2-0.5,4-1.6,5.3c-1.1,1.3-2.5,2-4.3,2c-1.7,0-3-0.5-4-1.5v7h-3v-20h2.7l0.1,1.5
			c1-1.1,2.4-1.7,4.1-1.7c1.9,0,3.3,0.6,4.4,1.9c1.1,1.3,1.6,3.1,1.6,5.4V786.3z M650.3,786.3c0-1.4-0.3-2.6-0.9-3.4
			c-0.6-0.8-1.4-1.3-2.5-1.3c-1.3,0-2.3,0.5-2.9,1.6v6.3c0.6,1.1,1.6,1.7,2.9,1.7c1,0,1.9-0.4,2.5-1.2S650.3,787.9,650.3,786.3z"/>
		<path class="st17" d="M664,781.9c-0.4-0.1-0.8-0.1-1.2-0.1c-1.4,0-2.3,0.6-2.8,1.7v9.5h-3v-14h2.9l0.1,1.6c0.7-1.2,1.7-1.9,3-1.9
			c0.4,0,0.8,0.1,1.1,0.2L664,781.9z"/>
	</g>
	<g class="st14">
		<path class="st17" d="M760.6,774l5.7,15.1L772,774h4v19h-3v-5.8l0.3-8.5l-5.8,14.3H765l-5.8-14.2l-0.2,8.5v5.8h-3v-19H760.6z"/>
		<path class="st17" d="M788.9,794c-0.1-0.7-0.3-1.2-0.4-1.8c-1,1.1-2.3,1.6-3.9,1.6c-1.5,0-2.7-0.4-3.6-1.2c-0.9-0.8-1.4-1.8-1.4-3
			c0-1.5,0.6-2.7,1.7-3.5s5-1,5-1h2.6v-1.1c-0.5-0.7-0.8-1.3-1.2-1.8c-0.4-0.4-1.1-0.7-1.9-0.7c-0.8,0-1.4,0.2-1.8,0.5
			s-0.7,0.8-0.7,2H780c0-1.4,0.3-2.1,0.8-2.8s1.3-1.2,2.2-1.6s1.9-0.6,3.1-0.6c1.7,0,3.1,0.4,4.1,1.3c1,0.8,1.8,3.5,1.8,3.5v6.4
			c0,0-0.1,2.3,1,3.1v0.7H788.9z M784.9,791.4c0.7,0,1.3-0.2,1.8-0.5c0.6-0.3,1-0.7,1.3-1.2V787h-1.8c-1.2,0-2.1,0.2-2.8,0.6
			c-0.6,0.4-0.9,1-0.9,1.8c0,0.6,0.2,1.1,0.6,1.5C783.6,791.2,784.2,791.4,784.9,791.4z"/>
		<path class="st17" d="M800.5,788.7l3-9.7h3.5l-5.8,16.4c-0.9,2.4-2.4,3.6-4.6,3.6c-0.5,0-1-0.1-1.6-0.2v-2.5l0.6,0
			c0.8,0,1.5-0.1,1.9-0.4s0.8-0.8,1-1.5l0.5-1.2l-5.2-14.2h3.6L800.5,788.7z"/>
	</g>
	<g class="st14">
		<path class="st17" d="M898,774h3v13.8c0.5,1.8-0.1,3.3-1.3,4.4c-1.2,1.1-2.7,1.6-4.7,1.6c-2.1,0-3.7-0.5-4.8-1.5
			c-1.1-1-1.7-2.4-1.7-4.3h3.4c0,1.1,0.3,1.9,0.8,2.4c0.5,0.5,1.3,0.8,2.3,0.8c0.9,0,1.7-0.3,2.2-0.9s0.8-1.4,0.8-2.5V774z"/>
		<path class="st17" d="M913.9,791.6c-1,1.1-2.3,1.6-4.1,1.6c-1.6,0-2.8-0.4-3.6-1.3c-0.8-0.9-1.2-2.2-1.2-3.9V779h3v9.2
			c0,1.8,0.8,2.7,2.5,2.7c1.7,0,2.9-0.6,3.5-1.7V779h3v14h-3.1L913.9,791.6z"/>
		<path class="st17" d="M924.1,779l0.1,1.6c1.1-1.3,2.5-1.9,4.2-1.9c3,0,4.6,1.7,4.6,5v9.3h-3v-9.2c0-0.9-0.2-1.6-0.7-2
			c-0.4-0.4-1.1-0.7-2.1-0.7c-1.4,0-2.5,0.6-3.2,1.8V793h-3v-14H924.1z"/>
	</g>
	<g class="st14">
		<path class="st18" d="M132,162h-13v8h15v6h-23v-33h23v6h-15v7h13V162z"/>
		<path class="st18" d="M144.5,152l0.3,2.8c1.8-2.2,4.2-3.3,7.3-3.3c2.7,0,4.6,0.7,6,2.2c1.3,1.5,2,3.7,2,6.7V176h-8v-15.4
			c0-1.2-0.3-2.1-0.8-2.7c-0.5-0.6-1.4-0.9-2.8-0.9c-1.5,0-2.7,0.6-3.4,1.8V176h-8v-24H144.5z"/>
		<path class="st18" d="M163,164.1c0-2.5,0.4-4.7,1.3-6.6c0.8-1.9,2-3.4,3.6-4.4c1.6-1,3.4-1.5,5.5-1.5c2.6,0,4.7,0.9,6.1,2.6
			l0.3-2.1h7.2v23.5c0,2.2-0.5,4-1.6,5.6c-1,1.6-2.6,2.8-4.5,3.7c-2,0.9-4.3,1.3-6.9,1.3c-1.9,0-3.7-0.3-5.4-1s-3.1-1.6-4-2.6
			l3.3-4.5c1.5,1.7,3.4,2.5,5.9,2.5c3.5,0,5.3-1.7,5.3-5.2v-0.8c-1.5,1.6-3.4,2.4-5.7,2.4c-3.1,0-5.6-1.1-7.5-3.4
			c-1.9-2.3-2.8-5.3-2.8-9.2V164.1z M170.9,164.3c0,1.9,0.4,3.5,1.1,4.6c0.8,1.4,2.5,2,4.1,1.9c1.3-0.1,2.3-0.7,3-1.6v-10.3
			c-0.8-1.1-2-1.7-3.7-1.7c-1.4,0-2.5,0.6-3.3,1.8C171.3,160.3,170.9,162,170.9,164.3z"/>
		<path class="st18" d="M205.7,176c-0.3-0.5-0.5-1.2-0.7-2.2c-1.3,1.8-3.2,2.7-5.7,2.7c-2.2,0-4.1-0.7-5.7-2.1
			c-1.6-1.4-2.3-3.2-2.3-5.3c0-2.7,0.9-4.7,2.8-6c1.9-1.4,4.6-2,8.2-2h1.6v-1.3c0-2.3-1-3.4-3.1-3.4c-1.9,0-2.8,0.9-2.8,2.7h-8
			c0-2.4,1.1-4.3,3.2-5.8c2.1-1.5,4.8-2.2,8.1-2.2c3.3,0,5.8,0.8,7.7,2.3c1.9,1.5,2.9,3.6,2.9,6.3v10.9c0,2.3,0.4,4,1,5.2v0.4H205.7
			z M200.2,170.9c1,0,1.8-0.2,2.4-0.6c0.6-0.4,1.1-0.9,1.4-1.4V165h-2.3c-2.7,0-4.1,1.2-4.1,3.6c0,0.7,0.2,1.3,0.7,1.7
			S199.4,170.9,200.2,170.9z"/>
		<path class="st18" d="M216,164.1c0-2.5,0.4-4.7,1.3-6.6c0.8-1.9,2-3.4,3.6-4.4c1.6-1,3.4-1.5,5.5-1.5c2.6,0,4.7,0.9,6.1,2.6
			l0.3-2.1h7.2v23.5c0,2.2-0.5,4-1.6,5.6c-1,1.6-2.6,2.8-4.5,3.7c-2,0.9-4.3,1.3-6.9,1.3c-1.9,0-3.7-0.3-5.4-1s-3.1-1.6-4-2.6
			l3.3-4.5c1.5,1.7,3.4,2.5,5.9,2.5c3.5,0,5.3-1.7,5.3-5.2v-0.8c-1.5,1.6-3.4,2.4-5.7,2.4c-3.1,0-5.6-1.1-7.5-3.4
			c-1.9-2.3-2.8-5.3-2.8-9.2V164.1z M223.9,164.3c0,1.9,0.4,3.5,1.1,4.6c0.8,1.4,2.5,2,4.1,1.9c1.3-0.1,2.3-0.7,3-1.6v-10.3
			c-0.8-1.1-2-1.7-3.7-1.7c-1.4,0-2.5,0.6-3.3,1.8C224.3,160.3,223.9,162,223.9,164.3z"/>
		<path class="st18" d="M256.2,176.3c-3.9,0-7.1-1.1-9.5-3.4c-2.4-2.2-3.6-5.2-3.6-8.7v-0.6c0-2.5,0.5-4.7,1.5-6.6
			c1-1.9,2.4-3.4,4.3-4.4c1.9-1,4.1-1.6,6.6-1.6c3.6,0,6.4,1.1,8.5,3.2c2.1,2.1,3.1,5.1,3.1,8.9v3h-15.9c0.3,1.4,0.9,2.5,1.9,3.2
			c1,0.8,2.2,1.2,3.7,1.2c2.5,0,4.5-0.8,5.9-2.5l3.6,4.1c-1,1.3-2.4,2.4-4.2,3.1C260.3,175.9,258.3,176.3,256.2,176.3z M255.2,157.6
			c-2.3,0-3.7,1.5-4.1,4.4h7.9v-0.6c0-1.2-0.3-2.2-1-2.8C257.4,157.9,256.4,157.6,255.2,157.6z"/>
		<path class="st18" d="M277.5,152l0.3,2.8c1.8-2.2,4.2-3.3,7.3-3.3c3.2,0,5.4,1.2,6.5,3.6c1.7-2.4,4.2-3.6,7.5-3.6
			c5.2,0,7.8,2.9,8,8.8V176h-9v-15.4c0-1.3-0.2-2.2-0.6-2.7s-1.1-0.9-2.2-0.9c-1.4,0-2.5,0.7-3.2,2l0,0.3V176h-8v-15.4
			c0-1.3-0.2-2.2-0.6-2.8c-0.4-0.6-1.1-0.9-2.2-0.9c-1.4,0-2.5,0.7-3.2,2v17h-8v-24H277.5z"/>
		<path class="st18" d="M323.2,176.3c-3.9,0-7.1-1.1-9.5-3.4c-2.4-2.2-3.6-5.2-3.6-8.7v-0.6c0-2.5,0.5-4.7,1.5-6.6
			c1-1.9,2.4-3.4,4.3-4.4c1.9-1,4.1-1.6,6.6-1.6c3.6,0,6.4,1.1,8.5,3.2c2.1,2.1,3.1,5.1,3.1,8.9v3h-15.9c0.3,1.4,0.9,2.5,1.9,3.2
			c1,0.8,2.2,1.2,3.7,1.2c2.5,0,4.5-0.8,5.9-2.5l3.6,4.1c-1,1.3-2.4,2.4-4.2,3.1C327.3,175.9,325.3,176.3,323.2,176.3z M322.2,157.6
			c-2.3,0-3.7,1.5-4.1,4.4h7.9v-0.6c0-1.2-0.3-2.2-1-2.8C324.4,157.9,323.4,157.6,322.2,157.6z"/>
		<path class="st18" d="M344.5,152l0.3,2.8c1.8-2.2,4.2-3.3,7.3-3.3c2.7,0,4.6,0.7,6,2.2c1.3,1.5,2,3.7,2,6.7V176h-8v-15.4
			c0-1.2-0.3-2.1-0.8-2.7c-0.5-0.6-1.4-0.9-2.8-0.9c-1.5,0-2.7,0.6-3.4,1.8V176h-8v-24H344.5z"/>
		<path class="st18" d="M373,146v6h4v5h-4v11.3c0,0.9,0.1,1.6,0.5,1.9s1,0.5,2,0.5c0.8,0,1.5-0.1,1.5-0.1v5.4
			c-1.4,0.4-2.8,0.6-4.3,0.6c-2.6,0-4.6-0.6-5.8-1.8c-1.3-1.2-1.9-3-1.9-5.5V157h-3v-5h3v-6H373z"/>
	</g>
	<path class="st19" d="M129.1,56.6h172.3c4.5,0,8.1-2.9,8.1-6.5l0,0c0-3.6-3.7-6.5-8.1-6.5H129.1c-4.5,0-8.1,2.9-8.1,6.5l0,0
		C121,53.7,124.6,56.6,129.1,56.6z"/>
	<path class="st20" d="M127.7,79.6h73.8c3,0,5.5,2.7,5.5,6l0,0c0,3.3-2.5,6-5.5,6h-73.8c-3,0-5.5-2.7-5.5-6l0,0
		C122.3,82.3,124.8,79.6,127.7,79.6z"/>
	<ellipse class="st21" cx="924.1" cy="62.1" rx="16.9" ry="18.5"/>
</g>
</svg>
