<?xml version="1.0" encoding="utf-8"?>
<!-- Generator: Adobe Illustrator 27.6.1, SVG Export Plug-In . SVG Version: 6.00 Build 0)  -->
<svg version="1.1" id="Layer_1" xmlns="http://www.w3.org/2000/svg" xmlns:xlink="http://www.w3.org/1999/xlink" x="0px" y="0px"
	 viewBox="0 0 776 566" style="enable-background:new 0 0 776 566;" xml:space="preserve">
<style type="text/css">
	.st0{clip-path:url(#SVGID_00000023974136720533680040000015635168650387970944_);}
	.st1{opacity:0.85;}
	.st2{fill:#1D1A27;}
	.st3{fill:none;stroke:#FFFFFF;stroke-opacity:0.16;}
	.st4{fill:#CCCCCC;}
	.st5{fill:#D8E0E1;}
	.st6{fill:none;stroke:#515F62;stroke-width:1.2;stroke-linecap:square;}
	.st7{fill:none;stroke:#D8E0E1;stroke-width:0.6;}
	.st8{fill:none;stroke:#D8E0E1;stroke-width:0.6;stroke-linecap:round;}
	.st9{fill:#7BF26F;}
	.st10{fill:#ED5F6E;}
	.st11{fill:#EF5E6F;}
</style>
<g>
	<g>
		<g>
			<g>
				<defs>
					<rect id="SVGID_1_" width="776" height="566"/>
				</defs>
				<clipPath id="SVGID_00000054961981056232874080000003476284253815727522_">
					<use xlink:href="#SVGID_1_"  style="overflow:visible;"/>
				</clipPath>
				<g style="clip-path:url(#SVGID_00000054961981056232874080000003476284253815727522_);">
					<g class="st1">
						<rect x="-5" class="st2" width="782.1" height="566.2"/>
						<rect x="-3.3" y="1.2" class="st3" width="778.6" height="563.8"/>
					</g>
					<path class="st4" d="M31.5,147.8V139h-3.2v-1.1h7.6v1.1h-3.2v8.8H31.5z M40.3,140.3c0.6,0,1.1,0.1,1.5,0.3s0.8,0.4,1.1,0.8
						c0.3,0.3,0.5,0.7,0.7,1.2c0.1,0.5,0.2,1,0.2,1.5s-0.1,1.1-0.2,1.5c-0.1,0.5-0.4,0.9-0.7,1.2s-0.7,0.6-1.1,0.8
						c-0.4,0.2-1,0.3-1.5,0.3s-1.1-0.1-1.5-0.3s-0.8-0.4-1.1-0.8c-0.3-0.3-0.5-0.7-0.7-1.2c-0.1-0.5-0.2-1-0.2-1.5s0.1-1.1,0.2-1.5
						c0.1-0.5,0.4-0.9,0.7-1.2s0.7-0.6,1.1-0.8C39.2,140.4,39.7,140.3,40.3,140.3z M40.2,146.8c0.4,0,0.7-0.1,1-0.2
						c0.3-0.1,0.5-0.3,0.7-0.6s0.3-0.5,0.4-0.9c0.1-0.3,0.1-0.7,0.1-1.1c0-0.4,0-0.7-0.1-1.1c-0.1-0.3-0.2-0.6-0.4-0.9
						c-0.2-0.3-0.4-0.4-0.7-0.6c-0.3-0.1-0.6-0.2-1-0.2s-0.7,0.1-1,0.2s-0.5,0.3-0.7,0.6c-0.2,0.2-0.3,0.5-0.4,0.9
						c-0.1,0.3-0.1,0.7-0.1,1.1c0,0.4,0,0.7,0.1,1.1c0.1,0.3,0.2,0.6,0.4,0.9c0.2,0.2,0.4,0.4,0.7,0.6S39.8,146.8,40.2,146.8z
						 M47.2,140.4h2.3v1.1h-2.3v3.8c0,0.2,0,0.4,0,0.6c0,0.2,0.1,0.3,0.1,0.5c0.1,0.1,0.2,0.2,0.3,0.3s0.3,0.1,0.6,0.1
						c0.2,0,0.4,0,0.6-0.1c0.2-0.1,0.3-0.2,0.4-0.3l0.5,0.9c-0.2,0.2-0.5,0.4-0.8,0.4c-0.3,0.1-0.6,0.1-0.9,0.1
						c-0.4,0-0.7-0.1-1-0.2c-0.3-0.1-0.5-0.3-0.7-0.5s-0.3-0.5-0.3-0.8s-0.1-0.6-0.1-1v-4h-1.2v-1.1H46V138h1.2V140.4z M55.7,146.9
						c-0.2,0.2-0.3,0.4-0.5,0.5s-0.4,0.2-0.6,0.3c-0.2,0.1-0.4,0.1-0.7,0.2c-0.2,0-0.4,0-0.6,0c-0.3,0-0.7,0-1-0.1s-0.6-0.2-0.8-0.4
						s-0.4-0.4-0.6-0.7c-0.1-0.3-0.2-0.6-0.2-1s0.1-0.8,0.2-1.1c0.2-0.3,0.4-0.5,0.6-0.7c0.3-0.2,0.6-0.3,0.9-0.4
						c0.3-0.1,0.7-0.1,1.1-0.1h2.2c0-0.6-0.1-1.1-0.4-1.5c-0.3-0.4-0.7-0.6-1.4-0.6c-0.4,0-0.7,0.1-1,0.2c-0.3,0.1-0.5,0.3-0.6,0.6
						H51c0.1-0.3,0.2-0.6,0.4-0.9c0.2-0.2,0.4-0.4,0.7-0.6c0.3-0.2,0.6-0.3,0.9-0.4c0.3-0.1,0.6-0.1,1-0.1c0.6,0,1,0.1,1.4,0.3
						s0.7,0.4,0.9,0.7s0.4,0.6,0.5,1.1c0.1,0.4,0.1,0.9,0.1,1.4v4h-1L55.7,146.9z M54.3,144.5c-0.2,0-0.5,0-0.8,0s-0.6,0-0.8,0.1
						c-0.3,0.1-0.5,0.2-0.7,0.4s-0.2,0.4-0.2,0.7c0,0.2,0,0.4,0.1,0.5s0.2,0.3,0.3,0.4c0.1,0.1,0.3,0.2,0.5,0.2s0.4,0.1,0.6,0.1
						c0.7,0,1.3-0.2,1.7-0.5s0.6-0.8,0.6-1.5v-0.4H54.3z M58.6,147.8v-9.9h1.2v9.9H58.6z M66.4,144.5c0,0.3,0.1,0.6,0.2,0.9
						c0.1,0.3,0.3,0.5,0.4,0.7c0.2,0.2,0.4,0.4,0.7,0.5c0.3,0.1,0.6,0.2,1,0.2c0.2,0,0.4,0,0.5,0c0.2,0,0.4-0.1,0.5-0.2
						c0.2-0.1,0.3-0.2,0.4-0.3s0.2-0.3,0.3-0.5h1.2c-0.1,0.4-0.2,0.7-0.4,0.9c-0.2,0.3-0.4,0.5-0.7,0.6c-0.3,0.2-0.6,0.3-0.9,0.4
						c-0.3,0.1-0.7,0.1-1,0.1c-0.6,0-1.1-0.1-1.5-0.3s-0.8-0.4-1.1-0.8c-0.3-0.3-0.5-0.7-0.6-1.2s-0.2-1-0.2-1.5s0.1-1.1,0.2-1.5
						c0.2-0.5,0.4-0.9,0.7-1.2c0.3-0.3,0.6-0.6,1.1-0.8c0.4-0.2,0.9-0.3,1.5-0.3s1.1,0.1,1.5,0.4c0.4,0.2,0.8,0.5,1,0.9
						c0.3,0.4,0.4,0.8,0.5,1.2s0.2,0.8,0.1,1.2c0,0.1,0,0.2,0,0.3s0,0.2,0,0.3L66.4,144.5L66.4,144.5z M70.7,143.5
						c0-0.6-0.2-1.1-0.6-1.5s-0.9-0.6-1.5-0.6c-0.3,0-0.6,0.1-0.9,0.2c-0.3,0.1-0.5,0.3-0.7,0.5s-0.3,0.4-0.4,0.7s-0.2,0.5-0.2,0.8
						L70.7,143.5L70.7,143.5z M74.7,141.3c0.2-0.3,0.5-0.6,0.9-0.7c0.3-0.2,0.7-0.2,1.1-0.2c0.5,0,0.9,0.1,1.2,0.3
						c0.3,0.2,0.6,0.5,0.7,0.9c0.3-0.4,0.6-0.7,0.9-0.9c0.4-0.2,0.8-0.3,1.3-0.3c0.4,0,0.7,0.1,1,0.2c0.3,0.1,0.5,0.3,0.7,0.6
						c0.2,0.2,0.3,0.5,0.4,0.8s0.1,0.7,0.1,1v4.8h-1v-4.2c0-0.2,0-0.5,0-0.7c0-0.3-0.1-0.5-0.2-0.7s-0.2-0.4-0.4-0.5
						c-0.2-0.1-0.4-0.2-0.8-0.2c-0.3,0-0.5,0.1-0.8,0.2c-0.2,0.1-0.4,0.3-0.5,0.6c-0.1,0.2-0.2,0.5-0.3,0.8s-0.1,0.6-0.1,0.8v4h-1.2
						v-4.2c0-0.2,0-0.5,0-0.7c0-0.3-0.1-0.5-0.2-0.7s-0.2-0.4-0.4-0.5s-0.4-0.2-0.7-0.2c-0.3,0-0.6,0.1-0.8,0.2
						c-0.2,0.1-0.4,0.3-0.5,0.6c-0.1,0.2-0.2,0.5-0.3,0.8c0,0.3-0.1,0.6-0.1,0.8v4h-1.2v-7.4h1.1L74.7,141.3z M89.8,146.9
						c-0.2,0.2-0.3,0.4-0.5,0.5s-0.4,0.2-0.6,0.3s-0.4,0.1-0.7,0.2c-0.2,0-0.4,0-0.6,0c-0.3,0-0.7,0-1-0.1s-0.6-0.2-0.8-0.4
						c-0.2-0.2-0.4-0.4-0.6-0.7c-0.1-0.3-0.2-0.6-0.2-1s0.1-0.8,0.2-1.1c0.2-0.3,0.4-0.5,0.6-0.7s0.6-0.3,0.9-0.4
						c0.3-0.1,0.7-0.1,1.1-0.1h2.2c0-0.6-0.1-1.1-0.4-1.5s-0.7-0.6-1.4-0.6c-0.4,0-0.7,0.1-1,0.2c-0.3,0.1-0.5,0.3-0.6,0.6H85
						c0.1-0.3,0.2-0.6,0.4-0.9c0.2-0.2,0.4-0.4,0.7-0.6c0.3-0.2,0.6-0.3,0.9-0.4s0.6-0.1,1-0.1c0.6,0,1,0.1,1.4,0.3s0.7,0.4,0.9,0.7
						c0.2,0.3,0.4,0.6,0.5,1.1s0.1,0.9,0.1,1.4v4h-1L89.8,146.9z M88.4,144.5c-0.2,0-0.5,0-0.8,0s-0.6,0-0.8,0.1
						c-0.3,0.1-0.5,0.2-0.7,0.4s-0.2,0.4-0.2,0.7c0,0.2,0,0.4,0.1,0.5s0.2,0.3,0.3,0.4c0.1,0.1,0.3,0.2,0.5,0.2s0.4,0.1,0.6,0.1
						c0.7,0,1.3-0.2,1.7-0.5c0.4-0.3,0.6-0.8,0.6-1.5v-0.4H88.4z M93.4,137.7c0.2,0,0.4,0.1,0.6,0.2c0.2,0.1,0.2,0.3,0.2,0.6
						s-0.1,0.4-0.2,0.6c-0.2,0.1-0.3,0.2-0.6,0.2c-0.2,0-0.4-0.1-0.6-0.2c-0.1-0.1-0.2-0.3-0.2-0.6s0.1-0.4,0.2-0.6
						C93,137.8,93.2,137.7,93.4,137.7z M92.8,147.8v-7.4H94v7.4H92.8z M96,147.8v-9.9h1.2v9.9H96z M101.7,141.4c-0.2,0-0.3,0-0.5,0
						s-0.3,0.1-0.5,0.1c-0.2,0.1-0.3,0.2-0.4,0.3s-0.2,0.3-0.2,0.5c0,0.3,0.1,0.6,0.3,0.7c0.2,0.2,0.6,0.3,0.9,0.3
						c0.2,0,0.3,0.1,0.5,0.1s0.4,0.1,0.5,0.1c0.2,0,0.4,0.1,0.5,0.1c0.2,0,0.3,0.1,0.4,0.1c0.9,0.3,1.3,0.9,1.3,1.8
						c0,0.4-0.1,0.8-0.3,1.1c-0.2,0.3-0.4,0.5-0.7,0.6c-0.3,0.2-0.6,0.3-0.9,0.3c-0.3,0.1-0.7,0.1-1,0.1s-0.7,0-1-0.1
						s-0.7-0.2-1-0.3c-0.3-0.2-0.5-0.4-0.7-0.6c-0.2-0.3-0.3-0.6-0.4-1h1.2c0.1,0.2,0.2,0.4,0.4,0.5c0.2,0.1,0.3,0.2,0.5,0.3
						s0.4,0.1,0.5,0.2c0.2,0,0.4,0,0.6,0c0.1,0,0.3,0,0.5,0s0.4-0.1,0.6-0.1c0.2-0.1,0.3-0.2,0.4-0.3s0.2-0.3,0.2-0.6
						s-0.1-0.5-0.3-0.6c-0.2-0.1-0.4-0.2-0.7-0.3c-0.2,0-0.5-0.1-0.7-0.1s-0.5-0.1-0.7-0.1c-0.2-0.1-0.5-0.1-0.7-0.2
						c-0.2-0.1-0.4-0.2-0.6-0.3c-0.3-0.2-0.5-0.4-0.6-0.6c-0.2-0.3-0.2-0.6-0.2-1s0.1-0.7,0.3-1c0.2-0.3,0.4-0.5,0.6-0.7
						c0.3-0.2,0.6-0.3,0.9-0.4c0.3-0.1,0.7-0.1,1-0.1c0.8,0,1.4,0.2,1.8,0.5c0.3,0.2,0.5,0.4,0.6,0.7s0.2,0.5,0.3,0.8h-1.1
						c-0.1-0.3-0.2-0.5-0.5-0.7C102.5,141.5,102.2,141.4,101.7,141.4z M112.6,141.4c-0.2,0-0.3,0-0.5,0s-0.3,0.1-0.5,0.1
						c-0.2,0.1-0.3,0.2-0.4,0.3s-0.2,0.3-0.2,0.5c0,0.3,0.1,0.6,0.4,0.7c0.2,0.2,0.6,0.3,0.9,0.3c0.2,0,0.3,0.1,0.5,0.1
						s0.4,0.1,0.5,0.1c0.2,0,0.4,0.1,0.5,0.1c0.2,0,0.3,0.1,0.4,0.1c0.9,0.3,1.3,0.9,1.3,1.8c0,0.4-0.1,0.8-0.3,1.1
						c-0.2,0.3-0.4,0.5-0.7,0.6c-0.3,0.2-0.6,0.3-0.9,0.3c-0.3,0.1-0.7,0.1-1,0.1s-0.7,0-1-0.1s-0.7-0.2-1-0.3
						c-0.3-0.2-0.5-0.4-0.7-0.6c-0.2-0.3-0.3-0.6-0.4-1h1.2c0.1,0.2,0.2,0.4,0.4,0.5c0.2,0.1,0.3,0.2,0.5,0.3s0.4,0.1,0.5,0.2
						c0.2,0,0.4,0,0.6,0s0.3,0,0.5,0s0.4-0.1,0.6-0.1c0.2-0.1,0.3-0.2,0.4-0.3s0.2-0.3,0.2-0.6s-0.1-0.5-0.3-0.6
						c-0.2-0.1-0.4-0.2-0.7-0.3c-0.2,0-0.5-0.1-0.7-0.1s-0.5-0.1-0.7-0.1c-0.2-0.1-0.5-0.1-0.7-0.2c-0.2-0.1-0.4-0.2-0.6-0.3
						c-0.3-0.2-0.5-0.4-0.6-0.6c-0.2-0.3-0.2-0.6-0.2-1s0.1-0.7,0.3-1c0.2-0.3,0.4-0.5,0.6-0.7c0.3-0.2,0.6-0.3,0.9-0.4
						c0.3-0.1,0.7-0.1,1-0.1c0.8,0,1.4,0.2,1.8,0.5c0.3,0.2,0.5,0.4,0.6,0.7c0.2,0.3,0.2,0.5,0.3,0.8h-1.1c-0.1-0.3-0.2-0.5-0.5-0.7
						C113.4,141.5,113.1,141.4,112.6,141.4z M118,144.5c0,0.3,0.1,0.6,0.2,0.9c0.1,0.3,0.3,0.5,0.4,0.7c0.2,0.2,0.4,0.4,0.7,0.5
						c0.3,0.1,0.6,0.2,1,0.2c0.2,0,0.4,0,0.5,0c0.2,0,0.4-0.1,0.5-0.2c0.2-0.1,0.3-0.2,0.4-0.3s0.2-0.3,0.3-0.5h1.2
						c-0.1,0.4-0.2,0.7-0.4,0.9c-0.2,0.3-0.4,0.5-0.7,0.6c-0.3,0.2-0.6,0.3-0.9,0.4c-0.3,0.1-0.7,0.1-1,0.1c-0.6,0-1.1-0.1-1.5-0.3
						s-0.8-0.4-1.1-0.8c-0.3-0.3-0.5-0.7-0.6-1.2s-0.2-1-0.2-1.5s0.1-1.1,0.2-1.5c0.2-0.5,0.4-0.9,0.7-1.2c0.3-0.3,0.6-0.6,1.1-0.8
						c0.4-0.2,0.9-0.3,1.5-0.3s1.1,0.1,1.5,0.4c0.4,0.2,0.8,0.5,1,0.9c0.3,0.4,0.4,0.8,0.5,1.2s0.2,0.8,0.1,1.2c0,0.1,0,0.2,0,0.3
						s0,0.2,0,0.3L118,144.5L118,144.5z M122.3,143.5c0-0.6-0.2-1.1-0.6-1.5s-0.9-0.6-1.5-0.6c-0.3,0-0.6,0.1-0.9,0.2
						c-0.3,0.1-0.5,0.3-0.7,0.5s-0.3,0.4-0.4,0.7s-0.2,0.5-0.2,0.8L122.3,143.5L122.3,143.5z M125.1,147.8v-7.4h1.1l0.1,1.1
						c0.1-0.2,0.3-0.4,0.4-0.5c0.2-0.1,0.4-0.3,0.6-0.4c0.2-0.1,0.4-0.2,0.7-0.2c0.2,0,0.5-0.1,0.7-0.1c0.5,0,1,0.1,1.3,0.3
						c0.4,0.2,0.7,0.4,0.9,0.7s0.4,0.7,0.5,1.1c0.1,0.4,0.1,0.9,0.1,1.3v4.1h-1.2V144c0-0.3,0-0.7-0.1-1c0-0.3-0.1-0.6-0.3-0.8
						c-0.1-0.3-0.3-0.5-0.5-0.6s-0.5-0.2-0.9-0.2s-0.7,0.1-1,0.3s-0.5,0.4-0.7,0.6c-0.2,0.3-0.4,0.6-0.4,1c-0.1,0.4-0.1,0.7-0.1,1.1
						v3.4H125.1z M135.3,140.4h2v1.1h-2v3.8c0,0.5,0.1,0.9,0.3,1.1c0.2,0.2,0.6,0.3,1.1,0.3h0.5v1h-0.8c-0.8,0-1.4-0.2-1.8-0.6
						s-0.5-1-0.5-1.8v-3.9h-1.2v-1.1h1.2v-2.2h1.2V140.4z"/>
					<path class="st4" d="M34.9,181.8c0.5-0.4,1-0.9,1.5-1.4s1-1,1.5-1.5s0.9-1,1.2-1.6c0.4-0.6,0.6-1.2,0.6-1.9
						c0-1.1-0.3-2-0.9-2.5c-0.6-0.6-1.5-0.8-2.6-0.8c-1,0-1.7,0.2-2.3,0.7c-0.6,0.4-0.9,1-1,1.9h-4.3c0-1.3,0.3-2.3,0.9-3.3
						c0.6-0.9,1.3-1.7,2.3-2.2c0.7-0.4,1.4-0.7,2.2-0.9s1.7-0.3,2.6-0.3c2.4,0,4.3,0.6,5.7,1.9c0.6,0.6,1.1,1.2,1.4,2.1
						c0.4,0.8,0.5,1.8,0.5,2.9c0,0.8-0.1,1.6-0.3,2.3s-0.5,1.4-0.9,2c-0.3,0.4-0.5,0.8-0.8,1.2c-0.3,0.3-0.6,0.7-0.9,1
						c-0.3,0.3-0.6,0.6-0.9,0.9c-0.3,0.3-0.7,0.6-1.1,1c-0.8,0.7-1.5,1.3-2.3,1.9c-0.7,0.6-1.4,1.1-2,1.7h8.9v4.1H28.8v-4
						L34.9,181.8z M61.5,182.6H64v4h-2.6v4.2h-4.5v-4.2h-11v-3.2L56,168.1h5.5V182.6z M51.1,182.6h5.8v-9.1L51.1,182.6z M83.1,184.4
						c0,1.2-0.3,2.2-0.8,3s-1.1,1.5-1.9,2s-1.7,0.9-2.7,1.2c-1,0.2-2,0.4-3,0.4c-1.1,0-2.1-0.1-3.1-0.4c-1-0.3-1.9-0.7-2.7-1.2
						c-0.8-0.5-1.4-1.2-1.9-2s-0.8-1.8-0.8-3c0-1.3,0.2-2.5,0.8-3.5c0.6-1,1.5-1.8,2.8-2.3c-0.9-0.5-1.6-1.1-2.1-2s-0.7-1.7-0.7-2.7
						c0-1.1,0.2-2,0.6-2.8s1-1.4,1.7-1.9s1.5-0.9,2.4-1.1c0.9-0.2,1.9-0.3,2.9-0.3s2,0.1,2.8,0.4c0.9,0.2,1.7,0.6,2.4,1.1
						c0.7,0.5,1.3,1.1,1.7,1.9c0.4,0.8,0.6,1.7,0.6,2.8c0,0.9-0.2,1.8-0.7,2.7s-1.2,1.5-2,2c1.3,0.5,2.3,1.2,2.8,2.3
						C82.9,181.9,83.2,183.1,83.1,184.4z M74.7,171.8c-0.4,0-0.8,0.1-1.2,0.2c-0.4,0.1-0.7,0.3-1,0.5s-0.5,0.5-0.7,0.9
						c-0.1,0.3-0.2,0.7-0.2,1.2c0,1,0.3,1.7,0.9,2.1c0.6,0.4,1.3,0.7,2.2,0.7c0.9,0,1.6-0.2,2.2-0.7s0.9-1.2,0.9-2.1
						c0-0.5-0.1-0.9-0.3-1.2c-0.1-0.4-0.4-0.7-0.6-0.9c-0.3-0.2-0.6-0.4-1-0.5S75.1,171.8,74.7,171.8z M78.5,183.9
						c0-0.6-0.1-1.1-0.3-1.4c-0.2-0.4-0.5-0.7-0.9-0.9c-0.4-0.3-0.8-0.4-1.2-0.5c-0.4-0.1-0.9-0.2-1.4-0.2s-0.9,0.1-1.4,0.2
						c-0.4,0.1-0.9,0.3-1.2,0.5c-0.3,0.2-0.6,0.6-0.9,1c-0.2,0.4-0.3,0.9-0.3,1.4c0,0.6,0.1,1.1,0.3,1.5c0.2,0.4,0.5,0.7,0.9,1
						c0.4,0.2,0.8,0.4,1.2,0.5c0.5,0.1,0.9,0.2,1.4,0.2s0.9-0.1,1.4-0.2c0.5-0.1,0.9-0.3,1.2-0.5c0.4-0.3,0.7-0.6,0.9-1
						C78.4,185,78.5,184.5,78.5,183.9z M88.7,191.2c-0.7,0-1.3-0.3-1.8-0.8s-0.7-1.1-0.7-2s0.3-1.6,0.9-2c0.6-0.5,1.3-0.7,2.1-0.7
						c0.5,0,1,0.1,1.4,0.3s0.7,0.5,1,0.9s0.4,0.8,0.5,1.2c0.1,0.5,0.2,1,0.2,1.5c0,0.7-0.1,1.5-0.4,2.2s-0.7,1.4-1.1,2
						s-1,1.2-1.6,1.6c-0.6,0.5-1.2,0.8-1.9,1l-1.2-1.6c0.6-0.4,1.1-0.9,1.6-1.5C88.2,192.7,88.5,192,88.7,191.2z M103.1,186.9
						c0.5,0,1,0,1.4-0.2c0.4-0.1,0.8-0.4,1.2-0.6c0.3-0.3,0.6-0.7,0.8-1.1c0.2-0.4,0.3-0.9,0.3-1.4c0-1.2-0.3-2-0.9-2.7
						c-0.7-0.7-1.5-1-2.7-1c-1,0-1.8,0.3-2.4,0.9c-0.6,0.5-1,1.3-1.1,2.2c0,0.5,0,1,0.1,1.4s0.4,0.9,0.7,1.2
						c0.3,0.3,0.7,0.6,1.1,0.8C102,186.8,102.5,186.9,103.1,186.9z M106.8,174.2c-0.2-0.8-0.6-1.4-1.2-1.7s-1.3-0.5-2-0.5
						c-0.8,0-1.5,0.2-2,0.6s-1.1,0.8-1.5,1.4c-0.4,0.6-0.7,1.2-0.9,2c-0.2,0.7-0.3,1.4-0.3,2.1c0.7-0.7,1.5-1.2,2.3-1.5
						c0.9-0.3,1.8-0.5,2.8-0.5c2.3,0,4.1,0.7,5.4,2s1.9,3.1,2,5.4c0,1.2-0.2,2.2-0.7,3.2s-1.1,1.8-1.8,2.4c-0.7,0.7-1.6,1.2-2.6,1.5
						s-2,0.5-3.2,0.4c-1.6,0-2.9-0.4-4-1s-2-1.5-2.7-2.5s-1.1-2.2-1.4-3.5s-0.4-2.6-0.4-4c0-1.6,0.2-3.3,0.6-4.9
						c0.4-1.6,1.1-3,2.1-4.2c0.7-0.9,1.6-1.6,2.6-2.1c1.1-0.5,2.3-0.8,3.7-0.8c1.1,0,2.1,0.1,3,0.4c0.9,0.3,1.7,0.7,2.4,1.2
						c0.6,0.5,1.2,1.2,1.6,1.9c0.4,0.8,0.7,1.7,0.8,2.7L106.8,174.2L106.8,174.2z M114.9,190.8l8.3-18.5h-10.5v-4.1h15.8v3.5
						l-8.4,19.2L114.9,190.8L114.9,190.8z M129.8,174.5c0.1-1.2,0.4-2.1,0.8-2.9c0.4-0.8,1-1.5,1.7-2.1s1.6-1,2.5-1.2
						c1-0.3,2-0.4,3.2-0.4c1,0,1.9,0.1,2.7,0.3c0.9,0.2,1.7,0.5,2.4,1s1.3,1.1,1.7,1.9c0.4,0.8,0.7,1.7,0.7,2.8
						c0,0.9-0.2,1.8-0.7,2.7s-1.2,1.5-2,2c1.3,0.4,2.2,1.1,2.8,2.1s0.8,2.2,0.8,3.5c0,1.2-0.3,2.3-0.8,3.1s-1.1,1.6-1.9,2.1
						c-0.8,0.5-1.7,0.9-2.7,1.2s-2,0.4-3.1,0.4c-2.4,0-4.4-0.5-5.9-1.6s-2.5-2.8-2.8-5.2h4.6c0.1,0.5,0.4,1,0.6,1.3
						c0.3,0.3,0.6,0.6,1,0.8s0.8,0.3,1.2,0.4c0.4,0.1,0.9,0.1,1.3,0.1c0.5,0,1-0.1,1.5-0.2c0.5-0.1,0.9-0.3,1.2-0.5
						c0.4-0.2,0.7-0.5,0.9-0.9s0.3-0.9,0.3-1.5c0-0.4-0.1-0.8-0.3-1.2s-0.4-0.6-0.7-0.8c-0.4-0.3-0.8-0.4-1.3-0.5
						c-0.4-0.1-0.9-0.1-1.4-0.1h-2.3v-3.8h1.5c0.6,0,1.1-0.1,1.5-0.2c0.4-0.1,0.9-0.4,1.2-0.7c0.3-0.2,0.5-0.5,0.6-0.8
						c0.2-0.3,0.3-0.7,0.3-1.1c0-0.5-0.1-0.9-0.3-1.3c-0.2-0.4-0.4-0.6-0.7-0.8s-0.7-0.4-1.1-0.4c-0.4-0.1-0.8-0.1-1.3-0.1
						c-0.8,0-1.5,0.2-2.1,0.6c-0.6,0.4-1,1.1-1.2,2L129.8,174.5L129.8,174.5z"/>
					<path class="st4" d="M517.1,181.4c0,0.5,0.2,0.9,0.4,1.2c0.3,0.3,0.7,0.5,1.2,0.5c0.3,0,0.6,0,0.8-0.1s0.4-0.2,0.5-0.4
						s0.2-0.4,0.3-0.6c0.1-0.2,0.1-0.5,0.1-0.8v-6.7h1.6v6.5c0,0.5-0.1,1-0.2,1.4s-0.3,0.8-0.5,1.1c-0.3,0.3-0.6,0.6-1,0.7
						c-0.4,0.2-0.9,0.3-1.4,0.3c-1,0-1.9-0.3-2.5-0.8s-0.9-1.3-0.9-2.4h1.6L517.1,181.4L517.1,181.4z M528.6,183.5
						c-0.2,0.3-0.6,0.6-1,0.8s-0.8,0.2-1.3,0.2c-0.4,0-0.8,0-1.1-0.1s-0.6-0.2-0.8-0.4s-0.4-0.4-0.6-0.7c-0.1-0.3-0.2-0.6-0.2-1
						s0.1-0.7,0.2-1c0.2-0.3,0.4-0.5,0.6-0.7c0.3-0.2,0.6-0.3,1-0.4c0.4-0.1,0.8-0.1,1.2-0.1h1.9c0-0.5-0.1-1-0.4-1.3
						c-0.2-0.3-0.7-0.5-1.3-0.5c-0.4,0-0.7,0.1-0.9,0.2c-0.3,0.1-0.4,0.3-0.5,0.6h-1.6c0.1-0.4,0.2-0.7,0.4-1s0.4-0.5,0.7-0.7
						s0.6-0.3,1-0.4c0.4-0.1,0.7-0.1,1.1-0.1c0.5,0,0.9,0.1,1.3,0.2c0.4,0.1,0.7,0.3,1,0.6s0.5,0.7,0.7,1.2c0.1,0.5,0.2,1,0.2,1.5v4
						h-1.4L528.6,183.5z M528.6,181.1H527c-0.3,0-0.5,0-0.8,0.1c-0.3,0-0.5,0.1-0.7,0.3c-0.2,0.1-0.3,0.4-0.3,0.7
						c0,0.4,0.1,0.6,0.4,0.8c0.3,0.2,0.6,0.3,1,0.3c0.3,0,0.6,0,0.8-0.1c0.3-0.1,0.5-0.2,0.6-0.4c0.2-0.2,0.3-0.4,0.4-0.7
						C528.5,181.8,528.6,181.5,528.6,181.1z M531.8,184.4V177h1.5l0.1,1c0.3-0.4,0.6-0.7,1-0.9s0.8-0.3,1.3-0.3s1,0.1,1.3,0.3
						c0.4,0.2,0.7,0.4,0.9,0.7s0.4,0.7,0.5,1.1c0.1,0.4,0.2,0.9,0.2,1.4v4H537v-3.8c0-0.3,0-0.6-0.1-0.9c0-0.3-0.1-0.5-0.2-0.7
						c-0.1-0.2-0.3-0.4-0.5-0.5s-0.5-0.2-0.8-0.2s-0.6,0.1-0.9,0.2c-0.3,0.1-0.5,0.4-0.6,0.6c-0.1,0.3-0.2,0.5-0.3,0.8
						s-0.1,0.6-0.1,0.9v3.5h-1.7L531.8,184.4L531.8,184.4z M555,175.8c-0.2,0-0.4,0-0.7,0.1c-0.2,0-0.4,0.1-0.6,0.2
						c-0.2,0.1-0.3,0.2-0.5,0.4c-0.1,0.2-0.2,0.4-0.2,0.6c0,0.4,0.1,0.7,0.4,0.9c0.3,0.2,0.6,0.3,0.9,0.4c0.3,0.1,0.5,0.1,0.8,0.2
						c0.3,0.1,0.5,0.1,0.7,0.2c0.4,0.1,0.8,0.2,1.1,0.3c0.4,0.1,0.7,0.3,0.9,0.5c0.3,0.2,0.5,0.4,0.6,0.8c0.2,0.3,0.2,0.7,0.2,1.1
						c0,0.5-0.1,1-0.3,1.4s-0.4,0.7-0.8,0.9c-0.3,0.2-0.7,0.4-1.1,0.5c-0.4,0.1-0.9,0.2-1.4,0.2s-1-0.1-1.5-0.2
						c-0.5-0.1-0.9-0.3-1.2-0.5c-0.4-0.2-0.7-0.6-0.9-0.9c-0.2-0.4-0.4-0.8-0.5-1.3h1.7c0.1,0.3,0.2,0.5,0.4,0.7s0.4,0.3,0.6,0.4
						c0.2,0.1,0.5,0.2,0.7,0.2c0.3,0,0.5,0.1,0.7,0.1c0.3,0,0.5,0,0.8-0.1c0.2,0,0.5-0.1,0.6-0.2s0.3-0.2,0.4-0.4
						c0.1-0.2,0.2-0.4,0.2-0.7c0-0.4-0.1-0.6-0.3-0.8s-0.5-0.3-0.8-0.4c-0.4-0.1-0.9-0.2-1.4-0.3s-0.9-0.2-1.3-0.4
						c-0.3-0.1-0.5-0.2-0.8-0.4c-0.2-0.1-0.4-0.3-0.6-0.5s-0.3-0.4-0.4-0.7c-0.1-0.3-0.1-0.6-0.1-0.9c0-0.5,0.1-1,0.3-1.4
						s0.5-0.7,0.8-0.9s0.7-0.4,1.1-0.5c0.4-0.1,0.8-0.2,1.3-0.2s0.9,0.1,1.3,0.2c0.4,0.1,0.8,0.3,1.1,0.5s0.6,0.5,0.8,0.9
						s0.3,0.8,0.4,1.3H557c0-0.3-0.1-0.5-0.2-0.6c-0.1-0.2-0.3-0.3-0.4-0.4c-0.2-0.1-0.4-0.2-0.6-0.2
						C555.5,175.9,555.3,175.8,555,175.8z M561.8,181.3c0,0.3,0.1,0.5,0.2,0.8c0.1,0.2,0.2,0.4,0.4,0.6c0.2,0.2,0.4,0.3,0.6,0.4
						c0.2,0.1,0.5,0.2,0.8,0.2s0.6-0.1,0.9-0.2c0.3-0.1,0.5-0.3,0.6-0.6h1.6c-0.1,0.4-0.2,0.7-0.5,1c-0.2,0.3-0.5,0.5-0.7,0.7
						c-0.3,0.2-0.6,0.3-0.9,0.4c-0.3,0.1-0.7,0.1-1.1,0.1c-0.6,0-1.1-0.1-1.6-0.3c-0.4-0.2-0.8-0.4-1.1-0.8
						c-0.3-0.3-0.5-0.7-0.7-1.2c-0.1-0.5-0.2-1-0.2-1.6s0.1-1.1,0.2-1.5c0.2-0.5,0.4-0.9,0.7-1.2s0.7-0.6,1.1-0.8
						c0.4-0.2,0.9-0.3,1.5-0.3s1.1,0.1,1.5,0.3s0.8,0.4,1,0.8c0.3,0.3,0.5,0.7,0.6,1.1s0.2,0.9,0.2,1.4c0,0.2,0,0.5,0,0.7
						L561.8,181.3L561.8,181.3z M565.5,180.1c0-0.6-0.2-1-0.5-1.3s-0.8-0.5-1.3-0.5c-0.3,0-0.6,0-0.8,0.1s-0.4,0.2-0.6,0.4
						c-0.2,0.2-0.3,0.3-0.4,0.6c-0.1,0.2-0.2,0.4-0.2,0.7H565.5z M568.5,187.3V177h1.5l0.1,1.1c0.3-0.4,0.6-0.7,1.1-0.9
						c0.4-0.2,0.9-0.3,1.4-0.3s1,0.1,1.4,0.3s0.7,0.4,1,0.8c0.3,0.3,0.5,0.7,0.6,1.2s0.2,1,0.2,1.6s-0.1,1.1-0.2,1.5
						c-0.1,0.5-0.3,0.9-0.6,1.2s-0.6,0.6-1,0.8s-0.9,0.3-1.4,0.3s-0.9-0.1-1.3-0.2c-0.4-0.1-0.8-0.4-1.1-0.7v3.7h-1.7V187.3z
						 M572.2,183.1c0.3,0,0.6-0.1,0.9-0.2c0.3-0.1,0.5-0.3,0.6-0.5c0.2-0.2,0.3-0.5,0.4-0.8c0.1-0.3,0.1-0.6,0.1-0.9s0-0.6-0.1-0.9
						c-0.1-0.3-0.2-0.6-0.4-0.8s-0.4-0.4-0.6-0.5c-0.3-0.1-0.6-0.2-0.9-0.2c-0.3,0-0.6,0.1-0.9,0.2s-0.5,0.3-0.6,0.5
						c-0.2,0.2-0.3,0.5-0.4,0.8c-0.1,0.3-0.1,0.6-0.1,0.9c0,0.7,0.2,1.3,0.5,1.7C571,182.9,571.5,183.1,572.2,183.1z M583.2,180.7
						c0.2-0.2,0.5-0.4,0.7-0.6c0.3-0.2,0.5-0.5,0.8-0.7c0.3-0.3,0.5-0.5,0.6-0.8c0.2-0.3,0.3-0.6,0.3-1c0-0.5-0.1-0.9-0.4-1.2
						c-0.3-0.3-0.7-0.5-1.3-0.5c-0.4,0-0.8,0.1-1.1,0.3s-0.5,0.5-0.6,0.8h-1.6c0-0.4,0.2-0.8,0.3-1.1c0.2-0.3,0.5-0.6,0.8-0.8
						s0.6-0.4,1-0.5s0.8-0.2,1.3-0.2c0.4,0,0.9,0.1,1.3,0.2c0.4,0.1,0.7,0.3,1,0.5s0.5,0.6,0.7,0.9c0.2,0.4,0.3,0.8,0.3,1.3
						c0,0.4-0.1,0.8-0.2,1.1c-0.1,0.3-0.2,0.6-0.4,0.9c-0.2,0.3-0.4,0.5-0.6,0.8c-0.2,0.2-0.5,0.5-0.7,0.7c-0.3,0.3-0.6,0.5-0.9,0.8
						c-0.3,0.2-0.5,0.4-0.7,0.6c-0.2,0.2-0.4,0.3-0.6,0.5c-0.2,0.1-0.3,0.3-0.5,0.4h4.5v1.4h-6.7v-1.3L583.2,180.7z M596.4,179.5
						c0,0.8-0.1,1.4-0.2,2.1c-0.1,0.6-0.4,1.1-0.7,1.6c-0.3,0.4-0.7,0.8-1.2,1s-1.1,0.4-1.7,0.4c-0.7,0-1.2-0.1-1.7-0.4
						c-0.5-0.2-0.9-0.6-1.2-1s-0.6-0.9-0.7-1.6c-0.2-0.6-0.2-1.3-0.2-2c0-0.8,0.1-1.5,0.2-2.1c0.1-0.6,0.4-1.2,0.7-1.6
						c0.3-0.5,0.7-0.8,1.2-1.1s1.1-0.4,1.8-0.4s1.2,0.1,1.7,0.4c0.5,0.2,0.9,0.6,1.2,1s0.6,1,0.7,1.6
						C596.3,178,596.4,178.7,596.4,179.5z M590.2,179.5c0,0.5,0,1,0.1,1.4s0.2,0.8,0.4,1.1s0.4,0.6,0.7,0.8s0.6,0.3,1.1,0.3
						c0.4,0,0.8-0.1,1.1-0.3s0.5-0.4,0.7-0.8c0.2-0.3,0.3-0.7,0.4-1.1c0.1-0.4,0.1-0.9,0.1-1.4s0-1-0.1-1.4s-0.2-0.8-0.4-1.1
						s-0.4-0.6-0.7-0.8s-0.6-0.3-1.1-0.3c-0.4,0-0.8,0.1-1.1,0.3s-0.5,0.4-0.7,0.8c-0.2,0.3-0.3,0.7-0.4,1.1
						C590.2,178.5,590.2,179,590.2,179.5z M599.9,180.7c0.2-0.2,0.5-0.4,0.7-0.6c0.3-0.2,0.5-0.5,0.8-0.7c0.3-0.3,0.5-0.5,0.6-0.8
						c0.2-0.3,0.3-0.6,0.3-1c0-0.5-0.1-0.9-0.4-1.2c-0.3-0.3-0.7-0.5-1.3-0.5c-0.4,0-0.8,0.1-1.1,0.3s-0.5,0.5-0.6,0.8h-1.6
						c0-0.4,0.2-0.8,0.4-1.1s0.5-0.6,0.8-0.8s0.6-0.4,1-0.5s0.8-0.2,1.3-0.2c0.4,0,0.9,0.1,1.3,0.2c0.4,0.1,0.7,0.3,1,0.5
						s0.5,0.6,0.7,0.9c0.2,0.4,0.3,0.8,0.3,1.3c0,0.4-0.1,0.8-0.2,1.1c-0.1,0.3-0.2,0.6-0.4,0.9c-0.2,0.3-0.4,0.5-0.6,0.8
						c-0.2,0.2-0.5,0.5-0.7,0.7c-0.3,0.3-0.6,0.5-0.9,0.8c-0.3,0.2-0.5,0.4-0.7,0.6c-0.2,0.2-0.4,0.3-0.6,0.5
						c-0.2,0.1-0.3,0.3-0.5,0.4h4.5v1.4h-6.7v-1.3L599.9,180.7z M605.6,180.1l0.5-5.5h6v1.4h-4.6l-0.3,2.6c0.3-0.2,0.6-0.3,0.9-0.4
						c0.3-0.1,0.7-0.2,1.1-0.2c0.5,0,0.9,0.1,1.3,0.2c0.4,0.1,0.7,0.3,1,0.6s0.5,0.6,0.7,1s0.2,0.8,0.2,1.3s-0.1,1-0.3,1.4
						s-0.4,0.8-0.8,1.1c-0.3,0.3-0.7,0.5-1.1,0.7c-0.4,0.1-0.9,0.2-1.4,0.2c-0.4,0-0.9-0.1-1.2-0.2c-0.4-0.1-0.7-0.3-1-0.5
						s-0.6-0.5-0.8-0.8s-0.3-0.8-0.4-1.2h1.6c0.1,0.2,0.1,0.4,0.3,0.5c0.1,0.1,0.3,0.3,0.4,0.4c0.2,0.1,0.4,0.2,0.5,0.2
						c0.2,0,0.4,0.1,0.6,0.1c0.3,0,0.5,0,0.8-0.1c0.2-0.1,0.5-0.2,0.6-0.3c0.2-0.1,0.3-0.3,0.4-0.6c0.1-0.2,0.2-0.5,0.2-0.8
						c0-0.6-0.2-1.1-0.5-1.4c-0.3-0.3-0.8-0.5-1.4-0.5c-0.4,0-0.7,0.1-1,0.2s-0.6,0.3-0.8,0.5h-1.5V180.1z"/>
					<path class="st5" d="M544.5,186.8v-13.7h0.9v13.7H544.5z"/>
					<path class="st6" d="M623.3,178l2.9,2.9l2.9-2.9"/>
					<path class="st7" d="M522.6,159.8h100.1c10.8,0,19.6,8.8,19.6,19.6l0,0c0,10.8-8.8,19.6-19.6,19.6H522.6
						c-10.8,0-19.6-8.8-19.6-19.6l0,0C503,168.6,511.8,159.8,522.6,159.8z"/>
					<path class="st4" d="M57.2,259.3c0.2-0.2,0.5-0.4,0.7-0.6c0.3-0.2,0.5-0.5,0.7-0.7c0.2-0.3,0.4-0.5,0.6-0.8
						c0.2-0.3,0.2-0.6,0.3-0.9c0-0.5-0.1-0.9-0.4-1.2c-0.3-0.3-0.7-0.4-1.2-0.4c-0.4,0-0.8,0.1-1.1,0.3s-0.5,0.4-0.6,0.7H55
						c0.1-0.3,0.2-0.6,0.3-0.9c0.2-0.2,0.4-0.5,0.7-0.6c0.3-0.2,0.6-0.3,0.9-0.4s0.6-0.1,1-0.1s0.8,0.1,1.1,0.2
						c0.3,0.1,0.6,0.3,0.9,0.5c0.2,0.2,0.4,0.5,0.6,0.8c0.1,0.3,0.2,0.7,0.2,1c0,0.4-0.1,0.7-0.2,1.1c-0.1,0.3-0.3,0.6-0.5,0.9
						s-0.4,0.5-0.7,0.7c-0.2,0.2-0.5,0.5-0.8,0.7l-2.1,1.8h4.3v0.9h-5.8v-0.9L57.2,259.3z M62.2,258.5l0.4-4.7h5.1v1h-4.1l-0.2,2.7
						c0.2-0.2,0.5-0.3,0.8-0.4c0.3-0.1,0.7-0.2,1.2-0.2c0.4,0,0.8,0.1,1.1,0.2s0.6,0.3,0.9,0.6c0.2,0.2,0.4,0.5,0.6,0.9
						c0.1,0.3,0.2,0.7,0.2,1.1s-0.1,0.8-0.2,1.2c-0.2,0.3-0.4,0.6-0.6,0.9c-0.3,0.2-0.6,0.4-1,0.6c-0.4,0.1-0.8,0.2-1.2,0.2
						c-0.4,0-0.7,0-1-0.1c-0.3-0.1-0.6-0.2-0.9-0.4c-0.3-0.2-0.5-0.4-0.7-0.6c-0.2-0.3-0.3-0.6-0.4-0.9H63c0.1,0.2,0.2,0.3,0.3,0.5
						c0.1,0.1,0.3,0.2,0.4,0.3c0.2,0.1,0.3,0.2,0.5,0.2s0.4,0.1,0.6,0.1c0.3,0,0.6,0,0.8-0.1c0.3-0.1,0.5-0.2,0.7-0.3
						c0.2-0.2,0.3-0.3,0.4-0.6c0.1-0.2,0.2-0.5,0.2-0.8c0-0.6-0.2-1-0.5-1.3c-0.4-0.3-0.8-0.5-1.4-0.5c-0.3,0-0.6,0.1-0.9,0.2
						c-0.3,0.1-0.5,0.3-0.8,0.5h-1.1C62.2,258.8,62.2,258.5,62.2,258.5z M75.9,258.1c0,0.5-0.1,1.1-0.2,1.6s-0.3,1-0.5,1.4
						c-0.3,0.4-0.6,0.7-1,1c-0.4,0.2-1,0.4-1.6,0.4s-1.2-0.1-1.6-0.4c-0.4-0.2-0.8-0.6-1-1c-0.3-0.4-0.4-0.9-0.5-1.4s-0.2-1-0.2-1.6
						s0.1-1.1,0.2-1.6s0.3-1,0.5-1.4c0.3-0.4,0.6-0.7,1-1s1-0.4,1.6-0.4s1.2,0.1,1.6,0.4c0.4,0.2,0.8,0.6,1,1
						c0.3,0.4,0.4,0.9,0.5,1.4C75.9,257,75.9,257.5,75.9,258.1z M70.4,258.1c0,0.4,0,0.8,0.1,1.2s0.2,0.8,0.3,1.1
						c0.2,0.3,0.4,0.6,0.7,0.8c0.3,0.2,0.7,0.3,1.2,0.3s0.9-0.1,1.1-0.3c0.3-0.2,0.5-0.5,0.7-0.8s0.3-0.7,0.3-1.1s0.1-0.8,0.1-1.2
						c0-0.4,0-0.8-0.1-1.2c-0.1-0.4-0.2-0.8-0.3-1.1c-0.2-0.3-0.4-0.6-0.7-0.8c-0.3-0.2-0.7-0.3-1.1-0.3c-0.5,0-0.9,0.1-1.2,0.3
						c-0.3,0.2-0.5,0.5-0.7,0.8c-0.2,0.3-0.3,0.7-0.3,1.1C70.4,257.3,70.4,257.7,70.4,258.1z M77.4,262.3v-8.5h1v4.9h1.1l1.9-2.7
						h1.2l-2.1,3l2.3,3.3h-1.2l-1.9-2.7h-1.2v2.7H77.4z"/>
					<path class="st8" d="M54.8,270.3l661.3,0.1"/>
					<path class="st4" d="M57.2,313.5c0.2-0.2,0.5-0.4,0.7-0.6c0.3-0.2,0.5-0.5,0.7-0.7c0.2-0.3,0.4-0.5,0.6-0.8
						c0.2-0.3,0.2-0.6,0.3-0.9c0-0.5-0.1-0.9-0.4-1.2c-0.3-0.3-0.7-0.4-1.2-0.4c-0.4,0-0.8,0.1-1.1,0.3c-0.3,0.2-0.5,0.4-0.6,0.7H55
						c0.1-0.3,0.2-0.6,0.3-0.9c0.2-0.2,0.4-0.5,0.7-0.6c0.3-0.2,0.6-0.3,0.9-0.4c0.3-0.1,0.6-0.1,1-0.1s0.8,0.1,1.1,0.2
						s0.6,0.3,0.9,0.5c0.2,0.2,0.4,0.5,0.6,0.8c0.1,0.3,0.2,0.7,0.2,1s-0.1,0.7-0.2,1.1c-0.1,0.3-0.3,0.6-0.5,0.9s-0.4,0.5-0.7,0.7
						c-0.2,0.2-0.5,0.5-0.8,0.7l-2.1,1.8h4.3v0.9h-5.8v-0.9L57.2,313.5z M68.5,312.2c0,0.5-0.1,1.1-0.2,1.6s-0.3,1-0.5,1.4
						c-0.3,0.4-0.6,0.7-1,1c-0.4,0.2-1,0.4-1.6,0.4s-1.2-0.1-1.6-0.4c-0.4-0.2-0.8-0.6-1-1c-0.3-0.4-0.4-0.9-0.5-1.4s-0.2-1-0.2-1.6
						s0.1-1.1,0.2-1.6c0.1-0.5,0.3-1,0.5-1.4s0.6-0.7,1-1s1-0.4,1.6-0.4s1.2,0.1,1.6,0.4c0.4,0.2,0.8,0.6,1,1
						c0.3,0.4,0.4,0.9,0.5,1.4C68.5,311.1,68.5,311.6,68.5,312.2z M63,312.2c0,0.4,0,0.8,0.1,1.2s0.2,0.8,0.3,1.1s0.4,0.6,0.7,0.8
						c0.3,0.2,0.7,0.3,1.2,0.3s0.9-0.1,1.1-0.3c0.3-0.2,0.5-0.5,0.7-0.8s0.3-0.7,0.3-1.1s0.1-0.8,0.1-1.2c0-0.4,0-0.8-0.1-1.2
						c-0.1-0.4-0.2-0.8-0.3-1.1c-0.2-0.3-0.4-0.6-0.7-0.8c-0.3-0.2-0.7-0.3-1.1-0.3c-0.5,0-0.9,0.1-1.2,0.3
						c-0.3,0.2-0.5,0.5-0.7,0.8s-0.3,0.7-0.3,1.1C63,311.4,63,311.8,63,312.2z M76.5,312.2c0,0.5-0.1,1.1-0.2,1.6s-0.3,1-0.5,1.4
						c-0.3,0.4-0.6,0.7-1,1c-0.4,0.2-1,0.4-1.6,0.4s-1.2-0.1-1.6-0.4c-0.4-0.2-0.8-0.6-1-1c-0.3-0.4-0.4-0.9-0.5-1.4s-0.2-1-0.2-1.6
						s0.1-1.1,0.2-1.6s0.3-1,0.5-1.4c0.3-0.4,0.6-0.7,1-1s1-0.4,1.6-0.4s1.2,0.1,1.6,0.4c0.4,0.2,0.8,0.6,1,1
						c0.3,0.4,0.4,0.9,0.5,1.4C76.5,311.1,76.5,311.6,76.5,312.2z M71,312.2c0,0.4,0,0.8,0.1,1.2s0.2,0.8,0.3,1.1
						c0.2,0.3,0.4,0.6,0.7,0.8c0.3,0.2,0.7,0.3,1.2,0.3s0.9-0.1,1.1-0.3c0.3-0.2,0.5-0.5,0.7-0.8s0.3-0.7,0.3-1.1s0.1-0.8,0.1-1.2
						c0-0.4,0-0.8-0.1-1.2c-0.1-0.4-0.2-0.8-0.3-1.1c-0.2-0.3-0.4-0.6-0.7-0.8c-0.3-0.2-0.7-0.3-1.1-0.3c-0.5,0-0.9,0.1-1.2,0.3
						c-0.3,0.2-0.5,0.5-0.7,0.8s-0.3,0.7-0.3,1.1C71,311.4,71,311.8,71,312.2z M78,316.4v-8.5h1v4.9h1.1l1.9-2.7h1.2l-2.1,3l2.3,3.3
						h-1.2l-1.9-2.7H79v2.7L78,316.4L78,316.4z"/>
					<path class="st8" d="M54.8,324.4l661.3,0.1"/>
					<path class="st4" d="M57.5,370.5h-1v-6.8h-1.7V363c0.2,0,0.5,0,0.7-0.1c0.2,0,0.4-0.1,0.6-0.2c0.2-0.1,0.3-0.2,0.5-0.3
						c0.1-0.1,0.3-0.3,0.4-0.5h0.7v8.6H57.5z M59.8,366.7l0.4-4.7h5.1v1h-4.1l-0.2,2.7c0.2-0.2,0.5-0.3,0.8-0.4s0.7-0.2,1.2-0.2
						c0.4,0,0.8,0.1,1.1,0.2s0.6,0.3,0.9,0.6c0.2,0.2,0.4,0.5,0.6,0.9c0.1,0.3,0.2,0.7,0.2,1.1s-0.1,0.8-0.2,1.2
						c-0.2,0.3-0.4,0.6-0.6,0.9c-0.3,0.2-0.6,0.4-1,0.6c-0.4,0.1-0.8,0.2-1.2,0.2s-0.7,0-1-0.1s-0.6-0.2-0.9-0.4
						c-0.3-0.2-0.5-0.4-0.7-0.6c-0.2-0.3-0.3-0.6-0.4-0.9h1.1c0.1,0.2,0.2,0.3,0.3,0.5c0.1,0.1,0.3,0.2,0.4,0.3
						c0.2,0.1,0.3,0.2,0.5,0.2s0.4,0.1,0.6,0.1c0.3,0,0.6,0,0.8-0.1c0.3-0.1,0.5-0.2,0.7-0.3c0.2-0.2,0.3-0.3,0.4-0.6
						c0.1-0.2,0.2-0.5,0.2-0.8c0-0.6-0.2-1-0.5-1.3c-0.4-0.3-0.8-0.5-1.4-0.5c-0.3,0-0.6,0.1-0.9,0.2c-0.3,0.1-0.5,0.3-0.8,0.5h-1.4
						C59.8,367,59.8,366.7,59.8,366.7z M73.5,366.3c0,0.5-0.1,1.1-0.2,1.6s-0.3,1-0.5,1.4c-0.3,0.4-0.6,0.7-1,1
						c-0.4,0.2-1,0.4-1.6,0.4s-1.2-0.1-1.6-0.4c-0.4-0.2-0.8-0.6-1-1c-0.3-0.4-0.4-0.9-0.5-1.4s-0.2-1-0.2-1.6s0.1-1.1,0.2-1.6
						s0.3-1,0.5-1.4c0.3-0.4,0.6-0.7,1-1s1-0.4,1.6-0.4s1.2,0.1,1.6,0.4c0.4,0.2,0.8,0.6,1,1c0.3,0.4,0.4,0.9,0.5,1.4
						C73.4,365.2,73.5,365.8,73.5,366.3z M67.9,366.3c0,0.4,0,0.8,0.1,1.2s0.2,0.8,0.3,1.1c0.2,0.3,0.4,0.6,0.7,0.8
						c0.3,0.2,0.7,0.3,1.2,0.3s0.9-0.1,1.1-0.3c0.3-0.2,0.5-0.5,0.7-0.8s0.3-0.7,0.3-1.1s0.1-0.8,0.1-1.2c0-0.4,0-0.8-0.1-1.2
						c-0.1-0.4-0.2-0.8-0.3-1.1c-0.2-0.3-0.4-0.6-0.7-0.8c-0.3-0.2-0.7-0.3-1.1-0.3c-0.5,0-0.9,0.1-1.2,0.3
						c-0.3,0.2-0.5,0.5-0.7,0.8s-0.3,0.7-0.3,1.1C68,365.5,67.9,365.9,67.9,366.3z M75,370.5V362h1v4.9h1.1l1.9-2.7h1.2l-2.1,3
						l2.3,3.3h-1.2l-1.9-2.7H76v2.7L75,370.5L75,370.5z"/>
					<path class="st8" d="M54.8,378.5l633.8,0.1"/>
					<path class="st4" d="M57.5,424.7h-1v-6.8h-1.7v-0.7c0.2,0,0.5,0,0.7-0.1c0.2,0,0.4-0.1,0.6-0.2c0.2-0.1,0.3-0.2,0.5-0.3
						c0.1-0.1,0.3-0.3,0.4-0.5h0.7v8.6H57.5z M66.1,420.4c0,0.5-0.1,1.1-0.2,1.6s-0.3,1-0.5,1.4c-0.3,0.4-0.6,0.7-1,1
						c-0.4,0.2-1,0.4-1.6,0.4s-1.2-0.1-1.6-0.4c-0.4-0.2-0.8-0.6-1-1c-0.3-0.4-0.4-0.9-0.5-1.4s-0.2-1-0.2-1.6s0.1-1.1,0.2-1.6
						c0.1-0.5,0.3-1,0.5-1.4s0.6-0.7,1-1s1-0.4,1.6-0.4s1.2,0.1,1.6,0.4c0.4,0.2,0.8,0.6,1,1c0.3,0.4,0.4,0.9,0.5,1.4
						C66,419.4,66.1,419.9,66.1,420.4z M60.5,420.4c0,0.4,0,0.8,0.1,1.2s0.2,0.8,0.3,1.1s0.4,0.6,0.7,0.8c0.3,0.2,0.7,0.3,1.2,0.3
						s0.9-0.1,1.1-0.3c0.3-0.2,0.5-0.5,0.7-0.8c0.2-0.3,0.3-0.7,0.3-1.1s0.1-0.8,0.1-1.2c0-0.4,0-0.8-0.1-1.2
						c-0.1-0.4-0.2-0.8-0.3-1.1c-0.2-0.3-0.4-0.6-0.7-0.8c-0.3-0.2-0.7-0.3-1.1-0.3c-0.5,0-0.9,0.1-1.2,0.3
						c-0.3,0.2-0.5,0.5-0.7,0.8s-0.3,0.7-0.3,1.1C60.6,419.7,60.5,420.1,60.5,420.4z M74.1,420.4c0,0.5-0.1,1.1-0.2,1.6
						s-0.3,1-0.5,1.4c-0.3,0.4-0.6,0.7-1,1c-0.4,0.2-1,0.4-1.6,0.4s-1.2-0.1-1.6-0.4c-0.4-0.2-0.8-0.6-1-1c-0.3-0.4-0.4-0.9-0.5-1.4
						s-0.2-1-0.2-1.6s0.1-1.1,0.2-1.6s0.3-1,0.5-1.4c0.3-0.4,0.6-0.7,1-1s1-0.4,1.6-0.4s1.2,0.1,1.6,0.4c0.4,0.2,0.8,0.6,1,1
						c0.3,0.4,0.4,0.9,0.5,1.4C74,419.4,74.1,419.9,74.1,420.4z M68.5,420.4c0,0.4,0,0.8,0.1,1.2s0.2,0.8,0.3,1.1
						c0.2,0.3,0.4,0.6,0.7,0.8c0.3,0.2,0.7,0.3,1.2,0.3s0.9-0.1,1.1-0.3c0.3-0.2,0.5-0.5,0.7-0.8s0.3-0.7,0.3-1.1s0.1-0.8,0.1-1.2
						c0-0.4,0-0.8-0.1-1.2c-0.1-0.4-0.2-0.8-0.3-1.1c-0.2-0.3-0.4-0.6-0.7-0.8c-0.3-0.2-0.7-0.3-1.1-0.3c-0.5,0-0.9,0.1-1.2,0.3
						c-0.3,0.2-0.5,0.5-0.7,0.8s-0.3,0.7-0.3,1.1C68.6,419.7,68.5,420.1,68.5,420.4z M75.6,424.7v-8.5h1v4.9h1.1l1.9-2.7h1.2l-2.1,3
						l2.3,3.3h-1.2l-1.9-2.7h-1.2v2.7L75.6,424.7L75.6,424.7z"/>
					<path class="st8" d="M54.8,432.7l633.8,0.1"/>
					<path class="st4" d="M61.7,474.6c0,0.5-0.1,1.1-0.2,1.6c-0.1,0.5-0.3,1-0.5,1.4c-0.3,0.4-0.6,0.7-1,1c-0.4,0.2-1,0.4-1.6,0.4
						s-1.2-0.1-1.6-0.4c-0.4-0.2-0.8-0.6-1-1c-0.3-0.4-0.4-0.9-0.5-1.4s-0.2-1-0.2-1.6s0.1-1.1,0.2-1.6c0.1-0.5,0.3-1,0.5-1.4
						s0.6-0.7,1-1s1-0.4,1.6-0.4s1.2,0.1,1.6,0.4c0.4,0.2,0.8,0.6,1,1c0.3,0.4,0.4,0.9,0.5,1.4C61.7,473.5,61.7,474,61.7,474.6z
						 M56.2,474.6c0,0.4,0,0.8,0.1,1.2s0.2,0.8,0.3,1.1s0.4,0.6,0.7,0.8c0.3,0.2,0.7,0.3,1.2,0.3s0.9-0.1,1.1-0.3
						c0.3-0.2,0.5-0.5,0.7-0.8s0.3-0.7,0.3-1.1s0.1-0.8,0.1-1.2c0-0.4,0-0.8-0.1-1.2c-0.1-0.4-0.2-0.8-0.3-1.1
						c-0.2-0.3-0.4-0.6-0.7-0.8c-0.3-0.2-0.7-0.3-1.1-0.3c-0.5,0-0.9,0.1-1.2,0.3c-0.3,0.2-0.5,0.5-0.7,0.8s-0.3,0.7-0.3,1.1
						C56.2,473.8,56.2,474.2,56.2,474.6z M63.2,478.8v-8.5h1v4.9h1.1l1.9-2.7h1.2l-2.1,3l2.3,3.3h-1.2l-1.9-2.7h-1.2v2.7L63.2,478.8
						L63.2,478.8z"/>
					<path class="st8" d="M54.8,486.8l633.8,0.1"/>
					<path class="st4" d="M141.4,506.6c0,0.5,0.2,0.8,0.5,1.1c0.3,0.3,0.6,0.4,1.2,0.4c0.3,0,0.5,0,0.7-0.1s0.3-0.2,0.5-0.4
						c0.1-0.2,0.2-0.4,0.3-0.6c0-0.2,0.1-0.5,0.1-0.8v-5.8h1v5.6c0,0.4,0,0.9-0.1,1.2s-0.2,0.7-0.4,1s-0.5,0.5-0.8,0.6
						s-0.7,0.2-1.2,0.2c-0.8,0-1.5-0.2-1.9-0.6c-0.5-0.4-0.7-1-0.8-1.8L141.4,506.6L141.4,506.6z M151.5,508.1
						c-0.1,0.2-0.3,0.3-0.5,0.4s-0.4,0.2-0.6,0.3c-0.2,0.1-0.4,0.1-0.6,0.1c-0.2,0-0.4,0-0.6,0c-0.3,0-0.6,0-0.8-0.1
						c-0.3-0.1-0.5-0.2-0.7-0.3c-0.2-0.2-0.4-0.4-0.5-0.6s-0.2-0.5-0.2-0.8c0-0.4,0.1-0.7,0.2-0.9c0.1-0.2,0.3-0.4,0.5-0.6
						s0.5-0.3,0.8-0.3c0.3-0.1,0.6-0.1,0.9-0.1h1.9c0-0.5-0.1-1-0.3-1.3s-0.6-0.5-1.2-0.5c-0.3,0-0.6,0.1-0.9,0.2
						c-0.3,0.1-0.4,0.3-0.5,0.6h-1.1c0.1-0.3,0.2-0.5,0.3-0.7c0.2-0.2,0.4-0.4,0.6-0.5c0.2-0.1,0.5-0.2,0.8-0.3
						c0.3-0.1,0.5-0.1,0.8-0.1c0.5,0,0.9,0.1,1.2,0.2c0.3,0.2,0.6,0.4,0.8,0.6s0.3,0.6,0.4,0.9c0.1,0.4,0.1,0.8,0.1,1.2v3.4h-0.9
						L151.5,508.1z M150.3,506.1c-0.2,0-0.4,0-0.7,0c-0.2,0-0.5,0-0.7,0.1c-0.2,0-0.4,0.1-0.6,0.3c-0.1,0.2-0.2,0.4-0.2,0.6
						s0,0.3,0.1,0.5c0.1,0.1,0.2,0.2,0.3,0.3c0.1,0.1,0.3,0.2,0.4,0.2s0.3,0.1,0.5,0.1c0.6,0,1.1-0.1,1.4-0.4
						c0.4-0.3,0.5-0.7,0.5-1.3v-0.3h-1V506.1z M154,508.9v-6.3h1v1c0.1-0.2,0.2-0.3,0.4-0.5c0.2-0.1,0.3-0.2,0.5-0.3
						c0.2-0.1,0.4-0.2,0.6-0.2c0.2,0,0.4-0.1,0.6-0.1c0.5,0,0.8,0.1,1.2,0.2c0.3,0.1,0.6,0.3,0.7,0.6c0.2,0.3,0.3,0.6,0.4,0.9
						c0.1,0.4,0.1,0.7,0.1,1.1v3.5h-1v-3.2c0-0.3,0-0.6-0.1-0.9c0-0.3-0.1-0.5-0.2-0.7c-0.1-0.2-0.3-0.4-0.5-0.5s-0.5-0.2-0.8-0.2
						s-0.6,0.1-0.9,0.2c-0.3,0.2-0.5,0.3-0.6,0.5c-0.2,0.3-0.3,0.6-0.4,0.9c-0.1,0.3-0.1,0.6-0.1,0.9v2.9H154V508.9z"/>
					<path class="st9" d="M121.8,336.6c0-2.2,1.8-4,4-4H142c2.2,0,4,1.8,4,4v150h-24.2V336.6z"/>
					<path class="st10" d="M154.1,287.6c0-2.2,1.8-4,4-4h16.2c2.2,0,4,1.8,4,4v199.1h-24.2V287.6z"/>
					<path class="st9" d="M225.8,336.6c0-2.2,1.8-4,4-4H246c2.2,0,4,1.8,4,4v150h-24.2V336.6z"/>
					<path class="st10" d="M258.1,427.2c0-2.2,1.8-4,4-4h16.2c2.2,0,4,1.8,4,4v59.5h-24.2V427.2z"/>
					<path class="st4" d="M244.6,508.9v-8.5h5.7v0.9h-4.7v3.2h4.1v1h-4.1v3.4H244.6z M252.1,506.1c0,0.3,0.1,0.5,0.2,0.8
						c0.1,0.2,0.2,0.4,0.4,0.6s0.4,0.3,0.6,0.4c0.2,0.1,0.5,0.1,0.8,0.1c0.2,0,0.3,0,0.5,0s0.3-0.1,0.5-0.1c0.1-0.1,0.3-0.2,0.4-0.3
						s0.2-0.2,0.3-0.4h1c-0.1,0.3-0.2,0.6-0.4,0.8c-0.2,0.2-0.4,0.4-0.6,0.6c-0.2,0.1-0.5,0.3-0.8,0.3c-0.3,0.1-0.6,0.1-0.9,0.1
						c-0.5,0-0.9-0.1-1.3-0.2c-0.4-0.2-0.7-0.4-0.9-0.7c-0.2-0.3-0.4-0.6-0.6-1c-0.1-0.4-0.2-0.8-0.2-1.3s0.1-0.9,0.2-1.3
						c0.1-0.4,0.3-0.7,0.6-1c0.2-0.3,0.6-0.5,0.9-0.7s0.8-0.2,1.3-0.2s0.9,0.1,1.3,0.3c0.4,0.2,0.7,0.5,0.9,0.8
						c0.2,0.3,0.4,0.7,0.5,1c0.1,0.4,0.1,0.7,0.1,1c0,0.1,0,0.1,0,0.2s0,0.1,0,0.2L252.1,506.1L252.1,506.1z M255.8,505.3
						c0-0.5-0.2-1-0.5-1.3s-0.7-0.5-1.3-0.5c-0.3,0-0.6,0-0.8,0.1s-0.4,0.2-0.6,0.4c-0.2,0.2-0.3,0.4-0.4,0.6
						c-0.1,0.2-0.1,0.4-0.2,0.7L255.8,505.3L255.8,505.3z M258.2,508.9v-8.5h1v3.1c0.2-0.3,0.5-0.6,0.9-0.7c0.4-0.2,0.8-0.3,1.2-0.3
						c0.5,0,0.9,0.1,1.2,0.3c0.4,0.2,0.6,0.4,0.9,0.7c0.2,0.3,0.4,0.6,0.5,1s0.2,0.8,0.2,1.3s-0.1,0.9-0.2,1.3s-0.3,0.7-0.5,1
						s-0.5,0.5-0.9,0.7s-0.8,0.3-1.3,0.3h-0.1c-0.4,0-0.8-0.1-1.1-0.2c-0.3-0.2-0.6-0.4-0.8-0.6v0.8h-1L258.2,508.9L258.2,508.9z
						 M261.1,508.1c0.3,0,0.6-0.1,0.9-0.2c0.2-0.1,0.4-0.3,0.6-0.5s0.3-0.5,0.3-0.7c0.1-0.3,0.1-0.6,0.1-0.9s0-0.6-0.1-0.9
						s-0.2-0.5-0.3-0.7c-0.2-0.2-0.4-0.4-0.6-0.5s-0.5-0.2-0.9-0.2c-0.2,0-0.4,0-0.6,0.1s-0.3,0.2-0.5,0.3c-0.1,0.1-0.3,0.2-0.4,0.4
						c-0.1,0.1-0.2,0.3-0.3,0.4c-0.1,0.2-0.2,0.4-0.2,0.6s-0.1,0.4-0.1,0.6s0,0.4,0,0.6s0.1,0.4,0.2,0.6c0.1,0.3,0.4,0.6,0.7,0.8
						C260.3,508,260.7,508.1,261.1,508.1z"/>
					<path class="st9" d="M329.8,387.4c0-2.2,1.8-4,4-4H350c2.2,0,4,1.8,4,4v99.2h-24.2V387.4z"/>
					<path class="st10" d="M362.1,277.4c0-2.2,1.8-4,4-4h16.2c2.2,0,4,1.8,4,4v209.2h-24.2V277.4z"/>
					<path class="st4" d="M347.9,508.7v-8.5h1.6l2.5,4.7l2.5-4.7h1.5v8.5h-1v-7.4l-2.8,5.2h-0.5l-2.8-5.2v7.4H347.9z M362.1,507.8
						c-0.1,0.2-0.3,0.3-0.5,0.4s-0.4,0.2-0.6,0.3c-0.2,0.1-0.4,0.1-0.6,0.1s-0.4,0-0.6,0c-0.3,0-0.6,0-0.8-0.1
						c-0.3-0.1-0.5-0.2-0.7-0.3c-0.2-0.2-0.4-0.4-0.5-0.6s-0.2-0.5-0.2-0.8c0-0.4,0.1-0.7,0.2-0.9c0.1-0.2,0.3-0.4,0.5-0.6
						s0.5-0.3,0.8-0.3c0.3-0.1,0.6-0.1,0.9-0.1h1.9c0-0.5-0.1-1-0.3-1.3c-0.2-0.3-0.6-0.5-1.2-0.5c-0.3,0-0.6,0.1-0.9,0.2
						s-0.4,0.3-0.5,0.6h-1c0.1-0.3,0.2-0.5,0.3-0.7c0.2-0.2,0.4-0.4,0.6-0.5s0.5-0.2,0.8-0.3c0.3-0.1,0.5-0.1,0.8-0.1
						c0.5,0,0.9,0.1,1.2,0.2c0.3,0.2,0.6,0.4,0.8,0.6c0.2,0.2,0.3,0.6,0.4,0.9c0.1,0.4,0.1,0.8,0.1,1.2v3.4h-0.9L362.1,507.8z
						 M360.9,505.8c-0.2,0-0.4,0-0.7,0c-0.2,0-0.5,0-0.7,0.1c-0.2,0-0.4,0.1-0.6,0.3c-0.1,0.2-0.2,0.4-0.2,0.6s0,0.3,0.1,0.5
						c0.1,0.1,0.2,0.2,0.3,0.3c0.1,0.1,0.3,0.2,0.4,0.2s0.3,0.1,0.5,0.1c0.6,0,1.1-0.1,1.4-0.4c0.4-0.3,0.5-0.7,0.5-1.3v-0.3h-1
						L360.9,505.8L360.9,505.8z M364.6,508.7v-6.3h1v1c0.2-0.4,0.5-0.6,0.9-0.8c0.4-0.2,0.8-0.3,1.2-0.3h0.3v1h-0.4
						c-0.4,0-0.7,0.1-1,0.2s-0.5,0.3-0.6,0.5c-0.2,0.2-0.3,0.5-0.4,0.7c-0.1,0.3-0.1,0.6-0.1,0.9v3.1L364.6,508.7L364.6,508.7z"/>
					<path class="st9" d="M433.8,323.1c0-2.2,1.8-4,4-4H454c2.2,0,4,1.8,4,4v163.6h-24.2V323.1z"/>
					<path class="st10" d="M466.1,409.4c0-2.2,1.8-4,4-4h16.2c2.2,0,4,1.8,4,4v77.2h-24.2V409.4z"/>
					<path class="st4" d="M459,508.7l-0.7-1.8h-4.2l-0.7,1.8h-1.1l3.2-8.5h1.5l3.1,8.5H459z M456.2,501.1l-1.8,4.8h3.5L456.2,501.1z
						 M461.1,510.9v-8.6h1v0.9c0.2-0.3,0.5-0.6,0.9-0.7c0.4-0.2,0.8-0.3,1.2-0.3c0.5,0,0.9,0.1,1.2,0.3c0.3,0.2,0.6,0.4,0.9,0.7
						c0.2,0.3,0.4,0.6,0.5,1s0.2,0.8,0.2,1.3s-0.1,0.9-0.2,1.3s-0.3,0.7-0.5,1s-0.5,0.5-0.9,0.7s-0.8,0.2-1.3,0.2s-0.9-0.1-1.2-0.2
						s-0.6-0.4-0.8-0.6v3.1L461.1,510.9L461.1,510.9z M464,507.8c0.3,0,0.6-0.1,0.9-0.2c0.2-0.1,0.4-0.3,0.6-0.5s0.3-0.5,0.3-0.7
						c0.1-0.3,0.1-0.6,0.1-0.9s0-0.6-0.1-0.9s-0.2-0.5-0.3-0.7c-0.2-0.2-0.4-0.4-0.6-0.5s-0.5-0.2-0.9-0.2s-0.8,0.1-1.1,0.3
						c-0.3,0.2-0.5,0.5-0.7,0.8c-0.1,0.2-0.1,0.4-0.2,0.6c0,0.2,0,0.4,0,0.6s0,0.5,0,0.7s0.1,0.4,0.2,0.6c0.2,0.3,0.4,0.6,0.7,0.8
						C463.2,507.7,463.6,507.8,464,507.8z M468.3,508.7v-6.3h1v1c0.2-0.4,0.5-0.6,0.9-0.8c0.4-0.2,0.8-0.3,1.2-0.3h0.3v1h-0.4
						c-0.4,0-0.7,0.1-1,0.2s-0.5,0.3-0.6,0.5c-0.2,0.2-0.3,0.5-0.4,0.7c-0.1,0.3-0.1,0.6-0.1,0.9v3.1L468.3,508.7L468.3,508.7z"/>
					<path class="st9" d="M537.8,279.1c0-2.2,1.8-4,4-4H558c2.2,0,4,1.8,4,4v207.6h-24.2V279.1z"/>
					<path class="st10" d="M570.1,314.6c0-2.2,1.8-4,4-4h16.2c2.2,0,4,1.8,4,4v172h-24.2V314.6z"/>
					<path class="st4" d="M555.1,508.7v-8.5h1.6l2.5,4.7l2.5-4.7h1.5v8.5h-1v-7.4l-2.8,5.2H559l-2.8-5.2v7.4H555.1z M569.3,507.8
						c-0.1,0.2-0.3,0.3-0.5,0.4s-0.4,0.2-0.6,0.3c-0.2,0.1-0.4,0.1-0.6,0.1c-0.2,0-0.4,0-0.6,0c-0.3,0-0.6,0-0.8-0.1
						c-0.3-0.1-0.5-0.2-0.7-0.3c-0.2-0.2-0.4-0.4-0.5-0.6s-0.2-0.5-0.2-0.8c0-0.4,0.1-0.7,0.2-0.9c0.1-0.2,0.3-0.4,0.5-0.6
						s0.5-0.3,0.8-0.3c0.3-0.1,0.6-0.1,0.9-0.1h1.9c0-0.5-0.1-1-0.3-1.3s-0.6-0.5-1.2-0.5c-0.3,0-0.6,0.1-0.9,0.2
						c-0.3,0.1-0.4,0.3-0.5,0.6h-1.1c0.1-0.3,0.2-0.5,0.3-0.7c0.2-0.2,0.4-0.4,0.6-0.5c0.2-0.1,0.5-0.2,0.8-0.3
						c0.3-0.1,0.5-0.1,0.8-0.1c0.5,0,0.9,0.1,1.2,0.2c0.3,0.2,0.6,0.4,0.8,0.6s0.3,0.6,0.4,0.9c0.1,0.4,0.1,0.8,0.1,1.2v3.4h-0.9
						L569.3,507.8z M568.1,505.8c-0.2,0-0.4,0-0.7,0c-0.2,0-0.5,0-0.7,0.1c-0.2,0-0.4,0.1-0.6,0.3c-0.1,0.2-0.2,0.4-0.2,0.6
						s0,0.3,0.1,0.5c0.1,0.1,0.2,0.2,0.3,0.3c0.1,0.1,0.3,0.2,0.4,0.2c0.2,0,0.3,0.1,0.5,0.1c0.6,0,1.1-0.1,1.4-0.4
						c0.4-0.3,0.5-0.7,0.5-1.3v-0.3h-1V505.8z M577.3,502.3v6.3c0,0.9-0.2,1.6-0.7,2.1s-1.2,0.7-2.1,0.7c-0.5,0-1-0.1-1.5-0.2
						c-0.4-0.1-0.8-0.4-1.2-0.7l0.4-0.8c0.3,0.2,0.6,0.4,1,0.6c0.4,0.1,0.7,0.2,1.1,0.2c0.3,0,0.6-0.1,0.8-0.2s0.4-0.2,0.6-0.4
						c0.2-0.2,0.3-0.4,0.3-0.6c0.1-0.2,0.1-0.5,0.1-0.8v-0.8c-0.1,0.2-0.2,0.3-0.4,0.4s-0.3,0.2-0.5,0.3c-0.2,0.1-0.4,0.1-0.6,0.2
						c-0.2,0-0.4,0.1-0.6,0.1c-0.5,0-0.9-0.1-1.2-0.2s-0.6-0.3-0.8-0.6c-0.2-0.3-0.3-0.6-0.4-0.9c-0.1-0.4-0.1-0.8-0.1-1.2v-3.5h1
						v3.2c0,0.3,0,0.6,0,0.9s0.1,0.5,0.2,0.7c0.1,0.2,0.3,0.4,0.5,0.5s0.5,0.2,0.9,0.2s0.7-0.1,0.9-0.2c0.3-0.2,0.5-0.3,0.6-0.6
						c0.2-0.2,0.3-0.5,0.3-0.8c0.1-0.3,0.1-0.6,0.1-0.9v-3L577.3,502.3L577.3,502.3z"/>
					<path class="st9" d="M642.3,364.9c0-2.2,1.8-4,4-4h16.2c2.2,0,4,1.8,4,4v121.8h-24.2V364.9z"/>
					<path class="st10" d="M674.6,314.6c0-2.2,1.8-4,4-4h16.2c2.2,0,4,1.8,4,4v172h-24.2V314.6z"/>
					<path class="st4" d="M659.6,508.7v-8.5h1.6l2.5,4.7l2.5-4.7h1.5v8.5h-1v-7.4l-2.8,5.2h-0.5l-2.8-5.2v7.4H659.6z M673.8,507.8
						c-0.1,0.2-0.3,0.3-0.5,0.4s-0.4,0.2-0.6,0.3c-0.2,0.1-0.4,0.1-0.6,0.1c-0.2,0-0.4,0-0.6,0c-0.3,0-0.6,0-0.8-0.1
						c-0.3-0.1-0.5-0.2-0.7-0.3c-0.2-0.2-0.4-0.4-0.5-0.6s-0.2-0.5-0.2-0.8c0-0.4,0.1-0.7,0.2-0.9c0.1-0.2,0.3-0.4,0.5-0.6
						s0.5-0.3,0.8-0.3c0.3-0.1,0.6-0.1,0.9-0.1h1.9c0-0.5-0.1-1-0.3-1.3s-0.6-0.5-1.2-0.5c-0.3,0-0.6,0.1-0.9,0.2
						c-0.3,0.1-0.4,0.3-0.5,0.6h-1.1c0.1-0.3,0.2-0.5,0.3-0.7c0.2-0.2,0.4-0.4,0.6-0.5c0.2-0.1,0.5-0.2,0.8-0.3
						c0.3-0.1,0.5-0.1,0.8-0.1c0.5,0,0.9,0.1,1.2,0.2c0.3,0.2,0.6,0.4,0.8,0.6s0.3,0.6,0.4,0.9c0.1,0.4,0.1,0.8,0.1,1.2v3.4h-0.9
						L673.8,507.8z M672.6,505.8c-0.2,0-0.4,0-0.7,0c-0.2,0-0.5,0-0.7,0.1c-0.2,0-0.4,0.1-0.6,0.3c-0.1,0.2-0.2,0.4-0.2,0.6
						s0,0.3,0.1,0.5c0.1,0.1,0.2,0.2,0.3,0.3c0.1,0.1,0.3,0.2,0.4,0.2c0.2,0,0.3,0.1,0.5,0.1c0.6,0,1.1-0.1,1.4-0.4
						c0.4-0.3,0.5-0.7,0.5-1.3v-0.3h-1V505.8z M681.8,502.3v6.3c0,0.9-0.2,1.6-0.7,2.1s-1.2,0.7-2.1,0.7c-0.5,0-1-0.1-1.5-0.2
						c-0.4-0.1-0.8-0.4-1.2-0.7l0.4-0.8c0.3,0.2,0.6,0.4,1,0.6c0.4,0.1,0.7,0.2,1.1,0.2c0.3,0,0.6-0.1,0.8-0.2s0.4-0.2,0.6-0.4
						c0.2-0.2,0.3-0.4,0.3-0.6c0.1-0.2,0.1-0.5,0.1-0.8v-0.8c-0.1,0.2-0.2,0.3-0.4,0.4s-0.3,0.2-0.5,0.3c-0.2,0.1-0.4,0.1-0.6,0.2
						c-0.2,0-0.4,0.1-0.6,0.1c-0.5,0-0.9-0.1-1.2-0.2s-0.6-0.3-0.8-0.6c-0.2-0.3-0.3-0.6-0.4-0.9c-0.1-0.4-0.1-0.8-0.1-1.2v-3.5h1
						v3.2c0,0.3,0,0.6,0,0.9s0.1,0.5,0.2,0.7c0.1,0.2,0.3,0.4,0.5,0.5s0.5,0.2,0.9,0.2s0.7-0.1,0.9-0.2c0.3-0.2,0.5-0.3,0.6-0.6
						c0.2-0.2,0.3-0.5,0.3-0.8c0.1-0.3,0.1-0.6,0.1-0.9v-3L681.8,502.3L681.8,502.3z"/>
					<path class="st7" d="M28.6,35.9c0-4.4,3.6-8,8-8h169v81h-169c-4.4,0-8-3.6-8-8C28.6,100.9,28.6,35.9,28.6,35.9z"/>
					<path class="st10" d="M50.5,47.5c-0.3,0-0.5,0-0.8,0.1c-0.3,0-0.5,0.1-0.7,0.3c-0.2,0.1-0.4,0.3-0.5,0.5s-0.2,0.4-0.2,0.8
						c0,0.4,0.1,0.7,0.3,0.9s0.4,0.4,0.7,0.5c0.2,0.1,0.5,0.2,0.7,0.2s0.5,0.1,0.8,0.2c0.3,0.1,0.5,0.1,0.8,0.2
						c0.3,0.1,0.5,0.1,0.8,0.2c0.6,0.2,1,0.5,1.4,0.8c0.3,0.4,0.5,0.8,0.5,1.4c0,0.6-0.1,1-0.3,1.4s-0.4,0.7-0.8,0.9
						c-0.3,0.2-0.7,0.4-1.1,0.5c-0.4,0.1-0.9,0.2-1.3,0.2c-0.5,0-0.9,0-1.4-0.1c-0.4-0.1-0.8-0.2-1.2-0.5c-0.4-0.2-0.7-0.5-0.9-0.8
						c-0.3-0.3-0.4-0.8-0.5-1.3h1.3c0.1,0.3,0.2,0.6,0.4,0.8s0.4,0.4,0.7,0.5s0.5,0.2,0.8,0.3c0.3,0,0.6,0.1,0.9,0.1
						c0.3,0,0.6,0,0.8-0.1c0.3-0.1,0.5-0.2,0.7-0.3s0.4-0.3,0.5-0.5s0.2-0.5,0.2-0.7c0-0.4-0.1-0.8-0.3-1s-0.5-0.4-0.9-0.5
						c-0.3-0.1-0.5-0.2-0.8-0.2s-0.6-0.1-0.9-0.2s-0.6-0.1-0.9-0.2c-0.3-0.1-0.5-0.2-0.8-0.3c-0.4-0.2-0.7-0.4-0.9-0.8
						c-0.3-0.4-0.4-0.8-0.4-1.4c0-0.5,0.1-1,0.3-1.3c0.2-0.4,0.5-0.6,0.8-0.9c0.3-0.2,0.7-0.4,1.1-0.5c0.4-0.1,0.8-0.1,1.3-0.1
						c0.4,0,0.7,0,1,0.1c0.3,0,0.6,0.1,0.9,0.3c0.4,0.2,0.8,0.5,1,0.8c0.3,0.4,0.4,0.9,0.5,1.4h-1.2c0-0.3-0.1-0.5-0.3-0.7
						c-0.1-0.2-0.3-0.4-0.5-0.5s-0.4-0.2-0.7-0.3C51,47.5,50.8,47.5,50.5,47.5z M56.8,53.2c0,0.3,0.1,0.6,0.2,0.9
						c0.1,0.3,0.3,0.5,0.4,0.7c0.2,0.2,0.4,0.4,0.7,0.5s0.6,0.2,1,0.2c0.2,0,0.4,0,0.5,0c0.2,0,0.4-0.1,0.5-0.2
						c0.2-0.1,0.3-0.2,0.4-0.3c0.1-0.1,0.2-0.3,0.3-0.5H62c-0.1,0.4-0.2,0.7-0.4,0.9c-0.2,0.3-0.4,0.5-0.7,0.6
						c-0.3,0.2-0.6,0.3-0.9,0.4c-0.3,0.1-0.7,0.1-1,0.1c-0.6,0-1.1-0.1-1.5-0.3s-0.8-0.4-1.1-0.8c-0.3-0.3-0.5-0.7-0.6-1.2
						s-0.2-1-0.2-1.5c0-0.6,0.1-1.1,0.2-1.5c0.2-0.5,0.4-0.9,0.7-1.2s0.6-0.6,1.1-0.8c0.4-0.2,0.9-0.3,1.5-0.3s1.1,0.1,1.5,0.4
						c0.4,0.2,0.8,0.5,1,0.9c0.3,0.4,0.4,0.8,0.5,1.2s0.2,0.8,0.1,1.2c0,0.1,0,0.2,0,0.3s0,0.2,0,0.3C62.2,53.2,56.8,53.2,56.8,53.2
						z M61.1,52.1c0-0.6-0.2-1.1-0.6-1.5C60.1,50.2,59.6,50,59,50c-0.3,0-0.6,0.1-0.9,0.2c-0.3,0.1-0.5,0.3-0.7,0.5
						s-0.3,0.4-0.4,0.7c-0.1,0.3-0.2,0.5-0.2,0.8h4.3C61.1,52.2,61.1,52.1,61.1,52.1z M63.9,56.4V49H65l0.1,1.1
						c0.1-0.2,0.3-0.4,0.4-0.5c0.2-0.1,0.4-0.3,0.6-0.4c0.2-0.1,0.4-0.2,0.7-0.2c0.2,0,0.5-0.1,0.7-0.1c0.5,0,1,0.1,1.3,0.3
						c0.4,0.2,0.7,0.4,0.9,0.7c0.2,0.3,0.4,0.7,0.5,1.1c0.1,0.4,0.1,0.9,0.1,1.3v4.1h-1.2v-3.8c0-0.3,0-0.7-0.1-1
						c0-0.3-0.1-0.6-0.3-0.8c-0.1-0.3-0.3-0.5-0.5-0.6S67.8,50,67.4,50s-0.7,0.1-1,0.3s-0.5,0.4-0.7,0.6c-0.2,0.3-0.4,0.6-0.4,1
						c-0.1,0.4-0.1,0.7-0.1,1.1v3.4C65.2,56.4,63.9,56.4,63.9,56.4z M74.1,49h2v1h-2v3.8c0,0.5,0.1,0.9,0.3,1.1
						c0.2,0.2,0.6,0.3,1.1,0.3H76v1h-0.8c-0.8,0-1.4-0.2-1.8-0.6c-0.4-0.4-0.5-1-0.5-1.8v-3.9h-1.2v-1h1.2v-2.2h1.2
						C74.1,46.7,74.1,49,74.1,49z"/>
					<path class="st9" d="M57.2,81.7H59v2.8h-1.8v2.9h-3.1v-2.9h-7.6v-2.2l7-10.4h3.8v9.8C57.3,81.7,57.2,81.7,57.2,81.7z
						 M50.1,81.7h4v-6.2L50.1,81.7z M72.1,83c0,0.8-0.2,1.5-0.6,2.1c-0.3,0.6-0.8,1-1.3,1.4s-1.1,0.6-1.8,0.8
						c-0.7,0.2-1.4,0.2-2.1,0.2s-1.4-0.1-2.1-0.2c-0.7-0.2-1.3-0.4-1.8-0.8s-1-0.8-1.3-1.4s-0.5-1.3-0.5-2.1c0-0.9,0.1-1.7,0.5-2.4
						c0.4-0.7,1-1.2,2-1.6c-0.6-0.3-1.1-0.8-1.4-1.4c-0.3-0.6-0.5-1.2-0.5-1.8c0-0.8,0.1-1.4,0.4-1.9c0.3-0.5,0.7-1,1.2-1.3
						c0.5-0.4,1-0.6,1.7-0.7c0.6-0.1,1.3-0.2,2-0.2s1.3,0.1,2,0.2c0.6,0.2,1.2,0.4,1.7,0.7c0.5,0.3,0.9,0.8,1.1,1.3
						c0.3,0.5,0.4,1.2,0.4,1.9c0,0.6-0.2,1.2-0.5,1.8c-0.3,0.6-0.8,1-1.4,1.4c0.9,0.3,1.6,0.9,1.9,1.6C72,81.3,72.2,82.1,72.1,83z
						 M66.4,74.4c-0.3,0-0.6,0-0.8,0.1c-0.2,0.1-0.5,0.2-0.7,0.4c-0.2,0.1-0.3,0.3-0.5,0.6c-0.1,0.2-0.2,0.5-0.2,0.8
						c0,0.7,0.2,1.2,0.6,1.5s0.9,0.5,1.5,0.5s1.1-0.2,1.5-0.5s0.6-0.8,0.6-1.5c0-0.3-0.1-0.6-0.2-0.8c-0.1-0.2-0.2-0.4-0.4-0.6
						c-0.2-0.2-0.4-0.3-0.7-0.4S66.6,74.4,66.4,74.4z M69,82.7c0-0.4-0.1-0.7-0.2-1s-0.3-0.5-0.6-0.6c-0.2-0.2-0.5-0.3-0.9-0.4
						c-0.3-0.1-0.6-0.1-1-0.1c-0.3,0-0.6,0-1,0.1c-0.3,0.1-0.6,0.2-0.8,0.4c-0.2,0.2-0.4,0.4-0.6,0.7c-0.1,0.3-0.2,0.6-0.2,1
						s0.1,0.7,0.2,1c0.2,0.3,0.4,0.5,0.6,0.7s0.5,0.3,0.8,0.4s0.6,0.1,1,0.1c0.3,0,0.6,0,0.9-0.1s0.6-0.2,0.8-0.4
						c0.2-0.2,0.4-0.4,0.6-0.7C68.9,83.4,69,83.1,69,82.7z M76,87.7c-0.5,0-0.9-0.2-1.3-0.5c-0.3-0.3-0.5-0.8-0.5-1.3
						c0-0.6,0.2-1.1,0.6-1.4s0.9-0.5,1.4-0.5c0.4,0,0.7,0.1,0.9,0.2c0.3,0.1,0.5,0.3,0.7,0.6c0.2,0.2,0.3,0.5,0.4,0.9
						c0.1,0.3,0.1,0.7,0.1,1c0,0.5-0.1,1-0.3,1.5c-0.2,0.5-0.4,1-0.8,1.4c-0.3,0.4-0.7,0.8-1.1,1.1c-0.4,0.3-0.8,0.6-1.3,0.7
						L74,90.3c0.4-0.3,0.8-0.6,1.1-1.1C75.6,88.7,75.8,88.2,76,87.7z M85.8,84.7c0.4,0,0.7,0,1-0.1s0.6-0.2,0.8-0.4
						c0.2-0.2,0.4-0.4,0.5-0.7c0.1-0.3,0.2-0.6,0.2-0.9c0-0.8-0.2-1.4-0.6-1.8c-0.5-0.5-1.1-0.7-1.8-0.7c-0.7,0-1.2,0.2-1.7,0.6
						c-0.4,0.4-0.7,0.9-0.7,1.5c0,0.3,0,0.7,0.1,1s0.3,0.6,0.5,0.8c0.2,0.2,0.5,0.4,0.7,0.6C85.1,84.6,85.4,84.7,85.8,84.7z
						 M88.4,76c-0.1-0.5-0.4-0.9-0.8-1.2c-0.4-0.2-0.9-0.3-1.4-0.3s-1,0.1-1.4,0.4c-0.4,0.2-0.8,0.6-1,1c-0.3,0.4-0.5,0.8-0.6,1.3
						s-0.2,1-0.2,1.5c0.5-0.5,1-0.8,1.6-1.1c0.6-0.2,1.3-0.4,1.9-0.4c1.6,0,2.8,0.5,3.7,1.4c0.9,0.9,1.3,2.1,1.3,3.7
						c0,0.8-0.2,1.5-0.5,2.2s-0.7,1.2-1.2,1.7s-1.1,0.8-1.8,1c-0.7,0.2-1.4,0.3-2.2,0.3c-1.1,0-2-0.2-2.8-0.7
						c-0.7-0.4-1.4-1-1.8-1.7c-0.5-0.7-0.8-1.5-1-2.4s-0.3-1.8-0.3-2.8c0-1.1,0.1-2.3,0.4-3.4s0.8-2.1,1.5-2.9
						c0.5-0.6,1.1-1.1,1.8-1.5c0.7-0.4,1.6-0.6,2.6-0.6c0.7,0,1.4,0.1,2.1,0.3c0.6,0.2,1.2,0.5,1.7,0.9c0.4,0.4,0.8,0.8,1.1,1.3
						c0.3,0.5,0.5,1.2,0.5,1.9L88.4,76L88.4,76z M93.3,76.2c0.1-0.8,0.3-1.5,0.6-2c0.3-0.6,0.7-1,1.2-1.4s1.1-0.7,1.7-0.9
						c0.7-0.2,1.4-0.3,2.2-0.3c0.7,0,1.3,0.1,1.9,0.2s1.1,0.4,1.6,0.7c0.5,0.3,0.9,0.7,1.2,1.3c0.3,0.5,0.5,1.2,0.5,1.9
						c0,0.6-0.2,1.3-0.5,1.8c-0.3,0.6-0.8,1-1.4,1.4c0.9,0.3,1.5,0.8,1.9,1.5s0.6,1.5,0.5,2.4c0,0.9-0.2,1.6-0.5,2.2
						s-0.8,1.1-1.3,1.5s-1.1,0.6-1.8,0.8c-0.7,0.2-1.4,0.3-2.2,0.3c-1.7,0-3-0.4-4.1-1.1s-1.7-1.9-1.9-3.6H96
						c0.1,0.4,0.2,0.7,0.4,0.9c0.2,0.2,0.4,0.4,0.7,0.6c0.3,0.1,0.5,0.2,0.8,0.3c0.3,0,0.6,0.1,0.9,0.1c0.4,0,0.7,0,1-0.1
						s0.6-0.2,0.9-0.4c0.2-0.2,0.4-0.4,0.6-0.6c0.1-0.3,0.2-0.6,0.2-1c0-0.3-0.1-0.6-0.2-0.8c-0.1-0.2-0.3-0.4-0.5-0.6
						c-0.3-0.2-0.6-0.3-0.9-0.3c-0.3-0.1-0.6-0.1-1-0.1h-1.6v-2.6h1.1c0.4,0,0.7,0,1-0.1s0.6-0.3,0.8-0.5c0.2-0.2,0.3-0.3,0.4-0.5
						s0.2-0.5,0.2-0.8c0-0.4-0.1-0.6-0.2-0.9c-0.1-0.2-0.3-0.4-0.5-0.6c-0.2-0.1-0.4-0.2-0.7-0.3s-0.6-0.1-0.9-0.1
						c-0.6,0-1,0.1-1.5,0.4c-0.4,0.3-0.7,0.7-0.8,1.3C96.2,76.2,93.3,76.2,93.3,76.2z M110.5,81.2c0.4-0.3,0.7-0.6,1.1-0.9
						s0.7-0.7,1.1-1.1c0.3-0.3,0.6-0.7,0.9-1.1c0.2-0.4,0.4-0.8,0.4-1.3c0-0.8-0.2-1.4-0.6-1.7c-0.4-0.4-1-0.6-1.8-0.5
						c-0.7,0-1.2,0.2-1.6,0.5s-0.6,0.7-0.7,1.3h-3c0-0.9,0.2-1.6,0.6-2.2s0.9-1.2,1.6-1.5c0.5-0.3,1-0.5,1.5-0.6
						c0.6-0.1,1.1-0.2,1.8-0.2c1.7,0,3,0.4,3.9,1.3c0.4,0.4,0.7,0.9,1,1.4c0.2,0.6,0.4,1.2,0.4,2c0,0.6-0.1,1.1-0.2,1.6
						s-0.3,1-0.6,1.4c-0.2,0.3-0.4,0.6-0.6,0.8c-0.2,0.2-0.4,0.5-0.6,0.7s-0.4,0.4-0.6,0.6s-0.5,0.4-0.7,0.7
						c-0.5,0.5-1.1,0.9-1.6,1.3s-0.9,0.8-1.4,1.2h6.1v2.8h-10.5v-2.6L110.5,81.2z"/>
					<path class="st7" d="M559.6,27.9h169c4.4,0,8,3.6,8,8v65c0,4.4-3.6,8-8,8h-169V27.9z"/>
					<path class="st11" d="M582.1,47.5c-0.6,0-1.1,0.1-1.5,0.3s-0.8,0.5-1,0.9c-0.3,0.4-0.5,0.8-0.6,1.3s-0.2,1-0.2,1.5
						c0,0.6,0.1,1.1,0.2,1.6c0.1,0.5,0.3,0.9,0.6,1.3c0.3,0.4,0.6,0.6,1,0.9c0.4,0.2,0.9,0.3,1.5,0.3c0.7,0,1.3-0.1,1.8-0.4
						s0.8-0.7,0.9-1.2h1.3c-0.2,0.8-0.7,1.5-1.4,2s-1.6,0.7-2.7,0.7c-0.8,0-1.4-0.1-2-0.4c-0.6-0.3-1-0.6-1.4-1s-0.7-1-0.8-1.6
						c-0.2-0.6-0.3-1.3-0.3-2s0.1-1.4,0.3-2s0.5-1.1,0.9-1.6s0.9-0.8,1.4-1.1c0.6-0.3,1.2-0.4,2-0.4c0.5,0,1,0.1,1.5,0.2
						c0.4,0.1,0.8,0.3,1.1,0.6c0.3,0.2,0.6,0.5,0.8,0.9c0.2,0.3,0.4,0.7,0.4,1.1h-1.2c-0.1-0.5-0.4-0.9-0.9-1.2
						C583.3,47.6,582.8,47.5,582.1,47.5z M590.9,48.9c0.6,0,1.1,0.1,1.5,0.3s0.8,0.4,1.1,0.8c0.3,0.3,0.5,0.7,0.7,1.2
						c0.1,0.5,0.2,1,0.2,1.5c0,0.6-0.1,1.1-0.2,1.5c-0.1,0.5-0.4,0.9-0.7,1.2s-0.7,0.6-1.1,0.8c-0.4,0.2-1,0.3-1.5,0.3
						c-0.6,0-1.1-0.1-1.5-0.3s-0.8-0.4-1.1-0.8c-0.3-0.3-0.5-0.7-0.7-1.2c-0.1-0.5-0.2-1-0.2-1.5c0-0.6,0.1-1.1,0.2-1.5
						c0.1-0.5,0.4-0.9,0.7-1.2s0.7-0.6,1.1-0.8S590.3,48.9,590.9,48.9z M590.9,55.4c0.4,0,0.7-0.1,1-0.2c0.3-0.1,0.5-0.3,0.7-0.6
						s0.3-0.5,0.4-0.9c0.1-0.3,0.1-0.7,0.1-1.1c0-0.4,0-0.7-0.1-1s-0.2-0.6-0.4-0.9c-0.2-0.3-0.4-0.4-0.7-0.6
						c-0.3-0.1-0.6-0.2-1-0.2s-0.7,0.1-1,0.2c-0.3,0.1-0.5,0.3-0.7,0.6c-0.2,0.2-0.3,0.5-0.4,0.9c-0.1,0.3-0.1,0.7-0.1,1
						c0,0.4,0,0.7,0.1,1.1c0.1,0.3,0.2,0.6,0.4,0.9c0.2,0.2,0.4,0.4,0.7,0.6S590.5,55.4,590.9,55.4z M596,56.4V49h1.1l0.1,1.1
						c0.1-0.2,0.3-0.4,0.4-0.5c0.2-0.1,0.4-0.3,0.6-0.4c0.2-0.1,0.4-0.2,0.7-0.2c0.2,0,0.5-0.1,0.7-0.1c0.5,0,1,0.1,1.3,0.3
						c0.4,0.2,0.7,0.4,0.9,0.7s0.4,0.7,0.5,1.1c0.1,0.4,0.1,0.9,0.1,1.3v4.1h-1.2v-3.8c0-0.3,0-0.7-0.1-1c0-0.3-0.1-0.6-0.3-0.8
						c-0.1-0.3-0.3-0.5-0.5-0.6s-0.5-0.2-0.9-0.2s-0.7,0.1-1,0.3s-0.5,0.4-0.7,0.6c-0.2,0.3-0.4,0.6-0.4,1c-0.1,0.4-0.1,0.7-0.1,1.1
						v3.4C597.2,56.4,596,56.4,596,56.4z M603.4,49h1.3l2.3,6.2l2.3-6.2h1.4l-2.8,7.4h-1.6L603.4,49z M612.7,53.2
						c0,0.3,0.1,0.6,0.2,0.9c0.1,0.3,0.3,0.5,0.4,0.7c0.2,0.2,0.4,0.4,0.7,0.5s0.6,0.2,1,0.2c0.2,0,0.4,0,0.5,0
						c0.2,0,0.4-0.1,0.5-0.2c0.2-0.1,0.3-0.2,0.4-0.3c0.1-0.1,0.2-0.3,0.3-0.5h1.2c-0.1,0.4-0.2,0.7-0.4,0.9
						c-0.2,0.3-0.4,0.5-0.7,0.6c-0.3,0.2-0.6,0.3-0.9,0.4c-0.3,0.1-0.7,0.1-1,0.1c-0.6,0-1.1-0.1-1.5-0.3s-0.8-0.4-1.1-0.8
						c-0.3-0.3-0.5-0.7-0.6-1.2s-0.2-1-0.2-1.5c0-0.6,0.1-1.1,0.2-1.5c0.2-0.5,0.4-0.9,0.7-1.2s0.6-0.6,1.1-0.8
						c0.4-0.2,0.9-0.3,1.5-0.3s1.1,0.1,1.5,0.4c0.4,0.2,0.8,0.5,1,0.9c0.3,0.4,0.4,0.8,0.5,1.2s0.2,0.8,0.1,1.2c0,0.1,0,0.2,0,0.3
						s0,0.2,0,0.3C618.1,53.2,612.7,53.2,612.7,53.2z M617,52.1c0-0.6-0.2-1.1-0.6-1.5c-0.4-0.4-0.9-0.6-1.5-0.6
						c-0.3,0-0.6,0.1-0.9,0.2c-0.3,0.1-0.5,0.3-0.7,0.5s-0.3,0.4-0.4,0.7c-0.1,0.3-0.2,0.5-0.2,0.8h4.3L617,52.1L617,52.1z
						 M619.8,56.4V49h1.1l0.1,1.1c0.3-0.4,0.6-0.7,1-0.9s0.9-0.3,1.4-0.3h0.4V50h-0.4c-0.4,0-0.8,0.1-1.1,0.2
						c-0.3,0.1-0.6,0.3-0.8,0.6c-0.2,0.2-0.3,0.5-0.4,0.9c-0.1,0.3-0.1,0.7-0.1,1.1v3.6C621,56.4,619.8,56.4,619.8,56.4z M627.5,50
						c-0.2,0-0.3,0-0.5,0s-0.3,0.1-0.5,0.1c-0.2,0.1-0.3,0.2-0.4,0.3c-0.1,0.1-0.2,0.3-0.2,0.5c0,0.3,0.1,0.6,0.3,0.7
						c0.2,0.2,0.6,0.3,0.9,0.4c0.2,0,0.3,0.1,0.5,0.1s0.4,0.1,0.5,0.1c0.2,0,0.4,0.1,0.5,0.1c0.2,0,0.3,0.1,0.4,0.1
						c0.9,0.3,1.3,0.9,1.3,1.8c0,0.4-0.1,0.8-0.3,1.1s-0.4,0.5-0.7,0.6c-0.3,0.2-0.6,0.3-0.9,0.3c-0.3,0.1-0.7,0.1-1,0.1
						s-0.7,0-1-0.1s-0.7-0.2-1-0.3c-0.3-0.2-0.5-0.4-0.7-0.6c-0.2-0.3-0.3-0.6-0.4-1h1.2c0.1,0.2,0.2,0.4,0.3,0.5s0.3,0.2,0.5,0.3
						s0.4,0.1,0.5,0.2c0.2,0,0.4,0,0.6,0c0.1,0,0.3,0,0.5,0s0.4-0.1,0.6-0.1c0.2-0.1,0.3-0.2,0.4-0.3c0.1-0.1,0.2-0.3,0.2-0.6
						s-0.1-0.5-0.3-0.6s-0.4-0.2-0.7-0.3c-0.2,0-0.5-0.1-0.7-0.1s-0.5-0.1-0.7-0.1c-0.2-0.1-0.5-0.1-0.7-0.2
						c-0.2-0.1-0.4-0.2-0.6-0.3c-0.3-0.2-0.5-0.4-0.6-0.6c-0.2-0.3-0.2-0.6-0.2-1s0.1-0.7,0.3-1s0.4-0.5,0.6-0.7
						c0.3-0.2,0.6-0.3,0.9-0.4s0.7-0.1,1-0.1c0.8,0,1.4,0.2,1.8,0.5c0.3,0.2,0.5,0.4,0.6,0.7s0.2,0.5,0.3,0.8H629
						c-0.1-0.3-0.2-0.5-0.5-0.7C628.3,50.1,627.9,50,627.5,50z M632.7,46.3c0.2,0,0.4,0.1,0.6,0.2c0.2,0.1,0.2,0.3,0.2,0.6
						s-0.1,0.4-0.2,0.6s-0.4,0.2-0.6,0.2c-0.2,0-0.4-0.1-0.6-0.2s-0.2-0.3-0.2-0.6s0.1-0.4,0.2-0.6
						C632.2,46.4,632.4,46.3,632.7,46.3z M632.1,56.4V49h1.2v7.4H632.1z M638.5,48.9c0.6,0,1.1,0.1,1.5,0.3s0.8,0.4,1.1,0.8
						c0.3,0.3,0.5,0.7,0.7,1.2c0.1,0.5,0.2,1,0.2,1.5c0,0.6-0.1,1.1-0.2,1.5c-0.1,0.5-0.4,0.9-0.7,1.2s-0.7,0.6-1.1,0.8
						c-0.4,0.2-1,0.3-1.5,0.3c-0.6,0-1.1-0.1-1.5-0.3s-0.8-0.4-1.1-0.8c-0.3-0.3-0.5-0.7-0.7-1.2c-0.1-0.5-0.2-1-0.2-1.5
						c0-0.6,0.1-1.1,0.2-1.5c0.1-0.5,0.4-0.9,0.7-1.2s0.7-0.6,1.1-0.8C637.4,49,637.9,48.9,638.5,48.9z M638.5,55.4
						c0.4,0,0.7-0.1,1-0.2c0.3-0.1,0.5-0.3,0.7-0.6s0.3-0.5,0.4-0.9c0.1-0.3,0.1-0.7,0.1-1.1c0-0.4,0-0.7-0.1-1s-0.2-0.6-0.4-0.9
						c-0.2-0.3-0.4-0.4-0.7-0.6c-0.3-0.1-0.6-0.2-1-0.2s-0.7,0.1-1,0.2c-0.3,0.1-0.5,0.3-0.7,0.6c-0.2,0.2-0.3,0.5-0.4,0.9
						c-0.1,0.3-0.1,0.7-0.1,1c0,0.4,0,0.7,0.1,1.1c0.1,0.3,0.2,0.6,0.4,0.9c0.2,0.2,0.4,0.4,0.7,0.6
						C637.7,55.4,638.1,55.4,638.5,55.4z M643.6,56.4V49h1.1l0.1,1.1c0.1-0.2,0.3-0.4,0.4-0.5c0.2-0.1,0.4-0.3,0.6-0.4
						c0.2-0.1,0.4-0.2,0.7-0.2c0.2,0,0.5-0.1,0.7-0.1c0.5,0,1,0.1,1.3,0.3c0.4,0.2,0.7,0.4,0.9,0.7s0.4,0.7,0.5,1.1
						c0.1,0.4,0.1,0.9,0.1,1.3v4.1h-1.2v-3.8c0-0.3,0-0.7-0.1-1c0-0.3-0.1-0.6-0.3-0.8c-0.1-0.3-0.3-0.5-0.5-0.6S647.4,50,647,50
						s-0.7,0.1-1,0.3s-0.5,0.4-0.7,0.6c-0.2,0.3-0.4,0.6-0.4,1c-0.1,0.4-0.1,0.7-0.1,1.1v3.4C644.8,56.4,643.6,56.4,643.6,56.4z"/>
					<path class="st9" d="M588.2,81.7h1.8v2.8h-1.8v2.9h-3.1v-2.9h-7.6v-2.2l7-10.4h3.8v9.8C588.3,81.7,588.2,81.7,588.2,81.7z
						 M581.1,81.7h4v-6.2L581.1,81.7z M603.1,83c0,0.8-0.2,1.5-0.6,2.1c-0.3,0.6-0.8,1-1.3,1.4s-1.1,0.6-1.8,0.8
						c-0.7,0.2-1.4,0.2-2.1,0.2c-0.7,0-1.4-0.1-2.1-0.2c-0.7-0.2-1.3-0.4-1.8-0.8s-1-0.8-1.3-1.4s-0.5-1.3-0.5-2.1
						c0-0.9,0.1-1.7,0.5-2.4c0.4-0.7,1-1.2,2-1.6c-0.6-0.3-1.1-0.8-1.4-1.4c-0.3-0.6-0.5-1.2-0.5-1.8c0-0.8,0.1-1.4,0.4-1.9
						c0.3-0.5,0.7-1,1.2-1.3c0.5-0.4,1-0.6,1.7-0.7c0.6-0.1,1.3-0.2,2-0.2s1.3,0.1,2,0.2c0.6,0.2,1.2,0.4,1.6,0.7
						c0.5,0.3,0.9,0.8,1.1,1.3c0.3,0.5,0.4,1.2,0.4,1.9c0,0.6-0.2,1.2-0.5,1.8c-0.3,0.6-0.8,1-1.4,1.4c0.9,0.3,1.6,0.9,1.9,1.6
						C603,81.3,603.2,82.1,603.1,83z M597.4,74.4c-0.3,0-0.6,0-0.8,0.1s-0.5,0.2-0.7,0.4c-0.2,0.1-0.3,0.3-0.5,0.6
						c-0.1,0.2-0.2,0.5-0.2,0.8c0,0.7,0.2,1.2,0.6,1.5c0.4,0.3,0.9,0.5,1.5,0.5s1.1-0.2,1.5-0.5s0.6-0.8,0.6-1.5
						c0-0.3-0.1-0.6-0.2-0.8c-0.1-0.2-0.2-0.4-0.4-0.6s-0.4-0.3-0.7-0.4C597.9,74.4,597.6,74.4,597.4,74.4z M600,82.7
						c0-0.4-0.1-0.7-0.2-1c-0.1-0.3-0.3-0.5-0.6-0.6c-0.2-0.2-0.5-0.3-0.9-0.4c-0.3-0.1-0.6-0.1-1-0.1c-0.3,0-0.6,0-1,0.1
						c-0.3,0.1-0.6,0.2-0.8,0.4c-0.2,0.2-0.4,0.4-0.6,0.7c-0.1,0.3-0.2,0.6-0.2,1s0.1,0.7,0.2,1c0.2,0.3,0.4,0.5,0.6,0.7
						c0.2,0.2,0.5,0.3,0.8,0.4s0.6,0.1,1,0.1c0.3,0,0.6,0,0.9-0.1c0.3-0.1,0.6-0.2,0.8-0.4c0.2-0.2,0.4-0.4,0.6-0.7
						C599.9,83.4,600,83.1,600,82.7z M607.1,83.7c0.6,0,1,0.2,1.4,0.5s0.5,0.8,0.5,1.4s-0.2,1.1-0.5,1.4c-0.4,0.3-0.8,0.5-1.4,0.5
						c-0.6,0-1-0.2-1.4-0.5s-0.5-0.8-0.5-1.4s0.2-1.1,0.5-1.4C606,83.9,606.5,83.7,607.1,83.7z M622.8,83c0,0.8-0.2,1.5-0.5,2.1
						s-0.8,1-1.3,1.4s-1.1,0.6-1.8,0.8c-0.7,0.2-1.4,0.2-2.1,0.2c-0.7,0-1.4-0.1-2.1-0.2c-0.7-0.2-1.3-0.4-1.8-0.8s-1-0.8-1.3-1.4
						s-0.5-1.3-0.5-2.1c0-0.9,0.1-1.7,0.5-2.4c0.4-0.7,1-1.2,2-1.6c-0.6-0.3-1.1-0.8-1.4-1.4s-0.5-1.2-0.5-1.8
						c0-0.8,0.1-1.4,0.4-1.9c0.3-0.5,0.7-1,1.2-1.3c0.5-0.4,1-0.6,1.7-0.7c0.6-0.1,1.3-0.2,2-0.2s1.3,0.1,2,0.2
						c0.6,0.2,1.2,0.4,1.6,0.7c0.5,0.3,0.9,0.8,1.1,1.3c0.3,0.5,0.4,1.2,0.4,1.9c0,0.6-0.2,1.2-0.5,1.8c-0.3,0.6-0.8,1-1.4,1.4
						c0.9,0.3,1.6,0.9,1.9,1.6C622.6,81.3,622.8,82.1,622.8,83z M617,74.4c-0.3,0-0.6,0-0.8,0.1s-0.5,0.2-0.7,0.4
						c-0.2,0.1-0.3,0.3-0.5,0.6c-0.1,0.2-0.2,0.5-0.2,0.8c0,0.7,0.2,1.2,0.6,1.5c0.4,0.3,0.9,0.5,1.5,0.5s1.1-0.2,1.5-0.5
						s0.6-0.8,0.6-1.5c0-0.3-0.1-0.6-0.2-0.8c-0.1-0.2-0.2-0.4-0.4-0.6s-0.4-0.3-0.7-0.4C617.5,74.4,617.2,74.4,617,74.4z
						 M619.6,82.7c0-0.4-0.1-0.7-0.2-1c-0.1-0.3-0.3-0.5-0.6-0.6c-0.2-0.2-0.5-0.3-0.9-0.4c-0.3-0.1-0.6-0.1-1-0.1
						c-0.3,0-0.6,0-1,0.1c-0.3,0.1-0.6,0.2-0.8,0.4c-0.2,0.2-0.4,0.4-0.6,0.7c-0.1,0.3-0.2,0.6-0.2,1s0.1,0.7,0.2,1
						c0.2,0.3,0.4,0.5,0.6,0.7c0.2,0.2,0.5,0.3,0.8,0.4s0.6,0.1,1,0.1s0.6,0,0.9-0.1c0.3-0.1,0.6-0.2,0.8-0.4
						c0.2-0.2,0.4-0.4,0.6-0.7C619.5,83.4,619.6,83.1,619.6,82.7z M630.4,74.5c-0.7,0-1.3,0.2-1.8,0.5c-0.5,0.4-0.7,1-0.7,1.7
						c0,0.4,0,0.7,0.2,1.1c0.1,0.3,0.3,0.6,0.5,0.8c0.2,0.2,0.5,0.4,0.8,0.5s0.6,0.2,1,0.2c0.7,0,1.2-0.2,1.7-0.6s0.7-0.9,0.7-1.6
						c0-0.3,0-0.6-0.1-0.9s-0.2-0.6-0.4-0.8c-0.2-0.2-0.5-0.4-0.8-0.6C631.1,74.6,630.8,74.5,630.4,74.5z M627.9,83.2
						c0.1,0.5,0.4,0.9,0.9,1.2c0.5,0.2,0.9,0.3,1.5,0.3s1-0.1,1.4-0.4c0.4-0.2,0.7-0.5,0.9-0.9c0.3-0.4,0.5-0.9,0.6-1.5
						s0.2-1,0.1-1.4c-0.5,0.5-1,0.8-1.6,1.1c-0.6,0.2-1.3,0.3-1.9,0.3c-0.8,0-1.5-0.1-2.1-0.4c-0.6-0.2-1.2-0.6-1.6-1
						c-0.4-0.4-0.8-1-1-1.6s-0.3-1.3-0.3-2.1c0-0.8,0.2-1.5,0.5-2.2c0.3-0.6,0.7-1.2,1.2-1.6s1.1-0.8,1.8-1s1.4-0.4,2.2-0.4
						c1,0,1.8,0.2,2.5,0.6s1.3,0.9,1.8,1.5c0.6,0.7,1,1.6,1.2,2.5c0.2,1,0.4,2,0.4,3c0,0.9,0,1.8-0.2,2.7c-0.1,0.9-0.4,1.7-0.8,2.4
						c-0.5,0.9-1.1,1.7-1.9,2.2c-0.8,0.6-1.9,0.9-3.1,0.9c-0.7,0-1.5-0.1-2.1-0.3s-1.2-0.5-1.7-0.9c-0.4-0.4-0.8-0.8-1.1-1.3
						s-0.5-1.1-0.6-1.8h3L627.9,83.2L627.9,83.2z M651.4,87.7c-0.6,0-1.2-0.1-1.6-0.3c-0.5-0.2-0.8-0.5-1.2-0.8
						c-0.3-0.4-0.6-0.8-0.7-1.2c-0.2-0.5-0.2-1-0.2-1.5c0-0.6,0.1-1.1,0.2-1.5c0.2-0.5,0.4-0.9,0.7-1.2c0.3-0.3,0.7-0.6,1.2-0.8
						c0.5-0.2,1-0.3,1.6-0.3s1.2,0.1,1.6,0.3c0.5,0.2,0.9,0.5,1.2,0.8s0.6,0.7,0.7,1.2c0.2,0.5,0.3,1,0.3,1.5s-0.1,1-0.3,1.5
						s-0.4,0.9-0.7,1.2c-0.3,0.3-0.7,0.6-1.2,0.8C652.6,87.6,652.1,87.7,651.4,87.7z M642.1,79.1c-0.6,0-1.2-0.1-1.6-0.3
						c-0.5-0.2-0.9-0.5-1.2-0.8c-0.3-0.4-0.6-0.8-0.7-1.2c-0.2-0.5-0.2-1-0.2-1.5c0-0.6,0.1-1.1,0.2-1.5c0.2-0.5,0.4-0.9,0.7-1.2
						c0.3-0.3,0.7-0.6,1.2-0.8c0.5-0.2,1-0.3,1.6-0.3s1.1,0.1,1.6,0.3c0.5,0.2,0.9,0.5,1.2,0.8s0.6,0.7,0.7,1.2
						c0.2,0.5,0.2,1,0.2,1.5s-0.1,1-0.2,1.5c-0.2,0.5-0.4,0.9-0.7,1.2c-0.3,0.3-0.7,0.6-1.2,0.8C643.3,79,642.7,79.1,642.1,79.1z
						 M640.2,87.4l10-15.6h3.1l-10,15.6H640.2z M642.1,73.8c-0.5,0-0.9,0.2-1.1,0.5c-0.2,0.3-0.3,0.7-0.3,1.1s0.1,0.8,0.3,1.1
						c0.2,0.3,0.6,0.4,1.1,0.4s0.8-0.2,1-0.5s0.3-0.7,0.3-1.1s-0.1-0.8-0.3-1.1C643,73.9,642.6,73.8,642.1,73.8z M651.4,82.4
						c-0.5,0-0.8,0.2-1,0.5s-0.3,0.7-0.3,1.1s0.1,0.8,0.3,1.1c0.2,0.3,0.6,0.4,1.1,0.4s0.9-0.2,1-0.5c0.2-0.3,0.3-0.7,0.3-1.1
						s-0.1-0.8-0.3-1.1C652.3,82.5,652,82.4,651.4,82.4z"/>
					<rect x="205.6" y="27.9" class="st7" width="177" height="81"/>
					<path class="st11" d="M228.2,56.5c-0.8,0-1.5-0.1-2-0.4c-0.6-0.3-1.1-0.6-1.5-1.1c-0.4-0.4-0.7-1-0.9-1.6s-0.3-1.3-0.3-2
						s0.1-1.4,0.3-2s0.5-1.2,0.9-1.6c0.4-0.4,0.9-0.8,1.5-1c0.6-0.3,1.3-0.4,2-0.4c0.8,0,1.4,0.1,2,0.4c0.6,0.3,1.1,0.6,1.5,1
						s0.7,1,0.9,1.6s0.3,1.3,0.3,2s-0.1,1.4-0.3,2s-0.5,1.1-0.9,1.6c-0.4,0.4-0.9,0.8-1.5,1.1C229.6,56.4,228.9,56.5,228.2,56.5z
						 M228.2,47.5c-0.6,0-1.1,0.1-1.5,0.3s-0.8,0.5-1.1,0.9s-0.5,0.8-0.6,1.3s-0.2,1-0.2,1.5s0.1,1,0.2,1.5c0.1,0.5,0.4,0.9,0.6,1.3
						c0.3,0.4,0.6,0.7,1.1,0.9c0.4,0.2,1,0.3,1.5,0.3c0.6,0,1.1-0.1,1.5-0.3s0.8-0.5,1.1-0.9s0.5-0.8,0.6-1.3s0.2-1,0.2-1.5
						s-0.1-1-0.2-1.5c-0.1-0.5-0.3-0.9-0.6-1.3c-0.3-0.4-0.6-0.6-1.1-0.9C229.3,47.6,228.8,47.5,228.2,47.5z M234.4,59.1V49h1.1
						l0.1,1.1c0.3-0.4,0.6-0.7,1-0.9s0.9-0.3,1.4-0.3c0.6,0,1.1,0.1,1.4,0.3c0.4,0.2,0.7,0.5,1,0.8s0.5,0.7,0.6,1.2s0.2,1,0.2,1.5
						s-0.1,1-0.2,1.5c-0.1,0.5-0.3,0.9-0.6,1.2s-0.6,0.6-1,0.8s-0.9,0.3-1.5,0.3s-1-0.1-1.4-0.3s-0.7-0.4-1-0.7v3.6
						C235.5,59.1,234.4,59.1,234.4,59.1z M237.9,55.4c0.4,0,0.7-0.1,1-0.2c0.3-0.1,0.5-0.3,0.7-0.6s0.3-0.5,0.4-0.9
						c0.1-0.3,0.1-0.7,0.1-1.1c0-0.4,0-0.7-0.1-1s-0.2-0.6-0.4-0.9c-0.2-0.2-0.4-0.4-0.7-0.6c-0.3-0.1-0.6-0.2-1-0.2
						c-0.5,0-0.9,0.1-1.2,0.4c-0.3,0.3-0.6,0.6-0.8,1c-0.1,0.2-0.2,0.4-0.2,0.7c0,0.2-0.1,0.5-0.1,0.7c0,0.3,0,0.5,0.1,0.8
						c0,0.2,0.1,0.5,0.2,0.7c0.2,0.4,0.4,0.7,0.8,0.9C237,55.3,237.4,55.4,237.9,55.4z M243.8,53.2c0,0.3,0.1,0.6,0.2,0.9
						c0.1,0.3,0.3,0.5,0.4,0.7c0.2,0.2,0.4,0.4,0.7,0.5s0.6,0.2,1,0.2c0.2,0,0.4,0,0.5,0c0.2,0,0.4-0.1,0.5-0.2
						c0.2-0.1,0.3-0.2,0.4-0.3c0.1-0.1,0.2-0.3,0.3-0.5h1.2c-0.1,0.4-0.2,0.7-0.4,0.9c-0.2,0.3-0.4,0.5-0.7,0.6
						c-0.3,0.2-0.6,0.3-0.9,0.4c-0.3,0.1-0.7,0.1-1,0.1c-0.6,0-1.1-0.1-1.5-0.3s-0.8-0.4-1.1-0.8c-0.3-0.3-0.5-0.7-0.6-1.2
						s-0.2-1-0.2-1.5c0-0.6,0.1-1.1,0.2-1.5c0.2-0.5,0.4-0.9,0.7-1.2s0.6-0.6,1.1-0.8c0.4-0.2,0.9-0.3,1.5-0.3s1.1,0.1,1.5,0.4
						c0.4,0.2,0.8,0.5,1,0.9c0.3,0.4,0.4,0.8,0.5,1.2s0.2,0.8,0.1,1.2c0,0.1,0,0.2,0,0.3s0,0.2,0,0.3
						C249.2,53.2,243.8,53.2,243.8,53.2z M248.1,52.1c0-0.6-0.2-1.1-0.6-1.5c-0.4-0.4-0.9-0.6-1.5-0.6c-0.3,0-0.6,0.1-0.9,0.2
						c-0.3,0.1-0.5,0.3-0.7,0.5s-0.3,0.4-0.4,0.7c-0.1,0.3-0.2,0.5-0.2,0.8h4.3L248.1,52.1L248.1,52.1z M250.9,56.4V49h1.1l0.1,1.1
						c0.1-0.2,0.3-0.4,0.4-0.5c0.2-0.1,0.4-0.3,0.6-0.4c0.2-0.1,0.4-0.2,0.7-0.2c0.2,0,0.5-0.1,0.7-0.1c0.5,0,1,0.1,1.3,0.3
						c0.4,0.2,0.7,0.4,0.9,0.7s0.4,0.7,0.5,1.1c0.1,0.4,0.1,0.9,0.1,1.3v4.1h-1.2v-3.8c0-0.3,0-0.7-0.1-1c0-0.3-0.1-0.6-0.3-0.8
						c-0.1-0.3-0.3-0.5-0.5-0.6s-0.5-0.2-0.9-0.2s-0.7,0.1-1,0.3s-0.5,0.4-0.7,0.6c-0.2,0.3-0.4,0.6-0.4,1c-0.1,0.4-0.1,0.7-0.1,1.1
						v3.4C252.1,56.4,250.9,56.4,250.9,56.4z"/>
					<path class="st9" d="M223.7,76.2c0.1-0.8,0.3-1.5,0.6-2c0.3-0.6,0.7-1,1.2-1.4s1.1-0.7,1.7-0.9c0.7-0.2,1.4-0.3,2.2-0.3
						c0.7,0,1.3,0.1,1.9,0.2c0.6,0.1,1.1,0.4,1.6,0.7c0.5,0.3,0.9,0.7,1.2,1.3c0.3,0.5,0.5,1.2,0.5,1.9c0,0.6-0.2,1.3-0.5,1.8
						c-0.3,0.6-0.8,1-1.4,1.4c0.9,0.3,1.5,0.8,1.9,1.5s0.6,1.5,0.6,2.4s-0.2,1.6-0.6,2.2c-0.3,0.6-0.8,1.1-1.3,1.5s-1.1,0.6-1.8,0.8
						c-0.7,0.2-1.4,0.3-2.2,0.3c-1.7,0-3-0.4-4.1-1.1s-1.7-1.9-1.9-3.6h3.1c0.1,0.4,0.2,0.7,0.4,0.9c0.2,0.2,0.4,0.4,0.7,0.6
						c0.3,0.1,0.5,0.2,0.8,0.3c0.3,0,0.6,0.1,0.9,0.1c0.4,0,0.7,0,1-0.1s0.6-0.2,0.9-0.4c0.2-0.2,0.4-0.4,0.6-0.6
						c0.1-0.3,0.2-0.6,0.2-1c0-0.3-0.1-0.6-0.2-0.8c-0.1-0.2-0.3-0.4-0.5-0.6c-0.3-0.2-0.6-0.3-0.9-0.3c-0.3-0.1-0.6-0.1-1-0.1h-1.6
						v-2.6h1.1c0.4,0,0.7,0,1-0.1s0.6-0.3,0.8-0.5s0.3-0.3,0.4-0.5c0.1-0.2,0.2-0.5,0.2-0.8c0-0.4-0.1-0.6-0.2-0.9
						c-0.1-0.2-0.3-0.4-0.5-0.6c-0.2-0.1-0.4-0.2-0.7-0.3c-0.3-0.1-0.6-0.1-0.9-0.1c-0.6,0-1,0.1-1.5,0.4c-0.4,0.3-0.7,0.7-0.8,1.3
						C226.6,76.2,223.7,76.2,223.7,76.2z M247.6,81.7h1.8v2.8h-1.8v2.9h-3.1v-2.9h-7.6v-2.2l7-10.4h3.8L247.6,81.7L247.6,81.7z
						 M240.5,81.7h4v-6.2L240.5,81.7z M253.3,87.7c-0.5,0-0.9-0.2-1.3-0.5c-0.3-0.3-0.5-0.8-0.5-1.3c0-0.6,0.2-1.1,0.6-1.4
						c0.4-0.3,0.9-0.5,1.4-0.5c0.4,0,0.7,0.1,0.9,0.2c0.3,0.1,0.5,0.3,0.7,0.6c0.2,0.2,0.3,0.5,0.4,0.9c0.1,0.3,0.1,0.7,0.1,1
						c0,0.5-0.1,1-0.3,1.5s-0.4,1-0.8,1.4c-0.3,0.4-0.7,0.8-1.1,1.1c-0.4,0.3-0.8,0.6-1.3,0.7l-0.8-1.1c0.4-0.3,0.8-0.6,1.1-1.1
						C253,88.7,253.2,88.2,253.3,87.7z M268.3,81.7h1.8v2.8h-1.8v2.9h-3.1v-2.9h-7.6v-2.2l7-10.4h3.8L268.3,81.7L268.3,81.7z
						 M261.2,81.7h4v-6.2L261.2,81.7z M283.2,83c0,0.8-0.2,1.5-0.5,2.1s-0.8,1-1.3,1.4s-1.1,0.6-1.8,0.8c-0.7,0.2-1.4,0.2-2.1,0.2
						s-1.4-0.1-2.1-0.2c-0.7-0.2-1.3-0.4-1.8-0.8s-1-0.8-1.3-1.4s-0.5-1.3-0.5-2.1c0-0.9,0.1-1.7,0.5-2.4c0.4-0.7,1-1.2,2-1.6
						c-0.6-0.3-1.1-0.8-1.4-1.4s-0.5-1.2-0.5-1.8c0-0.8,0.1-1.4,0.4-1.9s0.7-1,1.2-1.3c0.5-0.4,1-0.6,1.7-0.7c0.6-0.1,1.3-0.2,2-0.2
						s1.3,0.1,2,0.2c0.6,0.2,1.2,0.4,1.6,0.7c0.5,0.3,0.9,0.8,1.1,1.3c0.3,0.5,0.4,1.2,0.4,1.9c0,0.6-0.2,1.2-0.5,1.8
						c-0.3,0.6-0.8,1-1.4,1.4c0.9,0.3,1.6,0.9,1.9,1.6C283.1,81.3,283.3,82.1,283.2,83z M277.4,74.4c-0.3,0-0.6,0-0.8,0.1
						c-0.2,0.1-0.5,0.2-0.7,0.4c-0.2,0.1-0.3,0.3-0.5,0.6c-0.1,0.2-0.2,0.5-0.2,0.8c0,0.7,0.2,1.2,0.6,1.5s0.9,0.5,1.5,0.5
						s1.1-0.2,1.5-0.5s0.6-0.8,0.6-1.5c0-0.3-0.1-0.6-0.2-0.8c-0.1-0.2-0.2-0.4-0.4-0.6c-0.2-0.2-0.4-0.3-0.7-0.4
						C278,74.4,277.7,74.4,277.4,74.4z M280.1,82.7c0-0.4-0.1-0.7-0.2-1s-0.3-0.5-0.6-0.6c-0.2-0.2-0.5-0.3-0.9-0.4
						c-0.3-0.1-0.6-0.1-1-0.1c-0.3,0-0.6,0-1,0.1c-0.3,0.1-0.6,0.2-0.8,0.4c-0.2,0.2-0.4,0.4-0.6,0.7c-0.1,0.3-0.2,0.6-0.2,1
						s0.1,0.7,0.2,1c0.2,0.3,0.4,0.5,0.6,0.7s0.5,0.3,0.8,0.4s0.6,0.1,1,0.1c0.3,0,0.6,0,0.9-0.1s0.6-0.2,0.8-0.4
						c0.2-0.2,0.4-0.4,0.6-0.7C280,83.4,280.1,83.1,280.1,82.7z M288.9,81.2c0.4-0.3,0.7-0.6,1.1-0.9s0.7-0.7,1.1-1.1
						c0.3-0.3,0.6-0.7,0.9-1.1c0.2-0.4,0.4-0.8,0.4-1.3c0-0.8-0.2-1.4-0.6-1.7s-1-0.6-1.8-0.5c-0.7,0-1.2,0.2-1.6,0.5
						s-0.6,0.7-0.7,1.3h-3c0-0.9,0.2-1.6,0.6-2.2s0.9-1.2,1.6-1.5c0.5-0.3,1-0.5,1.5-0.6c0.6-0.1,1.1-0.2,1.8-0.2
						c1.7,0,3,0.4,3.9,1.3c0.4,0.4,0.7,0.9,1,1.4c0.2,0.6,0.4,1.2,0.4,2c0,0.6-0.1,1.1-0.2,1.6s-0.3,1-0.6,1.4
						c-0.2,0.3-0.4,0.6-0.6,0.8c-0.2,0.2-0.4,0.5-0.6,0.7s-0.4,0.4-0.6,0.6s-0.5,0.4-0.7,0.7c-0.5,0.5-1.1,0.9-1.6,1.3
						s-0.9,0.8-1.4,1.2h6.1v2.8h-10.5v-2.6L288.9,81.2z"/>
					<rect x="382.6" y="27.9" class="st7" width="177" height="81"/>
					<path class="st11" d="M405.1,47.5c-0.6,0-1.1,0.1-1.5,0.3s-0.8,0.5-1,0.9c-0.3,0.4-0.5,0.8-0.6,1.3s-0.2,1-0.2,1.5
						c0,0.6,0.1,1.1,0.2,1.6s0.3,0.9,0.6,1.3c0.3,0.4,0.6,0.6,1,0.9c0.4,0.2,0.9,0.3,1.5,0.3c0.7,0,1.3-0.1,1.8-0.4
						c0.5-0.3,0.8-0.7,0.9-1.2h1.3c-0.2,0.8-0.7,1.5-1.4,2c-0.7,0.5-1.6,0.7-2.7,0.7c-0.8,0-1.4-0.1-2-0.4c-0.6-0.3-1-0.6-1.4-1
						s-0.7-1-0.8-1.6c-0.2-0.6-0.3-1.3-0.3-2s0.1-1.4,0.3-2c0.2-0.6,0.5-1.1,0.9-1.6s0.9-0.8,1.4-1.1c0.6-0.3,1.2-0.4,2-0.4
						c0.5,0,1,0.1,1.5,0.2c0.4,0.1,0.8,0.3,1.1,0.6c0.3,0.2,0.6,0.5,0.8,0.9c0.2,0.3,0.4,0.7,0.4,1.1h-1.2c-0.1-0.5-0.4-0.9-0.9-1.2
						C406.3,47.6,405.8,47.5,405.1,47.5z M410.6,56.4v-9.9h1.2v9.9H410.6z M414.4,46.3c0.2,0,0.4,0.1,0.6,0.2
						c0.2,0.1,0.2,0.3,0.2,0.6s-0.1,0.4-0.2,0.6c-0.2,0.1-0.3,0.2-0.6,0.2c-0.2,0-0.4-0.1-0.6-0.2c-0.2-0.1-0.2-0.3-0.2-0.6
						s0.1-0.4,0.2-0.6C414,46.4,414.2,46.3,414.4,46.3z M413.8,56.4V49h1.2v7.4H413.8z M420.1,56.5c-0.6,0-1.1-0.1-1.5-0.3
						s-0.8-0.4-1.1-0.8c-0.3-0.3-0.5-0.7-0.6-1.2s-0.2-1-0.2-1.5s0.1-1,0.2-1.5s0.4-0.9,0.7-1.2c0.3-0.3,0.7-0.6,1.1-0.8
						s1-0.3,1.6-0.3c0.4,0,0.7,0,1,0.1s0.6,0.2,0.8,0.4c0.3,0.2,0.5,0.4,0.7,0.7s0.3,0.6,0.4,1H422c-0.1-0.4-0.4-0.7-0.7-0.9
						c-0.3-0.2-0.7-0.3-1.1-0.3s-0.8,0.1-1.1,0.2c-0.3,0.1-0.5,0.3-0.7,0.6s-0.3,0.5-0.4,0.9c-0.1,0.3-0.1,0.7-0.1,1
						c0,0.4,0,0.7,0.1,1s0.2,0.6,0.4,0.9c0.2,0.2,0.4,0.4,0.7,0.6c0.3,0.1,0.6,0.2,1,0.2c0.2,0,0.4,0,0.6-0.1c0.2,0,0.4-0.1,0.5-0.2
						c0.2-0.1,0.3-0.2,0.4-0.4c0.1-0.1,0.2-0.3,0.3-0.5h1.2c-0.1,0.4-0.2,0.7-0.4,1c-0.2,0.3-0.4,0.5-0.7,0.7
						c-0.3,0.2-0.6,0.3-0.9,0.4S420.5,56.5,420.1,56.5z M424.7,56.4v-9.9h1.2v5.7h1.3l2.2-3.2h1.3l-2.5,3.5l2.7,3.9h-1.4l-2.2-3.2
						h-1.4v3.2H424.7z M432.9,53.2c0,0.3,0.1,0.6,0.2,0.9c0.1,0.3,0.3,0.5,0.4,0.7c0.2,0.2,0.4,0.4,0.7,0.5c0.3,0.1,0.6,0.2,1,0.2
						c0.2,0,0.4,0,0.5,0c0.2,0,0.4-0.1,0.5-0.2c0.2-0.1,0.3-0.2,0.4-0.3s0.2-0.3,0.3-0.5h1.2c-0.1,0.4-0.2,0.7-0.4,0.9
						c-0.2,0.3-0.4,0.5-0.7,0.6c-0.3,0.2-0.6,0.3-0.9,0.4c-0.3,0.1-0.7,0.1-1,0.1c-0.6,0-1.1-0.1-1.5-0.3s-0.8-0.4-1.1-0.8
						c-0.3-0.3-0.5-0.7-0.6-1.2s-0.2-1-0.2-1.5c0-0.6,0.1-1.1,0.2-1.5c0.2-0.5,0.4-0.9,0.7-1.2c0.3-0.3,0.6-0.6,1.1-0.8
						c0.4-0.2,0.9-0.3,1.5-0.3s1.1,0.1,1.5,0.4c0.4,0.2,0.8,0.5,1,0.9c0.3,0.4,0.4,0.8,0.5,1.2s0.2,0.8,0.1,1.2c0,0.1,0,0.2,0,0.3
						s0,0.2,0,0.3C438.3,53.2,432.9,53.2,432.9,53.2z M437.2,52.1c0-0.6-0.2-1.1-0.6-1.5s-0.9-0.6-1.5-0.6c-0.3,0-0.6,0.1-0.9,0.2
						c-0.3,0.1-0.5,0.3-0.7,0.5s-0.3,0.4-0.4,0.7s-0.2,0.5-0.2,0.8h4.3L437.2,52.1L437.2,52.1z M446.6,56.4h-1.1l-0.1-1.1
						c-0.3,0.4-0.6,0.7-1.1,0.9c-0.4,0.2-0.9,0.3-1.4,0.3c-0.6,0-1-0.1-1.5-0.3c-0.4-0.2-0.7-0.5-1-0.8s-0.5-0.7-0.6-1.2
						s-0.2-1-0.2-1.5s0.1-1,0.2-1.5s0.3-0.9,0.6-1.2c0.3-0.3,0.6-0.6,1-0.8s0.9-0.3,1.5-0.3c0.4,0,0.9,0.1,1.3,0.2
						c0.4,0.2,0.8,0.4,1.1,0.8v-3.4h1.2v9.9H446.6z M443.1,50c-0.4,0-0.7,0.1-1,0.2c-0.3,0.1-0.5,0.3-0.7,0.6
						c-0.2,0.2-0.3,0.5-0.4,0.9c-0.1,0.3-0.1,0.7-0.1,1.1c0,0.4,0,0.7,0.1,1.1c0.1,0.3,0.2,0.6,0.4,0.8c0.2,0.2,0.4,0.4,0.7,0.6
						c0.3,0.1,0.6,0.2,1,0.2c0.5,0,0.9-0.1,1.2-0.3s0.6-0.5,0.7-0.8c0.1-0.2,0.2-0.5,0.3-0.8c0.1-0.3,0.1-0.6,0.1-0.8
						c0-0.3,0-0.6-0.1-0.9c-0.1-0.3-0.2-0.5-0.3-0.8c-0.2-0.3-0.4-0.5-0.7-0.7C443.9,50.1,443.6,50,443.1,50z"/>
					<path class="st9" d="M406.5,87.4h-3.2V75.9h-3.2v-2.2c0.5,0,0.9,0,1.3-0.1s0.8-0.2,1.1-0.4c0.3-0.2,0.6-0.4,0.9-0.6
						s0.5-0.5,0.7-0.8h2.4L406.5,87.4L406.5,87.4z M413.3,81.2c0.4-0.3,0.7-0.6,1.1-0.9s0.7-0.7,1.1-1.1c0.3-0.3,0.6-0.7,0.9-1.1
						c0.2-0.4,0.4-0.8,0.4-1.3c0-0.8-0.2-1.4-0.6-1.7s-1-0.6-1.8-0.5c-0.7,0-1.2,0.2-1.6,0.5s-0.6,0.7-0.7,1.3h-3
						c0-0.9,0.2-1.6,0.6-2.2s0.9-1.2,1.6-1.5c0.5-0.3,1-0.5,1.5-0.6c0.6-0.1,1.1-0.2,1.8-0.2c1.7,0,3,0.4,3.9,1.3
						c0.4,0.4,0.7,0.9,1,1.4c0.2,0.6,0.4,1.2,0.4,2c0,0.6-0.1,1.1-0.2,1.6s-0.3,1-0.6,1.4c-0.2,0.3-0.4,0.6-0.6,0.8
						c-0.2,0.2-0.4,0.5-0.6,0.7s-0.4,0.4-0.6,0.6s-0.5,0.4-0.7,0.7c-0.5,0.5-1.1,0.9-1.6,1.3s-0.9,0.8-1.4,1.2h6.1v2.8h-10.5v-2.6
						L413.3,81.2z M424.3,88.6c-0.5,0-0.9-0.1-1.3-0.4c-0.3-0.2-0.5-0.6-0.5-1s0.2-0.8,0.6-1s0.9-0.4,1.4-0.4c0.4,0,0.7,0.1,0.9,0.2
						c0.3,0.1,0.5,0.3,0.7,0.4c0.2,0.2,0.3,0.4,0.4,0.6s0.1,0.5,0.1,0.8c0,0.4-0.1,0.7-0.3,1.1c-0.2,0.4-0.4,0.7-0.8,1
						c-0.3,0.3-0.7,0.6-1.1,0.8c-0.4,0.2-0.8,0.4-1.3,0.5l-0.8-0.8c0.4-0.2,0.8-0.5,1.1-0.8C423.9,89.4,424.2,89,424.3,88.6z
						 M440.5,83c0,0.8-0.2,1.5-0.6,2.1c-0.3,0.6-0.8,1-1.3,1.4s-1.1,0.6-1.8,0.8c-0.7,0.2-1.4,0.2-2.1,0.2s-1.4-0.1-2.1-0.2
						c-0.7-0.2-1.3-0.4-1.8-0.8s-1-0.8-1.3-1.4s-0.5-1.3-0.6-2.1c0-0.9,0.1-1.7,0.5-2.4c0.4-0.7,1-1.2,2-1.6
						c-0.6-0.3-1.1-0.8-1.4-1.4s-0.5-1.2-0.5-1.8c0-0.8,0.1-1.4,0.4-1.9s0.7-1,1.2-1.3c0.5-0.4,1-0.6,1.7-0.7c0.6-0.1,1.3-0.2,2-0.2
						s1.3,0.1,2,0.2c0.6,0.2,1.2,0.4,1.6,0.7c0.5,0.3,0.9,0.8,1.1,1.3c0.3,0.5,0.4,1.2,0.4,1.9c0,0.6-0.2,1.2-0.5,1.8
						c-0.3,0.6-0.8,1-1.4,1.4c0.9,0.3,1.6,0.9,1.9,1.6C440.3,81.3,440.5,82.1,440.5,83z M434.7,74.4c-0.3,0-0.6,0-0.8,0.1
						c-0.2,0.1-0.5,0.2-0.7,0.4c-0.2,0.1-0.3,0.3-0.5,0.6c-0.1,0.2-0.2,0.5-0.2,0.8c0,0.7,0.2,1.2,0.6,1.5s0.9,0.5,1.5,0.5
						s1.1-0.2,1.5-0.5s0.6-0.8,0.6-1.5c0-0.3-0.1-0.6-0.2-0.8c-0.1-0.2-0.2-0.4-0.4-0.6c-0.2-0.2-0.4-0.3-0.7-0.4
						C435.3,74.4,435,74.4,434.7,74.4z M437.3,82.7c0-0.4-0.1-0.7-0.2-1s-0.3-0.5-0.6-0.6c-0.2-0.2-0.5-0.3-0.9-0.4
						c-0.3-0.1-0.6-0.1-1-0.1c-0.3,0-0.6,0-1,0.1c-0.3,0.1-0.6,0.2-0.8,0.4c-0.2,0.2-0.4,0.4-0.6,0.7c-0.1,0.3-0.2,0.6-0.2,1
						s0.1,0.7,0.2,1c0.2,0.3,0.4,0.5,0.6,0.7s0.5,0.3,0.8,0.4s0.6,0.1,1,0.1c0.3,0,0.6,0,0.9-0.1s0.6-0.2,0.8-0.4
						c0.2-0.2,0.4-0.4,0.6-0.7C437.2,83.4,437.3,83.1,437.3,82.7z M443,87.4l5.7-12.7h-7.2v-2.8h10.8v2.4l-5.8,13.2L443,87.4
						L443,87.4z M459.5,84.7c0.4,0,0.7,0,1-0.1s0.6-0.2,0.8-0.4c0.2-0.2,0.4-0.4,0.5-0.7c0.1-0.3,0.2-0.6,0.2-0.9
						c0-0.8-0.2-1.4-0.6-1.8c-0.5-0.5-1.1-0.7-1.8-0.7c-0.7,0-1.2,0.2-1.7,0.6c-0.4,0.4-0.7,0.9-0.7,1.5c0,0.3,0,0.7,0.1,1
						s0.3,0.6,0.5,0.8c0.2,0.2,0.5,0.4,0.7,0.6C458.8,84.6,459.1,84.7,459.5,84.7z M462.1,76c-0.1-0.5-0.4-0.9-0.8-1.2
						c-0.4-0.2-0.9-0.3-1.4-0.3s-1,0.1-1.4,0.4c-0.4,0.2-0.8,0.6-1,1c-0.3,0.4-0.5,0.8-0.6,1.3s-0.2,1-0.2,1.5
						c0.5-0.5,1-0.8,1.6-1.1c0.6-0.2,1.3-0.4,1.9-0.4c1.6,0,2.8,0.5,3.7,1.4c0.9,0.9,1.3,2.1,1.3,3.7c0,0.8-0.2,1.5-0.5,2.2
						s-0.7,1.2-1.2,1.7s-1.1,0.8-1.8,1c-0.7,0.2-1.4,0.3-2.2,0.3c-1.1,0-2-0.2-2.8-0.7c-0.7-0.4-1.4-1-1.8-1.7
						c-0.5-0.7-0.8-1.5-1-2.4s-0.3-1.8-0.3-2.8c0-1.1,0.1-2.3,0.4-3.4s0.8-2.1,1.5-2.9c0.5-0.6,1.1-1.1,1.8-1.5
						c0.7-0.4,1.6-0.6,2.6-0.6c0.7,0,1.4,0.1,2.1,0.3c0.6,0.2,1.2,0.5,1.6,0.9s0.8,0.8,1.1,1.3c0.3,0.5,0.5,1.2,0.6,1.9L462.1,76
						L462.1,76z"/>
				</g>
			</g>
		</g>
	</g>
	<path class="st4" d="M555.1,508.7v-8.5h1.6l2.5,4.7l2.5-4.7h1.5v8.5h-1v-7.4l-2.8,5.2H559l-2.8-5.2v7.4H555.1z M569.3,507.8
		c-0.1,0.2-0.3,0.3-0.5,0.4s-0.4,0.2-0.6,0.3c-0.2,0.1-0.4,0.1-0.6,0.1c-0.2,0-0.4,0-0.6,0c-0.3,0-0.6,0-0.8-0.1
		c-0.3-0.1-0.5-0.2-0.7-0.3c-0.2-0.2-0.4-0.4-0.5-0.6s-0.2-0.5-0.2-0.8c0-0.4,0.1-0.7,0.2-0.9c0.1-0.2,0.3-0.4,0.5-0.6
		s0.5-0.3,0.8-0.3c0.3-0.1,0.6-0.1,0.9-0.1h1.9c0-0.5-0.1-1-0.3-1.3s-0.6-0.5-1.2-0.5c-0.3,0-0.6,0.1-0.9,0.2
		c-0.3,0.1-0.4,0.3-0.5,0.6h-1.1c0.1-0.3,0.2-0.5,0.3-0.7c0.2-0.2,0.4-0.4,0.6-0.5c0.2-0.1,0.5-0.2,0.8-0.3c0.3-0.1,0.5-0.1,0.8-0.1
		c0.5,0,0.9,0.1,1.2,0.2c0.3,0.2,0.6,0.4,0.8,0.6s0.3,0.6,0.4,0.9c0.1,0.4,0.1,0.8,0.1,1.2v3.4h-0.9L569.3,507.8z M568.1,505.8
		c-0.2,0-0.4,0-0.7,0c-0.2,0-0.5,0-0.7,0.1c-0.2,0-0.4,0.1-0.6,0.3c-0.1,0.2-0.2,0.4-0.2,0.6s0,0.3,0.1,0.5c0.1,0.1,0.2,0.2,0.3,0.3
		c0.1,0.1,0.3,0.2,0.4,0.2c0.2,0,0.3,0.1,0.5,0.1c0.6,0,1.1-0.1,1.4-0.4c0.4-0.3,0.5-0.7,0.5-1.3v-0.3h-1V505.8z M577.3,502.3v6.3
		c0,0.9-0.2,1.6-0.7,2.1s-1.2,0.7-2.1,0.7c-0.5,0-1-0.1-1.5-0.2c-0.4-0.1-0.8-0.4-1.2-0.7l0.4-0.8c0.3,0.2,0.6,0.4,1,0.6
		c0.4,0.1,0.7,0.2,1.1,0.2c0.3,0,0.6-0.1,0.8-0.2s0.4-0.2,0.6-0.4c0.2-0.2,0.3-0.4,0.3-0.6c0.1-0.2,0.1-0.5,0.1-0.8v-0.8
		c-0.1,0.2-0.2,0.3-0.4,0.4s-0.3,0.2-0.5,0.3c-0.2,0.1-0.4,0.1-0.6,0.2c-0.2,0-0.4,0.1-0.6,0.1c-0.5,0-0.9-0.1-1.2-0.2
		s-0.6-0.3-0.8-0.6c-0.2-0.3-0.3-0.6-0.4-0.9c-0.1-0.4-0.1-0.8-0.1-1.2v-3.5h1v3.2c0,0.3,0,0.6,0,0.9s0.1,0.5,0.2,0.7
		c0.1,0.2,0.3,0.4,0.5,0.5s0.5,0.2,0.9,0.2s0.7-0.1,0.9-0.2c0.3-0.2,0.5-0.3,0.6-0.6c0.2-0.2,0.3-0.5,0.3-0.8
		c0.1-0.3,0.1-0.6,0.1-0.9v-3L577.3,502.3L577.3,502.3z"/>
</g>
</svg>
