<?xml version="1.0" encoding="utf-8"?>
<!-- Generator: Adobe Illustrator 27.6.1, SVG Export Plug-In . SVG Version: 6.00 Build 0)  -->
<svg version="1.1" id="Layer_1" xmlns="http://www.w3.org/2000/svg" xmlns:xlink="http://www.w3.org/1999/xlink" x="0px" y="0px"
	 viewBox="0 0 1158.1 844.2" style="enable-background:new 0 0 1158.1 844.2;" xml:space="preserve">
<style type="text/css">
	.st0{opacity:0.85;}
	.st1{fill:#1D1A27;}
	.st2{fill:none;stroke:#FFFFFF;stroke-opacity:0.16;}
	.st3{fill:#7FF46F;}
	.st4{fill:#EF5E6F;}
	.st5{fill:#E7ECED;}
	.st6{fill:#6C7F7C;}
	.st7{fill:#D8E0E1;}
	.st8{fill:#B3EBC6;}
	.st9{fill:#4CD17A;}
	.st10{fill:#7FDDA0;}
	.st11{fill:#F0F3F4;}
	.st12{fill:#304C48;}
	.st13{opacity:0.2;fill:none;stroke:#FFFFFF;stroke-width:2;stroke-linecap:round;enable-background:new    ;}
	.st14{fill:#C1C1C1;}
	.st15{font-family:'Roboto-Medium';}
	.st16{font-size:32.1615px;}
	.st17{fill:#C6C6C6;}
	.st18{fill:#BABABA;}
	.st19{font-size:27.0156px;}
	.st20{fill:#C9C9C9;}
	.st21{font-family:'Roboto-Black';}
	.st22{font-size:46.3125px;}
	.st23{fill:#736D87;}
	.st24{fill:#373345;}
	.st25{fill:#726990;}
</style>
<g>
	<g class="st0">
		<rect x="0.1" y="0.1" class="st1" width="1158" height="844"/>
		<rect x="2.6" y="1.8" class="st2" width="1152.9" height="840.5"/>
	</g>
	<g>
		<path class="st3" d="M973.9,498c0-42.4,0-84.8,0-127.2c0-0.5,0-0.9,0-1.4c0.1-3.6,0.1-7.3,0.2-10.9c0.1-5.4,3.5-8.4,10-8.3
			c5.8,0.1,10.5,2,10.6,7.9c0.2,7.9,0.1,15.8,0.1,23.7c0,36.4,0,72.7,0,109.1c0,2.3,0.3,4.7,0.5,7c0,0.9,0,1.9-0.1,2.8
			c-0.1,1.5-0.4,3-0.4,4.5c0,82.7,0,165.4,0,248.1c0,1.1,0.1,2.1,0.1,3.2c-0.4,0.3-0.8,0.7-1.2,1c-6.3,0-12.7,0-19,0
			c-0.1-0.4-0.4-0.7-0.8-1c-0.1-42.4-0.1-84.8-0.2-127.3c0-0.9,0-1.8,0-2.6c0-42,0-84,0-126C974,499.8,973.9,498.9,973.9,498z"/>
		<path class="st3" d="M539.9,498.1c0.1-32.7,0.2-65.4,0.3-98.1c0-9.4,7.7-13.3,17-8.6c5.3,2.6,4,7.4,4.1,11.3
			c0.4,16.5,0.1,32.9,0.2,49.4c0.1,15.4,0.3,30.8,0.4,46.1c-0.2,22.6-0.4,45.2-0.4,67.8c0,21.1,0.3,42.2,0.4,63.4
			c-0.1,10.9-0.4,21.8-0.4,32.7c-0.1,29.3-0.2,58.6,0.1,87.9c0.1,6.1-2.1,8-8.6,7.3c-3.8-0.4-7.7-0.3-11.5-0.4
			c-0.4-0.5-0.8-1-1.1-1.5c-0.1-6-0.2-12-0.2-18c-0.1-36-0.2-72-0.3-108c0-0.9,0-1.7,0-2.6c0-42,0-84,0-126
			C539.9,499.8,539.9,498.9,539.9,498.1z"/>
		<path class="st3" d="M397.5,755.5c-0.1-39.2-0.1-78.4-0.2-117.7c0-2.8-0.2-5.5-0.3-8.3c0-0.9,0-1.7,0-2.6c0-42,0-84,0-125.9
			c0-0.9,0-1.7,0-2.6c0.1-24.3,0.2-48.7,0.3-73c0-5.7,4.4-10.9,9.9-10.1c5,0.7,11.2,1.4,11.2,8.4c0,2.4,0.5,5.1,0.5,7.6
			c0.2,22.4,0.3,44.8,0.4,67.2c0,0.8-0.1,1.7-0.1,2.5c-0.1,2.6-0.3,5.1-0.3,7.7c0,48.9-0.1,97.9,0,146.8c0,33.3,0.2,66.7,0.3,100
			c0,0.8,0.3,2.1-1,2.1c-6.6,0-13.1,0.1-19.7,0C398.1,757.8,397.5,757.7,397.5,755.5z"/>
		<path class="st3" d="M827.2,626.6c0-42,0-84,0-126c0-0.9,0-1.8-0.1-2.7c0.1-19.4,0.2-38.9,0.3-58.3c0-7.2,3.3-11.2,9.1-11.1
			c7.2,0.1,11.5,4.5,11.5,11.7c0.1,19.2,0.2,38.4,0.4,57.6c0,0.9,0,1.8-0.1,2.7c0,42,0,84,0,125.9c0,0.9,0,1.8,0.1,2.7
			c-0.1,20.3-0.3,40.7-0.4,61c-0.1,20.8-0.2,41.5,0.1,62.3c0.1,4.2-1.3,5.7-6,5.3c-4.8-0.4-9.7-0.1-14.5-0.2
			c-0.2-0.4-0.3-0.8-0.5-1.3c0-42.4,0-84.8,0-127.2C827.2,628.4,827.2,627.5,827.2,626.6z"/>
		<path class="st4" d="M567.6,498.1c0.2-11.7,0.4-23.4,0.5-35.1c0.1-5.3,4-10.1,9.2-9.7c4.9,0.4,9.8,0.9,11,7.4
			c1.7,8.7,0.4,17.3,1,26c0.3,3.8,0.2,7.7,0.3,11.5c0,0.9,0,1.7,0,2.6c0,42,0,84,0,126c0,0.9,0,1.7,0,2.6
			c-0.1,42.4-0.2,84.9-0.2,127.3l0,0c-0.2,0.1-0.4,0.2-0.7,0.2c-20.6,2.1-20.6,2.1-20.6-15.7c0-34.9,0-69.8,0-104.7
			c0-2.3-0.3-4.7-0.4-7c0.2-2.8,0.4-5.5,0.4-8.3c0-37.6,0-75.1,0-112.7C568.1,504.9,567.8,501.5,567.6,498.1z"/>
		<path class="st3" d="M702.6,629.2c-0.1,34.6-0.2,69.1-0.3,103.7c0,7.9,0,15.8,0,23.7c-0.6,0-0.9,0.2-1.1,0.6
			c-6.3-0.1-12.6-0.3-18.8-0.4c-0.4-0.5-0.8-1-1.1-1.5c-0.1-6-0.2-12-0.2-18c-0.1-36-0.2-72-0.3-108c0-0.9,0-1.7,0-2.6
			c0-42,0-84,0-126c0-0.9-0.1-1.7-0.1-2.6c4.8-8.8,14.2-9.3,22.1-1.3c-0.1,1.3-0.2,2.6-0.2,3.8c0,42.5,0,84.9,0,127.4
			C702.5,628.4,702.5,628.8,702.6,629.2z"/>
		<path class="st4" d="M1023.5,629.3c-0.1,2.3-0.4,4.7-0.4,7c0,38.1-0.1,76.3,0.1,114.4c0,4.8-0.9,6.7-7,6.6
			c-14.3-0.3-14.3,0-14.3-12.7c0-74.3,0-148.7,0-223c0-5.7,4.1-10.8,9.5-10.3c5.1,0.5,10.6,1.9,11.1,8.3c0.2,2.3,0.6,4.6,0.6,6.9
			c0,31.1,0,62.1,0,93.2c0,2.3,0.2,4.7,0.4,7C1023.5,627.6,1023.5,628.4,1023.5,629.3z"/>
		<path class="st3" d="M278.6,756.4c-7.1,0-14.1,0.1-21.6,0.2l0,0c0.1-41,0.3-81.9,0.4-122.9c0-1.5-0.2-3-0.3-4.5c0-0.9,0-1.7,0-2.6
			c0.2-28,0.3-56.1,0.6-84.1c0-3.5-0.7-7.4,2.5-10.3c3-2.7,6.4-4.3,11-2.8c5.7,1.8,7.3,5.9,7.5,10.5c0.3,8.1,0,16.3,0,24.4
			c0.1,20.8,0.1,41.5,0.2,62.3c0,0.9,0,1.7,0,2.6C278.8,671.7,278.7,714.1,278.6,756.4L278.6,756.4z"/>
		<path class="st4" d="M447.1,756.5c-6.8,1.4-13.7,0-20.5,0.8c-0.4-0.7-0.7-1.3-1.1-2c0.1-1.3,0.3-2.5,0.3-3.8
			c0-40.1,0-80.1,0-120.2c0-26.1,0.1-52.3-0.1-78.4c0-4.1,1.6-6.9,5.7-8.6c4.1-1.7,7.7-0.6,11,1.7c4.3,2.9,4.6,7.1,4.6,11.3
			c0.1,23.1,0.2,46.3,0.3,69.4c0,0.9,0,1.7,0,2.6C447.2,671.7,447.2,714.1,447.1,756.5L447.1,756.5z"/>
		<path class="st4" d="M713.2,755.3c-0.1-42.1-0.1-84.1-0.2-126.2c0.4-0.4,0.4-0.7,0-1c-0.6-6.1,4.9-8.4,9.6-8.7
			c4.5-0.2,10.3,1.3,10.9,7.2c0.5,0.9,0.9,1.7,1.4,2.6c0,42.5,0,84.9,0,127.4l-0.2-0.3c0,0-0.3,0.1-0.3,0.1
			c-0.4,0.5-0.7,0.9-1.1,1.4c-6.3,0.6-12.6,0.5-18.9,0C714.1,757,714.5,755.9,713.2,755.3z"/>
		<path class="st5" d="M1055.5,229.3c-0.2,1.4-0.9,2.4-2.7,2.5c-1.9,0.1-3.9,0.1-5.8,0.1c-306.8,0-613.6,0-920.4,0
			c-2.7,0-5.6,0.7-8-2.5C430.9,229.3,743.2,229.3,1055.5,229.3L1055.5,229.3z"/>
		<path class="st4" d="M306.4,756.3c-0.5,0.1-0.8,0.1-1.4,0.1c-19.2-0.2-20.2,2.1-19.7-15.6c0-25.7,0.1-51.3-0.1-77
			c0-4.6,1.7-8.3,6.2-9.9c3.8-1.4,8.3-0.5,11.2,2.3c3.3,3.2,3.7,7.5,3.7,11.7c0,29.5,0,59,0,88.6L306.4,756.3z"/>
		<path class="st4" d="M876.2,714.8c0,12.4-0.2,24.8,0.1,37.2c0.1,4.6-1.9,5.9-6.7,5.9c-14.4,0.2-14.4,0.3-14.4-12.2
			c0-23.8,0.2-47.5-0.1-71.3c-0.1-6.2,3.3-9.1,9.2-10c5.5-0.8,9.3,2.2,11,6.7c0.8,2.2,0.9,4.6,1,6.9
			C876.3,690.4,876.2,702.6,876.2,714.8z"/>
		<ellipse class="st3" cx="562.1" cy="165.6" rx="10.8" ry="9.6"/>
		<ellipse class="st4" cx="869.3" cy="165.4" rx="10.8" ry="9.6"/>
		<path class="st6" d="M713.2,755.3c1.4,0.5,0.9,1.7,1.1,2.6c-1.2,0.1-2.4,0.2-2.7-1.1C711.3,755.8,712.2,755.4,713.2,755.3z"/>
		<path class="st7" d="M993.9,757.5c0.4-0.3,0.8-0.7,1.2-1c1.3,0.2,2.7-0.4,3.9,0.8C997.2,758.3,995.5,757.7,993.9,757.5z"/>
		<path class="st8" d="M701.2,757.2c0.2-0.5,0.5-0.7,1.1-0.6c0.4,0.2,0.8,0.4,1.1,0.6C702.7,758.2,701.9,757.7,701.2,757.2z"/>
		<path class="st9" d="M681.2,755.3c0.4,0.5,0.8,1,1.1,1.5c-0.5,0-1-0.1-1.4-0.1c0,0,0-0.1,0-0.1C681,756.1,681.1,755.7,681.2,755.3
			z"/>
		<path class="st10" d="M702.6,629.2c-0.1-0.4-0.1-0.7,0-1.1c0.4,0.2,0.8,0.4,1.1,0.6C703.4,628.8,703,629,702.6,629.2z"/>
		<path class="st6" d="M712.9,628.1c0.4,0.3,0.4,0.7,0,1c-0.4-0.1-0.7-0.2-1.1-0.3C712.2,628.6,712.6,628.3,712.9,628.1z"/>
		<path class="st11" d="M1055.5,229.3c0.1-0.2,0.2-0.4,0.3-0.5C1055.7,228.9,1055.6,229.1,1055.5,229.3
			C1055.5,229.3,1055.5,229.3,1055.5,229.3z"/>
		<path class="st12" d="M734.3,756.5c0.1,0.5,0.2,0.9,0.3,1.4c-0.5,0-1,0-1.4,0C733.5,757.4,733.9,757,734.3,756.5z"/>
		<path class="st9" d="M540.4,755.3c0.4,0.5,0.8,1,1.1,1.5c-0.5,0-1-0.1-1.4-0.1c0,0,0-0.1,0-0.1
			C540.2,756.1,540.3,755.7,540.4,755.3z"/>
	</g>
	<line class="st13" x1="124.7" y1="369.5" x2="1056" y2="367.9"/>
	<line class="st13" x1="119.4" y1="499.4" x2="1050.7" y2="497.9"/>
	<line class="st13" x1="119.4" y1="625.5" x2="1050.7" y2="624"/>
	<line class="st13" x1="119.4" y1="758" x2="1050.7" y2="756.5"/>
	<text transform="matrix(1.1289 0 0 1 591.976 176.047)" class="st14 st15 st16">Email Sent</text>
	<text transform="matrix(1.1289 0 0 1 890.4985 176.3693)" class="st17 st15 st16">Opened</text>
	<text transform="matrix(1.1289 0 0 1 118.5907 355.3839)" class="st18 st15 st19">500k</text>
	<text transform="matrix(1.1289 0 0 1 120.5068 491.0758)" class="st18 st15 st19">200k</text>
	<text transform="matrix(1.1289 0 0 1 120.5058 613.7115)" class="st18 st15 st19">100K</text>
	<text transform="matrix(1.1289 0 0 1 121.7065 741.9479)" class="st18 st15 st19">0K</text>
	<text transform="matrix(1.1289 0 0 1 248.2197 793.6442)" class="st18 st15 st19">Jan</text>
	<text transform="matrix(1.1289 0 0 1 391.0717 793.6442)" class="st18 st15 st19">Feb</text>
	<text transform="matrix(1.1289 0 0 1 539.8979 793.6442)" class="st18 st15 st19">Mar</text>
	<text transform="matrix(1.1289 0 0 1 681.6078 793.6442)" class="st18 st15 st19">Apr</text>
	<text transform="matrix(1.1289 0 0 1 827.1518 793.6442)" class="st18 st15 st19">May</text>
	<text transform="matrix(1.1289 0 0 1 973.9301 793.6442)" class="st18 st15 st19">Jun</text>
	<text transform="matrix(1.1289 0 0 1 118.5907 176.3683)" class="st20 st21 st22">Engagement</text>
	<path class="st23" d="M146.1,56.7h189c4.9,0,8.9-2.9,8.9-6.5l0,0c0-3.6-4-6.5-8.9-6.5h-189c-4.9,0-8.9,2.9-8.9,6.5l0,0
		C137.1,53.8,141.1,56.7,146.1,56.7z"/>
	<path class="st24" d="M140.2,79.7h81c3.3,0,6,2.7,6,6l0,0c0,3.3-2.7,6-6,6h-81c-3.3,0-6-2.7-6-6l0,0
		C134.2,82.4,136.9,79.7,140.2,79.7z"/>
	<circle class="st25" cx="1013.6" cy="62.2" r="18.5"/>
</g>
</svg>
