<svg xmlns="http://www.w3.org/2000/svg" fill-rule="evenodd" stroke-linejoin="round" stroke-miterlimit="2" clip-rule="evenodd" viewBox="0 0 64 64" id="moneyincrease">
  <g transform="translate(-320 -320)" fill="#ffffff" class="color000000 svgShape">
    <path d="M357.757 330L354 333.757C354 333.757 350.121 329.879 350.121 329.879 348.95 328.707 347.05 328.707 345.879 329.879 345.879 329.879 335.879 339.879 335.879 339.879 334.708 341.049 334.708 342.951 335.879 344.121 337.049 345.292 338.951 345.292 340.121 344.121 340.121 344.121 348 336.243 348 336.243 348 336.243 351.879 340.121 351.879 340.121 353.05 341.293 354.95 341.293 356.121 340.121 356.121 340.121 362 334.243 362 334.243 362 334.243 363.879 336.121 363.879 336.121 364.737 336.979 366.027 337.236 367.148 336.772 368.269 336.307 369 335.213 369 334 369 334 369 326 369 326 369 324.343 367.657 323 366 323L358 323C356.787 323 355.693 323.731 355.228 324.852 354.764 325.973 355.021 327.263 355.879 328.121L357.757 330zM381 352C381 349.239 378.761 347 376 347L328 347C325.239 347 323 349.239 323 352L323 376C323 378.761 325.239 381 328 381L376 381C378.761 381 381 378.761 381 376L381 352zM333.578 376.935C339.782 376.998 370.413 377 370.413 377 371.685 376.999 372.818 376.197 373.241 374.998 373.252 374.965 373.262 374.932 373.27 374.899 373.364 374.508 373.59 374.167 373.879 373.879 374.194 373.564 374.572 373.326 374.983 373.178 376.146 372.767 376.93 371.663 376.935 370.424 377 366.151 377 361.86 377 357.587 377 357.587 377 357.587 377 357.587 376.999 356.315 376.197 355.182 374.998 354.759 374.965 354.748 374.932 354.738 374.899 354.73 374.508 354.636 374.167 354.41 373.879 354.121 373.564 353.806 373.326 353.428 373.178 353.017 372.766 351.85 371.657 351.065 370.413 351.065 361.181 351 342.827 351 333.587 351 333.587 351 333.587 351 333.587 351 332.315 351.001 331.182 351.803 330.759 353.002 330.748 353.035 330.738 353.068 330.73 353.101 330.636 353.492 330.41 353.833 330.121 354.121 329.806 354.436 329.428 354.674 329.017 354.822 327.854 355.233 327.07 356.337 327.065 357.576 327 361.849 327 366.14 327 370.413 327 370.413 327 370.413 327 370.413 327.001 371.685 327.803 372.818 329.002 373.241 329.035 373.252 329.068 373.262 329.101 373.27 329.492 373.364 329.833 373.59 330.121 373.879 330.436 374.194 330.674 374.572 330.822 374.983 331.233 376.147 332.337 376.931 333.578 376.935zM333.598 374.935C340.031 375 370.412 375 370.412 375 370.822 375 371.188 374.75 371.341 374.37 371.528 373.646 371.928 373.001 372.464 372.464 372.989 371.939 373.619 371.543 374.305 371.296 374.307 371.295 374.309 371.295 374.311 371.294 374.685 371.162 374.935 370.809 374.935 370.413 374.935 370.407 374.935 370.402 374.935 370.397 375 366.133 375 361.852 375 357.588 375 357.178 374.75 356.812 374.37 356.659 373.646 356.472 373.001 356.072 372.464 355.536 371.939 355.011 371.543 354.381 371.296 353.695 371.295 353.693 371.295 353.691 371.294 353.689 371.162 353.315 370.809 353.065 370.413 353.065 370.41 353.065 370.408 353.065 370.405 353.065 361.17 353 342.824 353 333.588 353 333.178 353 332.812 353.25 332.659 353.63 332.472 354.354 332.072 354.999 331.536 355.536 331.011 356.061 330.381 356.457 329.695 356.704 329.693 356.705 329.691 356.705 329.689 356.706 329.315 356.838 329.065 357.191 329.065 357.587 329.065 357.593 329.065 357.598 329.065 357.603 329 361.867 329 366.148 329 370.412 329 370.822 329.25 371.188 329.63 371.341 330.354 371.528 330.999 371.928 331.536 372.464 332.061 372.989 332.457 373.619 332.704 374.305 332.705 374.307 332.705 374.309 332.706 374.311 332.838 374.685 333.191 374.935 333.587 374.935 333.591 374.935 333.594 374.935 333.598 374.935zM352 355C347.033 355 343 359.033 343 364 343 368.967 347.033 373 352 373 356.967 373 361 368.967 361 364 361 359.033 356.967 355 352 355zM352 357C355.863 357 359 360.137 359 364 359 367.863 355.863 371 352 371 348.137 371 345 367.863 345 364 345 360.137 348.137 357 352 357zM336 361C334.344 361 333 362.344 333 364 333 365.656 334.344 367 336 367 337.656 367 339 365.656 339 364 339 362.344 337.656 361 336 361zM368 361C366.344 361 365 362.344 365 364 365 365.656 366.344 367 368 367 369.656 367 371 365.656 371 364 371 362.344 369.656 361 368 361zM336 363C336.552 363 337 363.448 337 364 337 364.552 336.552 365 336 365 335.448 365 335 364.552 335 364 335 363.448 335.448 363 336 363zM368 363C368.552 363 369 363.448 369 364 369 364.552 368.552 365 368 365 367.448 365 367 364.552 367 364 367 363.448 367.448 363 368 363z" fill="#ffffff" class="color000000 svgShape"></path>
  </g>
</svg>
