<svg width="136" height="26" viewBox="0 0 136 26" fill="none" xmlns="http://www.w3.org/2000/svg">
<g clip-path="url(#clip0_30608_48910)">
<path d="M34.4186 10.3813L25.3213 1.28395C25.0068 0.991938 24.5351 0.991938 24.2431 1.28395L22.4461 3.08096L29.7464 10.3813C30.0384 10.6733 30.0384 11.1675 29.7464 11.4595L22.2214 18.9845L24.0184 20.7815C24.3329 21.0735 24.8046 21.0735 25.0966 20.7815L34.3962 11.482C34.7106 11.1675 34.7106 10.6958 34.4186 10.3813Z" fill="#009C9C"/>
<path d="M18.9192 1.95783L18.2678 1.30641C17.9533 1.0144 17.4816 1.0144 17.1896 1.30641L15.3926 3.10342L16.5831 4.29393L18.9192 6.63004L21.2553 4.29393L18.9192 1.95783Z" fill="#40E3E3"/>
<path d="M18.7171 15.4803L16.3809 17.8165L15.1904 19.007L16.9874 20.804C17.3019 21.096 17.7736 21.096 18.0656 20.804L18.7171 20.1526L21.0532 17.8165L18.7171 15.4803Z" fill="#40E3E3"/>
<path d="M22.7154 10.3813C23.0074 10.6958 23.0074 11.1675 22.7154 11.4595L18.717 15.4578L21.0531 17.7939L27.3876 11.4595C27.6796 11.1675 27.6796 10.6733 27.3876 10.3813L21.2778 4.27148L18.9192 6.60759L22.7154 10.3813Z" fill="#1ABAB8"/>
<path d="M7.86771 10.6059L14.2022 4.27148L11.866 1.93536L11.1922 1.28395C10.8777 0.991938 10.406 0.991938 10.114 1.28395L0.814469 10.6059C0.522456 10.8979 0.522456 11.3921 0.814469 11.6841L9.91181 20.7815C10.2263 21.0735 10.698 21.0735 10.99 20.7815L11.6639 20.13L14 17.7939L7.89018 11.6841C7.5757 11.3921 7.5757 10.9204 7.86771 10.6059Z" fill="#87F0F0"/>
<path d="M14.9209 10.6059L17.7063 7.82057L15.3702 5.48447L14.1797 4.29395L7.89015 10.6284C7.59814 10.9204 7.59814 11.4146 7.89015 11.7066L13.9775 17.7939L15.168 16.6034L17.5041 14.2673L14.9209 11.6841C14.6289 11.4146 14.6289 10.9204 14.9209 10.6059Z" fill="#40E3E3"/>
<path d="M14.9209 11.6841L17.5041 14.2673L20.2895 11.482C20.5815 11.1899 20.5815 10.6958 20.2895 10.4038L17.7063 7.82056L14.9209 10.6059C14.6514 10.9204 14.6514 11.3921 14.9209 11.6841Z" fill="#17CFCF"/>
<path d="M41.7188 8.47199C41.7412 7.43871 41.9434 6.4279 42.3252 5.46201C42.6846 4.58597 43.2237 3.77732 43.8976 3.1259C44.6389 2.45203 45.5149 1.93539 46.4584 1.62091C47.6039 1.23905 48.8169 1.05935 50.0074 1.08181C51.3552 1.03688 52.703 1.23905 53.9609 1.6883C54.8594 2.02524 55.7129 2.51941 56.4317 3.17083C56.9933 3.665 57.4201 4.2715 57.7121 4.94537C57.9367 5.43955 58.0715 5.95619 58.1389 6.49529C58.1614 6.69745 58.094 6.89961 57.9367 7.03439C57.7795 7.16916 57.5998 7.23655 57.3976 7.23655H55.1738C54.9941 7.23655 54.8369 7.19163 54.7021 7.07932C54.5898 6.98947 54.5 6.87715 54.455 6.76484C54.4101 6.69745 54.3203 6.54022 54.163 6.29313C53.9609 6.00111 53.7138 5.73156 53.4218 5.52939C53.0174 5.23738 52.5682 4.9903 52.0965 4.8106C51.445 4.58597 50.7262 4.47366 50.0299 4.49612C48.8394 4.42873 47.6489 4.83306 46.7279 5.59679C45.8968 6.36051 45.4251 7.43871 45.4026 8.5843C45.3577 9.28064 45.3577 10.0219 45.3577 10.8306C45.3577 11.6167 45.3577 12.3805 45.4026 13.0768C45.4475 14.6043 45.8968 15.7049 46.7279 16.3788C47.6713 17.0976 48.8394 17.457 50.0074 17.4121C50.6364 17.4121 51.2653 17.3447 51.8718 17.1875C52.4109 17.0527 52.9051 16.8056 53.3319 16.4687C53.7587 16.1317 54.0956 15.6825 54.2978 15.1658C54.5449 14.5369 54.6572 13.863 54.6347 13.1891V12.9645H51.2878C51.0856 12.9645 50.9059 12.8971 50.7712 12.7399C50.6364 12.6051 50.5465 12.4254 50.5465 12.2232V10.269C50.5465 9.86467 50.8835 9.52773 51.2878 9.52773H57.6223C58.0266 9.52773 58.3635 9.86467 58.3635 10.269V13.279C58.386 14.3123 58.2063 15.3455 57.8469 16.3114C57.5099 17.2099 56.9708 18.0186 56.2745 18.6925C55.5332 19.3888 54.6347 19.9279 53.6688 20.2648C51.3103 21.0061 48.772 21.0061 46.391 20.2648C45.4475 19.9504 44.5715 19.4337 43.8527 18.7598C43.1788 18.086 42.6397 17.2773 42.3028 16.3788C41.9434 15.4129 41.7412 14.3796 41.7188 13.3464C41.7188 13.0094 41.6963 12.6051 41.6738 12.2008C41.6738 11.774 41.6738 11.3472 41.6738 10.898C41.6738 10.4487 41.6738 10.0219 41.6738 9.61758C41.6738 9.19079 41.6963 8.83139 41.7188 8.47199Z" fill="#424A52"/>
<path d="M66.8319 9.32554C66.3602 9.30308 65.911 9.39293 65.4617 9.55017C65.1023 9.68494 64.7878 9.8871 64.5183 10.1567C64.2712 10.3813 64.069 10.6733 63.9343 10.9878C63.7995 11.2573 63.7096 11.5493 63.6872 11.8413H69.8868C69.8419 11.5493 69.7745 11.2573 69.6847 10.9878C69.5724 10.6733 69.4151 10.4037 69.1905 10.1567C68.9434 9.8871 68.6289 9.68494 68.292 9.55017C67.8203 9.37047 67.3261 9.30308 66.8319 9.32554ZM60.1156 13.4362C60.1156 12.4478 60.2729 11.4819 60.5873 10.5385C60.8794 9.66248 61.3286 8.85383 61.9351 8.15749C62.5191 7.48361 63.2604 6.94451 64.069 6.58511C64.9451 6.20324 65.8885 6.00108 66.8319 6.00108C67.7754 5.97862 68.7188 6.18078 69.5948 6.56264C70.4035 6.92204 71.1448 7.43869 71.7512 8.0901C72.3353 8.74152 72.807 9.48278 73.1215 10.3139C73.4359 11.1675 73.6156 12.066 73.5932 12.9869V14.2224C73.5932 14.6267 73.2562 14.9636 72.8519 14.9636H63.6872C63.6872 15.3455 63.777 15.7274 63.9343 16.0643C64.114 16.3788 64.3386 16.6483 64.6306 16.8505C64.9451 17.0751 65.282 17.2324 65.6414 17.3447C66.0233 17.457 66.4276 17.5019 66.8319 17.5019C67.3037 17.5244 67.7978 17.457 68.2695 17.3222C68.584 17.2324 68.8985 17.0751 69.168 16.873C69.3253 16.7606 69.4825 16.6483 69.6622 16.5585C69.8195 16.4911 69.9992 16.4686 70.1789 16.4686H72.3802C72.5824 16.4686 72.7845 16.5585 72.9193 16.6933C73.0765 16.828 73.1439 17.0077 73.1215 17.2099C73.0541 17.5693 72.9193 17.9062 72.6947 18.1983C72.3802 18.67 71.9759 19.0743 71.5042 19.3888C70.8977 19.8156 70.2238 20.1525 69.5274 20.3771C68.6514 20.6691 67.7304 20.8039 66.8319 20.7814C65.8885 20.7814 64.9451 20.6017 64.069 20.2423C63.2604 19.9054 62.5191 19.3888 61.9351 18.7374C61.3286 18.041 60.8794 17.2548 60.5873 16.3788C60.2504 15.4578 60.0932 14.447 60.1156 13.4362Z" fill="#424A52"/>
<path d="M80.1748 15.4129C80.1523 15.9071 80.3095 16.4013 80.624 16.7607C80.916 17.0976 81.4776 17.2773 82.3087 17.2773H83.9709C84.3753 17.2773 84.7122 17.6142 84.7122 18.0186V19.838C84.7122 20.2424 84.3753 20.5793 83.9709 20.5793H81.9268C80.1972 20.5793 78.8944 20.1525 77.9734 19.3214C77.0525 18.4903 76.6032 17.2099 76.5808 15.5028V9.5951H74.7613C74.5591 9.5951 74.3794 9.52771 74.2446 9.37047C74.1099 9.2357 74.02 9.056 74.02 8.85383V7.03437C74.02 6.8322 74.0874 6.65251 74.2446 6.51773C74.3794 6.38295 74.5591 6.2931 74.7613 6.2931H76.5808V1.82305C76.5808 1.41872 76.9177 1.08179 77.322 1.08179H79.411C79.8154 1.08179 80.1523 1.41872 80.1523 1.82305V6.2931H83.7014C84.1057 6.31557 84.3977 6.63004 84.4202 7.03437V8.85383C84.4202 9.25816 84.0833 9.5951 83.6789 9.5951H80.1298L80.1748 15.4129Z" fill="#424A52"/>
<path d="M98.2121 13.4137L95.1796 5.59674L92.1696 13.4137H98.2121ZM96.6846 1.35132C96.9317 1.32885 97.1563 1.4187 97.336 1.57594C97.5157 1.7781 97.6505 2.02519 97.7403 2.27228L104.457 19.6358C104.479 19.7032 104.479 19.7706 104.479 19.8155C104.479 20.2199 104.142 20.5568 103.738 20.5568H101.761C101.492 20.5793 101.2 20.5119 100.997 20.3322C100.863 20.1974 100.773 20.0402 100.705 19.8829L99.5149 16.828H90.8444L89.6538 19.8829C89.5864 20.0626 89.4741 20.1974 89.3618 20.3322C89.1372 20.5119 88.8676 20.6017 88.5981 20.5568H86.6214C86.2171 20.5568 85.8801 20.2199 85.8801 19.8155C85.8801 19.7481 85.8801 19.6808 85.9026 19.6358L92.6189 2.27228C92.7087 2.02519 92.8435 1.7781 93.0232 1.57594C93.2029 1.4187 93.45 1.32885 93.6746 1.35132H96.6846Z" fill="#424A52"/>
<path d="M116.25 14.2C116.294 13.6834 116.294 13.1668 116.25 12.6726C116.137 11.4821 115.778 10.6285 115.149 10.1119C114.52 9.57275 113.711 9.3032 112.88 9.32567C112.049 9.3032 111.24 9.57275 110.611 10.1119C109.96 10.6959 109.601 11.527 109.556 12.3806C109.511 12.7175 109.488 13.0769 109.511 13.4138C109.511 13.7732 109.533 14.1102 109.556 14.4471C109.601 15.3007 109.982 16.1094 110.611 16.6934C111.24 17.2549 112.049 17.547 112.88 17.5245C113.711 17.547 114.52 17.255 115.149 16.7383C115.778 16.2217 116.137 15.3681 116.25 14.2ZM113.711 20.849C113.195 20.849 112.678 20.804 112.184 20.6917C111.779 20.6019 111.375 20.4671 110.993 20.2874C110.701 20.1302 110.409 19.9505 110.14 19.7258C109.938 19.5686 109.735 19.3889 109.556 19.1867V25.027C109.556 25.4313 109.219 25.7683 108.814 25.7683H106.748C106.344 25.7683 106.007 25.4313 106.007 25.027V7.03448C106.007 6.63016 106.344 6.29322 106.748 6.29322H108.837C109.241 6.29322 109.578 6.63016 109.578 7.03448V7.66343C109.758 7.46127 109.938 7.28157 110.162 7.12433C110.432 6.92217 110.724 6.74247 111.038 6.58523C111.42 6.40553 111.824 6.27076 112.229 6.18091C112.723 6.06859 113.24 6.02367 113.756 6.02367C114.61 6.0012 115.463 6.20337 116.25 6.56277C116.968 6.8997 117.62 7.39388 118.136 8.00037C118.675 8.60686 119.08 9.3032 119.372 10.0669C119.664 10.8531 119.844 11.6618 119.888 12.4929C119.911 12.7624 119.911 13.0769 119.911 13.4588C119.911 13.8406 119.911 14.1551 119.888 14.4247C119.844 15.2558 119.686 16.0869 119.372 16.8506C119.08 17.6144 118.675 18.3107 118.136 18.9172C117.62 19.5237 116.968 19.9954 116.25 20.3548C115.418 20.6917 114.565 20.8714 113.711 20.849Z" fill="#424A52"/>
<path d="M131.771 14.2C131.816 13.6834 131.816 13.1668 131.771 12.6726C131.659 11.4821 131.3 10.6285 130.671 10.1119C130.042 9.57275 129.233 9.3032 128.402 9.32567C127.571 9.3032 126.762 9.57275 126.133 10.1119C125.482 10.6959 125.122 11.527 125.077 12.3806C125.032 12.7175 125.01 13.0769 125.032 13.4138C125.032 13.7732 125.055 14.1102 125.077 14.4471C125.122 15.3007 125.504 16.1094 126.133 16.6934C126.762 17.2549 127.571 17.547 128.402 17.5245C129.233 17.547 130.042 17.255 130.671 16.7383C131.3 16.2217 131.659 15.3681 131.771 14.2ZM129.211 20.8265C128.694 20.8265 128.177 20.7816 127.683 20.6693C127.279 20.5794 126.874 20.4446 126.493 20.2649C126.178 20.1077 125.886 19.928 125.639 19.7258C125.437 19.5686 125.235 19.3889 125.055 19.1867V25.027C125.055 25.2292 124.965 25.4089 124.83 25.5436C124.696 25.6784 124.516 25.7683 124.314 25.7683H122.225C121.82 25.7683 121.483 25.4313 121.483 25.027V7.03448C121.483 6.63016 121.82 6.29322 122.225 6.29322H124.314C124.718 6.29322 125.055 6.63016 125.055 7.03448V7.66343C125.235 7.46127 125.437 7.28157 125.639 7.12433C125.909 6.92217 126.201 6.74247 126.493 6.58523C126.874 6.40553 127.279 6.27076 127.683 6.18091C128.177 6.06859 128.694 6.02367 129.211 6.02367C130.064 6.0012 130.918 6.20337 131.704 6.56277C132.423 6.8997 133.074 7.39388 133.591 8.00037C134.13 8.60686 134.534 9.3032 134.826 10.0669C135.118 10.8531 135.298 11.6618 135.343 12.4929C135.365 12.7624 135.365 13.0769 135.365 13.4588C135.365 13.8406 135.365 14.1551 135.343 14.4247C135.298 15.2558 135.141 16.0869 134.826 16.8506C134.534 17.6144 134.13 18.3107 133.591 18.9172C133.052 19.5237 132.423 19.9954 131.704 20.3548C130.918 20.7142 130.064 20.8939 129.211 20.8939" fill="#424A52"/>
</g>
<defs>
<clipPath id="clip0_30608_48910">
<rect width="135" height="24.9334" fill="white" transform="translate(0.5 0.969482)"/>
</clipPath>
</defs>
</svg>
