<svg width="136" height="31" viewBox="0 0 136 31" fill="none" xmlns="http://www.w3.org/2000/svg">
<g clip-path="url(#clip0_30608_48903)">
<path d="M0.420898 12.0221H12.8269H20.3607V4.55591L0.420898 12.0221Z" fill="#FF9D28"/>
<path d="M20.3608 4.5559V30.9469L29.7894 1.03711L20.3608 4.5559Z" fill="#68C5ED"/>
<path d="M20.361 12.0222H12.8271L20.361 30.9245V12.0222Z" fill="#044D80"/>
<path d="M0.420898 12.0222L14.7668 16.8718L12.8269 12.0222H0.420898Z" fill="#E54747"/>
<path d="M46.1203 23.977C46.0075 24.0898 45.8271 24.2252 45.579 24.3831C45.3308 24.5409 44.9925 24.7214 44.5865 24.8793C44.1805 25.0372 43.6842 25.1951 43.0752 25.3079C42.4887 25.4206 41.812 25.4883 41.0451 25.4883C39.5789 25.4883 38.2932 25.2402 37.2105 24.7891C36.1278 24.3154 35.2481 23.6612 34.5489 22.8041C33.8496 21.947 33.3308 20.9545 33.015 19.8041C32.6767 18.6537 32.5188 17.368 32.5188 15.9921C32.5188 14.6161 32.6993 13.3304 33.0602 12.1575C33.4211 10.9846 33.9399 9.96952 34.6617 9.11238C35.3609 8.25524 36.2632 7.57855 37.3233 7.10486C38.3835 6.63118 39.6466 6.38306 41.0902 6.38306C41.7895 6.38306 42.4436 6.45072 43.0075 6.56351C43.5714 6.69884 44.0902 6.83418 44.5188 7.01463C44.9474 7.19508 45.3083 7.37554 45.579 7.55599C45.8722 7.73644 46.0752 7.91689 46.2105 8.02967C46.3684 8.16501 46.5263 8.34546 46.6391 8.54847C46.7519 8.75148 46.8196 8.97704 46.8196 9.20261C46.8196 9.56351 46.6842 9.92441 46.4135 10.2853C46.1429 10.6462 45.8496 10.9846 45.5113 11.3003C45.2857 11.0748 45.0376 10.8492 44.7669 10.6237C44.4962 10.3981 44.1805 10.1951 43.8421 10.0146C43.5038 9.83419 43.1203 9.69885 42.6917 9.58607C42.2632 9.47328 41.7895 9.40561 41.2481 9.40561C40.3233 9.40561 39.5338 9.58606 38.9023 9.96952C38.2707 10.353 37.7744 10.8267 37.391 11.4357C37.0075 12.0447 36.7368 12.7214 36.5789 13.4883C36.4211 14.2552 36.3308 15.0447 36.3308 15.8567C36.3308 16.7139 36.4211 17.5259 36.5789 18.3154C36.7368 19.1049 37.0301 19.7816 37.4361 20.3906C37.8421 20.9996 38.3609 21.4733 39.015 21.8342C39.6692 22.1951 40.4586 22.3755 41.4286 22.3755C41.9474 22.3755 42.3985 22.3079 42.8271 22.1951C43.2556 22.0597 43.6391 21.9019 43.9549 21.7214C44.2932 21.541 44.5639 21.3379 44.812 21.1575C45.0602 20.9545 45.2632 20.774 45.4211 20.6387C45.5338 20.774 45.6466 20.9319 45.8045 21.1124C45.9624 21.2928 46.0977 21.4958 46.2105 21.6763C46.3459 21.8793 46.4361 22.0823 46.5489 22.2853C46.6391 22.4883 46.6842 22.6688 46.6842 22.8267C46.6842 23.0748 46.6391 23.2552 46.5489 23.4357C46.4586 23.5936 46.3008 23.774 46.1203 23.977ZM60.1955 21.8793C60.1955 23.3229 60.3985 24.3831 60.8271 25.0372C60.4887 25.1725 60.1955 25.2628 59.9023 25.3079C59.609 25.353 59.3158 25.3981 59 25.3981C58.3459 25.3981 57.8496 25.2628 57.5113 25.0146C57.1729 24.7665 56.9474 24.3831 56.8571 23.9094C56.4511 24.3379 55.9323 24.6988 55.2556 24.9921C54.6015 25.2853 53.7895 25.4206 52.8421 25.4206C52.3459 25.4206 51.8496 25.353 51.3534 25.2176C50.8571 25.0823 50.406 24.8567 50 24.541C49.594 24.2252 49.2782 23.8191 49.0075 23.3003C48.7594 22.7816 48.6241 22.15 48.6241 21.4056C48.6241 20.4808 48.8496 19.7139 49.3008 19.1274C49.7519 18.541 50.3158 18.0898 50.9925 17.7515C51.6692 17.4131 52.4135 17.1876 53.1805 17.0522C53.9699 16.9169 54.6917 16.8492 55.3459 16.8041C55.5714 16.7816 55.7744 16.7816 56 16.7816H56.5865V16.2853C56.5865 15.5861 56.406 15.0898 56.0226 14.774C55.6391 14.4808 55.0301 14.3229 54.1955 14.3229C53.406 14.3229 52.7068 14.4582 52.0977 14.7064C51.4887 14.9545 50.8797 15.2477 50.2932 15.5861C50.0451 15.2703 49.8196 14.9319 49.6842 14.5485C49.5263 14.165 49.4586 13.8943 49.4586 13.7139C49.4586 13.4658 49.594 13.2176 49.8872 12.9695C50.1805 12.7214 50.5639 12.5184 51.0602 12.3154C51.5564 12.1124 52.1203 11.977 52.7744 11.8417C53.406 11.7289 54.0827 11.6613 54.8045 11.6613C55.797 11.6613 56.6316 11.7515 57.3083 11.9545C57.985 12.1575 58.5489 12.4733 58.9774 12.8793C59.406 13.3079 59.7218 13.8267 59.9023 14.4582C60.0827 15.0898 60.1729 15.8342 60.1729 16.6688L60.1955 21.8793ZM56.6767 18.6988H56.2932C56.1579 18.6988 56.0451 18.6988 55.9098 18.7214C55.4586 18.7665 55.0075 18.8116 54.5564 18.8793C54.1053 18.947 53.6993 19.0823 53.3609 19.2628C53.0226 19.4432 52.7293 19.6913 52.5038 19.9846C52.2782 20.2778 52.1654 20.6612 52.1654 21.1124C52.1654 21.6312 52.3008 22.0597 52.594 22.4207C52.8872 22.7816 53.3835 22.962 54.0827 22.962C54.4211 22.962 54.7594 22.9169 55.0752 22.8267C55.391 22.7364 55.6617 22.6237 55.9098 22.4658C56.1579 22.3079 56.3383 22.15 56.4737 21.9921C56.609 21.8116 56.6767 21.6537 56.6767 21.5184V18.6988ZM67.0301 13.2853C67.3233 12.947 67.7744 12.5861 68.406 12.2252C69.0376 11.8643 69.8045 11.6838 70.7519 11.6838C71.4286 11.6838 72.0827 11.7966 72.6917 12.0222C73.3008 12.2477 73.8421 12.6312 74.3158 13.1274C74.7895 13.6462 75.1729 14.3229 75.4436 15.1575C75.7368 15.9921 75.8722 17.0297 75.8722 18.2703C75.8722 19.6913 75.7143 20.8868 75.3759 21.8116C75.0376 22.7364 74.6316 23.4808 74.1128 23.9996C73.594 24.541 73.0075 24.9244 72.3759 25.15C71.7444 25.3755 71.0902 25.4883 70.4586 25.4883C69.9398 25.4883 69.4662 25.4206 69.0827 25.3079C68.6992 25.1951 68.3609 25.0597 68.0902 24.9019C67.8195 24.7665 67.6165 24.6086 67.4586 24.4733C67.3233 24.3379 67.2105 24.2252 67.188 24.18V30.947H63.4436V12.0898C63.5338 12.0673 63.6466 12.0447 63.782 12.0447C63.8947 12.0222 64.0301 12.0222 64.1654 11.9996C64.3233 11.9996 64.4812 11.977 64.6842 11.977C65.2932 11.977 65.812 12.0673 66.2406 12.2703C66.6466 12.4733 66.9173 12.8116 67.0301 13.2853ZM71.9925 18.3605C71.9925 17.8191 71.9474 17.3003 71.8571 16.8267C71.7669 16.353 71.609 15.947 71.406 15.5861C71.203 15.2477 70.9098 14.977 70.5489 14.774C70.188 14.571 69.7594 14.4808 69.2406 14.4808C68.4737 14.4808 67.9323 14.6387 67.6391 14.9094C67.3459 15.2026 67.188 15.5184 67.188 15.8793V21.7214C67.3233 21.8793 67.594 22.0372 67.9774 22.2402C68.3609 22.4432 68.7895 22.5334 69.2857 22.5334C70.2105 22.5334 70.8872 22.1725 71.3383 21.4282C71.7669 20.7064 71.9925 19.6913 71.9925 18.3605ZM78.7594 23.0973C78.6241 22.7364 78.5564 22.353 78.5113 21.947C78.4662 21.541 78.4662 21.1349 78.4662 20.7289V7.98456C78.6015 7.96201 78.7368 7.93945 78.8722 7.93945C79.0075 7.91689 79.1429 7.91689 79.2782 7.89434C79.4135 7.89434 79.5714 7.87178 79.7068 7.87178C80 7.87178 80.2932 7.89433 80.5865 7.962C80.8797 8.00712 81.1504 8.1199 81.3759 8.30035C81.6241 8.45824 81.8045 8.68381 81.9624 8.97704C82.0977 9.27027 82.188 9.63118 82.188 10.0823V12.0447H86.0451V14.8191H82.2105V20.6838C82.2105 21.9695 82.7293 22.6011 83.7669 22.6011C84.015 22.6011 84.2632 22.556 84.4887 22.4883C84.7143 22.3981 84.9173 22.3079 85.0977 22.2176C85.2782 22.1274 85.4361 22.0146 85.5714 21.9018C85.7068 21.7891 85.797 21.6988 85.8647 21.6537C86.1353 22.0598 86.3609 22.3981 86.4962 22.6913C86.6316 22.9846 86.7218 23.2552 86.7218 23.5259C86.7218 23.774 86.6316 23.9996 86.4286 24.2252C86.2256 24.4507 85.9549 24.6763 85.6165 24.8567C85.2782 25.0597 84.8496 25.2176 84.3534 25.3304C83.8571 25.4432 83.3158 25.5109 82.7293 25.5109C81.6015 25.5109 80.6992 25.2853 80.0677 24.8567C79.4812 24.3831 79.0301 23.8191 78.7594 23.0973ZM95.5188 22.7364C95.9699 22.7364 96.3759 22.6913 96.7368 22.5785C97.0752 22.4883 97.391 22.353 97.6842 22.2176C97.9549 22.0823 98.203 21.9019 98.406 21.744C98.609 21.5635 98.7895 21.4056 98.9474 21.2703C99.1729 21.541 99.3985 21.9019 99.6466 22.3304C99.8947 22.759 100.008 23.1199 100.008 23.3906C100.008 23.7966 99.782 24.1575 99.3308 24.4958C98.9474 24.7891 98.406 25.0372 97.6842 25.2628C96.985 25.4658 96.1504 25.5785 95.203 25.5785C94.3459 25.5785 93.4887 25.4658 92.6541 25.2402C91.8195 25.0146 91.0752 24.6312 90.4211 24.0898C89.7669 23.5485 89.2481 22.8041 88.8421 21.8793C88.4361 20.9545 88.2331 19.7816 88.2331 18.3831C88.2331 17.2327 88.4135 16.2402 88.7744 15.4056C89.1353 14.571 89.609 13.8718 90.1955 13.3304C90.782 12.7891 91.4586 12.3831 92.2256 12.1124C92.9699 11.8643 93.7368 11.7289 94.5263 11.7289C95.5414 11.7289 96.4211 11.8868 97.1429 12.2026C97.8647 12.5184 98.4286 12.947 98.8797 13.4883C99.3308 14.0297 99.6466 14.6387 99.8496 15.3379C100.053 16.0372 100.143 16.759 100.143 17.5259V17.9094C100.143 18.0673 100.143 18.2026 100.12 18.3831C100.12 18.541 100.098 18.6988 100.098 18.8567C100.098 19.0146 100.075 19.1274 100.053 19.2176H91.9549C92.0226 20.2327 92.3383 21.0673 92.9023 21.744C93.4436 22.3981 94.3233 22.7364 95.5188 22.7364ZM96.782 17.165C96.782 16.2853 96.6015 15.5635 96.2631 15.0222C95.9248 14.4808 95.3158 14.1876 94.4361 14.1876C93.6692 14.1876 93.0827 14.4582 92.6316 14.977C92.1805 15.4958 91.9549 16.2176 91.9549 17.165H96.782ZM106.662 13.353C106.774 13.1951 106.91 13.0146 107.09 12.8116C107.271 12.6086 107.496 12.4282 107.767 12.2703C108.038 12.1124 108.331 11.977 108.647 11.8643C108.962 11.7515 109.301 11.7064 109.684 11.7064C109.91 11.7064 110.135 11.7289 110.383 11.7515C110.632 11.7966 110.857 11.8643 111.06 11.9545C111.263 12.0447 111.444 12.18 111.579 12.3605C111.714 12.541 111.782 12.744 111.782 12.9921C111.782 13.3981 111.692 13.8492 111.489 14.368C111.286 14.8868 111.083 15.3379 110.88 15.6988C110.564 15.4507 110.248 15.2477 109.955 15.1124C109.639 14.977 109.278 14.9094 108.85 14.9094C108.286 14.9094 107.812 15.0673 107.429 15.4056C107.045 15.744 106.842 16.1274 106.842 16.6011V25.4883H103.098V12.0673C103.188 12.0447 103.301 12.0222 103.436 12.0222C103.549 11.9996 103.684 11.9996 103.82 11.977C103.955 11.977 104.135 11.9545 104.338 11.9545C104.925 11.9545 105.444 12.0673 105.872 12.2928C106.278 12.541 106.549 12.8793 106.662 13.353ZM117.286 13.353C117.398 13.1951 117.534 13.0146 117.714 12.8116C117.895 12.6086 118.12 12.4282 118.391 12.2703C118.662 12.1124 118.955 11.977 119.271 11.8643C119.586 11.7515 119.925 11.7064 120.308 11.7064C120.534 11.7064 120.759 11.7289 121.008 11.7515C121.256 11.7966 121.481 11.8643 121.684 11.9545C121.887 12.0447 122.068 12.18 122.203 12.3605C122.338 12.541 122.406 12.744 122.406 12.9921C122.406 13.3981 122.316 13.8492 122.113 14.368C121.91 14.8868 121.707 15.3379 121.504 15.6988C121.188 15.4507 120.872 15.2477 120.579 15.1124C120.263 14.977 119.902 14.9094 119.474 14.9094C118.91 14.9094 118.436 15.0673 118.053 15.4056C117.669 15.744 117.466 16.1274 117.466 16.6011V25.4883H113.722V12.0673C113.812 12.0447 113.925 12.0222 114.06 12.0222C114.173 11.9996 114.308 11.9996 114.444 11.977C114.579 11.977 114.759 11.9545 114.962 11.9545C115.549 11.9545 116.068 12.0673 116.496 12.2928C116.902 12.541 117.173 12.8793 117.286 13.353ZM135.128 21.8793C135.128 23.3229 135.331 24.3831 135.759 25.0372C135.421 25.1725 135.128 25.2628 134.835 25.3079C134.541 25.353 134.248 25.3981 133.932 25.3981C133.278 25.3981 132.782 25.2628 132.444 25.0146C132.105 24.7665 131.88 24.3831 131.789 23.9094C131.383 24.3379 130.865 24.6988 130.188 24.9921C129.534 25.2853 128.722 25.4206 127.774 25.4206C127.278 25.4206 126.782 25.353 126.286 25.2176C125.789 25.0823 125.338 24.8567 124.932 24.541C124.526 24.2252 124.211 23.8191 123.94 23.3003C123.692 22.7816 123.556 22.15 123.556 21.4056C123.556 20.4808 123.782 19.7139 124.233 19.1274C124.684 18.541 125.248 18.0898 125.925 17.7515C126.601 17.4131 127.346 17.1876 128.113 17.0522C128.902 16.9169 129.624 16.8492 130.278 16.8041C130.504 16.7816 130.707 16.7816 130.932 16.7816H131.519V16.2853C131.519 15.5861 131.338 15.0898 130.955 14.774C130.571 14.4808 129.962 14.3229 129.128 14.3229C128.338 14.3229 127.639 14.4582 127.03 14.7064C126.421 14.9545 125.812 15.2477 125.226 15.5861C124.977 15.2703 124.752 14.9319 124.617 14.5485C124.459 14.165 124.391 13.8943 124.391 13.7139C124.391 13.4658 124.526 13.2176 124.82 12.9695C125.113 12.7214 125.496 12.5184 125.992 12.3154C126.489 12.1124 127.053 11.977 127.707 11.8417C128.338 11.7289 129.015 11.6613 129.737 11.6613C130.729 11.6613 131.564 11.7515 132.241 11.9545C132.917 12.1575 133.481 12.4733 133.91 12.8793C134.338 13.3079 134.654 13.8267 134.835 14.4582C135.015 15.0898 135.105 15.8342 135.105 16.6688L135.128 21.8793ZM131.609 18.6988H131.226C131.09 18.6988 130.977 18.6988 130.842 18.7214C130.391 18.7665 129.94 18.8116 129.489 18.8793C129.038 18.947 128.632 19.0823 128.293 19.2628C127.955 19.4432 127.662 19.6913 127.436 19.9846C127.211 20.2778 127.098 20.6612 127.098 21.1124C127.098 21.6312 127.233 22.0597 127.526 22.4207C127.82 22.7816 128.316 22.962 129.015 22.962C129.353 22.962 129.692 22.9169 130.008 22.8267C130.323 22.7364 130.594 22.6237 130.842 22.4658C131.09 22.3079 131.271 22.15 131.406 21.9921C131.541 21.8116 131.609 21.6537 131.609 21.5184V18.6988Z" fill="#044D80"/>
</g>
<defs>
<clipPath id="clip0_30608_48903">
<rect width="135.338" height="30" fill="white" transform="translate(0.330811 0.969482)"/>
</clipPath>
</defs>
</svg>
