<svg width="156" height="19" viewBox="0 0 156 19" fill="none" xmlns="http://www.w3.org/2000/svg">
<g clip-path="url(#clip0_30608_48924)">
<path d="M141.576 2.27218C141.576 1.44551 142.247 0.799683 143.048 0.799683H154.001C154.828 0.799683 155.474 1.47134 155.474 2.27218V7.64551C155.474 8.47218 154.802 9.11801 154.001 9.11801H152.865C152.038 9.11801 150.798 9.45385 150.075 9.84135L146.096 12.063C145.373 12.4505 145.089 12.1663 145.425 11.443L145.89 10.4355C146.226 9.68635 145.838 9.09218 145.011 9.09218H143.022C142.196 9.09218 141.55 8.42051 141.55 7.61968V2.27218" fill="url(#paint0_linear_30608_48924)"/>
<path d="M141.575 16.2739C141.653 16.2739 141.73 16.248 141.782 16.2222C141.834 16.1964 141.859 16.1447 141.859 16.0414C141.859 15.9897 141.859 15.938 141.834 15.9122C141.808 15.8864 141.782 15.8605 141.756 15.8347C141.73 15.8089 141.679 15.8089 141.653 15.8089C141.601 15.8089 141.575 15.8089 141.524 15.8089H141.265V16.248L141.575 16.2739ZM141.575 15.4989C141.808 15.4989 141.989 15.5505 142.092 15.6539C142.195 15.7572 142.273 15.8864 142.273 16.0672C142.273 16.2222 142.221 16.3514 142.144 16.4289C142.066 16.5064 141.963 16.558 141.834 16.5839L142.273 17.333H141.834L141.394 16.6097H141.239V17.333H140.852V15.5247L141.575 15.4989ZM140.439 16.868C140.49 17.023 140.568 17.1522 140.671 17.2555C140.774 17.3589 140.904 17.4622 141.033 17.5139C141.188 17.5655 141.343 17.6172 141.498 17.6172C141.679 17.6172 141.834 17.5914 141.963 17.5139C142.118 17.4622 142.221 17.3589 142.324 17.2555C142.428 17.1522 142.505 17.023 142.557 16.868C142.609 16.713 142.634 16.558 142.634 16.403C142.634 16.248 142.609 16.093 142.557 15.938C142.505 15.783 142.428 15.6539 142.324 15.5505C142.221 15.4472 142.092 15.3439 141.963 15.2922C141.808 15.2405 141.653 15.1889 141.498 15.1889C141.317 15.1889 141.162 15.2147 141.033 15.2922C140.878 15.3439 140.774 15.4472 140.671 15.5505C140.568 15.6539 140.49 15.783 140.439 15.938C140.387 16.093 140.361 16.248 140.361 16.403C140.361 16.5839 140.387 16.7389 140.439 16.868ZM139.974 15.7572C140.051 15.5505 140.18 15.3697 140.335 15.2147C140.49 15.0597 140.671 14.9305 140.878 14.853C141.084 14.7755 141.291 14.7239 141.524 14.7239C141.756 14.7239 141.963 14.7755 142.169 14.853C142.376 14.9305 142.557 15.0597 142.712 15.2147C142.867 15.3697 142.996 15.5505 143.074 15.7572C143.151 15.9639 143.203 16.1705 143.203 16.403C143.203 16.6355 143.151 16.8422 143.074 17.0489C142.996 17.2555 142.867 17.4364 142.712 17.5914C142.557 17.7464 142.376 17.8497 142.169 17.953C141.963 18.0305 141.756 18.0822 141.524 18.0822C141.291 18.0822 141.084 18.0305 140.878 17.953C140.671 17.8755 140.49 17.7464 140.335 17.5914C140.18 17.4364 140.051 17.2555 139.974 17.0489C139.896 16.8422 139.844 16.6355 139.844 16.403C139.844 16.1705 139.896 15.9639 139.974 15.7572Z" fill="#2D2E2C"/>
<path d="M136.022 11.3653H133.593C133.412 11.3653 133.361 11.262 133.361 11.1328L133.387 10.8228C133.438 10.177 134.032 9.71197 134.833 9.71197C135.608 9.71197 136.228 10.177 136.28 10.797L136.306 11.107C136.306 11.262 136.254 11.3653 136.022 11.3653ZM134.756 7.1803C132.147 7.1803 130.261 9.06613 130.261 11.2103V14.0778C130.261 16.4803 132.043 18.1336 134.756 18.1336C136.228 18.1336 137.287 17.617 138.037 16.8936C138.398 16.532 138.682 16.1186 138.915 15.7053C139.044 15.4728 138.992 15.2403 138.837 15.1628L136.642 14.052C136.512 13.9745 136.383 14.0261 136.306 14.2328C135.996 15.0078 135.479 15.3695 134.73 15.3695C133.903 15.3695 133.335 14.827 133.335 14.1036V13.6128C133.335 13.4578 133.412 13.3803 133.593 13.3803H138.967C139.096 13.3803 139.199 13.3028 139.199 13.1478V11.2103C139.173 9.09197 137.339 7.1803 134.756 7.1803Z" fill="#2D2E2C"/>
<path d="M125.146 9.89313C125.843 9.89313 126.334 10.3323 126.722 11.2365C126.799 11.3915 126.902 11.4431 127.057 11.3656L129.227 10.384C129.357 10.3065 129.408 10.1773 129.331 9.99647C129.124 9.53147 128.917 9.11813 128.633 8.75646C127.91 7.7748 126.825 7.2323 125.12 7.2323C122.356 7.2323 120.702 8.88564 120.702 11.2881V14.0006C120.702 16.4031 122.356 18.0306 125.12 18.0306C126.67 18.0306 127.703 17.5656 128.427 16.739C128.814 16.3256 129.098 15.809 129.331 15.2406C129.408 15.0598 129.357 14.9565 129.227 14.879L127.057 13.8715C126.902 13.794 126.799 13.8456 126.722 14.0006C126.334 14.879 125.843 15.344 125.146 15.344C124.319 15.344 123.802 14.7756 123.802 14.0523V11.159C123.802 10.4873 124.345 9.89313 125.146 9.89313Z" fill="#2D2E2C"/>
<path d="M118.765 7.4906H116.13C115.975 7.4906 115.897 7.5681 115.897 7.7231V17.5914C115.897 17.7464 115.975 17.8239 116.13 17.8239H118.765C118.894 17.8239 118.971 17.7464 118.971 17.5914V7.7231C118.946 7.54227 118.868 7.4906 118.765 7.4906Z" fill="#2D2E2C"/>
<path d="M117.422 3.12463C116.569 3.12463 115.872 3.82213 115.872 4.67463C115.872 5.52713 116.569 6.22463 117.422 6.22463C118.274 6.22463 118.972 5.52713 118.972 4.67463C118.998 3.82213 118.274 3.12463 117.422 3.12463Z" fill="#2D2E2C"/>
<path d="M114.502 7.4906H111.687C111.583 7.4906 111.48 7.5681 111.454 7.67144L109.801 12.4506C109.723 12.6831 109.568 13.2773 109.542 13.5614H109.465C109.413 13.2773 109.31 12.7348 109.207 12.4506L107.476 7.6456C107.424 7.54227 107.372 7.4906 107.243 7.4906H104.427C104.221 7.4906 104.169 7.61977 104.221 7.8006L108.199 17.6431C108.251 17.7464 108.328 17.7981 108.432 17.7981H110.498C110.602 17.7981 110.705 17.7464 110.731 17.6431L114.735 7.8006C114.787 7.61977 114.709 7.4906 114.502 7.4906Z" fill="#2D2E2C"/>
<path d="M99.9581 13.9745C99.9581 14.6979 99.3639 15.2662 98.5889 15.2662C97.7881 15.2662 97.2456 14.7237 97.2456 13.9745V11.3137C97.2456 10.5904 97.7881 10.0737 98.5889 10.0737C99.3897 10.0737 99.9581 10.6162 99.9581 11.3137V13.9745ZM102.8 3.82202H100.191C100.087 3.82202 99.9581 3.89953 99.9581 4.05453V7.12869C99.9581 7.46453 100.036 8.11036 100.036 8.11036C99.5964 7.72286 98.8472 7.49036 98.3306 7.49036C95.9022 7.49036 94.1714 9.11786 94.1714 11.5204V13.7679C94.1714 16.3512 95.6697 17.7979 98.3822 17.7979C99.0022 17.7979 99.7256 17.5912 100.191 17.2037C100.32 17.1004 100.475 17.1262 100.475 17.307V17.6429C100.475 17.7204 100.552 17.7979 100.656 17.7979H102.8C102.929 17.7979 103.032 17.7204 103.032 17.5654V4.02869C103.032 3.89953 102.929 3.82202 102.8 3.82202Z" fill="#2D2E2C"/>
<path d="M88.3848 13.0445H87.0415C86.809 13.0445 86.7315 12.9154 86.7832 12.7862L87.2482 10.9779C87.4807 10.1512 87.6357 9.16952 87.6873 8.60119H87.7648C87.8165 9.16952 87.9457 10.1512 88.1523 10.9779L88.6173 12.7862C88.669 12.8895 88.5657 13.0445 88.3848 13.0445ZM88.9015 3.97702C88.8498 3.87369 88.7982 3.82202 88.669 3.82202H86.6798C86.5507 3.82202 86.499 3.87369 86.4473 3.97702L82.1332 17.5137C82.0557 17.6945 82.159 17.7979 82.3657 17.7979H85.1557C85.259 17.7979 85.3107 17.7462 85.3623 17.6429L86.0082 15.6279C86.0598 15.5245 86.0857 15.4987 86.2407 15.4987H89.1598C89.3148 15.4987 89.3665 15.5245 89.3923 15.6279L90.0123 17.6429C90.064 17.7462 90.0898 17.7979 90.2448 17.7979H93.0607C93.2932 17.7979 93.3448 17.6945 93.2932 17.5137L88.9015 3.97702Z" fill="#2D2E2C"/>
<path d="M74.1504 11.3653H71.7221C71.5413 11.3653 71.4896 11.262 71.4896 11.1328L71.5154 10.8228C71.5671 10.177 72.1613 9.71197 72.9621 9.71197C73.7371 9.71197 74.3571 10.177 74.4088 10.797L74.4346 11.107C74.4088 11.262 74.3829 11.3653 74.1504 11.3653ZM72.8588 7.1803C70.2496 7.1803 68.3638 9.06613 68.3638 11.2103V14.0778C68.3638 16.4803 70.1463 18.1336 72.8588 18.1336C74.3313 18.1336 75.3904 17.617 76.1396 16.8936C76.5013 16.532 76.7854 16.1186 77.0179 15.7053C77.1471 15.4728 77.0954 15.2403 76.9404 15.1628L74.7446 14.052C74.6154 13.9745 74.4863 14.0261 74.4088 14.2328C74.0988 15.0078 73.5821 15.3695 72.8329 15.3695C72.0063 15.3695 71.4379 14.827 71.4379 14.1036V13.6128C71.4379 13.4578 71.5154 13.3803 71.6963 13.3803H77.0438C77.1729 13.3803 77.2763 13.3028 77.2763 13.1478V11.2103C77.3021 9.09197 75.4679 7.1803 72.8588 7.1803Z" fill="#2D2E2C"/>
<path d="M67.0463 7.54227C66.8913 7.51644 66.7105 7.4906 66.478 7.4906C65.6255 7.4906 64.8247 7.8781 64.4888 8.3431C64.3855 8.44643 64.2047 8.4206 64.2047 8.23977V7.7231C64.2047 7.5681 64.1272 7.4906 63.9722 7.4906H61.8538C61.7247 7.4906 61.6213 7.5681 61.6213 7.7231V17.5914C61.6213 17.7464 61.6988 17.8239 61.8538 17.8239H64.463C64.5922 17.8239 64.6955 17.7464 64.6955 17.5914V11.7014C64.6955 10.9264 65.238 10.3581 66.0388 10.3581C66.3747 10.3581 66.6588 10.4098 66.9172 10.4614C67.1238 10.5131 67.253 10.4356 67.253 10.2289V7.7231C67.253 7.6456 67.1755 7.54227 67.0463 7.54227Z" fill="#2D2E2C"/>
<path d="M55.2924 15.4215H54.4657C54.0007 15.4215 53.7424 15.1373 53.7424 14.5173C53.7424 14.0781 54.0524 13.7681 54.4916 13.7681H56.3774C56.5066 13.7681 56.5582 14.0006 56.5582 14.0781C56.5066 14.879 55.8866 15.4215 55.2924 15.4215ZM55.2149 7.2323C53.8457 7.2323 52.8124 7.67146 52.0632 8.36897C51.6499 8.75647 51.3141 9.19563 51.0299 9.68647C50.9007 9.91897 50.9524 10.1515 51.1074 10.229L53.3032 11.3398C53.4324 11.4173 53.5616 11.3656 53.6391 11.159C53.9491 10.384 54.4657 10.0223 55.2149 10.0223C56.0416 10.0223 56.5582 10.5906 56.5582 11.2881V11.3915C56.5582 11.5465 56.4808 11.624 56.3257 11.624H54.3624C52.3991 11.624 50.8232 12.6831 50.8232 14.5431V14.7756C50.8232 16.6615 52.2441 17.7981 54.1557 17.7981H54.9307C55.5249 17.7981 56.1966 17.5915 56.6616 17.2298C56.7391 17.1523 56.8682 17.1781 56.8941 17.2556L56.9716 17.6431C56.9974 17.7465 57.0749 17.824 57.2041 17.824H59.3741C59.5033 17.824 59.6066 17.7465 59.6066 17.5915V11.314C59.6066 8.91146 57.9274 7.2323 55.2149 7.2323Z" fill="#2D2E2C"/>
<path d="M49.9446 7.4906H47.258C47.1288 7.4906 47.0255 7.5681 47.0255 7.67144L46.018 11.8306C45.9146 12.2956 45.8113 12.9673 45.7855 13.4323H45.708C45.6821 12.9673 45.6046 12.3731 45.4755 11.8306L44.468 7.67144C44.4421 7.5681 44.3646 7.4906 44.2355 7.4906H42.0396C41.9105 7.4906 41.833 7.5681 41.8071 7.67144L40.8255 11.8306C40.7221 12.2956 40.6188 12.8898 40.593 13.3289H40.5413C40.5155 12.8898 40.438 12.2956 40.3088 11.8306L39.2755 7.67144C39.2496 7.5681 39.198 7.4906 39.043 7.4906H36.3046C36.098 7.4906 36.0463 7.59394 36.098 7.77477L39.2238 17.6431C39.2755 17.7464 39.3271 17.7981 39.4563 17.7981H41.4196C41.5488 17.7981 41.6263 17.7464 41.6521 17.6431L42.8663 13.0448C42.9955 12.5281 43.0988 11.6756 43.0988 11.6756H43.1763C43.1763 11.6756 43.2796 12.5539 43.4088 13.0448L44.5971 17.6173C44.623 17.7206 44.6746 17.7981 44.8296 17.7981H46.7671C46.8705 17.7981 46.948 17.7464 46.9996 17.6431L50.1771 7.77477C50.2288 7.61977 50.1513 7.4906 49.9446 7.4906Z" fill="#2D2E2C"/>
<path d="M34.9875 7.49066H33.4892C33.2825 7.49066 33.2309 7.41316 33.2309 7.25816V5.86317C33.2309 5.70817 33.1792 5.65649 33.0242 5.65649H31.6292C31.5517 5.65649 31.4225 5.70816 31.3709 5.75983L28.6067 8.524V10.0223C28.6067 10.1773 28.6842 10.229 28.8392 10.229H29.95C30.1567 10.229 30.2084 10.3065 30.2084 10.4615V13.9232C30.2084 16.584 31.8617 17.9532 33.98 17.9532H34.91C35.1167 17.9532 35.1942 17.8757 35.1942 17.7207V15.4473C35.1942 15.3182 35.1167 15.2148 34.9617 15.2148H34.6C33.6959 15.2148 33.2567 14.6723 33.2567 13.7165V10.4873C33.2567 10.3323 33.3342 10.2548 33.515 10.2548H35.0134C35.1684 10.2548 35.22 10.2032 35.22 10.0482V7.69733C35.1942 7.54233 35.1425 7.49066 34.9875 7.49066Z" fill="#2D2E2C"/>
<path d="M28.3481 3.71872C27.9606 3.64122 27.3406 3.56372 26.7723 3.56372C23.4914 3.56372 22.2514 5.83706 22.2514 7.64539V8.18789C22.2514 8.34289 22.1739 8.42039 22.0189 8.42039H21.5023C21.3731 8.42039 21.2698 8.49789 21.2698 8.65289V10.9779C21.2698 11.1329 21.3473 11.2104 21.5023 11.2104H22.0189C22.2256 11.2104 22.2514 11.2879 22.2514 11.4429V17.6171C22.2514 17.7721 22.3289 17.8496 22.4839 17.8496H25.0931C25.2481 17.8496 25.3256 17.7721 25.3256 17.6171V11.4429C25.3256 11.2879 25.4031 11.2104 25.5581 11.2104H27.0048C27.1598 11.2104 27.2373 11.1329 27.2373 10.9779V8.65289C27.2373 8.49789 27.1598 8.42039 27.0048 8.42039H25.5581C25.3773 8.42039 25.3256 8.34289 25.3256 8.18789V7.59372C25.3256 6.81872 25.8681 6.32789 26.7206 6.32789C27.0048 6.32789 27.3148 6.37956 27.5731 6.43122C27.7281 6.48289 27.8056 6.43122 27.8573 6.30206L28.5548 4.02873C28.5806 3.87373 28.5289 3.74456 28.3481 3.71872Z" fill="#2D2E2C"/>
<path d="M16.8784 14.104C16.8784 14.8273 16.31 15.3956 15.535 15.3956C14.7084 15.3956 14.14 14.8273 14.14 14.104V11.2106C14.14 10.5131 14.7084 9.91896 15.535 9.91896C16.31 9.91896 16.8784 10.4873 16.8784 11.2106V14.104ZM15.535 7.2323C12.8225 7.2323 11.04 8.88564 11.04 11.2881V14.0006C11.04 16.4031 12.8225 18.0306 15.535 18.0306C18.1959 18.0306 19.9784 16.4031 19.9784 14.0006V11.2881C19.9784 8.88564 18.1959 7.2323 15.535 7.2323Z" fill="#2D2E2C"/>
<path d="M6.28653 9.45387C5.07237 8.98887 3.75487 8.65304 3.75487 7.64554C3.75487 6.84471 4.34903 6.3022 5.12403 6.3022H5.45987C6.20903 6.3022 6.7257 6.66387 7.0357 7.43887C7.1132 7.64554 7.24237 7.67137 7.37153 7.61971L9.56737 6.50888C9.69653 6.43138 9.77404 6.19887 9.64487 5.96637C9.46404 5.63054 9.25737 5.2947 8.9732 5.01054C8.1982 4.15804 7.08737 3.51221 5.45987 3.51221H5.12403C2.35987 3.51221 0.629034 5.16554 0.629034 7.67138C0.629034 10.2289 2.28237 11.1847 4.3232 12.0114C5.66653 12.5539 6.8032 12.838 6.8032 13.9489C6.8032 14.853 6.1057 15.2664 5.30487 15.2664H4.76237C4.0132 15.2664 3.49653 14.9047 3.18653 14.1297C3.10903 13.923 2.97987 13.8972 2.8507 13.9489L0.654867 15.0597C0.525701 15.1372 0.4482 15.3697 0.577367 15.6022C0.784034 15.9639 1.01653 16.2997 1.3007 16.6355C2.04987 17.488 3.1607 18.0564 4.73653 18.0564H5.43403C8.24987 18.0564 9.9032 16.4289 9.9032 13.923C9.9032 11.3139 8.37903 10.2805 6.28653 9.45387Z" fill="#2D2E2C"/>
</g>
<defs>
<linearGradient id="paint0_linear_30608_48924" x1="148.533" y1="2.87506" x2="148.533" y2="13.3219" gradientUnits="userSpaceOnUse">
<stop stop-color="#F2C069"/>
<stop offset="1" stop-color="#EB8F3B"/>
</linearGradient>
<clipPath id="clip0_30608_48924">
<rect width="155" height="17.3083" fill="white" transform="translate(0.5 0.902954)"/>
</clipPath>
</defs>
</svg>
